<svg width="204" height="204" viewBox="0 0 204 204" fill="none" xmlns="http://www.w3.org/2000/svg">
<g opacity="0.7">
<g opacity="0.7">
<g opacity="0.7">
<path opacity="0.7" d="M105.926 5.43939C101.697 5.51748 97.5882 6.46657 93.3594 6.52063C95.2936 5.77577 97.2759 5.15106 99.2942 4.64648C97.3239 4.62245 95.4318 4.35214 93.8399 3.80551C98.4833 3.43308 103.055 3.22885 107.662 3.93166C108.19 4.00374 106.034 5.33727 105.926 5.43939Z" fill="#63A8DB"/>
<path opacity="0.7" d="M118.545 3.17485C122.9 4.14196 127.388 5.77583 130.823 9.09164C131.346 9.59622 131.905 10.1008 132.355 10.6654C132.734 11.146 133.286 11.8188 133.016 12.3534C132.674 13.0322 131.797 12.864 131.1 12.8099C130.157 12.7318 129.226 12.6057 128.307 12.4555C126.378 12.1371 124.498 11.6866 122.654 11.188C120.996 10.7375 119.344 10.245 117.74 9.69233C112.581 7.92029 107.451 5.69774 101.984 4.80272C104.291 4.2621 106.315 3.37908 108.73 3.0487C111.914 2.60419 115.416 2.48406 118.545 3.17485Z" fill="#85D9F7"/>
<path opacity="0.7" d="M111.586 4.98291C116.217 7.60792 121.473 8.31073 126.639 9.12767C124.345 7.97434 122.272 6.6288 119.785 5.86592C118.41 5.43943 116.992 5.1511 115.568 5.00694C114.806 4.93486 112.145 5.30728 111.586 4.98291Z" fill="#63A8DB"/>
<path opacity="0.7" d="M124.309 2.00949C123.258 0.928254 121.606 0.219442 120.008 0.171387C120.062 0.171387 120.963 1.62505 121.077 1.77523C121.504 2.32185 121.984 2.84445 122.495 3.33702C122.969 3.78753 123.306 4.09388 123.648 4.60447C124.141 5.3313 125.444 6.32845 125.6 5.03697C125.726 4.05784 125.108 2.83244 124.309 2.00949Z" fill="#63A8DB"/>
<path opacity="0.7" d="M121.036 12.732C122.309 12.7921 125.559 10.9119 122.808 10.6416C122.411 10.5996 118.603 11.2423 118.555 11.1522C119.023 12.0593 120.002 12.684 121.036 12.732Z" fill="#63A8DB"/>
<path opacity="0.7" d="M129.472 12.5036C129.34 12.6598 128.841 12.7379 128.667 12.7259C128.427 12.7018 127.688 12.6177 127.754 12.2453C127.772 12.1432 127.862 12.0711 127.97 12.0471C128.073 12.023 128.187 12.0351 128.301 12.0471C128.511 12.0711 128.721 12.0951 128.932 12.1192C129.046 12.1312 129.166 12.1492 129.274 12.2033C129.502 12.3174 129.538 12.4195 129.472 12.5036Z" fill="white"/>
<path opacity="0.7" d="M129.185 12.3957C128.956 12.3476 128.428 12.3296 128.56 12.5999C128.704 12.8882 129.611 12.8222 129.455 12.5458C129.413 12.4678 129.323 12.4317 129.233 12.4077C129.221 12.4077 129.203 12.4017 129.185 12.3957Z" fill="#63A8DB"/>
<path opacity="0.7" d="M131.067 9.50575C131.121 9.30752 130.875 8.83298 130.749 8.69482C130.569 8.5026 129.998 7.93195 129.734 8.20226C129.662 8.27434 129.668 8.39448 129.716 8.49659C129.764 8.59871 129.848 8.68281 129.932 8.76691C130.088 8.92909 130.244 9.09128 130.401 9.25346C130.485 9.34357 130.575 9.43367 130.683 9.49374C130.929 9.6319 131.037 9.60787 131.067 9.50575Z" fill="white"/>
<path opacity="0.7" d="M130.796 9.31974C130.616 9.15154 130.256 8.71304 130.568 8.67099C130.905 8.62894 131.427 9.45189 131.091 9.4639C131.001 9.46991 130.911 9.40984 130.839 9.34977C130.826 9.34377 130.808 9.33175 130.796 9.31974Z" fill="#63A8DB"/>
</g>
</g>
<g opacity="0.7">
<g opacity="0.7">
<path opacity="0.7" d="M57.3963 16.9612C53.7742 19.1417 50.6926 22.019 47.0525 24.1815C48.356 22.5656 49.7616 21.0339 51.2513 19.5862C49.5333 20.5533 47.7613 21.2621 46.1094 21.5805C49.9478 18.9375 53.8042 16.4686 58.1412 14.7747C58.6398 14.5885 57.4384 16.823 57.3963 16.9612Z" fill="#63A8DB"/>
<path opacity="0.7" d="M67.1898 8.69555C71.4487 7.35601 76.146 6.52706 80.7834 7.68038C81.4922 7.85458 82.225 8.01076 82.8978 8.27507C83.4684 8.50333 84.2794 8.80367 84.3154 9.41037C84.3575 10.1672 83.5165 10.4616 82.8798 10.7619C82.0268 11.1644 81.1558 11.5248 80.2788 11.8492C78.4467 12.5339 76.5966 13.0866 74.7464 13.5792C73.0885 14.0177 71.4066 14.4201 69.7427 14.7445C64.3846 15.7897 58.8342 16.4324 53.6562 18.3847C55.3802 16.7628 56.6957 14.9848 58.6239 13.489C61.1649 11.5188 64.1323 9.65665 67.1898 8.69555Z" fill="#85D9F7"/>
<path opacity="0.7" d="M62.0703 13.7412C67.3924 13.6991 72.294 11.6808 77.1776 9.80664C74.6127 9.95681 72.1499 9.82466 69.615 10.4073C68.2094 10.7257 66.8398 11.1882 65.5303 11.7769C64.8335 12.0893 62.713 13.7412 62.0703 13.7412Z" fill="#63A8DB"/>
<path opacity="0.7" d="M71.6043 4.80307C70.1506 4.3946 68.3665 4.60484 66.9609 5.36171C67.003 5.33768 68.5107 6.1426 68.6909 6.21468C69.3337 6.47298 70.0064 6.68923 70.7032 6.85742C71.34 7.0136 71.7845 7.10971 72.3371 7.37402C73.13 7.75846 74.7579 7.9687 74.2473 6.77333C73.8508 5.86629 72.7035 5.11542 71.6043 4.80307Z" fill="#63A8DB"/>
<path opacity="0.7" d="M74.1327 15.7235C75.262 15.1408 77.1361 11.8851 74.6192 13.0264C74.2588 13.1886 71.2794 15.6514 71.1953 15.5913C72.0483 16.15 73.2136 16.198 74.1327 15.7235Z" fill="#63A8DB"/>
<path opacity="0.7" d="M81.3137 11.3084C81.2777 11.5066 80.8872 11.831 80.7251 11.903C80.5028 12.0052 79.824 12.2995 79.6919 11.9451C79.6558 11.849 79.7039 11.7409 79.782 11.6688C79.8601 11.5967 79.9622 11.5486 80.0643 11.5006C80.2565 11.4165 80.4547 11.3324 80.647 11.2483C80.7551 11.2002 80.8632 11.1582 80.9833 11.1522C81.2537 11.1342 81.3317 11.2062 81.3137 11.3084Z" fill="white"/>
<path opacity="0.7" d="M81.0189 11.3625C80.7967 11.4406 80.3281 11.6869 80.5804 11.8491C80.8447 12.0293 81.6016 11.5187 81.3313 11.3565C81.2592 11.3145 81.1571 11.3205 81.073 11.3445C81.049 11.3505 81.037 11.3565 81.0189 11.3625Z" fill="#63A8DB"/>
<path opacity="0.7" d="M81.2019 7.92061C81.1478 7.72238 80.6973 7.43406 80.5171 7.38C80.2648 7.30191 79.4839 7.09166 79.3878 7.46409C79.3638 7.56621 79.4298 7.66232 79.5199 7.72839C79.61 7.79447 79.7302 7.8245 79.8443 7.85454C80.0606 7.9146 80.2768 7.97468 80.4931 8.04075C80.6132 8.07679 80.7333 8.11284 80.8595 8.10683C81.1478 8.09481 81.2259 8.02273 81.2019 7.92061Z" fill="white"/>
<path opacity="0.7" d="M80.8782 7.88474C80.632 7.83067 80.1033 7.63245 80.3556 7.44023C80.6259 7.23599 81.4909 7.68651 81.2086 7.86672C81.1305 7.91477 81.0284 7.91477 80.9323 7.89675C80.9143 7.89675 80.8963 7.89074 80.8782 7.88474Z" fill="#63A8DB"/>
</g>
</g>
<g opacity="0.7">
<g opacity="0.7">
<path opacity="0.7" d="M20.8746 50.8579C18.8263 54.5582 17.5949 58.5888 15.5285 62.2831C15.8529 60.2347 16.2974 58.2044 16.868 56.2041C15.8589 57.898 14.6815 59.3997 13.4141 60.505C15.4144 56.2942 17.5228 52.2335 20.4361 48.5933C20.7665 48.1789 20.8386 50.7138 20.8746 50.8579Z" fill="#63A8DB"/>
<path opacity="0.7" d="M25.2234 38.8022C28.2389 35.5165 31.8971 32.447 36.4864 31.1254C37.1892 30.9212 37.898 30.693 38.6188 30.5848C39.2255 30.4947 40.0845 30.3506 40.4089 30.8611C40.8233 31.4979 40.2407 32.1767 39.8442 32.7473C39.3036 33.5222 38.7329 34.2671 38.1383 34.9879C36.8948 36.4956 35.5673 37.9012 34.2098 39.2468C32.9904 40.4541 31.7409 41.6435 30.4615 42.7548C26.3467 46.3349 21.8596 49.6687 18.3516 53.9516C19.0363 51.681 19.2826 49.4885 20.2077 47.2299C21.4151 44.2565 23.061 41.163 25.2234 38.8022Z" fill="#85D9F7"/>
<path opacity="0.7" d="M23.3125 45.7343C27.9018 43.0372 31.1395 38.8384 34.4313 34.7717C32.2868 36.1833 30.0883 37.3006 28.1781 39.0727C27.1209 40.0518 26.1658 41.133 25.3248 42.2984C24.8803 42.9171 23.8651 45.4099 23.3125 45.7343Z" fill="#63A8DB"/>
<path opacity="0.7" d="M27.1017 33.2279C25.636 33.6004 24.2003 34.6696 23.3594 36.0331C23.3834 35.9911 25.0954 35.931 25.2816 35.907C25.9664 35.8109 26.6572 35.6607 27.3419 35.4565C27.9727 35.2703 28.3992 35.1321 29.0179 35.0901C29.8949 35.024 31.4086 34.3933 30.3694 33.6124C29.5825 33.0177 28.2129 32.9456 27.1017 33.2279Z" fill="#63A8DB"/>
<path opacity="0.7" d="M34.7476 41.4211C35.4324 40.3459 35.4324 36.5976 33.8226 38.8441C33.5883 39.1685 32.2427 42.7847 32.1406 42.7786C33.1618 42.8267 34.195 42.2861 34.7476 41.4211Z" fill="#63A8DB"/>
<path opacity="0.7" d="M38.7626 33.9965C38.8347 34.1888 38.6545 34.6633 38.5524 34.8015C38.4142 34.9997 37.9697 35.5944 37.6814 35.3541C37.6033 35.288 37.5853 35.1739 37.6153 35.0718C37.6453 34.9697 37.7114 34.8736 37.7775 34.7895C37.9036 34.6213 38.0298 34.4471 38.1559 34.2789C38.228 34.1888 38.3001 34.0927 38.3962 34.0266C38.6184 33.8764 38.7266 33.9004 38.7626 33.9965Z" fill="white"/>
<path opacity="0.7" d="M38.5337 34.195C38.3775 34.3692 38.1012 34.8197 38.3955 34.8377C38.7139 34.8618 39.1163 34.0388 38.798 34.0388C38.7139 34.0388 38.6298 34.0989 38.5697 34.159C38.5577 34.171 38.5457 34.183 38.5337 34.195Z" fill="#63A8DB"/>
<path opacity="0.7" d="M36.9675 31.1255C36.8233 30.9813 36.2887 30.9573 36.1025 30.9993C35.8442 31.0534 35.0633 31.2696 35.1654 31.636C35.1954 31.7322 35.3036 31.7922 35.4117 31.7982C35.5258 31.8042 35.64 31.7742 35.7541 31.7442C35.9703 31.6901 36.1926 31.636 36.4088 31.582C36.529 31.5519 36.6491 31.5219 36.7572 31.4558C37.0095 31.3057 37.0395 31.1975 36.9675 31.1255Z" fill="white"/>
<path opacity="0.7" d="M36.6755 31.2576C36.4352 31.3297 35.8765 31.4258 36.0027 31.1315C36.1348 30.8191 37.1079 30.7771 36.9518 31.0714C36.9097 31.1495 36.8136 31.2036 36.7295 31.2336C36.7115 31.2456 36.6935 31.2516 36.6755 31.2576Z" fill="#63A8DB"/>
</g>
</g>
<g opacity="0.7">
<g opacity="0.7">
<path opacity="0.7" d="M5.44329 98.0593C5.52138 102.288 6.47047 106.397 6.52454 110.626C5.77968 108.691 5.15496 106.709 4.65038 104.691C4.62636 106.661 4.35604 108.553 3.80942 110.145C3.43699 105.502 3.23276 100.931 3.93556 96.3233C4.00764 95.7947 5.34118 97.9511 5.44329 98.0593Z" fill="#63A8DB"/>
<path opacity="0.7" d="M3.17632 85.4392C4.14343 81.0842 5.7773 76.597 9.0931 73.1611C9.59768 72.6385 10.1023 72.0798 10.6669 71.6293C11.1475 71.2509 11.8202 70.6983 12.3548 70.9686C13.0336 71.311 12.8654 72.188 12.8114 72.8848C12.7333 73.8278 12.6071 74.7589 12.457 75.678C12.1386 77.6062 11.6881 79.4863 11.1895 81.3305C10.739 82.9884 10.2464 84.6403 9.69379 86.2441C7.92176 91.404 5.69921 96.5339 4.80418 102C4.26356 99.6935 3.38055 97.6692 3.05017 95.2544C2.60566 92.0708 2.48552 88.5688 3.17632 85.4392Z" fill="#85D9F7"/>
<path opacity="0.7" d="M4.98438 92.4012C7.60939 87.7699 8.31219 82.5138 9.12913 77.3479C7.97581 79.6425 6.63026 81.7149 5.86739 84.2018C5.4409 85.5773 5.15257 86.995 5.0084 88.4186C4.93632 89.1815 5.30875 91.8425 4.98438 92.4012Z" fill="#63A8DB"/>
<path opacity="0.7" d="M2.00998 79.6782C0.928742 80.7294 0.21993 82.3813 0.171875 83.9792C0.171875 83.9251 1.62554 83.0241 1.77571 82.9099C2.32234 82.4834 2.84494 82.0029 3.3375 81.4923C3.78802 81.0178 4.09437 80.6814 4.60496 80.339C5.33179 79.8464 6.32894 78.5429 5.03746 78.3867C4.05833 78.2606 2.83293 78.8793 2.00998 79.6782Z" fill="#63A8DB"/>
<path opacity="0.7" d="M12.733 82.9466C12.7931 81.6732 10.9129 78.4234 10.6426 81.1746C10.6006 81.571 11.2433 85.3794 11.1532 85.4275C12.0602 84.9589 12.6849 83.9798 12.733 82.9466Z" fill="#63A8DB"/>
<path opacity="0.7" d="M12.5016 74.5127C12.6578 74.6448 12.7359 75.1434 12.7239 75.3176C12.6999 75.5579 12.6158 76.2967 12.2434 76.2307C12.1412 76.2126 12.0691 76.1225 12.0451 76.0144C12.0211 75.9123 12.0331 75.7982 12.0451 75.684C12.0691 75.4738 12.0932 75.2635 12.1172 75.0533C12.1292 74.9392 12.1472 74.819 12.2013 74.7109C12.3154 74.4826 12.4176 74.4466 12.5016 74.5127Z" fill="white"/>
<path opacity="0.7" d="M12.3957 74.8013C12.3476 75.0295 12.3296 75.5581 12.5999 75.426C12.8882 75.2818 12.8222 74.3748 12.5458 74.5309C12.4678 74.573 12.4317 74.6631 12.4077 74.7532C12.4077 74.7652 12.4017 74.7832 12.3957 74.8013Z" fill="#63A8DB"/>
<path opacity="0.7" d="M9.5077 72.921C9.30948 72.8669 8.83493 73.1132 8.69678 73.2393C8.50455 73.4195 7.9339 73.9902 8.20421 74.2545C8.27629 74.3266 8.39643 74.3206 8.49855 74.2725C8.60066 74.2245 8.68476 74.1404 8.76886 74.0563C8.93105 73.9001 9.09323 73.7439 9.25542 73.5877C9.34552 73.5036 9.43562 73.4135 9.49569 73.3054C9.63385 73.0591 9.60982 72.951 9.5077 72.921Z" fill="white"/>
<path opacity="0.7" d="M9.32218 73.1853C9.15399 73.3655 8.71548 73.726 8.67343 73.4136C8.63138 73.0772 9.45433 72.5546 9.46634 72.891C9.47235 72.9811 9.41228 73.0712 9.35221 73.1433C9.34621 73.1553 9.33419 73.1733 9.32218 73.1853Z" fill="#63A8DB"/>
</g>
</g>
<g opacity="0.7">
<g opacity="0.7">
<path opacity="0.7" d="M16.9631 146.608C19.1436 150.23 22.0209 153.311 24.1834 156.952C22.5676 155.648 21.0358 154.242 19.5882 152.753C20.5553 154.471 21.2641 156.243 21.5824 157.895C18.9394 154.056 16.4706 150.2 14.7766 145.863C14.5904 145.364 16.825 146.566 16.9631 146.608Z" fill="#63A8DB"/>
<path opacity="0.7" d="M8.70287 136.811C7.36333 132.552 6.53439 127.854 7.68771 123.217C7.86191 122.508 8.01809 121.775 8.28239 121.102C8.51065 120.532 8.811 119.721 9.41769 119.685C10.1746 119.643 10.4689 120.484 10.7692 121.121C11.1717 121.973 11.5321 122.844 11.8565 123.721C12.5413 125.554 13.0939 127.404 13.5865 129.254C14.025 130.912 14.4274 132.594 14.7518 134.258C15.797 139.616 16.4397 145.166 18.392 150.344C16.7701 148.62 14.9921 147.305 13.4964 145.376C11.5261 142.835 9.66397 139.868 8.70287 136.811Z" fill="#85D9F7"/>
<path opacity="0.7" d="M13.747 141.935C13.705 136.613 11.6866 131.711 9.8125 126.827C9.96267 129.392 9.83052 131.855 10.4132 134.39C10.7316 135.796 11.1941 137.165 11.7828 138.475C12.0951 139.172 13.747 141.292 13.747 141.935Z" fill="#63A8DB"/>
<path opacity="0.7" d="M4.80648 132.401C4.39802 133.855 4.60826 135.639 5.36513 137.045C5.3411 137.002 6.14602 135.495 6.2181 135.315C6.4764 134.672 6.69265 133.999 6.86084 133.302C7.01702 132.665 7.11313 132.221 7.37743 131.668C7.76187 130.875 7.97212 129.248 6.77674 129.758C5.8697 130.155 5.11884 131.302 4.80648 132.401Z" fill="#63A8DB"/>
<path opacity="0.7" d="M15.7269 129.873C15.1442 128.744 11.8885 126.869 13.0298 129.386C13.192 129.747 15.6548 132.726 15.5947 132.81C16.1534 131.957 16.2014 130.792 15.7269 129.873Z" fill="#63A8DB"/>
<path opacity="0.7" d="M11.3152 122.688C11.5134 122.724 11.8378 123.115 11.9099 123.277C12.012 123.499 12.3063 124.178 11.9519 124.31C11.8558 124.346 11.7477 124.298 11.6756 124.22C11.6035 124.142 11.5555 124.04 11.5074 123.938C11.4233 123.745 11.3392 123.547 11.2551 123.355C11.2071 123.247 11.165 123.139 11.159 123.019C11.141 122.748 11.2131 122.67 11.3152 122.688Z" fill="white"/>
<path opacity="0.7" d="M11.365 122.983C11.4431 123.205 11.6893 123.674 11.8515 123.421C12.0317 123.157 11.5211 122.4 11.359 122.67C11.3169 122.743 11.3229 122.845 11.3469 122.929C11.353 122.953 11.359 122.965 11.365 122.983Z" fill="#63A8DB"/>
<path opacity="0.7" d="M7.92842 122.803C7.7302 122.857 7.44187 123.307 7.38781 123.487C7.30972 123.74 7.09948 124.521 7.4719 124.617C7.57402 124.641 7.67013 124.575 7.7362 124.485C7.79627 124.394 7.83231 124.274 7.86235 124.16C7.92242 123.944 7.98249 123.728 8.04857 123.511C8.08461 123.391 8.12065 123.271 8.11464 123.145C8.10263 122.857 8.03054 122.779 7.92842 122.803Z" fill="white"/>
<path opacity="0.7" d="M7.88718 123.127C7.83311 123.373 7.63489 123.902 7.44267 123.649C7.23843 123.379 7.68895 122.514 7.86916 122.796C7.91721 122.874 7.91721 122.977 7.89919 123.073C7.89919 123.091 7.89318 123.109 7.88718 123.127Z" fill="#63A8DB"/>
</g>
</g>
<g opacity="0.7">
<g opacity="0.7">
<path opacity="0.7" d="M50.865 183.129C54.5653 185.178 58.5959 186.409 62.2901 188.475C60.2418 188.151 58.2115 187.706 56.2112 187.136C57.9051 188.145 59.4068 189.322 60.5121 190.59C56.3013 188.589 52.2406 186.481 48.6004 183.568C48.186 183.237 50.7209 183.165 50.865 183.129Z" fill="#63A8DB"/>
<path opacity="0.7" d="M38.8074 178.78C35.5216 175.765 32.4521 172.107 31.1306 167.517C30.9263 166.815 30.6981 166.106 30.59 165.385C30.4999 164.778 30.3557 163.919 30.8663 163.595C31.503 163.18 32.1818 163.763 32.7524 164.16C33.5273 164.7 34.2722 165.271 34.993 165.865C36.5007 167.109 37.9063 168.436 39.2519 169.794C40.4593 171.013 41.6486 172.263 42.7599 173.542C46.34 177.657 49.6738 182.144 53.9568 185.652C51.6862 184.967 49.4936 184.721 47.2351 183.796C44.2616 182.589 41.1681 180.943 38.8074 178.78Z" fill="#85D9F7"/>
<path opacity="0.7" d="M45.736 180.69C43.0389 176.101 38.8401 172.869 34.7734 169.572C36.1851 171.716 37.3023 173.915 39.0744 175.825C40.0535 176.882 41.1347 177.837 42.3001 178.678C42.9188 179.122 45.4116 180.138 45.736 180.69Z" fill="#63A8DB"/>
<path opacity="0.7" d="M33.2296 176.906C33.6021 178.372 34.6713 179.808 36.0349 180.649C35.9928 180.625 35.9327 178.913 35.9087 178.726C35.8126 178.042 35.6624 177.351 35.4582 176.666C35.272 176.035 35.1338 175.609 35.0918 174.99C35.0257 174.113 34.395 172.599 33.6141 173.639C33.0194 174.425 32.9473 175.795 33.2296 176.906Z" fill="#63A8DB"/>
<path opacity="0.7" d="M41.4223 169.259C40.3471 168.575 36.5988 168.575 38.8454 170.184C39.1697 170.419 42.7859 171.764 42.7799 171.866C42.8279 170.845 42.2873 169.812 41.4223 169.259Z" fill="#63A8DB"/>
<path opacity="0.7" d="M33.9992 165.24C34.1914 165.168 34.666 165.349 34.8042 165.451C35.0024 165.589 35.5971 166.033 35.3568 166.322C35.2907 166.4 35.1766 166.418 35.0745 166.388C34.9723 166.358 34.8762 166.292 34.7921 166.226C34.6239 166.099 34.4497 165.973 34.2816 165.847C34.1914 165.775 34.0953 165.703 34.0293 165.607C33.8791 165.385 33.9031 165.276 33.9992 165.24Z" fill="white"/>
<path opacity="0.7" d="M34.2031 165.469C34.3773 165.625 34.8278 165.901 34.8458 165.607C34.8698 165.289 34.0469 164.886 34.0469 165.204C34.0469 165.289 34.1069 165.373 34.167 165.433C34.179 165.445 34.191 165.457 34.2031 165.469Z" fill="#63A8DB"/>
<path opacity="0.7" d="M31.1291 167.037C30.9849 167.181 30.9609 167.716 31.003 167.902C31.057 168.16 31.2733 168.941 31.6397 168.839C31.7358 168.809 31.7959 168.701 31.8019 168.593C31.8079 168.478 31.7779 168.364 31.7478 168.25C31.6938 168.034 31.6337 167.812 31.5856 167.595C31.5556 167.475 31.5256 167.355 31.4595 167.247C31.3093 166.995 31.2012 166.965 31.1291 167.037Z" fill="white"/>
<path opacity="0.7" d="M31.2603 167.331C31.3324 167.571 31.4285 168.13 31.1342 168.004C30.8218 167.872 30.7797 166.899 31.0741 167.055C31.1522 167.097 31.2062 167.193 31.2363 167.277C31.2483 167.295 31.2543 167.313 31.2603 167.331Z" fill="#63A8DB"/>
</g>
</g>
<g opacity="0.7">
<g opacity="0.7">
<path opacity="0.7" d="M98.0615 198.561C102.29 198.483 106.399 197.534 110.628 197.48C108.694 198.225 106.711 198.85 104.693 199.354C106.663 199.378 108.555 199.648 110.147 200.195C105.504 200.568 100.933 200.772 96.3255 200.069C95.7969 199.997 97.9533 198.663 98.0615 198.561Z" fill="#63A8DB"/>
<path opacity="0.7" d="M85.4409 200.826C81.0859 199.859 76.5987 198.225 73.1628 194.909C72.6402 194.405 72.0816 193.9 71.631 193.335C71.2526 192.855 70.7 192.182 70.9703 191.647C71.3127 190.969 72.1897 191.137 72.8865 191.191C73.8296 191.269 74.7606 191.395 75.6797 191.545C77.6079 191.864 79.488 192.314 81.3322 192.813C82.9901 193.263 84.642 193.756 86.2458 194.308C91.4057 196.081 96.5356 198.303 102.002 199.198C99.6952 199.739 97.6709 200.622 95.2561 200.952C92.0725 201.397 88.5705 201.517 85.4409 200.826Z" fill="#85D9F7"/>
<path opacity="0.7" d="M92.4048 199.018C87.7735 196.393 82.5175 195.69 77.3516 194.873C79.6462 196.026 81.7186 197.372 84.2054 198.135C85.581 198.561 86.9986 198.849 88.4223 198.994C89.1851 199.066 91.8462 198.693 92.4048 199.018Z" fill="#63A8DB"/>
<path opacity="0.7" d="M79.6829 201.992C80.7341 203.073 82.386 203.782 83.9838 203.83C83.9297 203.83 83.0287 202.376 82.9146 202.226C82.4881 201.679 82.0135 201.157 81.4969 200.664C81.0224 200.213 80.686 199.907 80.3436 199.397C79.8511 198.67 78.5476 197.673 78.3914 198.964C78.2652 199.943 78.8839 201.169 79.6829 201.992Z" fill="#63A8DB"/>
<path opacity="0.7" d="M82.9483 191.269C81.6749 191.209 78.4251 193.089 81.1763 193.359C81.5727 193.401 85.3811 192.758 85.4292 192.849C84.9606 191.942 83.9815 191.317 82.9483 191.269Z" fill="#63A8DB"/>
<path opacity="0.7" d="M74.5139 191.497C74.6461 191.341 75.1446 191.263 75.3188 191.275C75.5591 191.299 76.2979 191.383 76.2319 191.755C76.2139 191.858 76.1237 191.93 76.0156 191.954C75.9135 191.978 75.7994 191.966 75.6852 191.954C75.475 191.93 75.2648 191.906 75.0545 191.882C74.9404 191.87 74.8203 191.852 74.7121 191.797C74.4839 191.683 74.4478 191.581 74.5139 191.497Z" fill="white"/>
<path opacity="0.7" d="M74.8039 191.605C75.0322 191.653 75.5608 191.671 75.4287 191.401C75.2845 191.112 74.3775 191.178 74.5336 191.455C74.5757 191.533 74.6658 191.569 74.7559 191.593C74.7679 191.593 74.7859 191.599 74.8039 191.605Z" fill="#63A8DB"/>
<path opacity="0.7" d="M72.9217 194.494C72.8676 194.692 73.1139 195.167 73.2401 195.305C73.4203 195.497 73.9909 196.068 74.2552 195.798C74.3273 195.725 74.3213 195.605 74.2733 195.503C74.2252 195.401 74.1411 195.317 74.057 195.233C73.9008 195.071 73.7446 194.909 73.5885 194.746C73.5044 194.656 73.4143 194.566 73.3061 194.506C73.0599 194.368 72.9517 194.392 72.9217 194.494Z" fill="white"/>
<path opacity="0.7" d="M73.1841 194.681C73.3643 194.849 73.7247 195.288 73.4124 195.33C73.076 195.372 72.5534 194.549 72.8898 194.537C72.9799 194.531 73.07 194.591 73.1421 194.651C73.1541 194.657 73.1721 194.669 73.1841 194.681Z" fill="#63A8DB"/>
</g>
</g>
<g opacity="0.7">
<g opacity="0.7">
<path opacity="0.7" d="M146.616 187.04C150.238 184.86 153.319 181.982 156.96 179.82C155.656 181.436 154.251 182.967 152.761 184.415C154.479 183.448 156.251 182.739 157.903 182.421C154.064 185.064 150.208 187.533 145.871 189.227C145.372 189.413 146.574 187.178 146.616 187.04Z" fill="#63A8DB"/>
<path opacity="0.7" d="M136.815 195.305C132.556 196.645 127.858 197.474 123.221 196.32C122.512 196.146 121.779 195.99 121.107 195.726C120.536 195.498 119.725 195.197 119.689 194.591C119.647 193.834 120.488 193.539 121.125 193.239C121.978 192.836 122.849 192.476 123.726 192.152C125.558 191.467 127.408 190.914 129.258 190.422C130.916 189.983 132.598 189.581 134.262 189.256C139.62 188.211 145.17 187.568 150.348 185.616C148.624 187.238 147.309 189.016 145.38 190.512C142.84 192.482 139.872 194.344 136.815 195.305Z" fill="#85D9F7"/>
<path opacity="0.7" d="M141.935 190.26C136.613 190.302 131.712 192.32 126.828 194.194C129.393 194.044 131.856 194.176 134.391 193.594C135.796 193.275 137.166 192.813 138.475 192.224C139.172 191.912 141.293 190.26 141.935 190.26Z" fill="#63A8DB"/>
<path opacity="0.7" d="M132.404 199.198C133.858 199.607 135.642 199.396 137.048 198.639C137 198.663 135.498 197.859 135.318 197.786C134.675 197.528 134.002 197.312 133.305 197.144C132.669 196.988 132.224 196.891 131.672 196.627C130.879 196.243 129.251 196.032 129.761 197.228C130.158 198.135 131.305 198.886 132.404 199.198Z" fill="#63A8DB"/>
<path opacity="0.7" d="M129.878 188.277C128.749 188.86 126.874 192.116 129.391 190.975C129.752 190.812 132.731 188.35 132.815 188.41C131.962 187.851 130.797 187.803 129.878 188.277Z" fill="#63A8DB"/>
<path opacity="0.7" d="M122.69 192.693C122.726 192.495 123.116 192.17 123.279 192.098C123.501 191.996 124.18 191.702 124.312 192.056C124.348 192.152 124.3 192.26 124.222 192.332C124.144 192.404 124.042 192.452 123.939 192.501C123.747 192.585 123.549 192.669 123.357 192.753C123.249 192.801 123.14 192.843 123.02 192.849C122.75 192.867 122.672 192.795 122.69 192.693Z" fill="white"/>
<path opacity="0.7" d="M122.987 192.639C123.209 192.561 123.672 192.314 123.425 192.152C123.161 191.972 122.404 192.483 122.675 192.645C122.747 192.687 122.849 192.681 122.933 192.657C122.957 192.651 122.969 192.645 122.987 192.639Z" fill="#63A8DB"/>
<path opacity="0.7" d="M122.809 196.08C122.863 196.279 123.313 196.567 123.494 196.621C123.746 196.699 124.527 196.909 124.623 196.537C124.647 196.435 124.581 196.339 124.491 196.273C124.401 196.213 124.28 196.177 124.166 196.147C123.95 196.086 123.734 196.026 123.518 195.96C123.397 195.924 123.277 195.888 123.151 195.894C122.863 195.906 122.785 195.978 122.809 196.08Z" fill="white"/>
<path opacity="0.7" d="M123.136 196.116C123.383 196.17 123.911 196.369 123.659 196.561C123.389 196.765 122.524 196.315 122.806 196.134C122.884 196.086 122.986 196.086 123.082 196.104C123.1 196.104 123.118 196.11 123.136 196.116Z" fill="#63A8DB"/>
</g>
</g>
<g opacity="0.7">
<g opacity="0.7">
<path opacity="0.7" d="M183.141 153.143C185.189 149.443 186.42 145.412 188.487 141.718C188.162 143.766 187.718 145.796 187.147 147.797C188.156 146.103 189.334 144.601 190.601 143.496C188.601 147.707 186.492 151.767 183.579 155.407C183.249 155.822 183.177 153.287 183.141 153.143Z" fill="#63A8DB"/>
<path opacity="0.7" d="M178.789 165.199C175.773 168.484 172.115 171.554 167.526 172.876C166.823 173.08 166.114 173.308 165.393 173.416C164.787 173.506 163.928 173.65 163.603 173.14C163.189 172.503 163.772 171.824 164.168 171.254C164.709 170.479 165.279 169.734 165.874 169.013C167.117 167.505 168.445 166.1 169.803 164.754C171.022 163.547 172.271 162.357 173.551 161.246C177.666 157.666 182.153 154.332 185.661 150.049C184.976 152.32 184.73 154.512 183.805 156.771C182.597 159.744 180.951 162.838 178.789 165.199Z" fill="#85D9F7"/>
<path opacity="0.7" d="M180.697 158.267C176.108 160.964 172.87 165.163 169.578 169.229C171.723 167.818 173.921 166.7 175.831 164.928C176.889 163.949 177.844 162.868 178.685 161.703C179.129 161.084 180.144 158.591 180.697 158.267Z" fill="#63A8DB"/>
<path opacity="0.7" d="M176.916 170.773C178.381 170.401 179.817 169.331 180.658 167.968C180.634 168.01 178.922 168.07 178.736 168.094C178.051 168.19 177.36 168.34 176.676 168.544C176.045 168.731 175.618 168.869 175 168.911C174.123 168.977 172.609 169.608 173.648 170.389C174.435 170.983 175.805 171.055 176.916 170.773Z" fill="#63A8DB"/>
<path opacity="0.7" d="M169.27 162.58C168.585 163.655 168.585 167.403 170.195 165.157C170.429 164.832 171.775 161.216 171.877 161.222C170.856 161.174 169.822 161.715 169.27 162.58Z" fill="#63A8DB"/>
<path opacity="0.7" d="M165.251 170.004C165.179 169.812 165.359 169.337 165.461 169.199C165.599 169.001 166.044 168.406 166.332 168.647C166.41 168.713 166.428 168.827 166.398 168.929C166.368 169.031 166.302 169.127 166.236 169.211C166.11 169.379 165.984 169.554 165.858 169.722C165.786 169.812 165.713 169.908 165.617 169.974C165.395 170.124 165.287 170.1 165.251 170.004Z" fill="white"/>
<path opacity="0.7" d="M165.474 169.806C165.631 169.632 165.907 169.181 165.613 169.163C165.294 169.139 164.892 169.962 165.21 169.962C165.294 169.962 165.378 169.902 165.438 169.842C165.45 169.83 165.462 169.818 165.474 169.806Z" fill="#63A8DB"/>
<path opacity="0.7" d="M167.042 172.875C167.186 173.019 167.721 173.043 167.907 173.001C168.165 172.947 168.946 172.731 168.844 172.365C168.814 172.269 168.706 172.208 168.598 172.202C168.484 172.196 168.369 172.226 168.255 172.256C168.039 172.311 167.817 172.371 167.601 172.419C167.48 172.449 167.36 172.479 167.252 172.545C167 172.695 166.97 172.803 167.042 172.875Z" fill="white"/>
<path opacity="0.7" d="M167.34 172.743C167.58 172.671 168.139 172.575 168.013 172.869C167.881 173.182 166.908 173.224 167.064 172.929C167.106 172.851 167.202 172.797 167.286 172.767C167.304 172.755 167.322 172.749 167.34 172.743Z" fill="#63A8DB"/>
</g>
</g>
<g opacity="0.7">
<g opacity="0.7">
<path opacity="0.7" d="M198.57 105.941C198.491 101.712 197.542 97.6034 197.488 93.3745C198.233 95.3087 198.858 97.291 199.362 99.3093C199.386 97.3391 199.657 95.4469 200.203 93.8551C200.576 98.4984 200.78 103.07 200.077 107.677C200.005 108.206 198.672 106.049 198.57 105.941Z" fill="#63A8DB"/>
<path opacity="0.7" d="M200.83 118.561C199.863 122.916 198.229 127.404 194.913 130.84C194.409 131.362 193.904 131.921 193.34 132.371C192.859 132.75 192.186 133.302 191.652 133.032C190.973 132.69 191.141 131.813 191.195 131.116C191.273 130.173 191.399 129.242 191.549 128.323C191.868 126.394 192.318 124.514 192.817 122.67C193.267 121.012 193.76 119.36 194.313 117.757C196.085 112.597 198.307 107.467 199.202 102C199.743 104.307 200.626 106.331 200.956 108.746C201.401 111.93 201.521 115.432 200.83 118.561Z" fill="#85D9F7"/>
<path opacity="0.7" d="M199.024 111.599C196.399 116.23 195.696 121.486 194.879 126.652C196.032 124.358 197.378 122.285 198.141 119.799C198.567 118.423 198.855 117.005 199 115.582C199.072 114.819 198.699 112.158 199.024 111.599Z" fill="#63A8DB"/>
<path opacity="0.7" d="M201.992 124.322C203.073 123.271 203.782 121.619 203.83 120.021C203.83 120.075 202.376 120.976 202.226 121.09C201.68 121.517 201.157 121.991 200.664 122.508C200.214 122.982 199.908 123.319 199.397 123.661C198.67 124.154 197.673 125.457 198.965 125.613C199.944 125.74 201.169 125.121 201.992 124.322Z" fill="#63A8DB"/>
<path opacity="0.7" d="M191.279 121.054C191.219 122.328 193.099 125.577 193.369 122.82C193.411 122.424 192.768 118.615 192.859 118.567C191.952 119.042 191.327 120.021 191.279 121.054Z" fill="#63A8DB"/>
<path opacity="0.7" d="M191.501 129.488C191.345 129.356 191.267 128.857 191.279 128.683C191.303 128.443 191.387 127.704 191.759 127.77C191.861 127.788 191.933 127.878 191.957 127.986C191.981 128.088 191.969 128.203 191.957 128.317C191.933 128.527 191.909 128.737 191.885 128.947C191.873 129.062 191.855 129.182 191.801 129.29C191.687 129.518 191.585 129.554 191.501 129.488Z" fill="white"/>
<path opacity="0.7" d="M191.606 129.2C191.654 128.971 191.672 128.443 191.402 128.575C191.114 128.719 191.18 129.626 191.456 129.47C191.534 129.428 191.57 129.338 191.594 129.248C191.594 129.236 191.6 129.218 191.606 129.2Z" fill="#63A8DB"/>
<path opacity="0.7" d="M194.502 131.08C194.7 131.134 195.175 130.888 195.313 130.761C195.505 130.581 196.076 130.011 195.806 129.746C195.734 129.674 195.613 129.68 195.511 129.728C195.409 129.776 195.325 129.86 195.241 129.945C195.079 130.101 194.917 130.257 194.754 130.413C194.664 130.497 194.574 130.587 194.514 130.695C194.376 130.942 194.4 131.05 194.502 131.08Z" fill="white"/>
<path opacity="0.7" d="M194.688 130.816C194.856 130.636 195.294 130.275 195.336 130.587C195.378 130.924 194.555 131.446 194.543 131.11C194.537 131.02 194.597 130.93 194.658 130.858C194.664 130.846 194.676 130.828 194.688 130.816Z" fill="#63A8DB"/>
</g>
</g>
<g opacity="0.7">
<g opacity="0.7">
<path opacity="0.7" d="M187.045 57.3939C184.864 53.7717 181.987 50.6902 179.824 47.05C181.44 48.3535 182.972 49.7591 184.42 51.2488C183.452 49.5309 182.744 47.7588 182.425 46.1069C185.068 49.9453 187.537 53.8018 189.231 58.1387C189.417 58.6373 187.183 57.4359 187.045 57.3939Z" fill="#63A8DB"/>
<path opacity="0.7" d="M195.31 67.1912C196.65 71.4501 197.479 76.1475 196.325 80.7848C196.151 81.4936 195.995 82.2265 195.731 82.8993C195.502 83.4699 195.202 84.2808 194.595 84.3169C193.839 84.3589 193.544 83.518 193.244 82.8812C192.841 82.0283 192.481 81.1573 192.157 80.2802C191.472 78.4481 190.919 76.598 190.427 74.7479C189.988 73.09 189.586 71.4081 189.261 69.7442C188.216 64.386 187.573 58.8357 185.621 53.6577C187.243 55.3817 189.021 56.6972 190.517 58.6254C192.487 61.1663 194.349 64.1337 195.31 67.1912Z" fill="#85D9F7"/>
<path opacity="0.7" d="M190.262 62.0674C190.304 67.3895 192.322 72.2911 194.196 77.1747C194.046 74.6098 194.178 72.1469 193.596 69.612C193.277 68.2064 192.815 66.8369 192.226 65.5273C191.914 64.8305 190.262 62.7101 190.262 62.0674Z" fill="#63A8DB"/>
<path opacity="0.7" d="M199.204 71.6004C199.613 70.1467 199.403 68.3687 198.646 66.957C198.67 66.9991 197.865 68.5068 197.793 68.687C197.535 69.3297 197.318 70.0025 197.15 70.6993C196.994 71.3361 196.898 71.7806 196.633 72.3332C196.249 73.1261 196.039 74.754 197.234 74.2434C198.141 73.8469 198.892 72.6996 199.204 71.6004Z" fill="#63A8DB"/>
<path opacity="0.7" d="M188.281 74.1293C188.864 75.2586 192.12 77.1327 190.978 74.6158C190.816 74.2554 188.353 71.276 188.413 71.1919C187.855 72.0449 187.807 73.2102 188.281 74.1293Z" fill="#63A8DB"/>
<path opacity="0.7" d="M192.693 81.3135C192.495 81.2774 192.171 80.887 192.099 80.7248C191.996 80.5026 191.702 79.8238 192.057 79.6916C192.153 79.6556 192.261 79.7036 192.333 79.7817C192.405 79.8598 192.453 79.9619 192.501 80.064C192.585 80.2563 192.669 80.4545 192.753 80.6467C192.801 80.7548 192.843 80.863 192.849 80.9831C192.867 81.2534 192.795 81.3315 192.693 81.3135Z" fill="white"/>
<path opacity="0.7" d="M192.646 81.0192C192.568 80.7969 192.321 80.3284 192.159 80.5807C191.979 80.845 192.489 81.6018 192.652 81.3315C192.694 81.2595 192.682 81.1573 192.664 81.0732C192.658 81.0492 192.652 81.0372 192.646 81.0192Z" fill="#63A8DB"/>
<path opacity="0.7" d="M196.081 81.1997C196.28 81.1456 196.568 80.6951 196.622 80.5149C196.7 80.2626 196.91 79.4817 196.538 79.3856C196.436 79.3616 196.34 79.4276 196.274 79.5177C196.208 79.6078 196.178 79.728 196.147 79.8421C196.087 80.0584 196.027 80.2746 195.961 80.4909C195.925 80.611 195.889 80.7311 195.895 80.8573C195.907 81.1456 195.979 81.2237 196.081 81.1997Z" fill="white"/>
<path opacity="0.7" d="M196.121 80.8751C196.175 80.6288 196.373 80.1002 196.565 80.3525C196.77 80.6228 196.319 81.4878 196.139 81.2054C196.091 81.1274 196.091 81.0192 196.109 80.9291C196.109 80.9111 196.115 80.8931 196.121 80.8751Z" fill="#63A8DB"/>
</g>
</g>
<g opacity="0.7">
<g opacity="0.7">
<path opacity="0.7" d="M153.144 20.8715C149.444 18.8231 145.413 17.5917 141.719 15.5253C143.767 15.8497 145.797 16.2942 147.798 16.8649C146.104 15.8557 144.602 14.6783 143.497 13.4109C147.708 15.4112 151.768 17.5196 155.408 20.4329C155.823 20.7633 153.288 20.8354 153.144 20.8715Z" fill="#63A8DB"/>
<path opacity="0.7" d="M165.204 25.2203C168.49 28.2357 171.559 31.8939 172.881 36.4832C173.085 37.186 173.313 37.8948 173.422 38.6156C173.512 39.2223 173.656 40.0813 173.145 40.4057C172.508 40.8202 171.83 40.2375 171.259 39.8411C170.484 39.3004 169.739 38.7298 169.018 38.1351C167.511 36.8917 166.105 35.5641 164.76 34.2066C163.552 32.9872 162.363 31.7377 161.252 30.4583C157.671 26.3436 154.338 21.8564 150.055 18.3484C152.325 19.0332 154.518 19.2795 156.776 20.2045C159.75 21.4119 162.843 23.0578 165.204 25.2203Z" fill="#85D9F7"/>
<path opacity="0.7" d="M158.266 23.3103C160.963 27.8996 165.162 31.1313 169.228 34.4291C167.817 32.2846 166.699 30.0861 164.927 28.1759C163.948 27.1187 162.867 26.1636 161.702 25.3226C161.083 24.8781 158.59 23.8629 158.266 23.3103Z" fill="#63A8DB"/>
<path opacity="0.7" d="M170.774 27.0946C170.402 25.6289 169.332 24.1933 167.969 23.3523C168.011 23.3763 168.071 25.0883 168.095 25.2745C168.191 25.9593 168.341 26.6501 168.545 27.3349C168.732 27.9656 168.87 28.3921 168.912 29.0108C168.978 29.8878 169.609 31.4015 170.39 30.3623C170.984 29.5754 171.056 28.2059 170.774 27.0946Z" fill="#63A8DB"/>
<path opacity="0.7" d="M162.579 34.741C163.655 35.4258 167.403 35.4258 165.156 33.816C164.832 33.5817 161.216 32.2362 161.222 32.134C161.174 33.1552 161.714 34.1884 162.579 34.741Z" fill="#63A8DB"/>
<path opacity="0.7" d="M170.008 38.7599C169.815 38.832 169.341 38.6518 169.203 38.5497C169.004 38.4115 168.41 37.967 168.65 37.6787C168.716 37.6006 168.83 37.5826 168.932 37.6126C169.034 37.6426 169.131 37.7087 169.215 37.7748C169.383 37.9009 169.557 38.0271 169.725 38.1532C169.815 38.2253 169.911 38.2974 169.978 38.3935C170.128 38.6158 170.104 38.7239 170.008 38.7599Z" fill="white"/>
<path opacity="0.7" d="M169.807 38.5315C169.633 38.3753 169.183 38.099 169.165 38.3933C169.141 38.7117 169.964 39.1141 169.964 38.7958C169.964 38.7117 169.903 38.6276 169.843 38.5675C169.831 38.5555 169.819 38.5435 169.807 38.5315Z" fill="#63A8DB"/>
<path opacity="0.7" d="M172.877 36.9638C173.021 36.8196 173.045 36.285 173.003 36.0988C172.949 35.8405 172.733 35.0596 172.366 35.1617C172.27 35.1918 172.21 35.2999 172.204 35.408C172.198 35.5222 172.228 35.6363 172.258 35.7504C172.312 35.9667 172.366 36.1889 172.42 36.4052C172.45 36.5253 172.48 36.6454 172.546 36.7536C172.696 37.0059 172.805 37.0359 172.877 36.9638Z" fill="white"/>
<path opacity="0.7" d="M172.746 36.6694C172.674 36.4291 172.578 35.8704 172.873 35.9966C173.185 36.1287 173.227 37.1018 172.933 36.9457C172.855 36.9036 172.801 36.8075 172.77 36.7234C172.758 36.7054 172.752 36.6874 172.746 36.6694Z" fill="#63A8DB"/>
</g>
</g>
</g>
</svg>
