<svg width="96" height="96" viewBox="0 0 96 96" fill="none" xmlns="http://www.w3.org/2000/svg">
<g opacity="0.4">
<g opacity="0.4">
<g opacity="0.4">
<path opacity="0.4" d="M42.3226 3.59092C40.3943 3.95133 38.5923 4.70218 36.6641 5.05659C37.493 4.56403 38.346 4.12553 39.229 3.74109C38.328 3.88525 37.445 3.90327 36.6761 3.77713C38.7665 3.24852 40.8388 2.798 43.0013 2.76196C43.2476 2.76196 42.3646 3.53685 42.3226 3.59092Z" fill="#63A8DB"/>
<path opacity="0.4" d="M47.9053 1.58495C49.9717 1.68707 52.1462 2.08953 53.9722 3.33897C54.2486 3.53119 54.5429 3.7174 54.7952 3.93965C55.0054 4.13188 55.3118 4.39619 55.2277 4.66049C55.1256 4.99687 54.7111 4.99087 54.3867 5.01489C53.9482 5.05093 53.5157 5.06895 53.0832 5.06895C52.1762 5.06895 51.2872 5.01489 50.4041 4.92478C49.6112 4.84669 48.8183 4.75058 48.0434 4.62444C45.5506 4.21597 43.0337 3.59727 40.4688 3.60928C41.4779 3.18279 42.3369 2.62415 43.4121 2.28176C44.8358 1.83725 46.4216 1.50686 47.9053 1.58495Z" fill="#85D9F7"/>
<path opacity="0.4" d="M44.8672 2.94815C47.1858 3.78912 49.6427 3.70502 52.0634 3.67499C50.9281 3.32659 49.8769 2.87006 48.6816 2.71388C48.0208 2.62378 47.348 2.60576 46.6873 2.64781C46.3389 2.67183 45.1495 3.05027 44.8672 2.94815Z" fill="#63A8DB"/>
<path opacity="0.4" d="M50.46 0.60552C49.8953 0.191044 49.0904 -0.00118303 48.3516 0.100934C48.3756 0.0949272 48.8982 0.689611 48.9643 0.749679C49.2045 0.965928 49.4628 1.17016 49.7331 1.35037C49.9854 1.51856 50.1596 1.63269 50.3579 1.83693C50.6402 2.13126 51.313 2.48567 51.2829 1.88498C51.2649 1.42846 50.8865 0.917878 50.46 0.60552Z" fill="#63A8DB"/>
<path opacity="0.4" d="M49.7945 5.75347C50.3832 5.68139 51.7167 4.57012 50.4432 4.66022C50.257 4.67224 48.5691 5.26091 48.5391 5.21886C48.8214 5.6033 49.32 5.81354 49.7945 5.75347Z" fill="#63A8DB"/>
<path opacity="0.4" d="M53.6252 4.99679C53.5772 5.07488 53.3549 5.15296 53.2768 5.15897C53.1627 5.16498 52.8203 5.183 52.8203 5.0088C52.8203 4.96074 52.8564 4.92471 52.9044 4.90068C52.9525 4.88266 53.0005 4.87666 53.0546 4.87666C53.1507 4.87065 53.2528 4.86463 53.3489 4.85863C53.403 4.85863 53.4571 4.85262 53.5111 4.87064C53.6253 4.90668 53.6493 4.95474 53.6252 4.99679Z" fill="white"/>
<path opacity="0.4" d="M53.481 4.97256C53.3728 4.96655 53.1326 5.0026 53.2106 5.11072C53.2947 5.23086 53.7092 5.13475 53.6131 5.01461C53.5891 4.98457 53.541 4.97256 53.499 4.96655C53.499 4.97256 53.493 4.97256 53.481 4.97256Z" fill="#63A8DB"/>
<path opacity="0.4" d="M54.1182 3.5006C54.1302 3.40449 53.9801 3.21227 53.908 3.1522C53.8119 3.07411 53.5055 2.86387 53.4034 3.00804C53.3794 3.05009 53.3914 3.10415 53.4214 3.14619C53.4515 3.18824 53.4995 3.22428 53.5416 3.25431C53.6257 3.31438 53.7098 3.38047 53.7939 3.44054C53.8419 3.47658 53.884 3.50661 53.944 3.53064C54.0642 3.57268 54.1122 3.55466 54.1182 3.5006Z" fill="white"/>
<path opacity="0.4" d="M53.9848 3.44043C53.8887 3.37436 53.6905 3.20616 53.8287 3.16411C53.9788 3.11606 54.2792 3.45244 54.129 3.48848C54.087 3.49449 54.0449 3.47647 54.0029 3.45845C54.0029 3.44644 53.9969 3.44043 53.9848 3.44043Z" fill="#63A8DB"/>
</g>
</g>
<g opacity="0.4">
<g opacity="0.4">
<path opacity="0.4" d="M21.0357 12.6137C19.552 13.8931 18.3626 15.4429 16.8729 16.7104C17.3415 15.8694 17.864 15.0645 18.4347 14.2896C17.7259 14.8663 16.969 15.3228 16.2422 15.5991C17.792 14.0914 19.3598 12.6677 21.2099 11.5625C21.4201 11.4363 21.0417 12.5476 21.0357 12.6137Z" fill="#63A8DB"/>
<path opacity="0.4" d="M24.8737 8.07849C26.7118 7.1354 28.7962 6.39656 31.0008 6.56476C31.3372 6.58878 31.6855 6.60079 32.0099 6.67288C32.2862 6.73294 32.6827 6.81104 32.7428 7.08135C32.8208 7.42374 32.4604 7.62196 32.1901 7.80818C31.8297 8.06047 31.4633 8.28873 31.0849 8.50498C30.304 8.9615 29.499 9.35796 28.6941 9.72438C27.9673 10.0548 27.2344 10.3671 26.5016 10.6434C24.1349 11.5324 21.648 12.2593 19.4375 13.5508C20.0983 12.6738 20.5608 11.7607 21.3297 10.9318C22.3388 9.8385 23.5462 8.75726 24.8737 8.07849Z" fill="#85D9F7"/>
<path opacity="0.4" d="M22.9219 10.7816C25.3487 10.3491 27.4331 9.04562 29.5174 7.81421C28.3581 8.07851 27.2228 8.21066 26.1055 8.67319C25.4868 8.92548 24.8981 9.24385 24.3455 9.61628C24.0572 9.8145 23.2162 10.7336 22.9219 10.7816Z" fill="#63A8DB"/>
<path opacity="0.4" d="M26.5862 5.96429C25.8894 5.8862 25.0905 6.12046 24.5078 6.57698C24.5258 6.56497 25.2767 6.81126 25.3608 6.82928C25.6732 6.89536 25.9975 6.94341 26.3279 6.96744C26.6282 6.99146 26.8385 6.99747 27.1148 7.07556C27.5053 7.18969 28.2681 7.15965 27.9378 6.65507C27.6915 6.27063 27.1088 6.01835 26.5862 5.96429Z" fill="#63A8DB"/>
<path opacity="0.4" d="M28.5781 10.7518C29.0527 10.3974 29.6533 8.76955 28.5901 9.48437C28.44 9.58649 27.2686 10.938 27.2266 10.92C27.6651 11.1062 28.1997 11.0402 28.5781 10.7518Z" fill="#63A8DB"/>
<path opacity="0.4" d="M31.5239 8.18076C31.5239 8.27687 31.3677 8.45107 31.3016 8.49912C31.2115 8.5652 30.9232 8.75141 30.8331 8.60124C30.8091 8.55919 30.8211 8.50513 30.8511 8.46908C30.8812 8.42704 30.9232 8.397 30.9652 8.37297C31.0493 8.31891 31.1274 8.26485 31.2115 8.21078C31.2596 8.18075 31.3016 8.15072 31.3557 8.1387C31.4818 8.10266 31.5239 8.1327 31.5239 8.18076Z" fill="white"/>
<path opacity="0.4" d="M31.3913 8.22881C31.2951 8.28287 31.1029 8.42704 31.2291 8.48711C31.3672 8.54718 31.6736 8.25885 31.5354 8.20479C31.4994 8.19277 31.4513 8.20479 31.4153 8.22281C31.4093 8.22281 31.3973 8.2228 31.3913 8.22881Z" fill="#63A8DB"/>
<path opacity="0.4" d="M31.2093 6.64305C31.1733 6.55895 30.945 6.46285 30.8549 6.45083C30.7348 6.43281 30.3623 6.40277 30.3443 6.57697C30.3383 6.62503 30.3804 6.66708 30.4284 6.6851C30.4765 6.70913 30.5305 6.71514 30.5846 6.72114C30.6867 6.73316 30.7948 6.74517 30.897 6.75718C30.951 6.76319 31.0111 6.7692 31.0712 6.75718C31.1973 6.72715 31.2273 6.6851 31.2093 6.64305Z" fill="white"/>
<path opacity="0.4" d="M31.0593 6.64923C30.9452 6.64322 30.6869 6.59517 30.789 6.48704C30.8972 6.37291 31.3236 6.51107 31.2095 6.61319C31.1795 6.64322 31.1314 6.64923 31.0834 6.64923C31.0774 6.65524 31.0653 6.65524 31.0593 6.64923Z" fill="#63A8DB"/>
</g>
</g>
<g opacity="0.4">
<g opacity="0.4">
<path opacity="0.4" d="M6.99098 30.9228C6.34224 32.7729 6.08995 34.7071 5.4352 36.5513C5.42319 35.5902 5.47124 34.629 5.57936 33.6739C5.24898 34.5269 4.8285 35.3018 4.33594 35.9085C4.92461 33.8301 5.57336 31.8118 6.61856 29.9257C6.73269 29.7094 6.96695 30.8627 6.99098 30.9228Z" fill="#63A8DB"/>
<path opacity="0.4" d="M8.04658 25.0778C9.16986 23.3418 10.6055 21.6599 12.5938 20.6988C12.9001 20.5546 13.2065 20.3925 13.5249 20.2843C13.7952 20.1942 14.1736 20.0681 14.3658 20.2723C14.6061 20.5306 14.3899 20.885 14.2517 21.1794C14.0655 21.5758 13.8613 21.9602 13.645 22.3387C13.1945 23.1256 12.6959 23.8704 12.1793 24.5913C11.7168 25.24 11.2362 25.8767 10.7377 26.4834C9.13383 28.4357 7.34377 30.3098 6.07031 32.5384C6.20847 31.4511 6.1484 30.43 6.39468 29.3247C6.72506 27.865 7.23565 26.3273 8.04658 25.0778Z" fill="#85D9F7"/>
<path opacity="0.4" d="M7.70312 28.3939C9.58929 26.8081 10.7426 24.6396 11.932 22.5251C11.061 23.3361 10.1419 24.0149 9.40908 24.976C9.00061 25.5046 8.6462 26.0752 8.35787 26.6699C8.20169 26.9883 7.93739 28.2017 7.70312 28.3939Z" fill="#63A8DB"/>
<path opacity="0.4" d="M8.46627 22.3867C7.82954 22.6691 7.25288 23.2697 6.97656 23.9605C6.98257 23.9365 7.76347 23.7803 7.84156 23.7563C8.14791 23.6602 8.45426 23.534 8.74859 23.3899C9.02491 23.2577 9.20512 23.1616 9.48745 23.0895C9.8839 22.9934 10.5266 22.585 9.99202 22.3086C9.58356 22.1044 8.95283 22.1765 8.46627 22.3867Z" fill="#63A8DB"/>
<path opacity="0.4" d="M12.5951 25.5402C12.8233 24.9996 12.535 23.2816 11.9703 24.4349C11.8922 24.6031 11.5559 26.3571 11.5078 26.3631C11.9824 26.303 12.4088 25.9787 12.5951 25.5402Z" fill="#63A8DB"/>
<path opacity="0.4" d="M13.8586 21.8398C13.9066 21.9239 13.8586 22.1521 13.8225 22.2242C13.7745 22.3263 13.6183 22.6327 13.4681 22.5426C13.4261 22.5186 13.4141 22.4645 13.4141 22.4164C13.4201 22.3684 13.4441 22.3203 13.4681 22.2723C13.5102 22.1822 13.5582 22.0981 13.6003 22.008C13.6243 21.9599 13.6483 21.9119 13.6904 21.8758C13.7865 21.7917 13.8345 21.7977 13.8586 21.8398Z" fill="white"/>
<path opacity="0.4" d="M13.7645 21.9483C13.7044 22.0384 13.6143 22.2667 13.7525 22.2547C13.9027 22.2366 14.0168 21.8342 13.8726 21.8582C13.8306 21.8642 13.8006 21.9003 13.7765 21.9303C13.7705 21.9303 13.7705 21.9363 13.7645 21.9483Z" fill="#63A8DB"/>
<path opacity="0.4" d="M12.8065 20.6629C12.7285 20.6089 12.4822 20.6389 12.4041 20.669C12.29 20.717 11.9536 20.8732 12.0257 21.0294C12.0437 21.0714 12.0977 21.0894 12.1518 21.0834C12.2059 21.0774 12.2539 21.0534 12.308 21.0354C12.4041 20.9933 12.5002 20.9513 12.5963 20.9092C12.6504 20.8852 12.7044 20.8612 12.7465 20.8251C12.8426 20.741 12.8486 20.693 12.8065 20.6629Z" fill="white"/>
<path opacity="0.4" d="M12.6881 20.7468C12.586 20.8009 12.3397 20.885 12.3697 20.7408C12.4057 20.5906 12.8443 20.4945 12.7962 20.6387C12.7842 20.6807 12.7421 20.7108 12.7061 20.7288C12.7001 20.7408 12.6941 20.7468 12.6881 20.7468Z" fill="#63A8DB"/>
</g>
</g>
<g opacity="0.4">
<g opacity="0.4">
<path opacity="0.4" d="M3.59458 53.6769C3.95499 55.6051 4.70585 57.4072 5.06025 59.3294C4.56769 58.5004 4.12919 57.6475 3.74475 56.7644C3.88892 57.6655 3.90694 58.5485 3.78079 59.3234C3.25218 57.233 2.80167 55.1606 2.76562 52.9981C2.76562 52.7518 3.54052 53.6349 3.59458 53.6769Z" fill="#63A8DB"/>
<path opacity="0.4" d="M1.58959 48.0903C1.69171 46.0239 2.09417 43.8495 3.3436 42.0234C3.53582 41.747 3.72204 41.4527 3.94429 41.2004C4.13651 40.9902 4.40082 40.6838 4.66513 40.7679C5.00151 40.87 4.9955 41.2845 5.01953 41.6089C5.05557 42.0474 5.07359 42.4799 5.07359 42.9124C5.07359 43.8194 5.01953 44.7084 4.92942 45.5915C4.85133 46.3844 4.75522 47.1773 4.62908 47.9522C4.22061 50.445 3.60191 52.9619 3.61392 55.5269C3.18743 54.5177 2.62879 53.6587 2.28639 52.5835C1.84188 51.1598 1.5115 49.574 1.58959 48.0903Z" fill="#85D9F7"/>
<path opacity="0.4" d="M2.94693 51.1296C3.78789 48.811 3.7038 46.3541 3.67377 43.9333C3.32537 45.0687 2.86884 46.1199 2.71266 47.3152C2.62256 47.976 2.60454 48.6488 2.64659 49.3095C2.67061 49.6579 3.04905 50.8473 2.94693 51.1296Z" fill="#63A8DB"/>
<path opacity="0.4" d="M0.60967 45.5434C0.195195 46.1081 0.00296737 46.913 0.105085 47.6518C0.0990776 47.6278 0.693761 47.1052 0.75383 47.0391C0.970078 46.7988 1.17431 46.5405 1.35452 46.2702C1.52271 46.0179 1.63684 45.8437 1.84108 45.6455C2.13541 45.3632 2.48982 44.6904 1.88913 44.7205C1.43261 44.7385 0.922029 45.1169 0.60967 45.5434Z" fill="#63A8DB"/>
<path opacity="0.4" d="M5.76251 46.2101C5.69042 45.6214 4.57915 44.2879 4.66926 45.5613C4.68127 45.7476 5.26994 47.4355 5.22789 47.4655C5.61233 47.1832 5.82257 46.6846 5.76251 46.2101Z" fill="#63A8DB"/>
<path opacity="0.4" d="M5.00631 42.3778C5.0844 42.4259 5.16249 42.6481 5.16849 42.7262C5.1745 42.8404 5.19252 43.1827 5.01832 43.1827C4.97026 43.1827 4.93423 43.1467 4.9102 43.0987C4.89218 43.0506 4.88618 43.0025 4.88618 42.9485C4.88017 42.8524 4.87415 42.7503 4.86815 42.6541C4.86815 42.6001 4.86214 42.546 4.88016 42.492C4.91621 42.3778 4.96426 42.3538 5.00631 42.3778Z" fill="white"/>
<path opacity="0.4" d="M4.97475 42.5159C4.96875 42.624 5.00479 42.8643 5.11292 42.7862C5.23306 42.7021 5.13694 42.2876 5.01681 42.3838C4.98677 42.4078 4.97476 42.4558 4.96875 42.4979C4.97476 42.4979 4.97475 42.5039 4.97475 42.5159Z" fill="#63A8DB"/>
<path opacity="0.4" d="M3.5028 41.8793C3.40669 41.8673 3.21446 42.0175 3.1544 42.0896C3.07631 42.1857 2.86607 42.492 3.01024 42.5942C3.05228 42.6182 3.10634 42.6062 3.14839 42.5761C3.19044 42.5461 3.22648 42.4981 3.25651 42.456C3.31658 42.3719 3.38266 42.2878 3.44273 42.2037C3.47877 42.1557 3.5088 42.1136 3.53283 42.0535C3.57488 41.9334 3.55686 41.8853 3.5028 41.8793Z" fill="white"/>
<path opacity="0.4" d="M3.44507 42.0174C3.379 42.1135 3.2108 42.3117 3.16875 42.1735C3.1207 42.0234 3.45708 41.723 3.49312 41.8732C3.49913 41.9153 3.48111 41.9573 3.46309 41.9993C3.45108 41.9993 3.44507 42.0053 3.44507 42.0174Z" fill="#63A8DB"/>
</g>
</g>
<g opacity="0.4">
<g opacity="0.4">
<path opacity="0.4" d="M12.6159 74.9594C13.8953 76.4431 15.4451 77.6325 16.7126 79.1222C15.8716 78.6536 15.0667 78.131 14.2918 77.5604C14.8685 78.2692 15.325 79.0261 15.6013 79.7529C14.0936 78.2031 12.6699 76.6353 11.5647 74.7852C11.4385 74.575 12.5498 74.9534 12.6159 74.9594Z" fill="#63A8DB"/>
<path opacity="0.4" d="M8.08459 71.1211C7.14151 69.283 6.40267 67.1986 6.57086 64.994C6.59489 64.6577 6.6069 64.3092 6.67898 63.9849C6.73905 63.7086 6.81714 63.3121 7.08745 63.252C7.42984 63.174 7.62807 63.5344 7.81428 63.8047C8.06657 64.1651 8.29483 64.5315 8.51108 64.9099C8.96761 65.6908 9.36406 66.4958 9.73048 67.3007C10.0609 68.0275 10.3732 68.7604 10.6495 69.4932C11.5386 71.8599 12.2654 74.3468 13.5569 76.5573C12.6799 75.8966 11.7668 75.434 10.9379 74.6711C9.84461 73.656 8.76337 72.4486 8.08459 71.1211Z" fill="#85D9F7"/>
<path opacity="0.4" d="M10.7877 73.0731C10.3552 70.6463 9.05173 68.5619 7.82031 66.4775C8.08462 67.6369 8.21676 68.7722 8.67929 69.8894C8.93158 70.5082 9.24995 71.0968 9.62238 71.6495C9.82061 71.9378 10.7397 72.7788 10.7877 73.0731Z" fill="#63A8DB"/>
<path opacity="0.4" d="M5.96795 69.409C5.88986 70.1058 6.12412 70.9047 6.58064 71.4874C6.56863 71.4694 6.81492 70.7185 6.83294 70.6344C6.89902 70.3221 6.94707 69.9977 6.9711 69.6673C6.99513 69.367 7.00113 69.1567 7.07922 68.8804C7.19335 68.49 7.16332 67.7271 6.65874 68.0575C6.2743 68.3038 6.02201 68.8864 5.96795 69.409Z" fill="#63A8DB"/>
<path opacity="0.4" d="M10.7516 67.4146C10.3972 66.94 8.76931 66.3393 9.48413 67.4026C9.58624 67.5527 10.9378 68.7241 10.9198 68.7661C11.106 68.3276 11.0399 67.793 10.7516 67.4146Z" fill="#63A8DB"/>
<path opacity="0.4" d="M8.18295 64.4712C8.27906 64.4712 8.45326 64.6274 8.50132 64.6934C8.56739 64.7835 8.75361 65.0719 8.60343 65.162C8.56139 65.186 8.50732 65.174 8.47128 65.144C8.42923 65.1139 8.3992 65.0719 8.37517 65.0298C8.32111 64.9457 8.26704 64.8676 8.21298 64.7835C8.18295 64.7355 8.15291 64.6934 8.1409 64.6394C8.10486 64.5132 8.1349 64.4712 8.18295 64.4712Z" fill="white"/>
<path opacity="0.4" d="M8.23198 64.6033C8.28605 64.6994 8.43022 64.8916 8.49029 64.7655C8.55035 64.6273 8.26202 64.327 8.20796 64.4591C8.19595 64.4951 8.20796 64.5432 8.22598 64.5792C8.22598 64.5853 8.22598 64.5973 8.23198 64.6033Z" fill="#63A8DB"/>
<path opacity="0.4" d="M6.65159 64.7841C6.5675 64.8201 6.47139 65.0484 6.45938 65.1385C6.44136 65.2586 6.41132 65.6311 6.58552 65.6491C6.63357 65.6551 6.67563 65.613 6.69365 65.565C6.71768 65.5169 6.72368 65.4629 6.72969 65.4088C6.7417 65.3067 6.75371 65.1986 6.76573 65.0964C6.77173 65.0424 6.77774 64.9823 6.76573 64.9223C6.73569 64.7961 6.69364 64.7661 6.65159 64.7841Z" fill="white"/>
<path opacity="0.4" d="M6.65045 64.9341C6.64444 65.0482 6.59639 65.3065 6.48826 65.2044C6.37413 65.0962 6.51229 64.6698 6.61441 64.7839C6.64445 64.8139 6.65045 64.862 6.65045 64.91C6.65646 64.922 6.65646 64.928 6.65045 64.9341Z" fill="#63A8DB"/>
</g>
</g>
<g opacity="0.4">
<g opacity="0.4">
<path opacity="0.4" d="M30.9226 89.0151C32.7727 89.6639 34.7069 89.9162 36.551 90.5709C35.5899 90.5829 34.6288 90.5349 33.6737 90.4268C34.5267 90.7571 35.3016 91.1776 35.9083 91.6702C33.8299 91.0815 31.8116 90.4328 29.9254 89.3876C29.7092 89.2734 30.8625 89.0392 30.9226 89.0151Z" fill="#63A8DB"/>
<path opacity="0.4" d="M25.0795 87.958C23.3435 86.8347 21.6616 85.399 20.7005 83.4108C20.5563 83.1044 20.3942 82.798 20.286 82.4797C20.1959 82.2094 20.0698 81.8309 20.274 81.6387C20.5323 81.3984 20.8867 81.6147 21.1811 81.7529C21.5775 81.9391 21.962 82.1433 22.3404 82.3596C23.1273 82.8101 23.8721 83.3086 24.593 83.8252C25.2417 84.2878 25.8784 84.7683 26.4851 85.2669C28.4374 86.8707 30.3115 88.6608 32.5401 89.9342C31.4528 89.7961 30.4317 89.8561 29.3264 89.6099C27.8667 89.2795 26.329 88.7689 25.0795 87.958Z" fill="#85D9F7"/>
<path opacity="0.4" d="M28.3922 88.3006C26.8064 86.4145 24.6379 85.2611 22.5234 84.0718C23.3344 84.9428 24.0131 85.8618 24.9743 86.5947C25.5029 87.0031 26.0735 87.3576 26.6682 87.6459C26.9866 87.8021 28.2 88.0664 28.3922 88.3006Z" fill="#63A8DB"/>
<path opacity="0.4" d="M22.3858 87.5379C22.6681 88.1747 23.2688 88.7513 23.9596 89.0276C23.9355 89.0216 23.7794 88.2407 23.7553 88.1626C23.6592 87.8563 23.5331 87.5499 23.3889 87.2556C23.2568 86.9793 23.1607 86.7991 23.0946 86.5167C22.9985 86.1203 22.59 85.4776 22.3137 86.0122C22.1034 86.4206 22.1755 87.0514 22.3858 87.5379Z" fill="#63A8DB"/>
<path opacity="0.4" d="M25.5424 83.411C25.0017 83.1827 23.2838 83.471 24.4371 84.0357C24.6053 84.1138 26.3593 84.4502 26.3653 84.4982C26.3052 84.0237 25.9809 83.5972 25.5424 83.411Z" fill="#63A8DB"/>
<path opacity="0.4" d="M21.8347 82.1496C21.9188 82.1016 22.147 82.1496 22.2191 82.1857C22.3212 82.2337 22.6276 82.3899 22.5375 82.5401C22.5134 82.5821 22.4594 82.5941 22.4113 82.5941C22.3633 82.5881 22.3152 82.5641 22.2672 82.5401C22.177 82.498 22.0929 82.45 22.0028 82.4079C21.9548 82.3839 21.9067 82.3599 21.8707 82.3178C21.7866 82.2217 21.7926 82.1736 21.8347 82.1496Z" fill="white"/>
<path opacity="0.4" d="M21.9505 82.2394C22.0406 82.2995 22.2689 82.3896 22.2569 82.2514C22.2388 82.1012 21.8364 81.9871 21.8604 82.1313C21.8664 82.1733 21.9025 82.2034 21.9325 82.2274C21.9325 82.2334 21.9385 82.2334 21.9505 82.2394Z" fill="#63A8DB"/>
<path opacity="0.4" d="M20.6627 83.1947C20.6086 83.2728 20.6387 83.5191 20.6687 83.5972C20.7168 83.7113 20.8729 84.0477 21.0291 83.9756C21.0712 83.9576 21.0892 83.9035 21.0832 83.8495C21.0772 83.7954 21.0531 83.7474 21.0351 83.6933C20.9931 83.5972 20.951 83.5011 20.909 83.405C20.885 83.3509 20.8609 83.2969 20.8249 83.2548C20.7408 83.1587 20.6927 83.1527 20.6627 83.1947Z" fill="white"/>
<path opacity="0.4" d="M20.7495 83.3149C20.8036 83.4171 20.8877 83.6633 20.7435 83.6333C20.5933 83.5973 20.4972 83.1587 20.6414 83.2068C20.6834 83.2188 20.7135 83.2609 20.7315 83.2969C20.7435 83.3029 20.7495 83.3089 20.7495 83.3149Z" fill="#63A8DB"/>
</g>
</g>
<g opacity="0.4">
<g opacity="0.4">
<path opacity="0.4" d="M53.6752 92.4095C55.6034 92.0491 57.4055 91.2983 59.3277 90.9438C58.4987 91.4364 57.6457 91.8749 56.7627 92.2594C57.6638 92.1152 58.5468 92.0972 59.3217 92.2233C57.2313 92.7519 55.1589 93.2024 52.9964 93.2385C52.7501 93.2385 53.6332 92.4636 53.6752 92.4095Z" fill="#63A8DB"/>
<path opacity="0.4" d="M48.0867 94.4156C46.0203 94.3135 43.8458 93.9111 42.0197 92.6616C41.7434 92.4694 41.449 92.2832 41.1968 92.0609C40.9865 91.8687 40.6802 91.6044 40.7643 91.3401C40.8664 91.0037 41.2809 91.0097 41.6052 90.9857C42.0437 90.9497 42.4762 90.9316 42.9087 90.9316C43.8158 90.9316 44.7048 90.9857 45.5878 91.0758C46.3807 91.1539 47.1736 91.25 47.9485 91.3761C50.4414 91.7846 52.9582 92.4033 55.5232 92.3913C54.514 92.8178 53.6551 93.3764 52.5798 93.7188C51.1562 94.1633 49.5704 94.4937 48.0867 94.4156Z" fill="#85D9F7"/>
<path opacity="0.4" d="M51.1259 93.0524C48.8073 92.2114 46.3505 92.2955 43.9297 92.3255C45.065 92.6739 46.1162 93.1305 47.3116 93.2866C47.9723 93.3767 48.6451 93.3948 49.3059 93.3527C49.6543 93.3287 50.8436 92.9502 51.1259 93.0524Z" fill="#63A8DB"/>
<path opacity="0.4" d="M45.5427 95.3949C46.1073 95.8094 46.9122 96.0016 47.6511 95.8995C47.6271 95.9055 47.1045 95.3108 47.0384 95.2507C46.7981 95.0345 46.5398 94.8303 46.2695 94.6501C46.0172 94.4819 45.843 94.3677 45.6448 94.1635C45.3625 93.8692 44.6897 93.5147 44.7197 94.1154C44.7377 94.572 45.1162 95.0825 45.5427 95.3949Z" fill="#63A8DB"/>
<path opacity="0.4" d="M46.205 90.247C45.6163 90.319 44.2828 91.4303 45.5562 91.3402C45.7424 91.3282 47.4304 90.7395 47.4604 90.7816C47.1781 90.3971 46.6795 90.1869 46.205 90.247Z" fill="#63A8DB"/>
<path opacity="0.4" d="M42.3756 91.0041C42.4237 90.926 42.6459 90.848 42.724 90.842C42.8382 90.8359 43.1806 90.8179 43.1806 90.9921C43.1806 91.0402 43.1445 91.0762 43.0965 91.1002C43.0484 91.1183 43.0003 91.1243 42.9463 91.1243C42.8502 91.1303 42.7481 91.1363 42.652 91.1423C42.5979 91.1423 42.5438 91.1483 42.4898 91.1303C42.3756 91.0942 42.3516 91.0462 42.3756 91.0041Z" fill="white"/>
<path opacity="0.4" d="M42.5137 91.0278C42.6218 91.0339 42.8621 90.9978 42.784 90.8897C42.6999 90.7695 42.2854 90.8657 42.3816 90.9858C42.4056 91.0158 42.4536 91.0279 42.4957 91.0339C42.4957 91.0279 42.5017 91.0278 42.5137 91.0278Z" fill="#63A8DB"/>
<path opacity="0.4" d="M41.8757 92.4996C41.8637 92.5957 42.0138 92.7879 42.0859 92.848C42.182 92.926 42.4884 93.1363 42.5905 92.9921C42.6145 92.9501 42.6025 92.896 42.5725 92.854C42.5424 92.8119 42.4944 92.7759 42.4523 92.7458C42.3682 92.6858 42.2842 92.6197 42.2001 92.5596C42.152 92.5236 42.11 92.4936 42.0499 92.4695C41.9297 92.4275 41.8817 92.4455 41.8757 92.4996Z" fill="white"/>
<path opacity="0.4" d="M42.0132 92.5595C42.1093 92.6256 42.3076 92.7938 42.1694 92.8358C42.0192 92.8839 41.7189 92.5475 41.8691 92.5114C41.9111 92.5054 41.9531 92.5234 41.9952 92.5415C41.9952 92.5535 42.0012 92.5595 42.0132 92.5595Z" fill="#63A8DB"/>
</g>
</g>
<g opacity="0.4">
<g opacity="0.4">
<path opacity="0.4" d="M74.9721 83.387C76.4558 82.1075 77.6452 80.5577 79.1349 79.2903C78.6663 80.1312 78.1437 80.9362 77.5731 81.7111C78.2819 81.1344 79.0388 80.6779 79.7656 80.4016C78.2158 81.9093 76.648 83.3329 74.7979 84.4382C74.5877 84.5643 74.9661 83.4531 74.9721 83.387Z" fill="#63A8DB"/>
<path opacity="0.4" d="M71.1298 87.9222C69.2917 88.8653 67.2074 89.6042 65.0028 89.436C64.6664 89.4119 64.318 89.3999 63.9937 89.3278C63.7173 89.2678 63.3209 89.1897 63.2608 88.9194C63.1827 88.577 63.5432 88.3788 63.8135 88.1925C64.1739 87.9402 64.5403 87.712 64.9187 87.4957C65.6996 87.0392 66.5046 86.6428 67.3095 86.2763C68.0363 85.946 68.7691 85.6336 69.502 85.3573C71.8687 84.4683 74.3556 83.7414 76.5661 82.45C75.9053 83.327 75.4428 84.24 74.6739 85.0689C73.6648 86.1622 72.4574 87.2434 71.1298 87.9222Z" fill="#85D9F7"/>
<path opacity="0.4" d="M73.0799 85.2195C70.6531 85.652 68.5688 86.9555 66.4844 88.1869C67.6437 87.9226 68.779 87.7904 69.8963 87.3279C70.515 87.0756 71.1037 86.7572 71.6563 86.3848C71.9446 86.1866 72.7856 85.2675 73.0799 85.2195Z" fill="#63A8DB"/>
<path opacity="0.4" d="M69.4168 90.0365C70.1136 90.1146 70.9125 89.8803 71.4952 89.4238C71.4772 89.4358 70.7263 89.1896 70.6422 89.1715C70.3299 89.1055 70.0055 89.0574 69.6751 89.0334C69.3748 89.0093 69.1645 89.0033 68.8882 88.9253C68.4978 88.8111 67.7349 88.8411 68.0653 89.3457C68.3116 89.7302 68.8942 89.9825 69.4168 90.0365Z" fill="#63A8DB"/>
<path opacity="0.4" d="M67.4244 85.2492C66.9498 85.6036 66.3491 87.2314 67.4123 86.5166C67.5625 86.4145 68.7339 85.0629 68.7759 85.081C68.3374 84.8947 67.8028 84.9608 67.4244 85.2492Z" fill="#63A8DB"/>
<path opacity="0.4" d="M64.4844 87.8201C64.4844 87.724 64.6406 87.5498 64.7066 87.5017C64.7967 87.4356 65.0851 87.2494 65.1752 87.3996C65.1992 87.4416 65.1872 87.4957 65.1571 87.5317C65.1271 87.5678 65.0851 87.6038 65.043 87.6279C64.9589 87.6819 64.8808 87.736 64.7967 87.79C64.7487 87.8201 64.7066 87.8501 64.6526 87.8621C64.5264 87.8982 64.4844 87.8681 64.4844 87.8201Z" fill="white"/>
<path opacity="0.4" d="M64.6088 87.7721C64.705 87.718 64.8972 87.5739 64.771 87.5138C64.6329 87.4537 64.3265 87.7421 64.4647 87.7961C64.5007 87.8081 64.5488 87.7961 64.5848 87.7781C64.5908 87.7781 64.6028 87.7781 64.6088 87.7721Z" fill="#63A8DB"/>
<path opacity="0.4" d="M64.7939 89.3581C64.8299 89.4422 65.0582 89.5383 65.1483 89.5504C65.2684 89.5684 65.6408 89.5984 65.6588 89.4242C65.6649 89.3761 65.6228 89.3341 65.5747 89.3161C65.5267 89.292 65.4726 89.286 65.4186 89.28C65.3165 89.268 65.2083 89.256 65.1062 89.244C65.0521 89.238 64.9921 89.232 64.932 89.244C64.8059 89.274 64.7758 89.3161 64.7939 89.3581Z" fill="white"/>
<path opacity="0.4" d="M64.9428 89.3455C65.057 89.3515 65.3153 89.3995 65.2132 89.5077C65.105 89.6218 64.6785 89.4836 64.7927 89.3815C64.8227 89.3515 64.8708 89.3455 64.9188 89.3455C64.9308 89.3455 64.9368 89.3455 64.9428 89.3455Z" fill="#63A8DB"/>
</g>
</g>
<g opacity="0.4">
<g opacity="0.4">
<path opacity="0.4" d="M89.0156 65.0782C89.6644 63.228 89.9167 61.2938 90.5714 59.4497C90.5834 60.4108 90.5354 61.3719 90.4272 62.327C90.7576 61.474 91.1781 60.6991 91.6707 60.0924C91.082 62.1708 90.4332 64.1891 89.388 66.0753C89.2739 66.2916 89.0397 65.1382 89.0156 65.0782Z" fill="#63A8DB"/>
<path opacity="0.4" d="M87.9585 70.923C86.8352 72.659 85.3995 74.3409 83.4112 75.302C83.1049 75.4462 82.7985 75.6084 82.4802 75.7165C82.2099 75.8066 81.8314 75.9327 81.6392 75.7285C81.3989 75.4702 81.6152 75.1158 81.7533 74.8214C81.9396 74.425 82.1438 74.0405 82.36 73.6621C82.8106 72.8752 83.3091 72.1304 83.8257 71.4095C84.2883 70.7608 84.7688 70.1241 85.2674 69.5174C86.8712 67.5651 88.6613 65.691 89.9347 63.4624C89.7966 64.5496 89.8566 65.5708 89.6103 66.6761C89.28 68.1358 88.7694 69.6735 87.9585 70.923Z" fill="#85D9F7"/>
<path opacity="0.4" d="M88.2992 67.6069C86.413 69.1928 85.2597 71.3612 84.0703 73.4757C84.9413 72.6647 85.8604 71.9859 86.5932 71.0248C87.0017 70.4962 87.3561 69.9256 87.6444 69.3309C87.8006 69.0125 88.0649 67.7992 88.2992 67.6069Z" fill="#63A8DB"/>
<path opacity="0.4" d="M87.534 73.6139C88.1708 73.3315 88.7474 72.7308 89.0237 72.04C89.0177 72.0641 88.2368 72.2202 88.1587 72.2443C87.8524 72.3404 87.546 72.4665 87.2517 72.6107C86.9754 72.7429 86.7952 72.839 86.5128 72.905C86.1164 73.0011 85.4737 73.4096 86.0083 73.6859C86.4167 73.8962 87.0475 73.8241 87.534 73.6139Z" fill="#63A8DB"/>
<path opacity="0.4" d="M83.4144 70.4602C83.1861 71.0008 83.4745 72.7188 84.0391 71.5654C84.1172 71.3972 84.4536 69.6432 84.5016 69.6372C84.0271 69.6973 83.6006 70.0217 83.4144 70.4602Z" fill="#63A8DB"/>
<path opacity="0.4" d="M82.153 74.1606C82.105 74.0765 82.153 73.8482 82.1891 73.7761C82.2371 73.674 82.3933 73.3677 82.5435 73.4578C82.5855 73.4818 82.5975 73.5359 82.5975 73.5839C82.5915 73.632 82.5675 73.68 82.5435 73.7281C82.5014 73.8182 82.4534 73.9023 82.4113 73.9924C82.3873 74.0404 82.3633 74.0885 82.3212 74.1245C82.2251 74.2086 82.1771 74.2026 82.153 74.1606Z" fill="white"/>
<path opacity="0.4" d="M82.237 74.0524C82.297 73.9623 82.3871 73.734 82.249 73.7461C82.0988 73.7641 81.9847 74.1665 82.1288 74.1425C82.1709 74.1365 82.2009 74.1005 82.225 74.0704C82.231 74.0704 82.231 74.0644 82.237 74.0524Z" fill="#63A8DB"/>
<path opacity="0.4" d="M83.1967 75.3381C83.2748 75.3922 83.5211 75.3621 83.5992 75.3321C83.7133 75.2841 84.0497 75.1279 83.9776 74.9717C83.9596 74.9296 83.9055 74.9116 83.8514 74.9176C83.7974 74.9236 83.7493 74.9477 83.6953 74.9657C83.5992 75.0077 83.503 75.0498 83.4069 75.0918C83.3529 75.1159 83.2988 75.1399 83.2568 75.1759C83.1606 75.26 83.1546 75.3081 83.1967 75.3381Z" fill="white"/>
<path opacity="0.4" d="M83.3149 75.2537C83.4171 75.1996 83.6633 75.1155 83.6333 75.2597C83.5973 75.4099 83.1587 75.506 83.2068 75.3618C83.2188 75.3198 83.2609 75.2897 83.2969 75.2717C83.3029 75.2597 83.3089 75.2537 83.3149 75.2537Z" fill="#63A8DB"/>
</g>
</g>
<g opacity="0.4">
<g opacity="0.4">
<path opacity="0.4" d="M92.4188 42.3233C92.0584 40.3951 91.3075 38.593 90.9531 36.6648C91.4457 37.4937 91.8842 38.3467 92.2686 39.2297C92.1245 38.3287 92.1065 37.4457 92.2326 36.6708C92.7612 38.7612 93.2117 40.8336 93.2478 42.9961C93.2478 43.2483 92.4729 42.3653 92.4188 42.3233Z" fill="#63A8DB"/>
<path opacity="0.4" d="M94.4215 47.9099C94.3194 49.9763 93.9169 52.1508 92.6675 53.9769C92.4753 54.2532 92.2891 54.5475 92.0668 54.7998C91.8746 55.0101 91.6103 55.3164 91.346 55.2323C91.0096 55.1302 91.0156 54.7157 90.9916 54.3914C90.9555 53.9529 90.9375 53.5204 90.9375 53.0879C90.9375 52.1808 90.9916 51.2918 91.0817 50.4088C91.1597 49.6159 91.2559 48.823 91.382 48.0481C91.7905 45.5552 92.4092 43.0383 92.3972 40.4734C92.8237 41.4825 93.3823 42.3415 93.7247 43.4168C94.1692 44.8404 94.4996 46.4262 94.4215 47.9099Z" fill="#85D9F7"/>
<path opacity="0.4" d="M93.0568 44.8704C92.2158 47.189 92.2999 49.6458 92.3299 52.0666C92.6783 50.9313 93.1349 49.8801 93.291 48.6847C93.3811 48.024 93.3992 47.3512 93.3571 46.6905C93.3331 46.3421 92.9546 45.1527 93.0568 44.8704Z" fill="#63A8DB"/>
<path opacity="0.4" d="M95.3959 50.4563C95.8104 49.8917 96.0026 49.0867 95.9005 48.3479C95.9065 48.3719 95.3118 48.8945 95.2517 48.9606C95.0355 49.2009 94.8312 49.4592 94.651 49.7295C94.4828 49.9818 94.3687 50.156 94.1645 50.3542C93.8701 50.6365 93.5157 51.3093 94.1164 51.2793C94.5729 51.2612 95.0835 50.8828 95.3959 50.4563Z" fill="#63A8DB"/>
<path opacity="0.4" d="M90.2523 49.7899C90.3244 50.3785 91.4357 51.7121 91.3456 50.4386C91.3336 50.2524 90.7449 48.5645 90.787 48.5344C90.4025 48.8167 90.1923 49.3153 90.2523 49.7899Z" fill="#63A8DB"/>
<path opacity="0.4" d="M91.0095 53.6221C90.9314 53.574 90.8533 53.3518 90.8473 53.2737C90.8413 53.1595 90.8233 52.8171 90.9975 52.8171C91.0456 52.8171 91.0816 52.8532 91.1056 52.9012C91.1236 52.9493 91.1297 52.9974 91.1297 53.0514C91.1357 53.1475 91.1417 53.2496 91.1477 53.3457C91.1477 53.3998 91.1537 53.4539 91.1356 53.5079C91.0996 53.6221 91.0516 53.6461 91.0095 53.6221Z" fill="white"/>
<path opacity="0.4" d="M91.0359 53.4841C91.0419 53.376 91.0058 53.1357 90.8977 53.2138C90.7776 53.2979 90.8797 53.7124 90.9938 53.6163C91.0238 53.5923 91.0359 53.5442 91.0419 53.5022C91.0359 53.5022 91.0359 53.4961 91.0359 53.4841Z" fill="#63A8DB"/>
<path opacity="0.4" d="M92.5064 54.1209C92.6025 54.1329 92.7947 53.9828 92.8548 53.9107C92.9329 53.8146 93.1431 53.5082 92.999 53.4061C92.9569 53.3821 92.9029 53.3941 92.8608 53.4241C92.8188 53.4541 92.7827 53.5022 92.7527 53.5443C92.6926 53.6284 92.6265 53.7124 92.5665 53.7965C92.5304 53.8446 92.5004 53.8866 92.4764 53.9467C92.4343 54.0668 92.4523 54.1149 92.5064 54.1209Z" fill="white"/>
<path opacity="0.4" d="M92.5649 53.9826C92.6309 53.8865 92.7991 53.6883 92.8412 53.8265C92.8892 53.9766 92.5528 54.277 92.5168 54.1268C92.5108 54.0848 92.5288 54.0427 92.5468 54.0007C92.5588 54.0007 92.5649 53.9947 92.5649 53.9826Z" fill="#63A8DB"/>
</g>
</g>
<g opacity="0.4">
<g opacity="0.4">
<path opacity="0.4" d="M83.378 21.0408C82.0985 19.5571 80.5487 18.3677 79.2812 16.878C80.1222 17.3466 80.9271 17.8692 81.702 18.4398C81.1254 17.731 80.6688 16.9741 80.3925 16.2473C81.9003 17.7971 83.3239 19.3649 84.4292 21.215C84.5553 21.4253 83.444 21.0468 83.378 21.0408Z" fill="#63A8DB"/>
<path opacity="0.4" d="M87.9176 24.8793C88.8607 26.7175 89.5995 28.8019 89.4313 31.0064C89.4073 31.3428 89.3953 31.6912 89.3232 32.0155C89.2631 32.2919 89.185 32.6883 88.9147 32.7484C88.5723 32.8265 88.3741 32.4661 88.1879 32.1957C87.9356 31.8353 87.7073 31.4689 87.4911 31.0905C87.0346 30.3096 86.6381 29.5047 86.2717 28.6997C85.9413 27.9729 85.629 27.2401 85.3526 26.5072C84.4636 24.1405 83.7368 21.6537 82.4453 19.4431C83.3223 20.1039 84.2354 20.5664 85.0643 21.3293C86.1576 22.3444 87.2388 23.5518 87.9176 24.8793Z" fill="#85D9F7"/>
<path opacity="0.4" d="M85.2109 22.927C85.6434 25.3538 86.9469 27.4382 88.1783 29.5226C87.914 28.3632 87.7819 27.2279 87.3194 26.1107C87.0671 25.4919 86.7487 24.9033 86.3763 24.3506C86.178 24.0623 85.259 23.2213 85.2109 22.927Z" fill="#63A8DB"/>
<path opacity="0.4" d="M90.0255 26.5913C90.1036 25.8945 89.8694 25.0956 89.4128 24.5129C89.4248 24.531 89.1786 25.2818 89.1605 25.3659C89.0945 25.6783 89.0464 26.0026 89.0224 26.333C88.9984 26.6334 88.9924 26.8436 88.9143 27.1199C88.8001 27.5104 88.8302 28.2733 89.3347 27.9429C89.7192 27.6966 89.9715 27.1139 90.0255 26.5913Z" fill="#63A8DB"/>
<path opacity="0.4" d="M85.2416 28.5857C85.596 29.0602 87.2239 29.6609 86.509 28.5977C86.4069 28.4475 85.0554 27.2762 85.0734 27.2341C84.8872 27.6726 84.9533 28.2072 85.2416 28.5857Z" fill="#63A8DB"/>
<path opacity="0.4" d="M87.8135 31.529C87.7174 31.529 87.5432 31.3728 87.4951 31.3068C87.4291 31.2167 87.2428 30.9283 87.393 30.8382C87.4351 30.8142 87.4891 30.8262 87.5252 30.8562C87.5612 30.8863 87.5972 30.9283 87.6213 30.9704C87.6753 31.0545 87.7294 31.1326 87.7834 31.2167C87.8135 31.2647 87.8435 31.3068 87.8555 31.3608C87.8916 31.487 87.8616 31.529 87.8135 31.529Z" fill="white"/>
<path opacity="0.4" d="M87.7665 31.3969C87.7124 31.3008 87.5683 31.1085 87.5082 31.2347C87.4481 31.3668 87.7365 31.6792 87.7905 31.541C87.8025 31.505 87.7905 31.4569 87.7725 31.4209C87.7725 31.4149 87.7725 31.4029 87.7665 31.3969Z" fill="#63A8DB"/>
<path opacity="0.4" d="M89.3476 31.2164C89.4317 31.1804 89.5278 30.9521 89.5399 30.862C89.5579 30.7419 89.5879 30.3694 89.4137 30.3514C89.3656 30.3454 89.3236 30.3874 89.3056 30.4355C89.2816 30.4836 89.2755 30.5376 89.2695 30.5917C89.2575 30.6938 89.2455 30.8019 89.2335 30.904C89.2275 30.9581 89.2215 31.0182 89.2335 31.0782C89.2635 31.2044 89.3056 31.2344 89.3476 31.2164Z" fill="white"/>
<path opacity="0.4" d="M89.3359 31.0664C89.3419 30.9523 89.39 30.694 89.4981 30.7961C89.6123 30.9042 89.4741 31.3307 89.372 31.2166C89.342 31.1866 89.3359 31.1385 89.3359 31.0904C89.3359 31.0844 89.3359 31.0724 89.3359 31.0664Z" fill="#63A8DB"/>
</g>
</g>
<g opacity="0.4">
<g opacity="0.4">
<path opacity="0.4" d="M65.0738 6.98586C63.2236 6.33711 61.2894 6.08482 59.4453 5.43007C60.4064 5.41806 61.3675 5.46611 62.3226 5.57423C61.4696 5.24385 60.6948 4.82338 60.0881 4.33081C62.1664 4.91949 64.1847 5.56823 66.0709 6.61343C66.2872 6.72756 65.1338 6.96183 65.0738 6.98586Z" fill="#63A8DB"/>
<path opacity="0.4" d="M70.9215 8.04291C72.6575 9.1662 74.3394 10.6019 75.3005 12.5901C75.4447 12.8965 75.6069 13.2028 75.715 13.5212C75.8051 13.7915 75.9313 14.1699 75.727 14.3622C75.4687 14.6024 75.1143 14.3862 74.82 14.248C74.4235 14.0618 74.0391 13.8576 73.6606 13.6413C72.8737 13.1908 72.1289 12.6923 71.4081 12.1757C70.7593 11.7131 70.1226 11.2326 69.5159 10.734C67.5637 9.13017 65.6895 7.34011 63.4609 6.06665C64.5482 6.20481 65.5694 6.14474 66.6746 6.39102C68.1343 6.7214 69.6721 7.23198 70.9215 8.04291Z" fill="#85D9F7"/>
<path opacity="0.4" d="M67.6016 7.70093C69.1874 9.58709 71.3559 10.7404 73.4703 11.9298C72.6594 11.0588 71.9806 10.1397 71.0195 9.40688C70.4909 8.99841 69.9202 8.64401 69.3255 8.35568C69.0072 8.1995 67.7938 7.9352 67.6016 7.70093Z" fill="#63A8DB"/>
<path opacity="0.4" d="M73.6129 8.46358C73.3306 7.82685 72.7299 7.25019 72.0391 6.97388C72.0631 6.97988 72.2193 7.76078 72.2433 7.83887C72.3394 8.14522 72.4656 8.45157 72.6097 8.74591C72.7419 9.02222 72.838 9.20244 72.9101 9.48476C73.0062 9.88122 73.4146 10.524 73.691 9.98934C73.8952 9.58087 73.8231 8.95014 73.6129 8.46358Z" fill="#63A8DB"/>
<path opacity="0.4" d="M70.4558 12.5907C70.9964 12.8189 72.7144 12.5306 71.561 11.9659C71.3928 11.8879 69.6388 11.5515 69.6328 11.5034C69.6929 11.978 70.0173 12.4045 70.4558 12.5907Z" fill="#63A8DB"/>
<path opacity="0.4" d="M74.1567 13.8522C74.0726 13.9003 73.8443 13.8522 73.7722 13.8162C73.6701 13.7681 73.3638 13.6119 73.4539 13.4618C73.4779 13.4197 73.532 13.4077 73.58 13.4077C73.6281 13.4137 73.6761 13.4377 73.7242 13.4618C73.8143 13.5038 73.8984 13.5519 73.9885 13.5939C74.0365 13.618 74.0846 13.642 74.1206 13.684C74.2047 13.7801 74.1987 13.8282 74.1567 13.8522Z" fill="white"/>
<path opacity="0.4" d="M74.049 13.7621C73.9589 13.702 73.7306 13.6119 73.7426 13.7501C73.7607 13.9002 74.1631 14.0144 74.1391 13.8702C74.1331 13.8281 74.0971 13.7981 74.067 13.7741C74.067 13.7681 74.061 13.7681 74.049 13.7621Z" fill="#63A8DB"/>
<path opacity="0.4" d="M75.3357 12.8065C75.3897 12.7285 75.3597 12.4822 75.3297 12.4041C75.2816 12.29 75.1254 11.9536 74.9692 12.0257C74.9272 12.0437 74.9092 12.0977 74.9152 12.1518C74.9212 12.2059 74.9452 12.2539 74.9633 12.308C75.0053 12.4041 75.0473 12.5002 75.0894 12.5963C75.1134 12.6504 75.1374 12.7044 75.1735 12.7465C75.2576 12.8426 75.3056 12.8486 75.3357 12.8065Z" fill="white"/>
<path opacity="0.4" d="M75.2537 12.6866C75.1996 12.5845 75.1155 12.3382 75.2597 12.3682C75.4099 12.4043 75.506 12.8428 75.3618 12.7947C75.3198 12.7827 75.2897 12.7407 75.2717 12.7046C75.2597 12.6986 75.2537 12.6926 75.2537 12.6866Z" fill="#63A8DB"/>
</g>
</g>
</g>
</svg>
