<svg width="126" height="126" viewBox="0 0 126 126" fill="none" xmlns="http://www.w3.org/2000/svg">
<g opacity="0.5">
<g opacity="0.5">
<g opacity="0.5">
<path opacity="0.5" d="M65.7645 4.11443C63.1876 4.14446 60.6767 4.70911 58.0938 4.72713C59.2771 4.27661 60.4905 3.90418 61.7219 3.60384C60.5205 3.57981 59.3672 3.41162 58.4001 3.06922C61.2354 2.85898 64.0225 2.75086 66.8338 3.19537C67.1521 3.24943 65.8306 4.04835 65.7645 4.11443Z" fill="#63A8DB"/>
<path opacity="0.5" d="M73.469 2.78108C76.124 3.38778 78.8512 4.40294 80.9355 6.43327C81.2539 6.74563 81.5903 7.05198 81.8666 7.40038C82.0949 7.69472 82.4313 8.10319 82.2631 8.43357C82.0528 8.84804 81.5182 8.73992 81.0917 8.70388C80.5211 8.64981 79.9504 8.57172 79.3858 8.47561C78.2084 8.27138 77.0671 7.99506 75.9438 7.68271C74.9347 7.40038 73.9315 7.09403 72.9524 6.75164C69.8108 5.65237 66.6932 4.2768 63.3594 3.71215C64.771 3.38778 66.0084 2.85917 67.4801 2.66695C69.4263 2.40865 71.5648 2.34258 73.469 2.78108Z" fill="#85D9F7"/>
<path opacity="0.5" d="M69.2188 3.85645C72.03 5.4723 75.2377 5.92282 78.3853 6.43941C76.9917 5.7306 75.7302 4.90165 74.2165 4.42109C73.3815 4.15679 72.5165 3.97659 71.6455 3.88048C71.183 3.83843 69.5611 4.05467 69.2188 3.85645Z" fill="#63A8DB"/>
<path opacity="0.5" d="M76.994 2.09038C76.3573 1.42962 75.3541 0.991119 74.375 0.955078C74.405 0.955078 74.9517 1.84409 75.0237 1.9342C75.282 2.27058 75.5704 2.58894 75.8827 2.88929C76.171 3.16561 76.3753 3.35182 76.5855 3.66418C76.8859 4.10869 77.6788 4.72139 77.7749 3.93449C77.853 3.33981 77.4806 2.59496 76.994 2.09038Z" fill="#63A8DB"/>
<path opacity="0.5" d="M74.953 8.61963C75.7279 8.66168 77.7162 7.52637 76.0403 7.35217C75.8 7.32815 73.4753 7.70658 73.4453 7.64651C73.7276 8.19915 74.3283 8.58359 74.953 8.61963Z" fill="#63A8DB"/>
<path opacity="0.5" d="M80.1002 8.50571C80.0221 8.60182 79.7157 8.64988 79.6076 8.63786C79.4574 8.62585 79.0129 8.56578 79.0489 8.34352C79.061 8.28345 79.115 8.24141 79.1811 8.22338C79.2472 8.20536 79.3133 8.21738 79.3793 8.22338C79.5055 8.2354 79.6376 8.25342 79.7638 8.27144C79.8358 8.28345 79.9079 8.28946 79.968 8.3255C80.1182 8.39758 80.1422 8.45765 80.1002 8.50571Z" fill="white"/>
<path opacity="0.5" d="M79.9277 8.44549C79.7895 8.41546 79.4651 8.40345 79.5432 8.56564C79.6273 8.73984 80.186 8.70379 80.0898 8.5356C80.0658 8.48755 80.0058 8.46352 79.9577 8.4515C79.9457 8.4455 79.9397 8.44549 79.9277 8.44549Z" fill="#63A8DB"/>
<path opacity="0.5" d="M81.0785 6.68557C81.1146 6.56543 80.9644 6.2771 80.8863 6.187C80.7782 6.06686 80.4298 5.71846 80.2676 5.88065C80.2255 5.9227 80.2256 6.00079 80.2556 6.06086C80.2856 6.12093 80.3397 6.17499 80.3877 6.22905C80.4839 6.32516 80.58 6.42728 80.6701 6.5294C80.7241 6.58346 80.7722 6.63752 80.8383 6.67957C81.0004 6.76366 81.0665 6.75165 81.0785 6.68557Z" fill="white"/>
<path opacity="0.5" d="M80.9247 6.5716C80.8166 6.46949 80.5943 6.19918 80.7865 6.17515C80.9908 6.15112 81.3091 6.65571 81.1049 6.66171C81.0508 6.66171 80.9968 6.63167 80.9487 6.58962C80.9427 6.58962 80.9307 6.57761 80.9247 6.5716Z" fill="#63A8DB"/>
</g>
</g>
<g opacity="0.5">
<g opacity="0.5">
<path opacity="0.5" d="M36.1032 10.9627C33.8867 12.2783 31.9945 14.0203 29.766 15.3298C30.5709 14.3506 31.4299 13.4196 32.3429 12.5426C31.2917 13.1252 30.2045 13.5517 29.1953 13.7439C31.544 12.1461 33.9047 10.6564 36.5598 9.63523C36.8721 9.52109 36.1273 10.8786 36.1032 10.9627Z" fill="#63A8DB"/>
<path opacity="0.5" d="M42.108 5.95909C44.709 5.16017 47.5803 4.67362 50.4035 5.38844C50.836 5.49656 51.2805 5.59268 51.689 5.76087C52.0374 5.89903 52.53 6.09124 52.548 6.45766C52.572 6.92019 52.0554 7.1004 51.671 7.2746C51.1484 7.51488 50.6138 7.73113 50.0792 7.92936C48.9619 8.34383 47.8266 8.6742 46.6973 8.96254C45.6821 9.22083 44.6609 9.46111 43.6398 9.65333C40.366 10.272 36.9781 10.6445 33.8125 11.8158C34.8697 10.8307 35.6806 9.75545 36.858 8.84841C38.4198 7.65905 40.2399 6.53575 42.108 5.95909Z" fill="#85D9F7"/>
<path opacity="0.5" d="M38.9688 9.01652C42.2125 9.01051 45.2159 7.79712 48.2013 6.67383C46.6395 6.75792 45.1318 6.66782 43.582 7.01021C42.7231 7.20243 41.8881 7.47274 41.0892 7.82715C40.6567 8.01937 39.3592 9.01652 38.9688 9.01652Z" fill="#63A8DB"/>
<path opacity="0.5" d="M44.8118 3.59859C43.9288 3.3403 42.8416 3.46644 41.9766 3.92296C42.0066 3.91095 42.9196 4.40351 43.0278 4.45157C43.4182 4.61376 43.8327 4.74591 44.2532 4.85403C44.6436 4.95014 44.9079 5.01021 45.2503 5.17841C45.7309 5.41868 46.722 5.55083 46.4157 4.81799C46.1814 4.25334 45.4846 3.79081 44.8118 3.59859Z" fill="#63A8DB"/>
<path opacity="0.5" d="M46.3195 10.2724C47.0103 9.91798 48.1696 7.94171 46.6258 8.62649C46.4036 8.7226 44.5775 10.2123 44.5234 10.1823C45.052 10.5187 45.7609 10.5547 46.3195 10.2724Z" fill="#63A8DB"/>
<path opacity="0.5" d="M50.7183 7.60548C50.6943 7.72562 50.454 7.92385 50.3579 7.9659C50.2258 8.02597 49.8053 8.20617 49.7272 7.98992C49.7032 7.92985 49.7332 7.86378 49.7813 7.82173C49.8293 7.77968 49.8894 7.74965 49.9555 7.71961C50.0756 7.66555 50.1957 7.6175 50.3099 7.56944C50.376 7.53941 50.442 7.51538 50.5141 7.50937C50.6823 7.49736 50.7304 7.53941 50.7183 7.60548Z" fill="white"/>
<path opacity="0.5" d="M50.5319 7.63521C50.3937 7.68326 50.1114 7.82743 50.2616 7.92955C50.4238 8.03767 50.8863 7.73132 50.7181 7.6292C50.67 7.59917 50.61 7.61118 50.5619 7.62319C50.5559 7.6292 50.5439 7.6292 50.5319 7.63521Z" fill="#63A8DB"/>
<path opacity="0.5" d="M50.6582 5.53281C50.6281 5.41267 50.3518 5.23246 50.2437 5.20243C50.0935 5.15437 49.613 5.02222 49.5589 5.25049C49.5409 5.31055 49.583 5.37063 49.637 5.41267C49.6911 5.44872 49.7632 5.47274 49.8352 5.49076C49.9674 5.5268 50.0995 5.56885 50.2317 5.60489C50.3038 5.62892 50.3759 5.64694 50.454 5.64694C50.6221 5.64094 50.6762 5.59889 50.6582 5.53281Z" fill="white"/>
<path opacity="0.5" d="M50.4592 5.51453C50.309 5.47849 49.9907 5.35836 50.1408 5.24423C50.309 5.11808 50.8316 5.4004 50.6574 5.50852C50.6094 5.53856 50.5433 5.53856 50.4892 5.52655C50.4832 5.52054 50.4712 5.52054 50.4592 5.51453Z" fill="#63A8DB"/>
</g>
</g>
<g opacity="0.5">
<g opacity="0.5">
<path opacity="0.5" d="M13.7065 31.5065C12.445 33.7591 11.6761 36.2099 10.4027 38.4565C10.6069 37.207 10.8892 35.9696 11.2436 34.7562C10.6249 35.7894 9.89808 36.6964 9.11719 37.3692C10.3546 34.8103 11.6521 32.3414 13.4422 30.1309C13.6464 29.8726 13.6824 31.4164 13.7065 31.5065Z" fill="#63A8DB"/>
<path opacity="0.5" d="M16.4013 24.1663C18.2514 22.172 20.498 20.3159 23.2972 19.529C23.7237 19.4088 24.1622 19.2707 24.6007 19.2046C24.9732 19.1505 25.4958 19.0664 25.694 19.3788C25.9463 19.7692 25.5859 20.1777 25.3396 20.5261C25.0092 20.9946 24.6548 21.4512 24.2884 21.8897C23.5255 22.8087 22.7085 23.6557 21.8796 24.4726C21.1287 25.2055 20.3659 25.9263 19.579 26.5991C17.0561 28.7676 14.3049 30.7859 12.1484 33.3869C12.5749 32.0053 12.7311 30.6657 13.3018 29.2902C14.0586 27.4821 15.0678 25.6019 16.4013 24.1663Z" fill="#85D9F7"/>
<path opacity="0.5" d="M15.2031 28.389C18.0083 26.7611 20.0026 24.2082 22.027 21.7454C20.7114 22.5983 19.3659 23.2711 18.1946 24.3463C17.5458 24.941 16.9571 25.5958 16.4406 26.3046C16.1702 26.677 15.5455 28.1908 15.2031 28.389Z" fill="#63A8DB"/>
<path opacity="0.5" d="M17.5603 20.7725C16.6652 20.9947 15.7822 21.6435 15.2656 22.4724C15.2836 22.4484 16.3228 22.4184 16.437 22.4003C16.8574 22.3463 17.2779 22.2562 17.6984 22.136C18.0829 22.0279 18.3472 21.9438 18.7196 21.9198C19.2542 21.8837 20.1793 21.5053 19.5485 21.0248C19.074 20.6583 18.239 20.6043 17.5603 20.7725Z" fill="#63A8DB"/>
<path opacity="0.5" d="M22.1994 25.8001C22.6199 25.1454 22.6319 22.8567 21.6408 24.2263C21.4966 24.4245 20.6616 26.623 20.6016 26.623C21.2263 26.6531 21.857 26.3287 22.1994 25.8001Z" fill="#63A8DB"/>
<path opacity="0.5" d="M24.6809 21.289C24.7229 21.4032 24.6088 21.6915 24.5487 21.7816C24.4647 21.9017 24.1883 22.2621 24.0141 22.118C23.9661 22.0759 23.9601 22.0038 23.9781 21.9438C23.9961 21.8837 24.0382 21.8236 24.0802 21.7696C24.1583 21.6675 24.2364 21.5593 24.3145 21.4572C24.3565 21.4032 24.4046 21.3431 24.4647 21.301C24.5908 21.2169 24.6569 21.229 24.6809 21.289Z" fill="white"/>
<path opacity="0.5" d="M24.5388 21.4088C24.4427 21.517 24.2745 21.7873 24.4547 21.7993C24.647 21.8113 24.8993 21.3127 24.701 21.3127C24.647 21.3127 24.5989 21.3488 24.5629 21.3848C24.5509 21.3908 24.5449 21.3968 24.5388 21.4088Z" fill="#63A8DB"/>
<path opacity="0.5" d="M23.5898 19.5291C23.5057 19.439 23.1754 19.421 23.0612 19.445C22.905 19.481 22.4245 19.6072 22.4906 19.8294C22.5086 19.8895 22.5747 19.9255 22.6407 19.9315C22.7068 19.9376 22.7789 19.9195 22.851 19.9015C22.9831 19.8655 23.1213 19.8354 23.2535 19.8054C23.3255 19.7874 23.4036 19.7694 23.4697 19.7333C23.6139 19.6372 23.6379 19.5711 23.5898 19.5291Z" fill="white"/>
<path opacity="0.5" d="M23.4121 19.6071C23.2679 19.6492 22.9255 19.7032 23.0036 19.529C23.0877 19.3368 23.6764 19.3188 23.5863 19.499C23.5623 19.5471 23.5022 19.5771 23.4481 19.6011C23.4361 19.6011 23.4241 19.6071 23.4121 19.6071Z" fill="#63A8DB"/>
</g>
</g>
<g opacity="0.5">
<g opacity="0.5">
<path opacity="0.5" d="M4.11833 60.2427C4.14837 62.8196 4.71302 65.3305 4.73104 67.9135C4.28052 66.7301 3.90809 65.5167 3.60774 64.2853C3.58371 65.4867 3.41552 66.64 3.07313 67.6071C2.86289 64.7719 2.75477 61.9847 3.19928 59.1734C3.25334 58.8551 4.05226 60.1766 4.11833 60.2427Z" fill="#63A8DB"/>
<path opacity="0.5" d="M2.78743 52.5358C3.39412 49.8808 4.40929 47.1536 6.43962 45.0692C6.75198 44.7509 7.05833 44.4145 7.40673 44.1382C7.70107 43.9099 8.10954 43.5735 8.43991 43.7417C8.85439 43.952 8.74626 44.4866 8.71022 44.9131C8.65616 45.4897 8.57807 46.0544 8.48196 46.619C8.27772 47.7964 8.00141 48.9377 7.68905 50.061C7.40673 51.0701 7.10038 52.0733 6.75798 53.0524C5.65872 56.194 4.28315 59.3116 3.7185 62.6454C3.39413 61.2338 2.86552 59.9964 2.6733 58.5247C2.415 56.5784 2.34893 54.44 2.78743 52.5358Z" fill="#85D9F7"/>
<path opacity="0.5" d="M3.85938 56.7886C5.47523 53.9774 5.92575 50.7697 6.44234 47.6221C5.73353 49.0157 4.90458 50.2771 4.42402 51.7909C4.15972 52.6258 3.97952 53.4908 3.88341 54.3618C3.84136 54.8243 4.0576 56.4462 3.85938 56.7886Z" fill="#63A8DB"/>
<path opacity="0.5" d="M2.09624 49.0159C1.43548 49.6526 0.996979 50.6558 0.960938 51.6349C0.960938 51.6049 1.84995 51.0582 1.94005 50.9861C2.27644 50.7279 2.5948 50.4395 2.89515 50.1272C3.17146 49.8388 3.35768 49.6346 3.67004 49.4244C4.11455 49.124 4.72725 48.3311 3.94035 48.235C3.34567 48.1569 2.60082 48.5293 2.09624 49.0159Z" fill="#63A8DB"/>
<path opacity="0.5" d="M8.62012 51.0523C8.66216 50.2774 7.52686 48.2891 7.35266 49.9651C7.32863 50.2053 7.70707 52.53 7.647 52.56C8.19964 52.2777 8.58407 51.677 8.62012 51.0523Z" fill="#63A8DB"/>
<path opacity="0.5" d="M8.51059 45.9042C8.6067 45.9823 8.65476 46.2886 8.64274 46.3968C8.63073 46.5469 8.57066 46.9915 8.3484 46.9554C8.28833 46.9434 8.24629 46.8893 8.22827 46.8233C8.21025 46.7572 8.22226 46.6911 8.22827 46.625C8.24028 46.4989 8.2583 46.3667 8.27632 46.2406C8.28233 46.1685 8.29434 46.0964 8.33038 46.0364C8.40247 45.8862 8.46254 45.8622 8.51059 45.9042Z" fill="white"/>
<path opacity="0.5" d="M8.45575 46.0785C8.42571 46.2167 8.41371 46.5411 8.57589 46.463C8.75009 46.3789 8.71405 45.8202 8.54585 45.9163C8.4978 45.9404 8.47377 46.0004 8.46176 46.0485C8.45575 46.0605 8.45575 46.0665 8.45575 46.0785Z" fill="#63A8DB"/>
<path opacity="0.5" d="M6.69094 44.9254C6.5708 44.8894 6.28247 45.0395 6.19237 45.1176C6.07223 45.2258 5.72384 45.5742 5.88602 45.7363C5.92807 45.7784 6.00616 45.7784 6.06623 45.7484C6.1263 45.7183 6.18036 45.6643 6.23442 45.6162C6.33053 45.5201 6.43265 45.424 6.53477 45.3339C6.58883 45.2798 6.64289 45.2318 6.68494 45.1657C6.76904 45.0035 6.75702 44.9374 6.69094 44.9254Z" fill="white"/>
<path opacity="0.5" d="M6.57698 45.0814C6.47486 45.1895 6.20455 45.4118 6.18052 45.2196C6.15649 45.0153 6.66108 44.697 6.66708 44.9012C6.66708 44.9553 6.63704 45.0093 6.595 45.0574C6.595 45.0634 6.58298 45.0754 6.57698 45.0814Z" fill="#63A8DB"/>
</g>
</g>
<g opacity="0.5">
<g opacity="0.5">
<path opacity="0.5" d="M10.9775 89.8994C12.293 92.1159 14.035 94.0081 15.3445 96.2366C14.3654 95.4377 13.4343 94.5727 12.5573 93.6597C13.14 94.7109 13.5664 95.7981 13.7587 96.8073C12.1608 94.4586 10.6711 92.0979 9.65596 89.4429C9.53582 89.1305 10.8934 89.8754 10.9775 89.8994Z" fill="#63A8DB"/>
<path opacity="0.5" d="M5.96495 83.8927C5.16603 81.2917 4.67948 78.4204 5.3943 75.5972C5.50242 75.1647 5.59854 74.7202 5.76673 74.3117C5.90489 73.9633 6.0971 73.4707 6.46352 73.4527C6.92605 73.4287 7.10626 73.9453 7.28046 74.3297C7.52074 74.8523 7.73699 75.3869 7.93522 75.9216C8.34969 77.0388 8.68006 78.1741 8.96839 79.3034C9.22669 80.3186 9.46697 81.3398 9.65919 82.3609C10.2779 85.6347 10.6503 89.0226 11.8217 92.1882C10.8365 91.131 9.76131 90.3201 8.85427 89.1427C7.66491 87.5809 6.54161 85.7608 5.96495 83.8927Z" fill="#85D9F7"/>
<path opacity="0.5" d="M9.03019 87.0341C9.02419 83.7904 7.81079 80.7869 6.6875 77.8015C6.7716 79.3633 6.68149 80.871 7.02388 82.4208C7.2161 83.2798 7.48642 84.1148 7.84082 84.9137C8.03304 85.3462 9.03019 86.6437 9.03019 87.0341Z" fill="#63A8DB"/>
<path opacity="0.5" d="M3.60885 81.1896C3.35055 82.0726 3.47669 83.1599 3.93321 84.0248C3.9212 83.9948 4.41377 83.0818 4.46182 82.9736C4.62401 82.5832 4.75616 82.1747 4.86428 81.7482C4.96039 81.3578 5.02047 81.0935 5.18866 80.7511C5.42894 80.2705 5.56109 79.2794 4.82824 79.5857C4.2636 79.82 3.80107 80.5168 3.60885 81.1896Z" fill="#63A8DB"/>
<path opacity="0.5" d="M10.2812 79.6881C9.92677 78.9973 7.9505 77.838 8.63528 79.3817C8.73139 79.604 10.2211 81.4301 10.1911 81.4842C10.5275 80.9556 10.5635 80.2467 10.2812 79.6881Z" fill="#63A8DB"/>
<path opacity="0.5" d="M7.61378 75.2847C7.73392 75.3087 7.93215 75.549 7.9742 75.6451C8.03427 75.7773 8.21447 76.1977 7.99822 76.2758C7.93815 76.2999 7.87208 76.2698 7.83003 76.2218C7.78798 76.1737 7.75795 76.1136 7.72792 76.0476C7.67385 75.9274 7.6258 75.8073 7.57774 75.6932C7.54771 75.6271 7.52368 75.561 7.51767 75.4889C7.50566 75.3207 7.54771 75.2727 7.61378 75.2847Z" fill="white"/>
<path opacity="0.5" d="M7.64204 75.4708C7.6901 75.6089 7.83427 75.8912 7.93638 75.7411C8.04451 75.5789 7.73816 75.1164 7.63604 75.2845C7.60601 75.3326 7.61801 75.3927 7.63003 75.4407C7.63603 75.4467 7.63604 75.4587 7.64204 75.4708Z" fill="#63A8DB"/>
<path opacity="0.5" d="M5.54502 75.3449C5.42488 75.3749 5.25068 75.6512 5.21464 75.7593C5.16658 75.9095 5.03443 76.3901 5.26269 76.4441C5.32276 76.4621 5.38283 76.4201 5.42488 76.366C5.46092 76.312 5.48494 76.2399 5.50296 76.1678C5.53901 76.0357 5.58106 75.9035 5.6171 75.7714C5.64112 75.6993 5.65915 75.6272 5.65915 75.5491C5.65314 75.3809 5.61109 75.3268 5.54502 75.3449Z" fill="white"/>
<path opacity="0.5" d="M5.52869 75.5431C5.49265 75.6933 5.37252 76.0117 5.25839 75.8615C5.13224 75.6933 5.41456 75.1707 5.52268 75.3449C5.55272 75.3929 5.55272 75.459 5.54071 75.5131C5.5347 75.5191 5.5347 75.5311 5.52869 75.5431Z" fill="#63A8DB"/>
</g>
</g>
<g opacity="0.5">
<g opacity="0.5">
<path opacity="0.5" d="M31.5141 112.299C33.7666 113.561 36.2174 114.329 38.464 115.603C37.2146 115.399 35.9772 115.116 34.7638 114.762C35.797 115.381 36.704 116.107 37.3768 116.888C34.8178 115.651 32.349 114.353 30.1385 112.563C29.8802 112.359 31.424 112.323 31.5141 112.299Z" fill="#63A8DB"/>
<path opacity="0.5" d="M24.1704 109.602C22.1762 107.752 20.32 105.505 19.5331 102.706C19.413 102.279 19.2748 101.841 19.2087 101.402C19.1547 101.03 19.0706 100.507 19.3829 100.309C19.7734 100.057 20.1819 100.417 20.5303 100.664C20.9988 100.994 21.4553 101.348 21.8938 101.715C22.8129 102.478 23.6599 103.295 24.4768 104.124C25.2096 104.874 25.9305 105.637 26.6032 106.424C28.7717 108.947 30.79 111.698 33.391 113.855C32.0094 113.428 30.6699 113.272 29.2943 112.701C27.4862 111.945 25.6061 110.935 24.1704 109.602Z" fill="#85D9F7"/>
<path opacity="0.5" d="M28.3936 110.797C26.7658 107.992 24.2128 105.998 21.75 103.973C22.603 105.289 23.2757 106.634 24.351 107.806C24.9457 108.455 25.6004 109.043 26.3092 109.56C26.6817 109.83 28.1954 110.455 28.3936 110.797Z" fill="#63A8DB"/>
<path opacity="0.5" d="M20.7708 108.443C20.993 109.338 21.6418 110.221 22.4707 110.738C22.4467 110.72 22.4166 109.68 22.3986 109.566C22.3446 109.146 22.2545 108.725 22.1343 108.305C22.0262 107.92 21.9421 107.656 21.9181 107.284C21.882 106.749 21.5036 105.824 21.023 106.455C20.6566 106.929 20.6026 107.764 20.7708 108.443Z" fill="#63A8DB"/>
<path opacity="0.5" d="M25.8077 103.805C25.1529 103.385 22.8643 103.373 24.2339 104.364C24.4321 104.508 26.6306 105.343 26.6306 105.403C26.6606 104.778 26.3363 104.148 25.8077 103.805Z" fill="#63A8DB"/>
<path opacity="0.5" d="M21.2902 101.324C21.4044 101.282 21.6927 101.396 21.7828 101.456C21.9029 101.541 22.2634 101.817 22.1192 101.991C22.0771 102.039 22.0051 102.045 21.945 102.027C21.8849 102.009 21.8249 101.967 21.7708 101.925C21.6687 101.847 21.5606 101.769 21.4584 101.691C21.4044 101.649 21.3443 101.601 21.3023 101.541C21.2182 101.414 21.2302 101.348 21.2902 101.324Z" fill="white"/>
<path opacity="0.5" d="M21.4086 101.469C21.5167 101.565 21.787 101.733 21.7991 101.553C21.8111 101.36 21.3125 101.108 21.3125 101.306C21.3125 101.36 21.3485 101.408 21.3846 101.445C21.3906 101.457 21.3966 101.463 21.4086 101.469Z" fill="#63A8DB"/>
<path opacity="0.5" d="M19.5313 102.412C19.4412 102.496 19.4232 102.826 19.4472 102.941C19.4832 103.097 19.6094 103.577 19.8316 103.511C19.8917 103.493 19.9277 103.427 19.9337 103.361C19.9398 103.295 19.9217 103.223 19.9037 103.151C19.8677 103.019 19.8376 102.88 19.8076 102.748C19.7896 102.676 19.7716 102.598 19.7355 102.532C19.6394 102.388 19.5733 102.364 19.5313 102.412Z" fill="white"/>
<path opacity="0.5" d="M19.6083 102.592C19.6504 102.736 19.7045 103.079 19.5303 103C19.338 102.916 19.32 102.328 19.5002 102.418C19.5483 102.442 19.5783 102.502 19.6023 102.556C19.6023 102.568 19.6083 102.58 19.6083 102.592Z" fill="#63A8DB"/>
</g>
</g>
<g opacity="0.5">
<g opacity="0.5">
<path opacity="0.5" d="M60.2436 121.886C62.8206 121.856 65.3315 121.291 67.9144 121.273C66.7311 121.724 65.5177 122.096 64.2863 122.397C65.4877 122.421 66.641 122.589 67.6081 122.931C64.7728 123.142 61.9856 123.25 59.1744 122.805C58.8561 122.751 60.1776 121.952 60.2436 121.886Z" fill="#63A8DB"/>
<path opacity="0.5" d="M52.5348 123.22C49.8798 122.613 47.1527 121.598 45.0683 119.568C44.7499 119.255 44.4135 118.949 44.1372 118.601C43.9089 118.306 43.5725 117.898 43.7407 117.567C43.951 117.153 44.4856 117.261 44.9121 117.297C45.4887 117.351 46.0534 117.429 46.618 117.525C47.7954 117.73 48.9367 118.006 50.06 118.318C51.0692 118.601 52.0723 118.907 53.0514 119.249C56.193 120.349 59.3106 121.724 62.6444 122.289C61.2328 122.613 59.9954 123.142 58.5237 123.334C56.5775 123.592 54.439 123.658 52.5348 123.22Z" fill="#85D9F7"/>
<path opacity="0.5" d="M56.7837 122.144C53.9725 120.529 50.7648 120.078 47.6172 119.562C49.0108 120.27 50.2722 121.099 51.786 121.58C52.6209 121.844 53.4859 122.024 54.3569 122.12C54.8194 122.163 56.4413 121.946 56.7837 122.144Z" fill="#63A8DB"/>
<path opacity="0.5" d="M49.0178 123.91C49.6546 124.577 50.6577 125.01 51.6368 125.046C51.6068 125.046 51.0602 124.157 50.9881 124.066C50.7298 123.73 50.4415 123.412 50.1291 123.111C49.8408 122.835 49.6365 122.649 49.4263 122.336C49.126 121.892 48.3331 121.279 48.2369 122.066C48.1589 122.661 48.5313 123.406 49.0178 123.91Z" fill="#63A8DB"/>
<path opacity="0.5" d="M51.0528 117.381C50.2779 117.339 48.2896 118.474 49.9655 118.648C50.2058 118.673 52.5305 118.294 52.5605 118.354C52.2782 117.802 51.6775 117.417 51.0528 117.381Z" fill="#63A8DB"/>
<path opacity="0.5" d="M45.9013 117.495C45.9794 117.399 46.2857 117.351 46.3938 117.363C46.544 117.375 46.9885 117.435 46.9525 117.657C46.9405 117.718 46.8864 117.76 46.8203 117.778C46.7543 117.796 46.6882 117.784 46.6221 117.778C46.496 117.766 46.3638 117.748 46.2377 117.73C46.1656 117.718 46.0935 117.712 46.0334 117.675C45.8833 117.603 45.8592 117.543 45.9013 117.495Z" fill="white"/>
<path opacity="0.5" d="M46.0795 117.555C46.2177 117.585 46.542 117.597 46.464 117.435C46.3799 117.261 45.8212 117.297 45.9173 117.465C45.9414 117.513 46.0014 117.537 46.0495 117.549C46.0615 117.555 46.0675 117.555 46.0795 117.555Z" fill="#63A8DB"/>
<path opacity="0.5" d="M44.9196 119.315C44.8835 119.435 45.0337 119.724 45.1118 119.814C45.2199 119.934 45.5683 120.282 45.7305 120.12C45.7725 120.078 45.7725 120 45.7425 119.94C45.7125 119.88 45.6584 119.826 45.6103 119.772C45.5142 119.675 45.4181 119.573 45.328 119.471C45.274 119.417 45.2259 119.363 45.1598 119.321C44.9976 119.237 44.9316 119.249 44.9196 119.315Z" fill="white"/>
<path opacity="0.5" d="M45.0819 119.429C45.19 119.532 45.4123 119.802 45.22 119.826C45.0158 119.85 44.6974 119.345 44.9017 119.339C44.9557 119.339 45.0098 119.369 45.0579 119.411C45.0639 119.411 45.0759 119.423 45.0819 119.429Z" fill="#63A8DB"/>
</g>
</g>
<g opacity="0.5">
<g opacity="0.5">
<path opacity="0.5" d="M89.9001 115.037C92.1167 113.722 94.0088 111.98 96.2374 110.67C95.4325 111.649 94.5735 112.58 93.6604 113.457C94.7116 112.875 95.7989 112.448 96.808 112.256C94.4593 113.854 92.0986 115.344 89.4436 116.365C89.1312 116.479 89.8761 115.121 89.9001 115.037Z" fill="#63A8DB"/>
<path opacity="0.5" d="M83.8939 120.041C81.2929 120.84 78.4216 121.327 75.5984 120.612C75.1659 120.504 74.7214 120.407 74.3129 120.239C73.9645 120.101 73.472 119.909 73.4539 119.542C73.4299 119.08 73.9465 118.9 74.3309 118.726C74.8535 118.485 75.3882 118.269 75.9228 118.071C77.0401 117.656 78.1754 117.326 79.3047 117.038C80.3198 116.779 81.341 116.539 82.3622 116.347C85.6359 115.728 89.0238 115.356 92.1894 114.184C91.1322 115.169 90.3213 116.245 89.1439 117.152C87.5821 118.341 85.7621 119.464 83.8939 120.041Z" fill="#85D9F7"/>
<path opacity="0.5" d="M87.0373 116.984C83.7936 116.99 80.7901 118.203 77.8047 119.326C79.3665 119.242 80.8742 119.332 82.424 118.99C83.283 118.798 84.1179 118.527 84.9168 118.173C85.3493 117.981 86.6468 116.984 87.0373 116.984Z" fill="#63A8DB"/>
<path opacity="0.5" d="M81.1928 122.402C82.0758 122.66 83.163 122.534 84.028 122.077C83.998 122.089 83.0849 121.597 82.9768 121.549C82.5864 121.387 82.1719 121.254 81.7514 121.146C81.361 121.05 81.0966 120.99 80.7543 120.822C80.2737 120.582 79.2826 120.45 79.5889 121.182C79.8232 121.747 80.52 122.21 81.1928 122.402Z" fill="#63A8DB"/>
<path opacity="0.5" d="M79.6879 115.728C78.9971 116.083 77.8377 118.059 79.3815 117.374C79.6038 117.278 81.4299 115.788 81.4839 115.818C80.9553 115.482 80.2465 115.446 79.6879 115.728Z" fill="#63A8DB"/>
<path opacity="0.5" d="M75.283 118.395C75.307 118.275 75.5473 118.077 75.6434 118.035C75.7755 117.974 76.196 117.794 76.2741 118.011C76.2982 118.071 76.2681 118.137 76.2201 118.179C76.172 118.221 76.1119 118.251 76.0459 118.281C75.9257 118.335 75.8056 118.383 75.6915 118.431C75.6254 118.461 75.5593 118.485 75.4872 118.491C75.319 118.503 75.271 118.461 75.283 118.395Z" fill="white"/>
<path opacity="0.5" d="M75.4725 118.365C75.6106 118.317 75.8929 118.173 75.7428 118.071C75.5806 117.963 75.1181 118.269 75.2863 118.371C75.3343 118.401 75.3944 118.389 75.4424 118.377C75.4484 118.371 75.4605 118.371 75.4725 118.365Z" fill="#63A8DB"/>
<path opacity="0.5" d="M75.3471 120.467C75.3771 120.588 75.6534 120.762 75.7615 120.798C75.9117 120.846 76.3923 120.978 76.4463 120.75C76.4643 120.69 76.4223 120.63 76.3682 120.588C76.3142 120.551 76.2421 120.527 76.17 120.509C76.0379 120.473 75.9057 120.431 75.7736 120.395C75.7015 120.371 75.6294 120.353 75.5513 120.353C75.3831 120.359 75.329 120.401 75.3471 120.467Z" fill="white"/>
<path opacity="0.5" d="M75.5458 120.486C75.696 120.522 76.0144 120.642 75.8642 120.756C75.696 120.882 75.1734 120.6 75.3476 120.492C75.3956 120.462 75.4617 120.462 75.5158 120.474C75.5218 120.48 75.5338 120.48 75.5458 120.486Z" fill="#63A8DB"/>
</g>
</g>
<g opacity="0.5">
<g opacity="0.5">
<path opacity="0.5" d="M112.312 94.4949C113.574 92.2423 114.343 89.7915 115.616 87.5449C115.412 88.7944 115.13 90.0318 114.775 91.2452C115.394 90.212 116.121 89.305 116.902 88.6322C115.664 91.1911 114.367 93.6599 112.577 95.8705C112.373 96.1288 112.337 94.585 112.312 94.4949Z" fill="#63A8DB"/>
<path opacity="0.5" d="M109.613 101.835C107.763 103.83 105.516 105.686 102.717 106.473C102.29 106.593 101.852 106.731 101.413 106.797C101.041 106.851 100.518 106.935 100.32 106.623C100.068 106.232 100.428 105.824 100.675 105.476C101.005 105.007 101.359 104.55 101.726 104.112C102.489 103.193 103.306 102.346 104.135 101.529C104.885 100.796 105.648 100.075 106.435 99.4025C108.958 97.2341 111.709 95.2157 113.866 92.6147C113.439 93.9963 113.283 95.3359 112.712 96.7115C111.956 98.5195 110.946 100.4 109.613 101.835Z" fill="#85D9F7"/>
<path opacity="0.5" d="M110.808 97.6123C108.003 99.2402 106.009 101.793 103.984 104.256C105.3 103.403 106.645 102.73 107.817 101.655C108.466 101.06 109.054 100.406 109.571 99.6967C109.841 99.3243 110.466 97.8105 110.808 97.6123Z" fill="#63A8DB"/>
<path opacity="0.5" d="M108.45 105.229C109.346 105.007 110.229 104.358 110.745 103.529C110.727 103.553 109.688 103.583 109.574 103.601C109.153 103.655 108.733 103.746 108.312 103.866C107.928 103.974 107.664 104.058 107.291 104.082C106.757 104.118 105.831 104.496 106.462 104.977C106.937 105.343 107.772 105.397 108.45 105.229Z" fill="#63A8DB"/>
<path opacity="0.5" d="M103.817 100.201C103.397 100.856 103.385 103.145 104.376 101.775C104.52 101.577 105.355 99.3784 105.415 99.3784C104.79 99.3484 104.16 99.6727 103.817 100.201Z" fill="#63A8DB"/>
<path opacity="0.5" d="M101.329 104.713C101.287 104.598 101.401 104.31 101.462 104.22C101.546 104.1 101.822 103.739 101.996 103.884C102.044 103.926 102.05 103.998 102.032 104.058C102.014 104.118 101.972 104.178 101.93 104.232C101.852 104.334 101.774 104.442 101.696 104.544C101.654 104.598 101.606 104.659 101.546 104.701C101.42 104.785 101.353 104.773 101.329 104.713Z" fill="white"/>
<path opacity="0.5" d="M101.484 104.593C101.581 104.485 101.749 104.214 101.569 104.202C101.376 104.19 101.124 104.689 101.322 104.689C101.376 104.689 101.424 104.653 101.46 104.617C101.472 104.611 101.478 104.605 101.484 104.593Z" fill="#63A8DB"/>
<path opacity="0.5" d="M102.421 106.473C102.505 106.563 102.835 106.581 102.95 106.557C103.106 106.521 103.586 106.395 103.52 106.173C103.502 106.113 103.436 106.077 103.37 106.071C103.304 106.065 103.232 106.083 103.16 106.101C103.028 106.137 102.889 106.167 102.757 106.197C102.685 106.215 102.607 106.233 102.541 106.269C102.397 106.365 102.373 106.431 102.421 106.473Z" fill="white"/>
<path opacity="0.5" d="M102.605 106.395C102.75 106.353 103.092 106.299 103.014 106.473C102.93 106.665 102.341 106.683 102.431 106.503C102.455 106.455 102.515 106.425 102.569 106.401C102.581 106.401 102.593 106.395 102.605 106.395Z" fill="#63A8DB"/>
</g>
</g>
<g opacity="0.5">
<g opacity="0.5">
<path opacity="0.5" d="M121.886 65.758C121.856 63.181 121.291 60.6701 121.273 58.0872C121.724 59.2705 122.096 60.4839 122.397 61.7153C122.421 60.5139 122.589 59.3606 122.931 58.3935C123.142 61.2288 123.25 64.016 122.805 66.8272C122.751 67.1455 121.952 65.824 121.886 65.758Z" fill="#63A8DB"/>
<path opacity="0.5" d="M123.22 73.4648C122.614 76.1199 121.599 78.847 119.568 80.9314C119.256 81.2498 118.95 81.5861 118.601 81.8625C118.307 82.0907 117.898 82.4271 117.568 82.2589C117.153 82.0487 117.262 81.514 117.298 81.0876C117.352 80.5169 117.43 79.9463 117.526 79.3816C117.73 78.2043 118.006 77.063 118.319 75.9397C118.601 74.9305 118.907 73.9274 119.25 72.9482C120.349 69.8066 121.725 66.689 122.289 63.3552C122.614 64.7668 123.142 66.0043 123.335 67.476C123.593 69.4222 123.659 71.5606 123.22 73.4648Z" fill="#85D9F7"/>
<path opacity="0.5" d="M122.145 69.2122C120.53 72.0234 120.079 75.2311 119.562 78.3787C120.271 76.9851 121.1 75.7236 121.581 74.2099C121.845 73.3749 122.025 72.5099 122.121 71.6389C122.163 71.1764 121.947 69.5546 122.145 69.2122Z" fill="#63A8DB"/>
<path opacity="0.5" d="M123.911 76.985C124.571 76.3482 125.01 75.3451 125.046 74.366C125.046 74.396 124.157 74.9426 124.067 75.0147C123.731 75.273 123.412 75.5613 123.112 75.8737C122.836 76.162 122.649 76.3663 122.337 76.5765C121.892 76.8768 121.28 77.6697 122.067 77.7659C122.661 77.8439 123.406 77.4715 123.911 76.985Z" fill="#63A8DB"/>
<path opacity="0.5" d="M117.384 74.9484C117.342 75.7233 118.477 77.7116 118.651 76.0357C118.675 75.7954 118.297 73.4707 118.357 73.4407C117.804 73.723 117.42 74.3237 117.384 74.9484Z" fill="#63A8DB"/>
<path opacity="0.5" d="M117.493 80.0965C117.397 80.0184 117.349 79.7121 117.361 79.6039C117.373 79.4538 117.433 79.0092 117.656 79.0453C117.716 79.0573 117.758 79.1114 117.776 79.1774C117.794 79.2435 117.782 79.3096 117.776 79.3757C117.764 79.5018 117.746 79.634 117.728 79.7601C117.722 79.8322 117.71 79.9043 117.674 79.9643C117.601 80.1145 117.541 80.1385 117.493 80.0965Z" fill="white"/>
<path opacity="0.5" d="M117.555 79.9221C117.585 79.7839 117.597 79.4595 117.435 79.5376C117.261 79.6217 117.297 80.1803 117.465 80.0842C117.513 80.0602 117.537 80.0001 117.549 79.9521C117.555 79.9401 117.555 79.9341 117.555 79.9221Z" fill="#63A8DB"/>
<path opacity="0.5" d="M119.319 81.0754C119.439 81.1114 119.727 80.9612 119.818 80.8831C119.938 80.775 120.286 80.4266 120.124 80.2644C120.082 80.2224 120.004 80.2224 119.944 80.2524C119.884 80.2825 119.83 80.3365 119.775 80.3846C119.679 80.4807 119.577 80.5768 119.475 80.6669C119.421 80.721 119.367 80.769 119.325 80.8351C119.241 80.9973 119.253 81.0633 119.319 81.0754Z" fill="white"/>
<path opacity="0.5" d="M119.434 80.9196C119.536 80.8114 119.806 80.5892 119.83 80.7814C119.854 80.9856 119.35 81.304 119.344 81.0998C119.344 81.0457 119.374 80.9916 119.416 80.9436C119.416 80.9376 119.428 80.9256 119.434 80.9196Z" fill="#63A8DB"/>
</g>
</g>
<g opacity="0.5">
<g opacity="0.5">
<path opacity="0.5" d="M115.031 36.1018C113.716 33.8852 111.974 31.9931 110.664 29.7645C111.643 30.5634 112.574 31.4284 113.451 32.3415C112.869 31.2903 112.442 30.203 112.25 29.1938C113.848 31.5425 115.337 33.9032 116.353 36.5583C116.473 36.8707 115.115 36.1258 115.031 36.1018Z" fill="#63A8DB"/>
<path opacity="0.5" d="M120.036 42.1085C120.835 44.7095 121.322 47.5808 120.607 50.404C120.499 50.8365 120.403 51.281 120.235 51.6895C120.096 52.0379 119.904 52.5305 119.538 52.5485C119.075 52.5725 118.895 52.0559 118.721 51.6715C118.481 51.1489 118.264 50.6143 118.066 50.0797C117.652 48.9624 117.321 47.8271 117.033 46.6978C116.775 45.6826 116.534 44.6614 116.342 43.6403C115.723 40.3665 115.351 36.9786 114.18 33.813C115.165 34.8702 116.24 35.6811 117.147 36.8585C118.336 38.4203 119.46 40.2404 120.036 42.1085Z" fill="#85D9F7"/>
<path opacity="0.5" d="M116.977 38.9668C116.983 42.2105 118.196 45.214 119.319 48.1994C119.235 46.6376 119.325 45.1299 118.983 43.5801C118.791 42.7211 118.52 41.8861 118.166 41.0872C117.974 40.6547 116.977 39.3572 116.977 38.9668Z" fill="#63A8DB"/>
<path opacity="0.5" d="M122.395 44.8118C122.653 43.9288 122.527 42.8416 122.07 41.9766C122.082 42.0066 121.59 42.9196 121.542 43.0278C121.38 43.4182 121.247 43.8267 121.139 44.2532C121.043 44.6436 120.983 44.9079 120.815 45.2503C120.575 45.7309 120.442 46.722 121.175 46.4157C121.74 46.1814 122.202 45.4846 122.395 44.8118Z" fill="#63A8DB"/>
<path opacity="0.5" d="M115.721 46.3132C116.075 47.0039 118.051 48.1633 117.367 46.6195C117.27 46.3972 115.781 44.5712 115.811 44.5171C115.474 45.0457 115.438 45.7545 115.721 46.3132Z" fill="#63A8DB"/>
<path opacity="0.5" d="M118.394 50.7164C118.274 50.6924 118.076 50.4521 118.034 50.356C117.974 50.2238 117.794 49.8033 118.01 49.7253C118.07 49.7012 118.136 49.7313 118.178 49.7793C118.22 49.8274 118.25 49.8874 118.28 49.9535C118.334 50.0737 118.382 50.1938 118.43 50.3079C118.46 50.374 118.484 50.4401 118.49 50.5122C118.502 50.6804 118.46 50.7284 118.394 50.7164Z" fill="white"/>
<path opacity="0.5" d="M118.356 50.5304C118.308 50.3923 118.164 50.1099 118.062 50.2601C117.954 50.4223 118.26 50.8848 118.362 50.7166C118.392 50.6686 118.38 50.6085 118.368 50.5604C118.362 50.5544 118.362 50.5424 118.356 50.5304Z" fill="#63A8DB"/>
<path opacity="0.5" d="M120.458 50.6562C120.578 50.6262 120.752 50.3499 120.788 50.2418C120.836 50.0916 120.968 49.611 120.74 49.557C120.68 49.5389 120.62 49.581 120.578 49.6351C120.542 49.6891 120.518 49.7612 120.5 49.8333C120.464 49.9654 120.422 50.0976 120.386 50.2297C120.362 50.3018 120.344 50.3739 120.344 50.452C120.35 50.6202 120.392 50.6743 120.458 50.6562Z" fill="white"/>
<path opacity="0.5" d="M120.48 50.4582C120.517 50.3081 120.637 49.9897 120.751 50.1399C120.877 50.3081 120.595 50.8307 120.486 50.6565C120.456 50.6084 120.456 50.5423 120.468 50.4883C120.474 50.4823 120.474 50.4702 120.48 50.4582Z" fill="#63A8DB"/>
</g>
</g>
<g opacity="0.5">
<g opacity="0.5">
<path opacity="0.5" d="M94.489 13.7021C92.2365 12.4406 89.7856 11.6717 87.5391 10.3983C88.7885 10.6025 90.0259 10.8848 91.2393 11.2392C90.2061 10.6205 89.2991 9.89369 88.6263 9.11279C91.1853 10.3502 93.6541 11.6477 95.8646 13.4378C96.1229 13.642 94.5791 13.678 94.489 13.7021Z" fill="#63A8DB"/>
<path opacity="0.5" d="M101.83 16.3989C103.824 18.249 105.68 20.4956 106.467 23.2948C106.587 23.7213 106.726 24.1598 106.792 24.5983C106.846 24.9707 106.93 25.4933 106.617 25.6915C106.227 25.9438 105.819 25.5834 105.47 25.3371C105.002 25.0068 104.545 24.6523 104.107 24.2859C103.188 23.5231 102.341 22.7061 101.524 21.8772C100.791 21.1263 100.07 20.3634 99.3972 19.5765C97.2287 17.0536 95.2104 14.3025 92.6094 12.146C93.991 12.5725 95.3305 12.7287 96.7061 13.2993C98.5142 14.0562 100.394 15.0653 101.83 16.3989Z" fill="#85D9F7"/>
<path opacity="0.5" d="M97.6094 15.2036C99.2372 18.0088 101.79 20.0031 104.253 22.0274C103.4 20.7119 102.727 19.3664 101.652 18.1951C101.057 17.5463 100.403 16.9576 99.6938 16.441C99.3213 16.1707 97.8076 15.546 97.6094 15.2036Z" fill="#63A8DB"/>
<path opacity="0.5" d="M105.223 17.5583C105.001 16.6633 104.352 15.7803 103.523 15.2637C103.547 15.2817 103.577 16.3209 103.596 16.435C103.65 16.8555 103.74 17.276 103.86 17.6965C103.968 18.0809 104.052 18.3452 104.076 18.7176C104.112 19.2522 104.491 20.1773 104.971 19.5466C105.338 19.072 105.392 18.2371 105.223 17.5583Z" fill="#63A8DB"/>
<path opacity="0.5" d="M100.2 22.196C100.855 22.6165 103.143 22.6285 101.774 21.6373C101.575 21.4932 99.3769 20.6582 99.3769 20.5981C99.3469 21.2229 99.6713 21.8536 100.2 22.196Z" fill="#63A8DB"/>
<path opacity="0.5" d="M104.714 24.6765C104.6 24.7186 104.312 24.6044 104.221 24.5444C104.101 24.4603 103.741 24.1839 103.885 24.0097C103.927 23.9617 103.999 23.9557 104.059 23.9737C104.119 23.9917 104.179 24.0338 104.233 24.0758C104.336 24.1539 104.444 24.232 104.546 24.3101C104.6 24.3521 104.66 24.4002 104.702 24.4603C104.786 24.5864 104.774 24.6525 104.714 24.6765Z" fill="white"/>
<path opacity="0.5" d="M104.586 24.532C104.478 24.4359 104.208 24.2677 104.196 24.4479C104.184 24.6401 104.682 24.8924 104.682 24.6942C104.682 24.6401 104.646 24.5921 104.61 24.556C104.604 24.544 104.598 24.538 104.586 24.532Z" fill="#63A8DB"/>
<path opacity="0.5" d="M106.474 23.5893C106.564 23.5053 106.582 23.1749 106.558 23.0607C106.522 22.9046 106.396 22.424 106.174 22.4901C106.114 22.5081 106.077 22.5742 106.071 22.6403C106.065 22.7063 106.083 22.7784 106.102 22.8505C106.138 22.9827 106.168 23.1148 106.198 23.253C106.216 23.325 106.234 23.4031 106.27 23.4692C106.366 23.6134 106.432 23.6374 106.474 23.5893Z" fill="white"/>
<path opacity="0.5" d="M106.386 23.4092C106.344 23.265 106.29 22.9226 106.464 23.0007C106.656 23.0848 106.674 23.6735 106.494 23.5834C106.446 23.5593 106.416 23.4993 106.392 23.4452C106.392 23.4332 106.386 23.4212 106.386 23.4092Z" fill="#63A8DB"/>
</g>
</g>
</g>
</svg>
