<svg width="400" height="401" viewBox="0 0 400 401" fill="none" xmlns="http://www.w3.org/2000/svg">
<path d="M191.188 12.5975C183.025 13.4685 175.246 15.9974 167.07 16.8263C170.686 15.0543 174.417 13.5045 178.231 12.189C174.417 12.4773 170.71 12.2731 167.545 11.4862C176.465 9.97845 185.271 8.8011 194.3 9.37776C195.321 9.44384 191.374 12.3812 191.188 12.5975Z" fill="#67AEE3"/>
<path d="M215.198 6.08014C223.788 7.20943 232.738 9.61219 239.946 15.4329C241.045 16.3219 242.211 17.1929 243.178 18.2141C243.995 19.0791 245.178 20.2804 244.74 21.3677C244.193 22.7372 242.463 22.563 241.111 22.5691C239.279 22.5751 237.453 22.497 235.645 22.3588C231.861 22.0645 228.149 21.5239 224.496 20.8691C221.217 20.2804 217.937 19.6077 214.741 18.8147C204.457 16.2618 194.168 12.8439 183.445 12.039C187.812 10.5973 191.579 8.54897 196.198 7.49176C202.277 6.10416 209.029 5.26921 215.198 6.08014Z" fill="#89E0FF"/>
<path d="M202.055 10.7597C211.449 15.0426 221.739 15.5111 231.873 16.22C227.242 14.3818 223.007 12.1353 218.069 11.0721C215.336 10.4834 212.549 10.171 209.762 10.135C208.272 10.117 203.19 11.2823 202.055 10.7597Z" fill="#67AEE3"/>
<path d="M226.148 2.84253C223.931 0.932336 220.621 -0.160916 217.516 0.0192906C217.618 0.0132837 219.606 2.66232 219.858 2.93263C220.777 3.91776 221.787 4.84883 222.868 5.71382C223.859 6.51274 224.562 7.03534 225.319 7.9664C226.4 9.29393 229.091 10.9939 229.175 8.47099C229.241 6.55479 227.829 4.29019 226.148 2.84253Z" fill="#67AEE3"/>
<path d="M221.648 24.1312C224.117 24.0291 230.082 19.8423 224.711 19.7822C223.937 19.7762 216.686 21.6624 216.578 21.4882C217.641 23.1701 219.648 24.2153 221.648 24.1312Z" fill="#67AEE3"/>
<path d="M237.919 22.2507C237.696 22.5691 236.741 22.8154 236.399 22.8154C235.924 22.8154 234.489 22.7733 234.549 22.0465C234.567 21.8483 234.735 21.6981 234.933 21.626C235.131 21.5599 235.354 21.5599 235.564 21.5659C235.972 21.5719 236.387 21.584 236.801 21.602C237.03 21.608 237.258 21.62 237.474 21.7041C237.949 21.8903 238.033 22.0825 237.919 22.2507Z" fill="white"/>
<path d="M237.349 22.1005C236.898 22.0524 235.871 22.1065 236.171 22.5991C236.496 23.1277 238.244 22.8514 237.895 22.3468C237.799 22.2086 237.619 22.1485 237.445 22.1125C237.415 22.1125 237.385 22.1065 237.349 22.1005Z" fill="#67AEE3"/>
<path d="M240.495 16.1898C240.567 15.8053 240.008 14.9283 239.738 14.676C239.359 14.3276 238.152 13.3245 237.689 13.8951C237.563 14.0513 237.599 14.2796 237.707 14.4658C237.822 14.652 238.002 14.8082 238.176 14.9583C238.506 15.2407 238.843 15.529 239.167 15.8173C239.347 15.9735 239.527 16.1357 239.756 16.2318C240.248 16.4601 240.453 16.394 240.495 16.1898Z" fill="white"/>
<path d="M239.946 15.8717C239.562 15.5713 238.793 14.7904 239.394 14.6643C240.036 14.5261 241.184 16.0218 240.547 16.1119C240.373 16.136 240.186 16.0399 240.036 15.9377C240.006 15.9137 239.976 15.8957 239.946 15.8717Z" fill="#67AEE3"/>
<path d="M99.2627 43.1486C92.6251 47.9841 87.1528 54.0691 80.4912 58.8746C82.7377 55.5288 85.1946 52.3271 87.8316 49.2756C84.672 51.4321 81.3622 53.108 78.2266 54.009C85.1946 48.2424 92.2346 42.8182 100.338 38.8056C101.269 38.349 99.3168 42.8662 99.2627 43.1486Z" fill="#67AEE3"/>
<path d="M116.803 25.4945C124.81 22.1787 133.755 19.782 142.909 21.2176C144.309 21.4399 145.756 21.6081 147.102 22.0105C148.243 22.3529 149.865 22.8034 150.033 23.9628C150.244 25.4224 148.664 26.1373 147.492 26.822C145.907 27.7471 144.285 28.5881 142.651 29.369C139.227 31.0089 135.743 32.3964 132.253 33.6519C129.117 34.7812 125.94 35.8384 122.78 36.7514C112.598 39.6828 101.978 41.8693 92.2891 46.5307C95.3526 43.0947 97.5871 39.4425 101.059 36.2168C105.63 31.976 111.055 27.8793 116.803 25.4945Z" fill="#89E0FF"/>
<path d="M107.75 36.1267C118.034 35.1416 127.17 30.4022 136.301 25.9451C131.369 26.6719 126.582 26.8401 121.77 28.3899C119.115 29.2489 116.538 30.3721 114.105 31.7297C112.814 32.4565 108.999 36.0126 107.75 36.1267Z" fill="#67AEE3"/>
<path d="M124.665 17.2172C121.788 16.6705 118.376 17.3793 115.781 19.0853C115.865 19.0312 118.911 20.3287 119.265 20.4368C120.557 20.8273 121.896 21.1276 123.26 21.3379C124.521 21.5301 125.386 21.6382 126.51 22.0647C128.107 22.6714 131.291 22.7976 130.102 20.575C129.195 18.8871 126.846 17.6316 124.665 17.2172Z" fill="#67AEE3"/>
<path d="M131.41 37.9108C133.5 36.5833 136.57 29.9817 131.89 32.6128C131.217 32.9912 125.883 38.2532 125.703 38.1571C127.457 39.0762 129.722 38.9801 131.41 37.9108Z" fill="#67AEE3"/>
<path d="M144.565 28.1435C144.529 28.534 143.827 29.2248 143.532 29.393C143.124 29.6272 141.862 30.312 141.544 29.6513C141.46 29.4711 141.532 29.2548 141.664 29.0986C141.802 28.9424 141.994 28.8343 142.181 28.7322C142.541 28.534 142.901 28.3358 143.268 28.1435C143.466 28.0354 143.67 27.9273 143.899 27.8973C144.415 27.8132 144.583 27.9393 144.565 28.1435Z" fill="white"/>
<path d="M143.994 28.3C143.579 28.4862 142.72 29.0449 143.225 29.3212C143.771 29.6215 145.147 28.5042 144.588 28.2399C144.438 28.1679 144.246 28.2039 144.084 28.264C144.06 28.27 144.03 28.282 143.994 28.3Z" fill="#67AEE3"/>
<path d="M143.758 21.6079C143.626 21.2355 142.707 20.755 142.346 20.6769C141.848 20.5628 140.298 20.2984 140.184 21.0253C140.154 21.2235 140.298 21.4037 140.49 21.5118C140.682 21.62 140.91 21.662 141.139 21.7041C141.571 21.7821 141.998 21.8662 142.43 21.9503C142.665 21.9984 142.905 22.0465 143.145 22.0164C143.686 21.9624 143.83 21.8002 143.758 21.6079Z" fill="white"/>
<path d="M143.126 21.6023C142.646 21.5362 141.588 21.2419 142.039 20.8334C142.526 20.3889 144.274 21.1157 143.757 21.5122C143.619 21.6203 143.409 21.6323 143.228 21.6203C143.198 21.6143 143.162 21.6083 143.126 21.6023Z" fill="#67AEE3"/>
<path d="M34.4155 114.913C31.0877 122.422 29.3877 130.423 26.0239 137.914C26.3002 133.895 26.8228 129.895 27.5856 125.93C25.9277 129.378 23.8974 132.484 21.6328 134.838C24.7864 126.356 28.1683 118.145 33.1841 110.612C33.7547 109.753 34.3254 114.637 34.4155 114.913Z" fill="#67AEE3"/>
<path d="M40.777 90.85C46.051 83.9781 52.6046 77.4246 61.2485 74.0907C62.57 73.5802 63.9095 73.0095 65.2731 72.6851C66.4324 72.4088 68.0603 71.9883 68.7871 72.9134C69.7002 74.0727 68.685 75.4783 68.0122 76.6557C67.1052 78.2475 66.1201 79.7853 65.0929 81.281C62.9484 84.4106 60.6238 87.354 58.227 90.1892C56.0765 92.7361 53.854 95.241 51.5714 97.6137C44.2189 105.242 36.1156 112.451 30.0547 121.329C30.9918 116.824 31.0999 112.541 32.4935 108.012C34.3436 102.053 36.9926 95.7876 40.777 90.85Z" fill="#89E0FF"/>
<path d="M38.2578 104.582C46.6675 98.5871 52.2118 89.9131 57.8943 81.4915C53.9839 84.585 49.9172 87.1259 46.5293 90.8742C44.6552 92.9466 42.9852 95.2052 41.5616 97.5959C40.8047 98.8754 39.279 103.861 38.2578 104.582Z" fill="#67AEE3"/>
<path d="M43.4531 79.7555C40.6899 80.7226 38.0889 83.0413 36.6953 85.8165C36.7374 85.7264 40.0291 85.3299 40.3896 85.2458C41.7051 84.9395 43.0146 84.531 44.3 84.0264C45.4894 83.5639 46.2943 83.2215 47.4777 83.0293C49.1656 82.759 51.9829 81.2753 49.8444 79.9477C48.2105 78.9326 45.5495 79.0227 43.4531 79.7555Z" fill="#67AEE3"/>
<path d="M59.636 94.2978C60.7833 92.1053 60.1406 84.8489 57.4015 89.4682C57.011 90.135 55.0167 97.3553 54.8125 97.3673C56.8008 97.2892 58.711 96.0698 59.636 94.2978Z" fill="#67AEE3"/>
<path d="M66.1492 79.2689C66.3174 79.6233 66.0531 80.5724 65.8789 80.8667C65.6386 81.2752 64.8878 82.5006 64.2871 82.0861C64.1249 81.972 64.0768 81.7497 64.1129 81.5455C64.1549 81.3413 64.263 81.1491 64.3772 80.9688C64.5874 80.6144 64.8037 80.266 65.0259 79.9176C65.1461 79.7254 65.2722 79.5332 65.4464 79.389C65.8489 79.0587 66.0591 79.0827 66.1492 79.2689Z" fill="white"/>
<path d="M65.7294 79.6832C65.4591 80.0496 64.9966 80.9626 65.5733 80.9506C66.192 80.9386 66.8287 79.2867 66.216 79.3348C66.0478 79.3468 65.9036 79.4789 65.7895 79.6111C65.7715 79.6291 65.7475 79.6531 65.7294 79.6832Z" fill="#67AEE3"/>
<path d="M62.1849 74.0067C61.8846 73.7545 60.8454 73.7965 60.497 73.9046C60.0104 74.0548 58.5327 74.6014 58.797 75.2922C58.8691 75.4784 59.0853 75.5685 59.3016 75.5625C59.5178 75.5565 59.7401 75.4784 59.9563 75.4064C60.3708 75.2622 60.7853 75.118 61.1998 74.9739C61.428 74.8958 61.6563 74.8177 61.8545 74.6735C62.299 74.3551 62.3411 74.1389 62.1849 74.0067Z" fill="white"/>
<path d="M61.6304 74.3189C61.1799 74.4991 60.1167 74.7755 60.3029 74.1928C60.5011 73.5681 62.3753 73.3218 62.129 73.9165C62.0629 74.0787 61.8887 74.1928 61.7205 74.2709C61.6965 74.2889 61.6665 74.3069 61.6304 74.3189Z" fill="#67AEE3"/>
<path d="M12.5955 208.813C13.4665 216.976 15.9954 224.755 16.8244 232.93C15.0523 229.314 13.5025 225.584 12.187 221.769C12.4754 225.584 12.2711 229.29 11.4842 232.456C9.9765 223.535 8.79915 214.729 9.37581 205.701C9.44189 204.68 12.3793 208.626 12.5955 208.813Z" fill="#67AEE3"/>
<path d="M6.08404 184.797C7.21334 176.207 9.6161 167.257 15.4368 160.049C16.3258 158.949 17.1968 157.784 18.218 156.817C19.083 156 20.2843 154.817 21.3716 155.255C22.7412 155.802 22.567 157.532 22.573 158.883C22.579 160.715 22.5009 162.542 22.3627 164.35C22.0684 168.134 21.5278 171.846 20.873 175.498C20.2843 178.778 19.6116 182.058 18.8187 185.254C16.2657 195.537 12.8478 205.827 12.0429 216.55C10.6012 212.183 8.55287 208.416 7.49566 203.797C6.10807 197.718 5.27311 190.966 6.08404 184.797Z" fill="#89E0FF"/>
<path d="M10.7577 197.946C15.0407 188.552 15.5092 178.262 16.218 168.128C14.3799 172.759 12.1333 176.994 11.0701 181.932C10.4814 184.665 10.1691 187.452 10.133 190.24C10.115 191.729 11.2803 196.811 10.7577 197.946Z" fill="#67AEE3"/>
<path d="M2.84253 173.853C0.932336 176.069 -0.160916 179.379 0.0192906 182.485C0.0132837 182.382 2.66232 180.394 2.93263 180.142C3.91776 179.223 4.84883 178.214 5.71382 177.132C6.51274 176.141 7.03534 175.439 7.9664 174.682C9.29393 173.6 10.9939 170.909 8.47099 170.825C6.55479 170.759 4.29019 172.171 2.84253 173.853Z" fill="#67AEE3"/>
<path d="M24.1303 178.352C24.0281 175.883 19.8413 169.918 19.7813 175.289C19.7753 176.064 21.6614 183.314 21.4872 183.422C23.1692 182.359 24.2144 180.352 24.1303 178.352Z" fill="#67AEE3"/>
<path d="M22.2497 162.079C22.5681 162.301 22.8144 163.256 22.8144 163.599C22.8144 164.073 22.7723 165.503 22.0455 165.449C21.8473 165.431 21.6971 165.263 21.625 165.065C21.559 164.866 21.559 164.644 21.565 164.434C21.571 164.025 21.583 163.611 21.601 163.196C21.607 162.968 21.619 162.74 21.7031 162.524C21.8893 162.049 22.0816 161.965 22.2497 162.079Z" fill="white"/>
<path d="M22.1 162.649C22.0519 163.1 22.106 164.127 22.5986 163.827C23.1272 163.502 22.8509 161.754 22.3463 162.103C22.2081 162.199 22.1481 162.379 22.118 162.553C22.112 162.583 22.106 162.613 22.1 162.649Z" fill="#67AEE3"/>
<path d="M16.1932 159.508C15.8087 159.436 14.9317 159.995 14.6794 160.265C14.331 160.644 13.3279 161.851 13.8985 162.314C14.0547 162.44 14.283 162.404 14.4692 162.296C14.6554 162.181 14.8116 162.001 14.9618 161.827C15.2441 161.497 15.5324 161.16 15.8207 160.836C15.9769 160.656 16.1391 160.475 16.2352 160.247C16.4635 159.755 16.3974 159.55 16.1932 159.508Z" fill="white"/>
<path d="M15.8726 160.055C15.5723 160.439 14.7914 161.208 14.6653 160.607C14.5271 159.965 16.0228 158.817 16.1129 159.454C16.1369 159.628 16.0408 159.814 15.9387 159.965C15.9147 159.995 15.8967 160.025 15.8726 160.055Z" fill="#67AEE3"/>
<path d="M43.154 300.736C47.9895 307.374 54.0745 312.846 58.874 319.508C55.5282 317.261 52.3265 314.805 49.275 312.168C51.4315 315.327 53.1074 318.637 54.0084 321.773C48.2418 314.805 42.8176 307.764 38.805 299.661C38.3545 298.73 42.8717 300.682 43.154 300.736Z" fill="#67AEE3"/>
<path d="M25.4987 283.196C22.1829 275.189 19.7861 266.245 21.2218 257.09C21.444 255.691 21.6122 254.243 22.0147 252.898C22.3571 251.756 22.8076 250.134 23.9669 249.966C25.4266 249.756 26.1414 251.336 26.8262 252.507C27.7513 254.093 28.5922 255.715 29.3731 257.349C31.013 260.773 32.4006 264.257 33.656 267.747C34.7853 270.882 35.8425 274.06 36.7556 277.22C39.687 287.401 41.8735 298.021 46.5348 307.711C43.0989 304.647 39.4467 302.412 36.221 298.94C31.9801 294.369 27.8834 288.945 25.4987 283.196Z" fill="#89E0FF"/>
<path d="M36.127 292.249C35.1419 281.965 30.4024 272.828 25.9453 263.698C26.6721 268.629 26.8403 273.417 28.3901 278.228C29.2491 280.883 30.3724 283.46 31.7299 285.893C32.4568 287.185 36.0129 290.999 36.127 292.249Z" fill="#67AEE3"/>
<path d="M17.2203 275.333C16.6737 278.21 17.3825 281.622 19.0885 284.217C19.0344 284.133 20.3319 281.088 20.44 280.733C20.8305 279.442 21.1308 278.102 21.3411 276.739C21.5333 275.477 21.6414 274.612 22.0679 273.489C22.6746 271.891 22.8007 268.708 20.5782 269.897C18.8902 270.804 17.6348 273.153 17.2203 275.333Z" fill="#67AEE3"/>
<path d="M37.9116 268.587C36.584 266.497 29.9825 263.428 32.6135 268.107C32.9919 268.78 38.254 274.114 38.1579 274.294C39.0769 272.54 38.9808 270.275 37.9116 268.587Z" fill="#67AEE3"/>
<path d="M28.1477 255.438C28.5381 255.474 29.2289 256.177 29.3971 256.471C29.6314 256.88 30.3162 258.141 29.6554 258.46C29.4752 258.544 29.259 258.472 29.1028 258.34C28.9466 258.201 28.8385 258.009 28.7364 257.823C28.5381 257.463 28.3399 257.102 28.1477 256.736C28.0396 256.538 27.9314 256.333 27.9014 256.105C27.8173 255.588 27.9434 255.42 28.1477 255.438Z" fill="white"/>
<path d="M28.3032 256.009C28.4894 256.423 29.048 257.282 29.3244 256.778C29.6247 256.231 28.5074 254.856 28.2431 255.414C28.171 255.564 28.2071 255.757 28.2671 255.919C28.2731 255.943 28.2852 255.973 28.3032 256.009Z" fill="#67AEE3"/>
<path d="M21.6121 256.243C21.2397 256.375 20.7591 257.295 20.681 257.655C20.5669 258.154 20.3026 259.703 21.0294 259.817C21.2277 259.847 21.4079 259.703 21.516 259.511C21.6241 259.319 21.6662 259.091 21.7082 258.862C21.7863 258.43 21.8704 258.003 21.9545 257.571C22.0025 257.337 22.0506 257.096 22.0206 256.856C21.9665 256.315 21.8043 256.171 21.6121 256.243Z" fill="white"/>
<path d="M21.6113 256.874C21.5452 257.355 21.2509 258.412 20.8424 257.961C20.3979 257.475 21.1247 255.727 21.5212 256.243C21.6293 256.382 21.6413 256.592 21.6293 256.772C21.6233 256.802 21.6173 256.838 21.6113 256.874Z" fill="#67AEE3"/>
<path d="M114.91 365.593C122.419 368.921 130.42 370.621 137.91 373.984C133.892 373.708 129.891 373.185 125.927 372.423C129.375 374.081 132.48 376.111 134.835 378.375C126.353 375.222 118.142 371.84 110.609 366.824C109.75 366.254 114.634 365.683 114.91 365.593Z" fill="#67AEE3"/>
<path d="M90.8478 359.231C83.9759 353.957 77.4224 347.404 74.0885 338.76C73.578 337.438 73.0073 336.099 72.6829 334.735C72.4066 333.576 71.9861 331.948 72.9112 331.221C74.0705 330.308 75.4761 331.323 76.6535 331.996C78.2453 332.903 79.7831 333.888 81.2788 334.915C84.4084 337.06 87.3518 339.384 90.187 341.781C92.7339 343.932 95.2388 346.154 97.6115 348.437C105.24 355.789 112.449 363.892 121.327 369.953C116.822 369.016 112.539 368.908 108.009 367.515C102.051 365.665 95.7854 363.016 90.8478 359.231Z" fill="#89E0FF"/>
<path d="M104.583 361.748C98.5878 353.338 89.9138 347.794 81.4922 342.112C84.5857 346.016 87.1267 350.083 90.875 353.471C92.9473 355.345 95.2059 357.015 97.5967 358.438C98.8761 359.201 103.862 360.727 104.583 361.748Z" fill="#67AEE3"/>
<path d="M79.7553 356.558C80.7224 359.321 83.041 361.922 85.8162 363.316C85.7261 363.274 85.3297 359.982 85.2456 359.622C84.9392 358.306 84.5307 356.997 84.0262 355.711C83.5636 354.522 83.2212 353.717 83.029 352.534C82.7587 350.846 81.275 348.028 79.9475 350.167C78.9323 351.801 79.0224 354.462 79.7553 356.558Z" fill="#67AEE3"/>
<path d="M94.2995 340.37C92.107 339.222 84.8507 339.865 89.47 342.604C90.1367 342.995 97.357 344.989 97.369 345.193C97.2909 343.205 96.0715 341.295 94.2995 340.37Z" fill="#67AEE3"/>
<path d="M79.2682 333.864C79.6226 333.696 80.5717 333.96 80.866 334.134C81.2745 334.375 82.4999 335.126 82.0854 335.726C81.9713 335.888 81.749 335.936 81.5448 335.9C81.3405 335.858 81.1483 335.75 80.9681 335.636C80.6137 335.426 80.2653 335.21 79.9169 334.987C79.7247 334.867 79.5325 334.741 79.3883 334.567C79.0579 334.164 79.0819 333.954 79.2682 333.864Z" fill="white"/>
<path d="M79.6776 334.279C80.044 334.549 80.957 335.011 80.945 334.435C80.933 333.816 79.2811 333.179 79.3292 333.792C79.3412 333.96 79.4733 334.104 79.6055 334.218C79.6235 334.236 79.6475 334.261 79.6776 334.279Z" fill="#67AEE3"/>
<path d="M74.0075 337.829C73.7552 338.129 73.7972 339.168 73.9054 339.517C74.0555 340.003 74.6022 341.481 75.293 341.217C75.4792 341.145 75.5693 340.928 75.5633 340.712C75.5573 340.496 75.4792 340.274 75.4071 340.057C75.2629 339.643 75.1188 339.228 74.9746 338.814C74.8965 338.586 74.8184 338.357 74.6742 338.159C74.3559 337.715 74.1396 337.673 74.0075 337.829Z" fill="white"/>
<path d="M74.3202 338.376C74.5004 338.826 74.7767 339.889 74.194 339.703C73.5693 339.505 73.323 337.631 73.9177 337.877C74.0799 337.943 74.194 338.117 74.2721 338.285C74.2901 338.309 74.3082 338.34 74.3202 338.376Z" fill="#67AEE3"/>
<path d="M208.819 387.404C216.983 386.533 224.761 384.004 232.937 383.175C229.321 384.947 225.59 386.497 221.776 387.813C225.59 387.524 229.297 387.729 232.462 388.515C223.542 390.023 214.736 391.201 205.708 390.624C204.686 390.558 208.633 387.62 208.819 387.404Z" fill="#67AEE3"/>
<path d="M184.801 393.922C176.211 392.793 167.26 390.39 160.052 384.569C158.953 383.68 157.788 382.809 156.82 381.788C156.003 380.923 154.82 379.722 155.259 378.634C155.805 377.265 157.535 377.439 158.887 377.433C160.719 377.427 162.545 377.505 164.353 377.643C168.137 377.938 171.85 378.478 175.502 379.133C178.782 379.722 182.061 380.394 185.257 381.187C195.541 383.74 205.831 387.158 216.553 387.963C212.186 389.405 208.42 391.453 203.8 392.51C197.721 393.898 190.97 394.733 184.801 393.922Z" fill="#89E0FF"/>
<path d="M197.951 389.242C188.556 384.96 178.266 384.491 168.133 383.782C172.764 385.62 176.999 387.867 181.937 388.93C184.67 389.519 187.457 389.831 190.244 389.867C191.734 389.885 196.816 388.72 197.951 389.242Z" fill="#67AEE3"/>
<path d="M173.858 397.159C176.074 399.069 179.384 400.162 182.49 399.982C182.388 399.988 180.399 397.339 180.147 397.069C179.228 396.084 178.219 395.153 177.138 394.288C176.146 393.489 175.444 392.966 174.687 392.035C173.606 390.708 170.914 389.008 170.83 391.531C170.764 393.447 172.176 395.711 173.858 397.159Z" fill="#67AEE3"/>
<path d="M178.355 375.871C175.886 375.973 169.921 380.16 175.291 380.22C176.066 380.226 183.317 378.34 183.425 378.514C182.361 376.832 180.355 375.787 178.355 375.871Z" fill="#67AEE3"/>
<path d="M162.085 377.751C162.307 377.433 163.262 377.187 163.604 377.187C164.079 377.187 165.514 377.229 165.454 377.955C165.436 378.154 165.268 378.304 165.07 378.376C164.872 378.442 164.649 378.442 164.439 378.436C164.031 378.43 163.616 378.418 163.202 378.4C162.974 378.394 162.745 378.382 162.529 378.298C162.054 378.112 161.97 377.919 162.085 377.751Z" fill="white"/>
<path d="M162.655 377.901C163.105 377.949 164.133 377.895 163.832 377.403C163.508 376.874 161.76 377.15 162.108 377.655C162.204 377.793 162.385 377.853 162.559 377.883C162.589 377.889 162.619 377.895 162.655 377.901Z" fill="#67AEE3"/>
<path d="M159.514 383.812C159.442 384.196 160.001 385.073 160.271 385.326C160.649 385.674 161.857 386.677 162.319 386.106C162.446 385.95 162.409 385.722 162.301 385.536C162.187 385.35 162.007 385.193 161.833 385.043C161.502 384.761 161.166 384.473 160.842 384.184C160.661 384.028 160.481 383.866 160.253 383.764C159.76 383.541 159.556 383.608 159.514 383.812Z" fill="white"/>
<path d="M160.061 384.13C160.445 384.431 161.214 385.211 160.613 385.338C159.97 385.476 158.823 383.98 159.46 383.89C159.634 383.866 159.82 383.962 159.97 384.064C160 384.088 160.03 384.106 160.061 384.13Z" fill="#67AEE3"/>
<path d="M300.733 356.853C307.37 352.018 312.843 345.933 319.504 341.133C317.258 344.479 314.801 347.681 312.164 350.732C315.323 348.576 318.633 346.9 321.769 345.999C314.801 351.765 307.761 357.19 299.658 361.202C298.726 361.653 300.679 357.136 300.733 356.853Z" fill="#67AEE3"/>
<path d="M283.194 374.507C275.187 377.823 266.243 380.22 257.088 378.784C255.689 378.562 254.241 378.394 252.896 377.991C251.754 377.649 250.132 377.198 249.964 376.039C249.754 374.579 251.334 373.865 252.505 373.18C254.091 372.255 255.713 371.414 257.347 370.633C260.771 368.993 264.255 367.605 267.745 366.35C270.88 365.221 274.058 364.163 277.218 363.25C287.399 360.319 298.019 358.133 307.709 353.471C304.645 356.907 302.41 360.559 298.938 363.785C294.367 368.026 288.943 372.123 283.194 374.507Z" fill="#89E0FF"/>
<path d="M292.246 363.875C281.962 364.86 272.826 369.6 263.695 374.057C268.627 373.33 273.414 373.162 278.226 371.612C280.881 370.753 283.458 369.63 285.891 368.272C287.182 367.545 290.997 363.989 292.246 363.875Z" fill="#67AEE3"/>
<path d="M275.329 382.785C278.207 383.332 281.618 382.623 284.213 380.917C284.129 380.971 281.084 379.673 280.729 379.565C279.438 379.175 278.098 378.874 276.735 378.664C275.473 378.472 274.608 378.364 273.485 377.937C271.887 377.331 268.704 377.205 269.893 379.427C270.8 381.115 273.149 382.37 275.329 382.785Z" fill="#67AEE3"/>
<path d="M268.586 362.091C266.496 363.419 263.426 370.02 268.105 367.389C268.778 367.011 274.112 361.749 274.293 361.845C272.539 360.926 270.274 361.022 268.586 362.091Z" fill="#67AEE3"/>
<path d="M255.431 371.858C255.467 371.468 256.17 370.777 256.464 370.609C256.873 370.374 258.134 369.69 258.452 370.35C258.537 370.531 258.464 370.747 258.332 370.903C258.194 371.059 258.002 371.167 257.816 371.269C257.455 371.468 257.095 371.666 256.728 371.858C256.53 371.966 256.326 372.074 256.098 372.104C255.581 372.189 255.413 372.062 255.431 371.858Z" fill="white"/>
<path d="M256.007 371.702C256.421 371.516 257.28 370.958 256.776 370.681C256.229 370.381 254.854 371.498 255.412 371.762C255.562 371.835 255.755 371.798 255.917 371.738C255.941 371.732 255.971 371.72 256.007 371.702Z" fill="#67AEE3"/>
<path d="M256.244 378.394C256.376 378.767 257.295 379.247 257.655 379.325C258.154 379.439 259.704 379.704 259.818 378.977C259.848 378.779 259.704 378.598 259.518 378.49C259.325 378.382 259.097 378.34 258.869 378.298C258.436 378.22 258.01 378.136 257.577 378.052C257.343 378.004 257.103 377.956 256.863 377.986C256.316 378.04 256.172 378.202 256.244 378.394Z" fill="white"/>
<path d="M256.874 378.4C257.354 378.466 258.411 378.76 257.961 379.169C257.474 379.613 255.726 378.887 256.243 378.49C256.381 378.382 256.591 378.37 256.772 378.382C256.802 378.388 256.838 378.394 256.874 378.4Z" fill="#67AEE3"/>
<path d="M365.598 285.088C368.925 277.58 370.625 269.578 373.989 262.088C373.713 266.107 373.19 270.107 372.427 274.072C374.085 270.624 376.116 267.518 378.38 265.163C375.227 273.645 371.845 281.857 366.829 289.389C366.258 290.248 365.688 285.365 365.598 285.088Z" fill="#67AEE3"/>
<path d="M359.237 309.146C353.963 316.018 347.409 322.571 338.765 325.905C337.444 326.416 336.104 326.986 334.741 327.311C333.581 327.587 331.953 328.008 331.227 327.083C330.314 325.923 331.329 324.518 332.002 323.34C332.909 321.748 333.894 320.211 334.921 318.715C337.065 315.585 339.39 312.642 341.787 309.807C343.937 307.26 346.16 304.755 348.442 302.382C355.795 294.753 363.898 287.545 369.959 278.667C369.022 283.172 368.914 287.455 367.52 291.984C365.67 297.949 363.021 304.214 359.237 309.146Z" fill="#89E0FF"/>
<path d="M361.75 295.421C353.34 301.416 347.796 310.089 342.113 318.511C346.018 315.418 350.084 312.877 353.472 309.128C355.346 307.056 357.016 304.797 358.44 302.407C359.203 301.127 360.729 296.141 361.75 295.421Z" fill="#67AEE3"/>
<path d="M356.564 320.247C359.327 319.28 361.928 316.961 363.322 314.186C363.279 314.276 359.988 314.672 359.627 314.756C358.312 315.063 357.002 315.471 355.717 315.976C354.527 316.438 353.723 316.781 352.539 316.973C350.851 317.243 348.034 318.727 350.172 320.055C351.806 321.07 354.467 320.98 356.564 320.247Z" fill="#67AEE3"/>
<path d="M340.374 305.704C339.227 307.897 339.869 315.153 342.608 310.534C342.999 309.867 344.993 302.647 345.197 302.635C343.209 302.713 341.299 303.932 340.374 305.704Z" fill="#67AEE3"/>
<path d="M333.87 320.734C333.702 320.379 333.966 319.43 334.141 319.136C334.381 318.727 335.132 317.508 335.732 317.916C335.895 318.03 335.943 318.253 335.907 318.457C335.864 318.661 335.756 318.853 335.642 319.034C335.432 319.388 335.216 319.736 334.993 320.085C334.873 320.277 334.747 320.469 334.573 320.613C334.171 320.944 333.96 320.92 333.87 320.734Z" fill="white"/>
<path d="M334.286 320.319C334.556 319.953 335.019 319.04 334.442 319.052C333.824 319.064 333.187 320.716 333.8 320.667C333.968 320.655 334.112 320.523 334.226 320.391C334.244 320.373 334.268 320.349 334.286 320.319Z" fill="#67AEE3"/>
<path d="M337.836 325.996C338.137 326.248 339.176 326.206 339.524 326.098C340.011 325.948 341.489 325.401 341.224 324.71C341.152 324.524 340.936 324.434 340.72 324.44C340.504 324.446 340.281 324.524 340.065 324.596C339.651 324.74 339.236 324.884 338.822 325.023C338.593 325.101 338.365 325.179 338.167 325.323C337.722 325.647 337.68 325.864 337.836 325.996Z" fill="white"/>
<path d="M338.376 325.683C338.827 325.503 339.89 325.226 339.704 325.809C339.506 326.434 337.631 326.68 337.878 326.085C337.944 325.923 338.118 325.809 338.286 325.731C338.31 325.713 338.34 325.695 338.376 325.683Z" fill="#67AEE3"/>
<path d="M387.405 191.188C386.534 183.025 384.005 175.246 383.176 167.071C384.948 170.687 386.498 174.417 387.813 178.226C387.525 174.411 387.729 170.705 388.516 167.539C390.024 176.46 391.201 185.266 390.624 194.294C390.558 195.321 387.621 191.375 387.405 191.188Z" fill="#67AEE3"/>
<path d="M393.919 215.204C392.79 223.794 390.387 232.744 384.566 239.952C383.677 241.052 382.806 242.217 381.785 243.184C380.92 244.001 379.719 245.184 378.631 244.746C377.262 244.199 377.436 242.469 377.43 241.118C377.424 239.286 377.502 237.46 377.64 235.652C377.935 231.867 378.475 228.155 379.13 224.503C379.719 221.223 380.391 217.943 381.184 214.748C383.737 204.464 387.155 194.174 387.96 183.452C389.402 187.819 391.45 191.585 392.507 196.204C393.895 202.283 394.73 209.035 393.919 215.204Z" fill="#89E0FF"/>
<path d="M389.238 202.055C384.955 211.45 384.486 221.74 383.777 231.873C385.615 227.242 387.862 223.007 388.925 218.069C389.514 215.336 389.826 212.549 389.862 209.762C389.88 208.272 388.715 203.19 389.238 202.055Z" fill="#67AEE3"/>
<path d="M397.158 226.149C399.068 223.932 400.161 220.622 399.981 217.517C399.987 217.619 397.338 219.607 397.068 219.86C396.083 220.779 395.152 221.788 394.287 222.869C393.488 223.86 392.965 224.563 392.034 225.32C390.707 226.401 389.007 229.092 391.53 229.176C393.446 229.242 395.71 227.831 397.158 226.149Z" fill="#67AEE3"/>
<path d="M375.868 221.65C375.97 224.118 380.157 230.083 380.217 224.713C380.223 223.938 378.337 216.688 378.511 216.58C376.829 217.643 375.784 219.649 375.868 221.65Z" fill="#67AEE3"/>
<path d="M377.748 237.922C377.43 237.7 377.184 236.745 377.184 236.403C377.184 235.928 377.226 234.498 377.952 234.553C378.151 234.571 378.301 234.739 378.373 234.937C378.439 235.135 378.439 235.357 378.433 235.568C378.427 235.976 378.415 236.391 378.397 236.805C378.391 237.033 378.379 237.262 378.295 237.478C378.109 237.952 377.916 238.037 377.748 237.922Z" fill="white"/>
<path d="M377.897 237.351C377.945 236.901 377.891 235.874 377.399 236.174C376.87 236.498 377.147 238.246 377.651 237.898C377.789 237.802 377.849 237.622 377.885 237.447C377.885 237.417 377.891 237.387 377.897 237.351Z" fill="#67AEE3"/>
<path d="M383.808 240.493C384.192 240.565 385.069 240.006 385.322 239.736C385.67 239.358 386.673 238.15 386.103 237.688C385.946 237.562 385.718 237.598 385.532 237.706C385.346 237.82 385.189 238 385.039 238.174C384.757 238.505 384.469 238.841 384.18 239.165C384.024 239.346 383.862 239.526 383.76 239.754C383.538 240.247 383.604 240.451 383.808 240.493Z" fill="white"/>
<path d="M384.123 239.946C384.423 239.562 385.204 238.793 385.33 239.394C385.468 240.037 383.973 241.184 383.883 240.547C383.859 240.373 383.955 240.187 384.057 240.037C384.081 240.006 384.099 239.976 384.123 239.946Z" fill="#67AEE3"/>
<path d="M356.857 99.2651C352.021 92.6275 345.936 87.1552 341.137 80.4936C344.483 82.7402 347.684 85.197 350.736 87.834C348.579 84.6744 346.903 81.3646 346.002 78.229C351.769 85.197 357.193 92.2371 361.206 100.34C361.656 101.271 357.139 99.3192 356.857 99.2651Z" fill="#67AEE3"/>
<path d="M374.509 116.805C377.825 124.812 380.221 133.757 378.786 142.911C378.563 144.311 378.395 145.758 377.993 147.104C377.65 148.245 377.2 149.867 376.041 150.035C374.581 150.246 373.866 148.666 373.181 147.494C372.256 145.909 371.415 144.287 370.634 142.653C368.994 139.229 367.607 135.745 366.351 132.255C365.222 129.119 364.165 125.942 363.252 122.782C360.321 112.6 358.134 101.98 353.473 92.291C356.909 95.3545 360.561 97.5891 363.786 101.061C368.027 105.632 372.124 111.057 374.509 116.805Z" fill="#89E0FF"/>
<path d="M363.879 107.752C364.864 118.036 369.603 127.173 374.061 136.303C373.334 131.372 373.166 126.584 371.616 121.773C370.757 119.111 369.634 116.541 368.276 114.108C367.549 112.816 363.993 109.002 363.879 107.752Z" fill="#67AEE3"/>
<path d="M382.788 124.669C383.334 121.791 382.625 118.379 380.919 115.784C380.974 115.869 379.676 118.914 379.568 119.268C379.177 120.56 378.877 121.899 378.667 123.263C378.475 124.524 378.367 125.389 377.94 126.513C377.333 128.111 377.207 131.294 379.43 130.105C381.118 129.198 382.373 126.849 382.788 124.669Z" fill="#67AEE3"/>
<path d="M362.097 131.414C363.424 133.505 370.026 136.574 367.395 131.895C367.017 131.222 361.755 125.888 361.851 125.708C360.932 127.462 361.028 129.726 362.097 131.414Z" fill="#67AEE3"/>
<path d="M371.862 144.563C371.472 144.527 370.781 143.824 370.613 143.53C370.378 143.122 369.694 141.86 370.354 141.542C370.535 141.458 370.751 141.53 370.907 141.662C371.063 141.8 371.171 141.992 371.273 142.178C371.472 142.539 371.67 142.899 371.862 143.266C371.97 143.464 372.078 143.668 372.108 143.896C372.192 144.413 372.066 144.581 371.862 144.563Z" fill="white"/>
<path d="M371.709 143.993C371.523 143.578 370.964 142.719 370.688 143.224C370.387 143.771 371.504 145.146 371.769 144.587C371.841 144.437 371.805 144.245 371.745 144.083C371.739 144.059 371.727 144.029 371.709 143.993Z" fill="#67AEE3"/>
<path d="M378.398 143.758C378.771 143.626 379.251 142.707 379.329 142.346C379.443 141.848 379.708 140.298 378.981 140.184C378.783 140.154 378.603 140.298 378.494 140.49C378.386 140.682 378.344 140.911 378.302 141.139C378.224 141.571 378.14 141.998 378.056 142.43C378.008 142.665 377.96 142.905 377.99 143.145C378.044 143.686 378.206 143.83 378.398 143.758Z" fill="white"/>
<path d="M378.408 143.127C378.475 142.647 378.769 141.59 379.177 142.04C379.622 142.527 378.895 144.275 378.499 143.758C378.39 143.62 378.378 143.41 378.39 143.23C378.396 143.2 378.402 143.163 378.408 143.127Z" fill="#67AEE3"/>
<path d="M285.094 34.4086C277.586 31.0808 269.584 29.3809 262.094 26.017C266.112 26.2933 270.113 26.8159 274.078 27.5788C270.63 25.9209 267.524 23.8906 265.169 21.626C273.651 24.7796 281.862 28.1615 289.395 33.1772C290.254 33.7479 285.37 34.3185 285.094 34.4086Z" fill="#67AEE3"/>
<path d="M309.151 40.7702C316.023 46.0442 322.576 52.5977 325.91 61.2416C326.421 62.5632 326.991 63.9027 327.316 65.2663C327.592 66.4256 328.012 68.0534 327.087 68.7803C325.928 69.6933 324.522 68.6782 323.345 68.0054C321.753 67.0984 320.216 66.1132 318.72 65.086C315.59 62.9416 312.647 60.6169 309.812 58.2202C307.265 56.0697 304.76 53.8472 302.387 51.5645C294.758 44.2121 287.55 36.1088 278.672 30.0479C283.177 30.9849 287.46 31.0931 291.989 32.4866C297.954 34.3368 304.219 36.9858 309.151 40.7702Z" fill="#89E0FF"/>
<path d="M295.422 38.2532C301.417 46.6628 310.091 52.2072 318.512 57.8897C315.419 53.9852 312.878 49.9186 309.13 46.5307C307.057 44.6565 304.799 42.9866 302.408 41.563C301.128 40.8001 296.143 39.2743 295.422 38.2532Z" fill="#67AEE3"/>
<path d="M320.256 43.4435C319.289 40.6804 316.97 38.0794 314.195 36.6858C314.285 36.7278 314.682 40.0196 314.766 40.38C315.072 41.6955 315.481 43.005 315.985 44.2905C316.448 45.4799 316.79 46.2848 316.983 47.4682C317.253 49.1561 318.737 51.9733 320.064 49.8349C321.079 48.201 320.989 45.5399 320.256 43.4435Z" fill="#67AEE3"/>
<path d="M305.71 59.6319C307.903 60.7792 315.159 60.1365 310.54 57.3973C309.873 57.0069 302.653 55.0126 302.641 54.8083C302.719 56.7966 303.938 58.7068 305.71 59.6319Z" fill="#67AEE3"/>
<path d="M320.736 66.1372C320.381 66.3054 319.432 66.0411 319.138 65.8669C318.729 65.6267 317.51 64.8758 317.918 64.2751C318.033 64.1129 318.255 64.0649 318.459 64.1009C318.663 64.143 318.856 64.2511 319.036 64.3652C319.39 64.5754 319.739 64.7917 320.087 65.014C320.279 65.1341 320.471 65.2602 320.616 65.4344C320.946 65.8369 320.922 66.0471 320.736 66.1372Z" fill="white"/>
<path d="M320.322 65.7228C319.956 65.4525 319.043 64.99 319.055 65.5667C319.067 66.1854 320.719 66.8221 320.671 66.2094C320.659 66.0412 320.526 65.8971 320.394 65.7829C320.376 65.7649 320.352 65.7409 320.322 65.7228Z" fill="#67AEE3"/>
<path d="M326.001 62.1729C326.254 61.8726 326.212 60.8334 326.104 60.485C325.953 59.9984 325.407 58.5207 324.716 58.7851C324.53 58.8571 324.44 59.0734 324.446 59.2896C324.452 59.5059 324.53 59.7281 324.602 59.9444C324.746 60.3589 324.89 60.7733 325.028 61.1878C325.106 61.4161 325.184 61.6443 325.329 61.8426C325.653 62.2871 325.869 62.3291 326.001 62.1729Z" fill="white"/>
<path d="M325.687 61.6258C325.506 61.1753 325.23 60.1121 325.813 60.2983C326.437 60.4965 326.684 62.3706 326.089 62.1244C325.927 62.0583 325.813 61.8841 325.735 61.7159C325.717 61.6919 325.699 61.6618 325.687 61.6258Z" fill="#67AEE3"/>
</svg>
