<svg width="260" height="260" viewBox="0 0 260 260" fill="none" xmlns="http://www.w3.org/2000/svg">
<g opacity="0.8">
<g opacity="0.8">
<g opacity="0.8">
<path opacity="0.8" d="M117.861 9.86873C112.641 10.7097 107.734 12.6079 102.508 13.4188C104.772 12.1574 107.115 11.0341 109.518 10.0489C107.073 10.3673 104.688 10.3613 102.622 9.96484C108.304 8.68537 113.921 7.62816 119.742 7.68823C120.414 7.69424 117.976 9.71856 117.861 9.86873Z" fill="#63A8DB"/>
<path opacity="0.8" d="M133.078 4.84732C138.634 5.27982 144.473 6.51123 149.309 10.0012C150.047 10.5358 150.828 11.0524 151.483 11.6772C152.042 12.2058 152.841 12.9386 152.594 13.6534C152.288 14.5545 151.177 14.5004 150.306 14.5545C149.128 14.6205 147.951 14.6325 146.786 14.6085C144.347 14.5485 141.938 14.3322 139.571 14.0319C137.445 13.7676 135.313 13.4492 133.228 13.0467C126.53 11.7613 119.797 9.91714 112.883 9.77297C115.64 8.69774 117.989 7.25008 120.92 6.41512C124.776 5.30985 129.083 4.53496 133.078 4.84732Z" fill="#85D9F7"/>
<path opacity="0.8" d="M124.781 8.30685C130.968 10.7396 137.594 10.6796 144.129 10.7877C141.09 9.76652 138.291 8.46903 135.083 7.95845C133.311 7.67612 131.503 7.568 129.713 7.64008C128.758 7.68213 125.532 8.60719 124.781 8.30685Z" fill="#63A8DB"/>
<path opacity="0.8" d="M140 2.39016C138.51 1.23684 136.342 0.648164 134.359 0.876426C134.425 0.870419 135.795 2.50429 135.963 2.66648C136.588 3.26717 137.273 3.83182 137.994 4.34841C138.66 4.82295 139.129 5.14132 139.645 5.71197C140.384 6.52891 142.174 7.52605 142.138 5.90419C142.114 4.66677 141.135 3.26116 140 2.39016Z" fill="#63A8DB"/>
<path opacity="0.8" d="M137.838 16.23C139.424 16.0798 143.112 13.1845 139.658 13.3287C139.16 13.3527 134.564 14.8124 134.492 14.7043C135.231 15.7495 136.559 16.3502 137.838 16.23Z" fill="#63A8DB"/>
<path opacity="0.8" d="M148.231 14.4582C148.099 14.6744 147.492 14.8606 147.276 14.8726C146.97 14.8907 146.051 14.9087 146.063 14.4401C146.063 14.314 146.171 14.2059 146.291 14.1578C146.417 14.1098 146.555 14.1038 146.693 14.0978C146.958 14.0917 147.222 14.0797 147.486 14.0737C147.63 14.0737 147.781 14.0677 147.919 14.1158C148.237 14.2239 148.303 14.344 148.231 14.4582Z" fill="white"/>
<path opacity="0.8" d="M147.858 14.3798C147.563 14.3618 146.909 14.4338 147.119 14.7402C147.347 15.0706 148.459 14.8303 148.218 14.5179C148.152 14.4338 148.032 14.3978 147.924 14.3858C147.9 14.3798 147.882 14.3798 147.858 14.3798Z" fill="#63A8DB"/>
<path opacity="0.8" d="M149.674 10.4696C149.704 10.2173 149.32 9.67665 149.133 9.52047C148.881 9.31023 148.07 8.70954 147.788 9.08797C147.71 9.19009 147.74 9.34026 147.818 9.45439C147.896 9.56852 148.016 9.66463 148.136 9.75474C148.359 9.92894 148.581 10.0971 148.803 10.2713C148.923 10.3674 149.049 10.4636 149.193 10.5176C149.53 10.6558 149.656 10.6017 149.674 10.4696Z" fill="white"/>
<path opacity="0.8" d="M149.312 10.283C149.053 10.1028 148.537 9.62821 148.915 9.5261C149.324 9.41197 150.117 10.337 149.702 10.4151C149.588 10.4391 149.468 10.3851 149.366 10.319C149.354 10.313 149.336 10.301 149.312 10.283Z" fill="#63A8DB"/>
</g>
</g>
<g opacity="0.8">
<g opacity="0.8">
<path opacity="0.8" d="M59.8444 32.6706C55.7477 36.0044 52.4379 40.1071 48.3232 43.4229C49.6507 41.1944 51.1164 39.0499 52.7082 37.0016C50.75 38.4973 48.6836 39.6867 46.6953 40.3774C50.9782 36.4309 55.3092 32.7006 60.385 29.8414C60.9677 29.517 59.8744 32.4904 59.8444 32.6706Z" fill="#63A8DB"/>
<path opacity="0.8" d="M70.5076 20.7169C75.5354 18.3081 81.2059 16.458 87.1407 17.0647C88.0477 17.1548 88.9848 17.2209 89.8618 17.4311C90.6067 17.6113 91.6639 17.8456 91.814 18.5844C92.0003 19.5155 91.0091 20.0261 90.2823 20.5067C89.2972 21.1554 88.282 21.7501 87.2608 22.3147C85.1164 23.4861 82.9239 24.4952 80.7253 25.4263C78.7491 26.2613 76.7428 27.0482 74.7425 27.745C68.3031 29.9795 61.5513 31.7516 55.4844 35.0854C57.3345 32.7727 58.644 30.3459 60.7644 28.1534C63.5516 25.2701 66.8975 22.4469 70.5076 20.7169Z" fill="#85D9F7"/>
<path opacity="0.8" d="M65.0625 27.8653C71.634 26.8741 77.3466 23.5163 83.0591 20.3386C79.9175 20.9754 76.842 21.2517 73.8085 22.411C72.1326 23.0537 70.5108 23.8647 68.997 24.8198C68.1921 25.3303 65.8614 27.7451 65.0625 27.8653Z" fill="#63A8DB"/>
<path opacity="0.8" d="M75.2793 15.1304C73.4111 14.8781 71.2427 15.4548 69.6328 16.6381C69.6869 16.6021 71.6872 17.3289 71.9214 17.389C72.7624 17.5992 73.6334 17.7434 74.5224 17.8275C75.3394 17.9056 75.898 17.9476 76.6368 18.1819C77.682 18.5183 79.7304 18.4883 78.8954 17.1007C78.2527 16.0495 76.6969 15.3226 75.2793 15.1304Z" fill="#63A8DB"/>
<path opacity="0.8" d="M80.3223 28.1955C81.6197 27.2704 83.3617 22.9214 80.4484 24.7716C80.0279 25.0359 76.7782 28.604 76.6641 28.5499C77.8234 29.0845 79.2711 28.9403 80.3223 28.1955Z" fill="#63A8DB"/>
<path opacity="0.8" d="M88.4394 21.4617C88.4334 21.714 88.0009 22.1825 87.8207 22.3027C87.5684 22.4648 86.7755 22.9514 86.5533 22.5369C86.4932 22.4228 86.5292 22.2846 86.6133 22.1765C86.6974 22.0684 86.8176 21.9963 86.9317 21.9242C87.154 21.7861 87.3822 21.6479 87.6105 21.5097C87.7366 21.4377 87.8628 21.3596 88.0069 21.3295C88.3313 21.2575 88.4454 21.3295 88.4394 21.4617Z" fill="white"/>
<path opacity="0.8" d="M88.0757 21.5814C87.8114 21.7135 87.2828 22.104 87.6132 22.2662C87.9736 22.4404 88.8205 21.6775 88.4541 21.5273C88.352 21.4853 88.2319 21.5153 88.1297 21.5574C88.1177 21.5634 88.0997 21.5694 88.0757 21.5814Z" fill="#63A8DB"/>
<path opacity="0.8" d="M87.7007 17.293C87.6046 17.0587 86.9919 16.7824 86.7576 16.7403C86.4332 16.6863 85.4301 16.5721 85.376 17.0407C85.364 17.1668 85.4601 17.2809 85.5863 17.341C85.7124 17.4011 85.8626 17.4251 86.0127 17.4431C86.2951 17.4792 86.5714 17.5212 86.8477 17.5573C86.9979 17.5813 87.154 17.5993 87.3102 17.5753C87.6646 17.5212 87.7487 17.4131 87.7007 17.293Z" fill="white"/>
<path opacity="0.8" d="M87.2851 17.3108C86.9728 17.2867 86.288 17.1306 86.5643 16.8542C86.8646 16.5539 88.0059 16.9564 87.6936 17.2327C87.6095 17.3048 87.4773 17.3228 87.3572 17.3168C87.3332 17.3108 87.3151 17.3108 87.2851 17.3108Z" fill="#63A8DB"/>
</g>
</g>
<g opacity="0.8">
<g opacity="0.8">
<path opacity="0.8" d="M20.6498 81.0328C18.7697 85.9704 17.9527 91.1724 16.0486 96.1041C16.0846 93.5091 16.2828 90.9201 16.6372 88.3492C15.6881 90.6258 14.4928 92.6861 13.1172 94.278C14.8532 88.7216 16.7393 83.3214 19.7007 78.3117C20.0431 77.735 20.5777 80.8586 20.6498 81.0328Z" fill="#63A8DB"/>
<path opacity="0.8" d="M23.903 65.3486C27.0566 60.7473 31.0392 56.3142 36.4814 53.8694C37.3104 53.497 38.1514 53.0825 39.0224 52.8242C39.7612 52.608 40.7884 52.2776 41.2869 52.8483C41.9117 53.5631 41.311 54.5001 40.9205 55.281C40.3919 56.3323 39.8153 57.3594 39.2026 58.3566C37.9351 60.441 36.5415 62.4172 35.0998 64.3214C33.8024 66.0334 32.4628 67.7213 31.0812 69.3191C26.6181 74.4731 21.6564 79.3867 18.0703 85.3035C18.5148 82.3781 18.4367 79.621 19.1816 76.6596C20.1547 72.7671 21.6384 68.6524 23.903 65.3486Z" fill="#85D9F7"/>
<path opacity="0.8" d="M22.7578 74.257C27.9538 70.1123 31.2215 64.3456 34.5794 58.7412C32.1766 60.8616 29.6537 62.6397 27.6054 65.1626C26.4701 66.5562 25.4789 68.0699 24.644 69.6557C24.1995 70.5027 23.3885 73.7584 22.7578 74.257Z" fill="#63A8DB"/>
<path opacity="0.8" d="M25.2343 58.1223C23.4923 58.8372 21.9005 60.417 21.1016 62.2491C21.1256 62.189 23.228 61.8226 23.4563 61.7565C24.2912 61.5162 25.1142 61.2039 25.9311 60.8375C26.676 60.5011 27.1865 60.2488 27.9374 60.0866C29.0126 59.8523 30.7727 58.8071 29.349 58.0202C28.2678 57.4316 26.5558 57.5817 25.2343 58.1223Z" fill="#63A8DB"/>
<path opacity="0.8" d="M36.1477 66.9106C36.8084 65.4629 36.1417 60.8196 34.5438 63.8831C34.3156 64.3216 33.2824 69.037 33.1562 69.049C34.4237 68.9289 35.6131 68.0819 36.1477 66.9106Z" fill="#63A8DB"/>
<path opacity="0.8" d="M39.8023 57.023C39.9224 57.2453 39.7842 57.864 39.6821 58.0622C39.544 58.3326 39.0995 59.1435 38.703 58.9032C38.5949 58.8371 38.5528 58.693 38.5769 58.5608C38.5949 58.4287 38.661 58.3025 38.727 58.1824C38.8532 57.9481 38.9793 57.7138 39.1055 57.4856C39.1776 57.3594 39.2496 57.2273 39.3578 57.1312C39.604 56.9029 39.7422 56.9089 39.8023 57.023Z" fill="white"/>
<path opacity="0.8" d="M39.5496 57.3111C39.3874 57.5574 39.1231 58.158 39.4895 58.134C39.886 58.104 40.2404 57.0167 39.8439 57.0708C39.7358 57.0828 39.6457 57.1729 39.5796 57.263C39.5736 57.275 39.5616 57.2871 39.5496 57.3111Z" fill="#63A8DB"/>
<path opacity="0.8" d="M37.0802 53.7854C36.876 53.6352 36.2152 53.6952 35.993 53.7793C35.6866 53.8935 34.7555 54.2959 34.9478 54.7284C35.0018 54.8426 35.14 54.8966 35.2842 54.8846C35.4223 54.8726 35.5665 54.8185 35.6986 54.7585C35.9569 54.6503 36.2212 54.5422 36.4795 54.4401C36.6237 54.386 36.7679 54.326 36.888 54.2239C37.1643 54.0016 37.1823 53.8634 37.0802 53.7854Z" fill="white"/>
<path opacity="0.8" d="M36.7384 54.0017C36.4561 54.1338 35.7833 54.3441 35.8855 53.9656C35.9936 53.5572 37.189 53.3349 37.0508 53.7254C37.0148 53.8335 36.9066 53.9116 36.8045 53.9717C36.7805 53.9837 36.7625 53.9897 36.7384 54.0017Z" fill="#63A8DB"/>
</g>
</g>
<g opacity="0.8">
<g opacity="0.8">
<path opacity="0.8" d="M9.87044 142.135C10.7114 147.355 12.6096 152.262 13.4205 157.488C12.1591 155.224 11.0358 152.881 10.0506 150.478C10.369 152.923 10.363 155.308 9.96655 157.374C8.68708 151.692 7.62987 146.075 7.68994 140.254C7.69595 139.582 9.72027 142.02 9.87044 142.135Z" fill="#63A8DB"/>
<path opacity="0.8" d="M4.84317 126.919C5.27567 121.363 6.50708 115.524 9.99708 110.689C10.5317 109.95 11.0483 109.169 11.673 108.514C12.2016 107.955 12.9345 107.157 13.6493 107.403C14.5503 107.709 14.4962 108.82 14.5503 109.691C14.6164 110.869 14.6284 112.046 14.6044 113.211C14.5443 115.65 14.3281 118.059 14.0277 120.426C13.7634 122.552 13.445 124.685 13.0426 126.769C11.7571 133.467 9.91299 140.2 9.76882 147.114C8.69359 144.357 7.24593 142.009 6.41097 139.077C5.3057 135.221 4.53081 130.914 4.84317 126.919Z" fill="#85D9F7"/>
<path opacity="0.8" d="M8.30563 135.215C10.7384 129.028 10.6783 122.402 10.7865 115.867C9.7653 118.906 8.46781 121.705 7.95723 124.913C7.6749 126.685 7.56678 128.493 7.63886 130.283C7.68091 131.238 8.60597 134.464 8.30563 135.215Z" fill="#63A8DB"/>
<path opacity="0.8" d="M2.38852 119.999C1.2352 121.489 0.652533 123.658 0.874788 125.64C0.868781 125.574 2.50265 124.204 2.66484 124.036C3.26553 123.411 3.83018 122.726 4.34677 122.006C4.82131 121.339 5.13968 120.87 5.71033 120.354C6.52727 119.615 7.52442 117.825 5.90255 117.861C4.66514 117.885 3.25952 118.864 2.38852 119.999Z" fill="#63A8DB"/>
<path opacity="0.8" d="M16.2268 122.156C16.0767 120.57 13.1814 116.882 13.3255 120.336C13.3495 120.834 14.8092 125.429 14.7011 125.501C15.7463 124.763 16.347 123.435 16.2268 122.156Z" fill="#63A8DB"/>
<path opacity="0.8" d="M14.455 111.764C14.6712 111.896 14.8575 112.503 14.8695 112.719C14.8875 113.025 14.9115 113.944 14.437 113.932C14.3108 113.932 14.2027 113.824 14.1547 113.704C14.1066 113.578 14.1006 113.44 14.0946 113.302C14.0886 113.037 14.0766 112.773 14.0706 112.509C14.0706 112.364 14.0645 112.214 14.1126 112.076C14.2207 111.758 14.3409 111.692 14.455 111.764Z" fill="white"/>
<path opacity="0.8" d="M14.3776 112.136C14.3596 112.431 14.4316 113.086 14.738 112.875C15.0684 112.647 14.8281 111.536 14.5157 111.776C14.4316 111.842 14.3956 111.962 14.3836 112.07C14.3776 112.094 14.3776 112.112 14.3776 112.136Z" fill="#63A8DB"/>
<path opacity="0.8" d="M10.4649 110.322C10.2126 110.292 9.67201 110.677 9.51583 110.863C9.30559 111.115 8.7049 111.926 9.08333 112.209C9.18545 112.287 9.33562 112.257 9.44975 112.179C9.56389 112.101 9.66 111.98 9.7501 111.86C9.9243 111.638 10.0925 111.416 10.2667 111.193C10.3628 111.073 10.4589 110.947 10.513 110.803C10.6511 110.467 10.5971 110.34 10.4649 110.322Z" fill="white"/>
<path opacity="0.8" d="M10.2822 110.682C10.102 110.941 9.62748 111.457 9.52536 111.079C9.41123 110.67 10.3363 109.877 10.4144 110.292C10.4384 110.406 10.3843 110.526 10.3183 110.628C10.3123 110.64 10.3003 110.658 10.2822 110.682Z" fill="#63A8DB"/>
</g>
</g>
<g opacity="0.8">
<g opacity="0.8">
<path opacity="0.8" d="M32.6743 200.155C36.0081 204.252 40.1108 207.562 43.4266 211.677C41.198 210.349 39.0536 208.883 37.0052 207.292C38.5009 209.25 39.6903 211.316 40.3811 213.305C36.4346 209.022 32.7043 204.691 29.845 199.615C29.5206 199.032 32.4941 200.125 32.6743 200.155Z" fill="#63A8DB"/>
<path opacity="0.8" d="M20.7215 189.493C18.3128 184.465 16.4627 178.795 17.0693 172.86C17.1594 171.953 17.2255 171.016 17.4358 170.139C17.616 169.394 17.8502 168.337 18.5891 168.187C19.5202 168 20.0307 168.992 20.5113 169.718C21.16 170.704 21.7547 171.719 22.3194 172.74C23.4907 174.884 24.4999 177.077 25.4309 179.275C26.2659 181.252 27.0528 183.258 27.7496 185.258C29.9842 191.698 31.7562 198.449 35.09 204.516C32.7774 202.666 30.3506 201.357 28.1581 199.236C25.2748 196.449 22.4515 193.103 20.7215 189.493Z" fill="#85D9F7"/>
<path opacity="0.8" d="M27.8704 194.941C26.8792 188.37 23.5214 182.657 20.3438 176.945C20.9805 180.086 21.2568 183.162 22.4161 186.195C23.0589 187.871 23.8698 189.493 24.8249 191.007C25.3355 191.812 27.7502 194.142 27.8704 194.941Z" fill="#63A8DB"/>
<path opacity="0.8" d="M15.1365 184.723C14.8842 186.591 15.4609 188.76 16.6442 190.37C16.6082 190.316 17.335 188.315 17.3951 188.081C17.6054 187.24 17.7495 186.369 17.8336 185.48C17.9117 184.663 17.9538 184.105 18.188 183.366C18.5244 182.321 18.4944 180.272 17.1068 181.107C16.0556 181.75 15.3287 183.306 15.1365 184.723Z" fill="#63A8DB"/>
<path opacity="0.8" d="M28.1977 179.672C27.2726 178.374 22.9236 176.632 24.7738 179.546C25.0381 179.966 28.6062 183.216 28.5521 183.33C29.0867 182.171 28.9425 180.723 28.1977 179.672Z" fill="#63A8DB"/>
<path opacity="0.8" d="M21.4732 171.562C21.7255 171.568 22.194 172.001 22.3141 172.181C22.4763 172.433 22.9629 173.226 22.5484 173.449C22.4343 173.509 22.2961 173.473 22.188 173.389C22.0799 173.304 22.0078 173.184 21.9357 173.07C21.7975 172.848 21.6594 172.62 21.5212 172.391C21.4491 172.265 21.371 172.139 21.341 171.995C21.2689 171.671 21.341 171.556 21.4732 171.562Z" fill="white"/>
<path opacity="0.8" d="M21.5899 171.923C21.7221 172.188 22.1125 172.716 22.2747 172.386C22.4489 172.025 21.686 171.178 21.5359 171.545C21.4938 171.647 21.5239 171.767 21.5659 171.869C21.5719 171.881 21.5779 171.899 21.5899 171.923Z" fill="#63A8DB"/>
<path opacity="0.8" d="M17.3005 172.301C17.0663 172.397 16.7899 173.01 16.7479 173.244C16.6938 173.569 16.5797 174.572 17.0482 174.626C17.1744 174.638 17.2885 174.542 17.3486 174.416C17.4086 174.289 17.4327 174.139 17.4507 173.989C17.4867 173.707 17.5288 173.43 17.5648 173.154C17.5889 173.004 17.6069 172.848 17.5828 172.692C17.5288 172.337 17.4207 172.253 17.3005 172.301Z" fill="white"/>
<path opacity="0.8" d="M17.313 172.71C17.2889 173.022 17.1328 173.713 16.8564 173.431C16.5561 173.13 16.9586 171.989 17.2349 172.301C17.307 172.386 17.325 172.518 17.319 172.638C17.313 172.662 17.313 172.68 17.313 172.71Z" fill="#63A8DB"/>
</g>
</g>
<g opacity="0.8">
<g opacity="0.8">
<path opacity="0.8" d="M81.0421 239.357C85.9797 241.237 91.1817 242.054 96.1134 243.958C93.5184 243.922 90.9294 243.724 88.3585 243.369C90.6351 244.318 92.6954 245.514 94.2873 246.889C88.7309 245.153 83.3307 243.267 78.3209 240.306C77.7443 239.963 80.8679 239.429 81.0421 239.357Z" fill="#63A8DB"/>
<path opacity="0.8" d="M65.3569 236.101C60.7556 232.947 56.3225 228.965 53.8777 223.522C53.5053 222.693 53.0908 221.852 52.8325 220.981C52.6163 220.243 52.2859 219.215 52.8566 218.717C53.5714 218.092 54.5084 218.693 55.2893 219.083C56.3406 219.612 57.3677 220.188 58.3649 220.801C60.4493 222.069 62.4255 223.462 64.3297 224.904C66.0417 226.201 67.7296 227.541 69.3274 228.922C74.4814 233.386 79.395 238.347 85.3118 241.933C82.3864 241.489 79.6293 241.567 76.6679 240.822C72.7754 239.849 68.6607 238.365 65.3569 236.101Z" fill="#85D9F7"/>
<path opacity="0.8" d="M74.2658 237.249C70.121 232.053 64.3544 228.785 58.75 225.427C60.8704 227.83 62.6485 230.353 65.1714 232.401C66.565 233.536 68.0787 234.527 69.6645 235.362C70.5115 235.807 73.7672 236.618 74.2658 237.249Z" fill="#63A8DB"/>
<path opacity="0.8" d="M58.1282 234.767C58.843 236.509 60.4228 238.101 62.2549 238.9C62.1949 238.876 61.8285 236.773 61.7624 236.545C61.5221 235.71 61.2097 234.887 60.8433 234.07C60.5069 233.326 60.2546 232.815 60.0925 232.064C59.8582 230.989 58.813 229.229 58.0261 230.652C57.4374 231.734 57.5876 233.446 58.1282 234.767Z" fill="#63A8DB"/>
<path opacity="0.8" d="M66.9194 223.859C65.4717 223.198 60.8284 223.865 63.8919 225.462C64.3304 225.691 69.0458 226.724 69.0578 226.85C68.9377 225.583 68.0907 224.393 66.9194 223.859Z" fill="#63A8DB"/>
<path opacity="0.8" d="M57.0304 220.201C57.2526 220.081 57.8713 220.219 58.0696 220.321C58.3399 220.459 59.1508 220.904 58.9105 221.3C58.8445 221.408 58.7003 221.45 58.5681 221.426C58.436 221.408 58.3098 221.342 58.1897 221.276C57.9554 221.15 57.7212 221.024 57.4929 220.898C57.3668 220.826 57.2346 220.754 57.1385 220.645C56.9102 220.399 56.9162 220.261 57.0304 220.201Z" fill="white"/>
<path opacity="0.8" d="M57.3204 220.453C57.5666 220.615 58.1673 220.879 58.1433 220.513C58.1133 220.116 57.026 219.762 57.0801 220.158C57.0921 220.266 57.1822 220.356 57.2723 220.423C57.2843 220.429 57.2963 220.441 57.3204 220.453Z" fill="#63A8DB"/>
<path opacity="0.8" d="M53.7951 222.928C53.6449 223.132 53.705 223.793 53.7891 224.015C53.9032 224.321 54.3057 225.252 54.7382 225.06C54.8523 225.006 54.9064 224.868 54.8944 224.724C54.8824 224.586 54.8283 224.441 54.7682 224.309C54.6601 224.051 54.552 223.787 54.4499 223.528C54.3958 223.384 54.3357 223.24 54.2336 223.12C54.0114 222.844 53.8732 222.826 53.7951 222.928Z" fill="white"/>
<path opacity="0.8" d="M54.0032 223.27C54.1353 223.553 54.3455 224.225 53.9671 224.123C53.5586 224.015 53.3364 222.82 53.7268 222.958C53.835 222.994 53.9131 223.102 53.9731 223.204C53.9851 223.228 53.9911 223.246 54.0032 223.27Z" fill="#63A8DB"/>
</g>
</g>
<g opacity="0.8">
<g opacity="0.8">
<path opacity="0.8" d="M142.13 250.132C147.35 249.291 152.258 247.399 157.484 246.582C155.219 247.843 152.876 248.967 150.474 249.952C152.919 249.634 155.303 249.64 157.37 250.036C151.687 251.315 146.071 252.373 140.25 252.313C139.577 252.307 142.016 250.282 142.13 250.132Z" fill="#63A8DB"/>
<path opacity="0.8" d="M126.914 255.153C121.357 254.721 115.519 253.49 110.683 250C109.944 249.465 109.163 248.948 108.509 248.324C107.95 247.795 107.151 247.062 107.397 246.347C107.704 245.446 108.815 245.5 109.686 245.446C110.863 245.38 112.041 245.368 113.206 245.392C115.645 245.452 118.054 245.669 120.42 245.969C122.547 246.233 124.679 246.552 126.764 246.954C133.461 248.24 140.195 250.084 147.109 250.228C144.352 251.303 142.003 252.751 139.072 253.586C135.215 254.691 130.908 255.46 126.914 255.153Z" fill="#85D9F7"/>
<path opacity="0.8" d="M135.215 251.694C129.028 249.261 122.403 249.321 115.867 249.213C118.907 250.234 121.706 251.532 124.914 252.042C126.686 252.324 128.494 252.433 130.284 252.361C131.239 252.318 134.465 251.393 135.215 251.694Z" fill="#63A8DB"/>
<path opacity="0.8" d="M119.991 257.611C121.48 258.764 123.649 259.347 125.631 259.124C125.565 259.13 124.195 257.497 124.027 257.334C123.402 256.734 122.718 256.169 121.997 255.652C121.33 255.178 120.862 254.859 120.345 254.289C119.606 253.472 117.816 252.475 117.852 254.097C117.876 255.334 118.855 256.74 119.991 257.611Z" fill="#63A8DB"/>
<path opacity="0.8" d="M122.148 243.771C120.562 243.921 116.874 246.816 120.328 246.672C120.827 246.648 125.422 245.188 125.494 245.296C124.755 244.251 123.428 243.65 122.148 243.771Z" fill="#63A8DB"/>
<path opacity="0.8" d="M111.753 245.543C111.885 245.326 112.492 245.14 112.708 245.128C113.015 245.11 113.934 245.086 113.922 245.561C113.922 245.687 113.813 245.795 113.687 245.843C113.561 245.891 113.423 245.897 113.285 245.903C113.021 245.909 112.756 245.921 112.492 245.927C112.348 245.927 112.198 245.933 112.059 245.885C111.747 245.777 111.681 245.657 111.753 245.543Z" fill="white"/>
<path opacity="0.8" d="M112.129 245.621C112.423 245.639 113.078 245.567 112.867 245.26C112.639 244.93 111.528 245.17 111.768 245.482C111.834 245.567 111.954 245.603 112.063 245.615C112.087 245.621 112.105 245.621 112.129 245.621Z" fill="#63A8DB"/>
<path opacity="0.8" d="M110.314 249.531C110.284 249.784 110.669 250.324 110.855 250.48C111.107 250.691 111.918 251.291 112.2 250.913C112.278 250.811 112.248 250.661 112.17 250.546C112.092 250.432 111.972 250.336 111.852 250.246C111.63 250.072 111.407 249.904 111.185 249.729C111.065 249.633 110.939 249.537 110.795 249.483C110.458 249.345 110.332 249.399 110.314 249.531Z" fill="white"/>
<path opacity="0.8" d="M110.679 249.717C110.937 249.897 111.454 250.372 111.075 250.474C110.667 250.588 109.874 249.663 110.288 249.585C110.403 249.561 110.523 249.615 110.625 249.681C110.637 249.687 110.655 249.699 110.679 249.717Z" fill="#63A8DB"/>
</g>
</g>
<g opacity="0.8">
<g opacity="0.8">
<path opacity="0.8" d="M200.157 227.331C204.253 223.997 207.563 219.894 211.678 216.578C210.35 218.807 208.885 220.951 207.293 223C209.251 221.504 211.317 220.315 213.306 219.624C209.023 223.57 204.692 227.301 199.616 230.16C199.033 230.484 200.127 227.511 200.157 227.331Z" fill="#63A8DB"/>
<path opacity="0.8" d="M189.493 239.278C184.466 241.687 178.795 243.537 172.86 242.931C171.953 242.84 171.016 242.774 170.139 242.564C169.394 242.384 168.337 242.15 168.187 241.411C168.001 240.48 168.992 239.969 169.719 239.489C170.704 238.84 171.719 238.245 172.74 237.681C174.885 236.509 177.077 235.5 179.276 234.569C181.252 233.734 183.258 232.947 185.258 232.25C191.698 230.016 198.45 228.244 204.517 224.91C202.666 227.223 201.357 229.649 199.237 231.842C196.449 234.731 193.104 237.554 189.493 239.278Z" fill="#85D9F7"/>
<path opacity="0.8" d="M194.942 232.136C188.37 233.127 182.658 236.485 176.945 239.663C180.087 239.026 183.162 238.75 186.196 237.59C187.872 236.947 189.494 236.137 191.007 235.181C191.812 234.671 194.143 232.256 194.942 232.136Z" fill="#63A8DB"/>
<path opacity="0.8" d="M184.726 244.871C186.594 245.123 188.762 244.546 190.372 243.363C190.318 243.399 188.318 242.672 188.083 242.612C187.242 242.402 186.371 242.258 185.482 242.174C184.665 242.096 184.107 242.054 183.368 241.819C182.323 241.483 180.274 241.513 181.109 242.9C181.752 243.952 183.308 244.679 184.726 244.871Z" fill="#63A8DB"/>
<path opacity="0.8" d="M179.675 231.806C178.377 232.731 176.635 237.08 179.549 235.23C179.969 234.965 183.219 231.397 183.333 231.451C182.174 230.917 180.726 231.061 179.675 231.806Z" fill="#63A8DB"/>
<path opacity="0.8" d="M171.563 238.539C171.569 238.287 172.001 237.819 172.181 237.698C172.434 237.536 173.227 237.05 173.449 237.464C173.509 237.578 173.473 237.717 173.389 237.825C173.305 237.933 173.185 238.005 173.07 238.077C172.848 238.215 172.62 238.353 172.392 238.491C172.266 238.563 172.139 238.642 171.995 238.672C171.671 238.744 171.557 238.672 171.563 238.539Z" fill="white"/>
<path opacity="0.8" d="M171.922 238.419C172.186 238.287 172.714 237.897 172.384 237.734C172.024 237.56 171.177 238.323 171.543 238.473C171.645 238.515 171.765 238.485 171.868 238.443C171.88 238.437 171.898 238.431 171.922 238.419Z" fill="#63A8DB"/>
<path opacity="0.8" d="M172.301 242.708C172.398 242.942 173.01 243.219 173.245 243.261C173.569 243.315 174.572 243.429 174.626 242.96C174.638 242.834 174.542 242.72 174.416 242.66C174.29 242.6 174.14 242.576 173.989 242.558C173.707 242.522 173.431 242.48 173.154 242.444C173.004 242.42 172.848 242.402 172.692 242.426C172.337 242.48 172.253 242.588 172.301 242.708Z" fill="white"/>
<path opacity="0.8" d="M172.712 242.69C173.024 242.714 173.715 242.871 173.433 243.147C173.133 243.447 171.991 243.045 172.304 242.769C172.388 242.696 172.52 242.678 172.64 242.684C172.664 242.69 172.682 242.69 172.712 242.69Z" fill="#63A8DB"/>
</g>
</g>
<g opacity="0.8">
<g opacity="0.8">
<path opacity="0.8" d="M239.355 178.969C241.236 174.031 242.053 168.829 243.957 163.898C243.921 166.493 243.722 169.082 243.368 171.653C244.317 169.376 245.513 167.316 246.888 165.724C245.152 171.28 243.266 176.68 240.305 181.69C239.962 182.267 239.428 179.143 239.355 178.969Z" fill="#63A8DB"/>
<path opacity="0.8" d="M236.104 194.653C232.95 199.254 228.967 203.687 223.525 206.132C222.696 206.504 221.855 206.919 220.984 207.177C220.245 207.394 219.218 207.724 218.72 207.153C218.095 206.438 218.696 205.501 219.086 204.72C219.615 203.669 220.191 202.642 220.804 201.645C222.078 199.561 223.465 197.584 224.907 195.68C226.204 193.968 227.544 192.28 228.925 190.682C233.389 185.528 238.35 180.615 241.936 174.698C241.492 177.623 241.57 180.381 240.825 183.342C239.852 187.234 238.368 191.349 236.104 194.653Z" fill="#85D9F7"/>
<path opacity="0.8" d="M237.247 185.745C232.051 189.89 228.784 195.656 225.426 201.261C227.829 199.14 230.351 197.362 232.4 194.839C233.535 193.446 234.526 191.932 235.361 190.346C235.806 189.499 236.617 186.243 237.247 185.745Z" fill="#63A8DB"/>
<path opacity="0.8" d="M234.769 201.879C236.511 201.164 238.103 199.585 238.902 197.752C238.878 197.813 236.775 198.179 236.547 198.245C235.712 198.485 234.889 198.798 234.072 199.164C233.327 199.5 232.817 199.753 232.066 199.915C230.991 200.149 229.231 201.194 230.654 201.981C231.735 202.57 233.447 202.42 234.769 201.879Z" fill="#63A8DB"/>
<path opacity="0.8" d="M223.859 193.091C223.198 194.539 223.865 199.182 225.462 196.119C225.691 195.68 226.724 190.965 226.85 190.953C225.583 191.073 224.393 191.92 223.859 193.091Z" fill="#63A8DB"/>
<path opacity="0.8" d="M220.207 202.979C220.087 202.757 220.225 202.138 220.327 201.94C220.465 201.669 220.91 200.858 221.306 201.099C221.414 201.165 221.456 201.309 221.432 201.441C221.414 201.573 221.348 201.699 221.282 201.819C221.156 202.054 221.03 202.288 220.904 202.516C220.832 202.642 220.759 202.775 220.651 202.871C220.405 203.099 220.267 203.093 220.207 202.979Z" fill="white"/>
<path opacity="0.8" d="M220.456 202.69C220.618 202.444 220.882 201.843 220.516 201.867C220.12 201.897 219.765 202.985 220.162 202.931C220.27 202.919 220.36 202.828 220.426 202.738C220.432 202.732 220.444 202.714 220.456 202.69Z" fill="#63A8DB"/>
<path opacity="0.8" d="M222.928 206.216C223.132 206.366 223.793 206.306 224.015 206.222C224.322 206.108 225.253 205.706 225.061 205.273C225.007 205.153 224.868 205.105 224.724 205.117C224.58 205.129 224.442 205.183 224.31 205.243C224.052 205.351 223.787 205.459 223.529 205.562C223.385 205.616 223.241 205.676 223.12 205.778C222.844 206 222.826 206.138 222.928 206.216Z" fill="white"/>
<path opacity="0.8" d="M223.273 206C223.555 205.868 224.228 205.658 224.126 206.036C224.018 206.444 222.822 206.667 222.96 206.276C222.996 206.168 223.104 206.09 223.207 206.03C223.231 206.018 223.249 206.012 223.273 206Z" fill="#63A8DB"/>
</g>
</g>
<g opacity="0.8">
<g opacity="0.8">
<path opacity="0.8" d="M250.14 117.867C249.299 112.647 247.407 107.74 246.59 102.514C247.851 104.778 248.975 107.121 249.96 109.524C249.641 107.079 249.647 104.694 250.044 102.628C251.323 108.31 252.38 113.927 252.32 119.747C252.314 120.42 250.29 117.981 250.14 117.867Z" fill="#63A8DB"/>
<path opacity="0.8" d="M255.159 133.083C254.727 138.639 253.495 144.478 250.005 149.313C249.471 150.052 248.954 150.833 248.33 151.488C247.801 152.047 247.068 152.846 246.353 152.599C245.452 152.293 245.506 151.182 245.452 150.311C245.386 149.133 245.374 147.956 245.398 146.791C245.458 144.352 245.674 141.943 245.975 139.576C246.239 137.45 246.557 135.317 246.96 133.233C248.245 126.535 250.09 119.802 250.234 112.888C251.309 115.645 252.757 117.994 253.592 120.925C254.697 124.781 255.466 129.088 255.159 133.083Z" fill="#85D9F7"/>
<path opacity="0.8" d="M251.704 124.787C249.271 130.974 249.331 137.6 249.223 144.135C250.244 141.096 251.541 138.297 252.052 135.089C252.334 133.317 252.442 131.509 252.37 129.719C252.328 128.764 251.403 125.538 251.704 124.787Z" fill="#63A8DB"/>
<path opacity="0.8" d="M257.621 140.003C258.774 138.513 259.363 136.345 259.135 134.362C259.141 134.428 257.507 135.798 257.345 135.966C256.744 136.591 256.179 137.276 255.663 137.996C255.188 138.663 254.87 139.132 254.299 139.648C253.482 140.387 252.485 142.177 254.107 142.141C255.344 142.117 256.75 141.138 257.621 140.003Z" fill="#63A8DB"/>
<path opacity="0.8" d="M243.777 137.846C243.927 139.432 246.822 143.12 246.678 139.666C246.654 139.167 245.195 134.572 245.303 134.5C244.257 135.239 243.657 136.566 243.777 137.846Z" fill="#63A8DB"/>
<path opacity="0.8" d="M245.551 148.238C245.335 148.106 245.148 147.499 245.136 147.283C245.118 146.977 245.094 146.058 245.569 146.07C245.695 146.07 245.803 146.178 245.851 146.304C245.899 146.43 245.905 146.568 245.911 146.706C245.917 146.971 245.929 147.235 245.935 147.499C245.935 147.644 245.941 147.794 245.893 147.932C245.785 148.244 245.665 148.31 245.551 148.238Z" fill="white"/>
<path opacity="0.8" d="M245.632 147.866C245.65 147.572 245.578 146.917 245.272 147.127C244.942 147.355 245.182 148.467 245.494 148.226C245.578 148.16 245.614 148.04 245.626 147.932C245.632 147.908 245.632 147.89 245.632 147.866Z" fill="#63A8DB"/>
<path opacity="0.8" d="M249.539 149.68C249.791 149.71 250.332 149.325 250.488 149.139C250.698 148.887 251.299 148.076 250.921 147.793C250.819 147.715 250.668 147.745 250.554 147.824C250.44 147.902 250.344 148.022 250.254 148.142C250.08 148.364 249.912 148.586 249.737 148.809C249.641 148.929 249.545 149.055 249.491 149.199C249.353 149.535 249.407 149.662 249.539 149.68Z" fill="white"/>
<path opacity="0.8" d="M249.728 149.32C249.908 149.062 250.383 148.545 250.485 148.923C250.599 149.332 249.674 150.125 249.596 149.71C249.572 149.596 249.626 149.476 249.692 149.374C249.698 149.362 249.71 149.344 249.728 149.32Z" fill="#63A8DB"/>
</g>
</g>
<g opacity="0.8">
<g opacity="0.8">
<path opacity="0.8" d="M227.334 59.8461C224.001 55.7494 219.898 52.4396 216.582 48.3249C218.811 49.6524 220.955 51.1181 223.003 52.7099C221.508 50.7517 220.318 48.6853 219.628 46.697C223.574 50.9799 227.304 55.3109 230.164 60.3867C230.488 60.9694 227.515 59.8761 227.334 59.8461Z" fill="#63A8DB"/>
<path opacity="0.8" d="M239.286 70.5083C241.695 75.5361 243.545 81.2066 242.939 87.1414C242.849 88.0485 242.782 88.9855 242.572 89.8625C242.392 90.6074 242.158 91.6646 241.419 91.8148C240.488 92.001 239.977 91.0099 239.497 90.283C238.848 89.2979 238.253 88.2827 237.689 87.2616C236.517 85.1171 235.508 82.9246 234.577 80.7261C233.742 78.7498 232.955 76.7435 232.258 74.7432C230.024 68.3038 228.252 61.5521 224.918 55.4851C227.231 57.3352 229.657 58.6447 231.85 60.7652C234.739 63.5524 237.562 66.8982 239.286 70.5083Z" fill="#85D9F7"/>
<path opacity="0.8" d="M232.137 65.0598C233.128 71.6314 236.486 77.3439 239.663 83.0565C239.027 79.9149 238.75 76.8393 237.591 73.8058C236.948 72.1299 236.137 70.5081 235.182 68.9943C234.672 68.1894 232.257 65.8587 232.137 65.0598Z" fill="#63A8DB"/>
<path opacity="0.8" d="M244.874 75.2776C245.126 73.4094 244.55 71.241 243.366 69.6311C243.402 69.6852 242.675 71.6855 242.615 71.9197C242.405 72.7607 242.261 73.6317 242.177 74.5207C242.099 75.3376 242.057 75.8963 241.822 76.6351C241.486 77.6803 241.516 79.7287 242.904 78.8937C243.955 78.251 244.682 76.6952 244.874 75.2776Z" fill="#63A8DB"/>
<path opacity="0.8" d="M231.804 80.3293C232.729 81.6268 237.078 83.3688 235.228 80.4555C234.964 80.035 231.396 76.7853 231.45 76.6711C230.915 77.8305 231.059 79.2781 231.804 80.3293Z" fill="#63A8DB"/>
<path opacity="0.8" d="M238.547 88.4389C238.295 88.4329 237.826 88.0004 237.706 87.8202C237.544 87.5679 237.057 86.775 237.472 86.5528C237.586 86.4927 237.724 86.5288 237.832 86.6128C237.94 86.6969 238.012 86.8171 238.084 86.9312C238.223 87.1535 238.361 87.3817 238.499 87.61C238.571 87.7361 238.649 87.8623 238.679 88.0064C238.751 88.3308 238.679 88.4449 238.547 88.4389Z" fill="white"/>
<path opacity="0.8" d="M238.418 88.0786C238.285 87.8143 237.895 87.2857 237.733 87.6161C237.559 87.9765 238.321 88.8235 238.472 88.457C238.514 88.3549 238.484 88.2348 238.442 88.1327C238.436 88.1207 238.43 88.1026 238.418 88.0786Z" fill="#63A8DB"/>
<path opacity="0.8" d="M242.712 87.7002C242.946 87.6041 243.222 86.9914 243.264 86.7571C243.318 86.4327 243.432 85.4296 242.964 85.3755C242.838 85.3635 242.724 85.4596 242.664 85.5858C242.604 85.7119 242.579 85.8621 242.561 86.0123C242.525 86.2946 242.483 86.5709 242.447 86.8472C242.423 86.9974 242.405 87.1536 242.429 87.3097C242.483 87.6641 242.592 87.7482 242.712 87.7002Z" fill="white"/>
<path opacity="0.8" d="M242.691 87.2916C242.715 86.9792 242.871 86.2884 243.147 86.5707C243.448 86.8711 243.045 88.0124 242.769 87.7C242.697 87.6159 242.679 87.4838 242.685 87.3637C242.691 87.3396 242.691 87.3216 242.691 87.2916Z" fill="#63A8DB"/>
</g>
</g>
<g opacity="0.8">
<g opacity="0.8">
<path opacity="0.8" d="M178.97 20.6452C174.032 18.765 168.83 17.9481 163.898 16.0439C166.493 16.08 169.082 16.2782 171.653 16.6326C169.377 15.6835 167.316 14.4881 165.725 13.1125C171.281 14.8485 176.681 16.7347 181.691 19.6961C182.268 20.0385 179.144 20.5731 178.97 20.6452Z" fill="#63A8DB"/>
<path opacity="0.8" d="M194.65 23.9013C199.251 27.0549 203.685 31.0375 206.129 36.4797C206.502 37.3087 206.916 38.1496 207.175 39.0206C207.391 39.7595 207.721 40.7867 207.151 41.2852C206.436 41.91 205.499 41.3093 204.718 40.9188C203.667 40.3902 202.639 39.8135 201.642 39.2008C199.558 37.9334 197.582 36.5398 195.677 35.0981C193.965 33.8007 192.277 32.4611 190.68 31.0795C185.526 26.6164 180.612 21.6547 174.695 18.0686C177.621 18.5131 180.378 18.435 183.339 19.1799C187.232 20.153 191.346 21.6367 194.65 23.9013Z" fill="#85D9F7"/>
<path opacity="0.8" d="M185.742 22.7537C189.887 27.9496 195.654 31.2174 201.258 34.5752C199.138 32.1725 197.36 29.6496 194.837 27.6012C193.443 26.4659 191.929 25.4748 190.343 24.6398C189.496 24.1953 186.241 23.3844 185.742 22.7537Z" fill="#63A8DB"/>
<path opacity="0.8" d="M201.877 25.2345C201.162 23.4925 199.582 21.9007 197.75 21.1018C197.81 21.1258 198.176 23.2282 198.243 23.4565C198.483 24.2915 198.795 25.1144 199.162 25.9313C199.498 26.6762 199.75 27.1868 199.912 27.9376C200.147 29.0129 201.192 30.7729 201.979 29.3493C202.568 28.268 202.417 26.5561 201.877 25.2345Z" fill="#63A8DB"/>
<path opacity="0.8" d="M193.092 36.1433C194.539 36.804 199.183 36.1373 196.119 34.5395C195.681 34.3112 190.965 33.278 190.953 33.1519C191.073 34.4193 191.92 35.6087 193.092 36.1433Z" fill="#63A8DB"/>
<path opacity="0.8" d="M202.979 39.8013C202.757 39.9214 202.138 39.7833 201.94 39.6812C201.669 39.543 200.858 39.0985 201.099 38.702C201.165 38.5939 201.309 38.5519 201.441 38.5759C201.573 38.5939 201.699 38.66 201.819 38.7261C202.054 38.8522 202.288 38.9783 202.516 39.1045C202.642 39.1766 202.775 39.2487 202.871 39.3568C203.099 39.6031 203.093 39.7412 202.979 39.8013Z" fill="white"/>
<path opacity="0.8" d="M202.683 39.5491C202.437 39.3869 201.836 39.1226 201.86 39.489C201.89 39.8855 202.977 40.2399 202.923 39.8434C202.911 39.7353 202.821 39.6452 202.731 39.5791C202.725 39.5731 202.707 39.5611 202.683 39.5491Z" fill="#63A8DB"/>
<path opacity="0.8" d="M206.218 37.0744C206.368 36.8701 206.308 36.2094 206.224 35.9871C206.11 35.6808 205.708 34.7497 205.275 34.9419C205.155 34.996 205.107 35.1341 205.119 35.2783C205.131 35.4165 205.185 35.5606 205.245 35.6928C205.353 35.9511 205.461 36.2154 205.563 36.4737C205.618 36.6178 205.678 36.762 205.78 36.8821C206.002 37.1585 206.14 37.1765 206.218 37.0744Z" fill="white"/>
<path opacity="0.8" d="M205.999 36.7316C205.867 36.4493 205.657 35.7765 206.035 35.8786C206.443 35.9867 206.666 37.1821 206.275 37.044C206.167 37.0079 206.089 36.8998 206.029 36.7977C206.017 36.7736 206.011 36.7556 205.999 36.7316Z" fill="#63A8DB"/>
</g>
</g>
</g>
</svg>
