<svg width="162" height="162" viewBox="0 0 162 162" fill="none" xmlns="http://www.w3.org/2000/svg">
<g opacity="0.6">
<g opacity="0.6">
<g opacity="0.6">
<path opacity="0.6" d="M67.7198 6.55727C64.5002 7.33216 61.5207 8.74378 58.301 9.50065C59.6526 8.60562 61.0642 7.78869 62.5179 7.06786C61.0101 7.38022 59.5144 7.49435 58.2109 7.34418C61.6949 6.27495 65.1549 5.34989 68.7951 5.10962C69.2096 5.07958 67.7859 6.45516 67.7198 6.55727Z" fill="#63A8DB"/>
<path opacity="0.6" d="M76.98 2.70097C80.47 2.70697 84.1762 3.19954 87.3599 5.15178C87.8464 5.45212 88.357 5.74045 88.7955 6.09486C89.1679 6.40121 89.7025 6.81569 89.5824 7.27221C89.4322 7.84887 88.7354 7.86689 88.1948 7.93897C87.462 8.03508 86.7291 8.10116 85.9963 8.1372C84.4705 8.21529 82.9568 8.19126 81.4611 8.11918C80.1216 8.0531 78.776 7.95699 77.4545 7.80682C73.2136 7.32026 68.9187 6.49131 64.5938 6.72558C66.2637 5.92066 67.6633 4.9055 69.4533 4.24474C71.814 3.37975 74.4691 2.69496 76.98 2.70097Z" fill="#85D9F7"/>
<path opacity="0.6" d="M71.9688 5.25371C75.9453 6.47912 80.0841 6.13072 84.1687 5.88444C82.2225 5.39187 80.4144 4.71309 78.3841 4.5449C77.2608 4.4548 76.1315 4.47282 75.0142 4.60497C74.4196 4.67105 72.4493 5.40389 71.9688 5.25371Z" fill="#63A8DB"/>
<path opacity="0.6" d="M81.1841 0.838811C80.1989 0.190066 78.8174 -0.0742397 77.5859 0.160029C77.628 0.154022 78.5591 1.10912 78.6732 1.20523C79.0937 1.55363 79.5442 1.87199 80.0187 2.16032C80.4572 2.42463 80.7636 2.59883 81.112 2.93521C81.6106 3.40976 82.7759 3.95038 82.6798 2.93521C82.6137 2.16033 81.9289 1.32537 81.1841 0.838811Z" fill="#63A8DB"/>
<path opacity="0.6" d="M80.4984 9.57878C81.4835 9.41059 83.646 7.42831 81.4956 7.6806C81.1892 7.71664 78.384 8.85194 78.3359 8.78587C78.8465 9.40458 79.7055 9.71694 80.4984 9.57878Z" fill="#63A8DB"/>
<path opacity="0.6" d="M86.897 7.98077C86.825 8.11893 86.4585 8.2691 86.3204 8.28712C86.1342 8.31114 85.5575 8.37122 85.5395 8.07688C85.5335 7.99879 85.5935 7.9267 85.6716 7.89066C85.7497 7.85462 85.8338 7.84261 85.9239 7.8306C86.0861 7.81257 86.2543 7.79455 86.4225 7.78254C86.5126 7.77653 86.6087 7.76452 86.6988 7.78854C86.891 7.8366 86.9331 7.90868 86.897 7.98077Z" fill="white"/>
<path opacity="0.6" d="M86.6704 7.95107C86.4842 7.95708 86.0817 8.02917 86.2259 8.20937C86.3821 8.4076 87.0668 8.20336 86.8986 8.01715C86.8506 7.96909 86.7785 7.95108 86.7064 7.94507C86.7004 7.95108 86.6824 7.95107 86.6704 7.95107Z" fill="#63A8DB"/>
<path opacity="0.6" d="M87.6164 5.42806C87.6224 5.27188 87.3581 4.94751 87.232 4.86341C87.0638 4.74327 86.5292 4.40689 86.373 4.65918C86.3309 4.72525 86.355 4.82136 86.409 4.88744C86.4631 4.95351 86.5412 5.00758 86.6193 5.06164C86.7694 5.15775 86.9136 5.25386 87.0578 5.35597C87.1359 5.41004 87.22 5.4641 87.3161 5.49414C87.5323 5.5482 87.6104 5.50615 87.6164 5.42806Z" fill="white"/>
<path opacity="0.6" d="M87.3843 5.32624C87.2161 5.22412 86.8677 4.95382 87.102 4.86972C87.3543 4.77962 87.8889 5.32024 87.6366 5.38631C87.5705 5.40433 87.4864 5.3743 87.4203 5.34426C87.4083 5.34426 87.3963 5.33225 87.3843 5.32624Z" fill="#63A8DB"/>
</g>
</g>
<g opacity="0.6">
<g opacity="0.6">
<path opacity="0.6" d="M32.5716 23.5451C30.1688 25.8217 28.3007 28.5368 25.8859 30.8074C26.6127 29.3537 27.4237 27.9481 28.3187 26.5905C27.1654 27.6177 25.9339 28.4587 24.7266 28.9813C27.2134 26.3142 29.7423 23.7793 32.7758 21.755C33.1242 21.5207 32.5776 23.4309 32.5716 23.5451Z" fill="#63A8DB"/>
<path opacity="0.6" d="M38.6649 15.5797C41.6924 13.8377 45.1464 12.4141 48.8766 12.5102C49.4473 12.5222 50.036 12.5162 50.5946 12.6123C51.0692 12.6904 51.7419 12.7865 51.8681 13.2431C52.0303 13.8137 51.4356 14.1861 51.0031 14.5165C50.4204 14.967 49.8137 15.3875 49.201 15.79C47.9155 16.6249 46.6 17.3578 45.2665 18.0426C44.0711 18.6553 42.8577 19.2439 41.6383 19.7726C37.7218 21.4725 33.5891 22.9021 29.9609 25.2689C31.0061 23.7371 31.7089 22.1573 32.9283 20.6916C34.5382 18.7514 36.4904 16.8292 38.6649 15.5797Z" fill="#85D9F7"/>
<path opacity="0.6" d="M35.6016 20.2949C39.6622 19.3638 43.0681 16.9971 46.4861 14.7385C44.5518 15.2852 42.6476 15.6035 40.8035 16.4685C39.7884 16.9491 38.8153 17.5317 37.9142 18.2045C37.4337 18.5649 36.0941 20.1868 35.6016 20.2949Z" fill="#63A8DB"/>
<path opacity="0.6" d="M41.3758 11.8615C40.1985 11.7955 38.871 12.252 37.9219 13.0689C37.9519 13.0449 39.2374 13.4053 39.3876 13.4293C39.9222 13.5194 40.4748 13.5675 41.0334 13.5795C41.544 13.5915 41.8984 13.5915 42.367 13.6996C43.0397 13.8618 44.3132 13.7417 43.7245 12.9188C43.274 12.294 42.2649 11.9156 41.3758 11.8615Z" fill="#63A8DB"/>
<path opacity="0.6" d="M45.1456 19.7784C45.9145 19.1417 46.7975 16.3425 45.0615 17.634C44.8092 17.8202 42.9531 20.1989 42.875 20.1749C43.6259 20.4512 44.5269 20.295 45.1456 19.7784Z" fill="#63A8DB"/>
<path opacity="0.6" d="M49.8954 15.1893C49.9014 15.3455 49.6551 15.6578 49.547 15.7419C49.3968 15.8561 48.9283 16.1985 48.7661 15.9522C48.7241 15.8861 48.7421 15.796 48.7841 15.7239C48.8262 15.6518 48.9043 15.5978 48.9704 15.5497C49.1025 15.4536 49.2407 15.3515 49.3728 15.2554C49.4449 15.2013 49.523 15.1473 49.6131 15.1232C49.8173 15.0692 49.8954 15.1112 49.8954 15.1893Z" fill="white"/>
<path opacity="0.6" d="M49.6777 15.2857C49.5215 15.3818 49.2091 15.6461 49.4254 15.7362C49.6597 15.8263 50.1522 15.3097 49.9119 15.2316C49.8459 15.2076 49.7738 15.2376 49.7137 15.2677C49.7017 15.2677 49.6897 15.2737 49.6777 15.2857Z" fill="#63A8DB"/>
<path opacity="0.6" d="M49.2331 12.6241C49.161 12.486 48.7706 12.3358 48.6204 12.3238C48.4162 12.3058 47.7794 12.2817 47.7734 12.5761C47.7734 12.6542 47.8395 12.7202 47.9176 12.7563C48.0017 12.7863 48.0918 12.7923 48.1879 12.7983C48.3621 12.8104 48.5423 12.8164 48.7165 12.8284C48.8126 12.8344 48.9087 12.8404 49.0049 12.8164C49.2211 12.7683 49.2692 12.6962 49.2331 12.6241Z" fill="white"/>
<path opacity="0.6" d="M48.9844 12.6548C48.7862 12.6548 48.3537 12.5887 48.5099 12.4025C48.6841 12.1983 49.4169 12.3965 49.2307 12.5827C49.1827 12.6308 49.0986 12.6488 49.0265 12.6548C49.0145 12.6548 49.0025 12.6548 48.9844 12.6548Z" fill="#63A8DB"/>
</g>
</g>
<g opacity="0.6">
<g opacity="0.6">
<path opacity="0.6" d="M10.4008 55.6035C9.45771 58.7752 9.19942 62.0669 8.24432 65.2326C8.14821 63.6107 8.14821 61.9829 8.24432 60.361C7.76377 61.8267 7.10902 63.1722 6.32812 64.2294C7.14506 60.6733 8.07012 57.2194 9.68597 53.9456C9.86618 53.5732 10.3467 55.5014 10.4008 55.6035Z" fill="#63A8DB"/>
<path opacity="0.6" d="M11.6893 45.6563C13.4373 42.6348 15.7199 39.6734 18.9997 37.8954C19.4982 37.6251 20.0088 37.3247 20.5374 37.1265C20.9879 36.9583 21.6187 36.706 21.9551 37.0364C22.3815 37.4509 22.0512 38.0696 21.8409 38.5742C21.5586 39.2589 21.2462 39.9257 20.9159 40.5744C20.2191 41.938 19.4442 43.2355 18.6332 44.4909C17.9064 45.6202 17.1495 46.7375 16.3566 47.8068C13.8157 51.2367 10.9504 54.5405 8.99219 58.4029C9.13035 56.5528 8.95014 54.8348 9.27451 52.9547C9.701 50.4678 10.4338 47.8248 11.6893 45.6563Z" fill="#85D9F7"/>
<path opacity="0.6" d="M11.3984 51.2728C14.4499 48.4375 16.216 44.6832 18.0481 41.019C16.6485 42.4607 15.1527 43.6861 13.9934 45.362C13.3507 46.2871 12.8041 47.2782 12.3595 48.3054C12.1193 48.858 11.7709 50.9304 11.3984 51.2728Z" fill="#63A8DB"/>
<path opacity="0.6" d="M12.1816 41.079C11.1244 41.6076 10.2053 42.6708 9.79688 43.8542C9.80889 43.8181 11.1064 43.4878 11.2445 43.4337C11.7551 43.2415 12.2537 43.0132 12.7463 42.7429C13.1968 42.4966 13.5031 42.3164 13.9657 42.1783C14.6264 41.98 15.6776 41.2412 14.7526 40.8207C14.0437 40.5083 12.9865 40.6765 12.1816 41.079Z" fill="#63A8DB"/>
<path opacity="0.6" d="M19.3988 46.0525C19.7412 45.1155 19.1105 42.2502 18.2575 44.2385C18.1374 44.5268 17.7169 47.5182 17.6328 47.5302C18.4257 47.3921 19.1225 46.8094 19.3988 46.0525Z" fill="#63A8DB"/>
<path opacity="0.6" d="M21.2228 39.7033C21.3069 39.8355 21.2528 40.2319 21.1988 40.3581C21.1267 40.5323 20.8864 41.0609 20.6281 40.9287C20.556 40.8927 20.526 40.8026 20.532 40.7245C20.538 40.6404 20.574 40.5563 20.6101 40.4782C20.6762 40.328 20.7422 40.1779 20.8143 40.0217C20.8504 39.9376 20.8924 39.8535 20.9585 39.7874C21.0966 39.6372 21.1807 39.6372 21.2228 39.7033Z" fill="white"/>
<path opacity="0.6" d="M21.0842 39.8956C20.9941 40.0578 20.856 40.4483 21.0903 40.4122C21.3365 40.3762 21.5047 39.6794 21.2645 39.7335C21.1984 39.7455 21.1443 39.8055 21.1083 39.8656C21.0963 39.8716 21.0903 39.8836 21.0842 39.8956Z" fill="#63A8DB"/>
<path opacity="0.6" d="M19.3635 37.8112C19.2313 37.7271 18.8168 37.7992 18.6847 37.8593C18.4985 37.9434 17.9338 38.2377 18.078 38.502C18.114 38.5741 18.2101 38.5981 18.2942 38.5861C18.3783 38.5741 18.4684 38.5321 18.5465 38.49C18.7027 38.4119 18.8649 38.3338 19.0211 38.2557C19.1052 38.2137 19.1953 38.1716 19.2673 38.0996C19.4235 37.9434 19.4295 37.8533 19.3635 37.8112Z" fill="white"/>
<path opacity="0.6" d="M19.1635 37.9615C18.9953 38.0577 18.5808 38.2198 18.6289 37.9796C18.6769 37.7213 19.4097 37.523 19.3437 37.7753C19.3257 37.8414 19.2596 37.9015 19.1995 37.9375C19.1875 37.9495 19.1755 37.9555 19.1635 37.9615Z" fill="#63A8DB"/>
</g>
</g>
<g opacity="0.6">
<g opacity="0.6">
<path opacity="0.6" d="M6.55752 94.2694C7.33241 97.4891 8.74403 100.469 9.5009 103.688C8.60587 102.337 7.78893 100.925 7.0681 99.4714C7.38046 100.979 7.49459 102.475 7.34442 103.778C6.27519 100.294 5.35014 96.8343 5.10986 93.1942C5.07983 92.7797 6.4554 94.2033 6.55752 94.2694Z" fill="#63A8DB"/>
<path opacity="0.6" d="M2.69535 85.0069C2.70136 81.5169 3.19392 77.8106 5.14616 74.627C5.44651 74.1404 5.73484 73.6298 6.08925 73.1913C6.3956 72.8189 6.81007 72.2843 7.2666 72.4044C7.84326 72.5546 7.86127 73.2514 7.93336 73.792C8.02947 74.5249 8.09554 75.2577 8.13159 75.9905C8.20967 77.5163 8.18565 79.03 8.11357 80.5258C8.04749 81.8653 7.95138 83.2108 7.8012 84.5323C7.31465 88.7732 6.4857 93.0681 6.71997 97.3931C5.91504 95.7232 4.89988 94.3236 4.23912 92.5335C3.37413 90.1728 2.68934 87.5178 2.69535 85.0069Z" fill="#85D9F7"/>
<path opacity="0.6" d="M5.24908 90.0227C6.47448 86.0462 6.12608 81.9074 5.8798 77.8228C5.38723 79.769 4.70846 81.5771 4.54026 83.6074C4.45016 84.7307 4.46818 85.86 4.60033 86.9773C4.66641 87.5719 5.39925 89.5422 5.24908 90.0227Z" fill="#63A8DB"/>
<path opacity="0.6" d="M0.833195 80.8021C0.184451 81.7872 -0.079855 83.1688 0.154414 84.4002C0.148407 84.3582 1.10351 83.4271 1.19962 83.313C1.54802 82.8925 1.86638 82.442 2.15471 81.9674C2.41901 81.5289 2.59321 81.2226 2.9296 80.8742C3.40414 80.3756 3.94476 79.2103 2.9296 79.3064C2.15471 79.3725 1.31975 80.0572 0.833195 80.8021Z" fill="#63A8DB"/>
<path opacity="0.6" d="M9.57658 81.4929C9.40839 80.5078 7.42611 78.3453 7.6784 80.4958C7.71445 80.8021 8.84975 83.6073 8.78367 83.6554C9.40238 83.1448 9.71474 82.2858 9.57658 81.4929Z" fill="#63A8DB"/>
<path opacity="0.6" d="M7.97222 75.0898C8.11038 75.1619 8.26055 75.5283 8.27857 75.6665C8.3026 75.8527 8.36267 76.4294 8.06834 76.4474C7.99025 76.4534 7.91816 76.3933 7.88211 76.3152C7.84607 76.2371 7.83406 76.153 7.82205 76.0629C7.80403 75.9008 7.78601 75.7326 7.77399 75.5644C7.76799 75.4743 7.75597 75.3782 7.78 75.2881C7.82805 75.0958 7.90014 75.0538 7.97222 75.0898Z" fill="white"/>
<path opacity="0.6" d="M7.9435 75.324C7.94951 75.5102 8.0216 75.9127 8.2018 75.7685C8.40003 75.6123 8.19579 74.9275 8.00958 75.0957C7.96152 75.1438 7.94351 75.2159 7.9375 75.2879C7.94351 75.294 7.9435 75.312 7.9435 75.324Z" fill="#63A8DB"/>
<path opacity="0.6" d="M5.42293 74.3746C5.26675 74.3686 4.94238 74.6329 4.85828 74.7591C4.73815 74.9272 4.40176 75.4619 4.65405 75.618C4.72013 75.6601 4.81624 75.6361 4.88231 75.582C4.94839 75.5279 5.00245 75.4498 5.05651 75.3718C5.15262 75.2216 5.24873 75.0774 5.35085 74.9272C5.40491 74.8492 5.45897 74.7651 5.48901 74.669C5.54307 74.4587 5.50102 74.3806 5.42293 74.3746Z" fill="white"/>
<path opacity="0.6" d="M5.326 74.6088C5.22388 74.777 4.95357 75.1254 4.86948 74.8911C4.77937 74.6389 5.31999 74.1042 5.38607 74.3565C5.40409 74.4226 5.37405 74.5067 5.34402 74.5728C5.34402 74.5848 5.332 74.5968 5.326 74.6088Z" fill="#63A8DB"/>
</g>
</g>
<g opacity="0.6">
<g opacity="0.6">
<path opacity="0.6" d="M23.5443 129.422C25.8209 131.825 28.536 133.693 30.8067 136.108C29.353 135.381 27.9474 134.57 26.5898 133.675C27.617 134.828 28.458 136.059 28.9806 137.267C26.3135 134.78 23.7786 132.251 21.7543 129.218C21.52 128.869 23.4302 129.416 23.5443 129.422Z" fill="#63A8DB"/>
<path opacity="0.6" d="M15.5741 123.331C13.8321 120.304 12.4085 116.85 12.5046 113.119C12.5166 112.549 12.5106 111.96 12.6067 111.401C12.6848 110.927 12.7809 110.254 13.2374 110.128C13.8081 109.966 14.1805 110.56 14.5109 110.993C14.9614 111.576 15.3819 112.182 15.7844 112.795C16.6193 114.08 17.3522 115.396 18.0369 116.729C18.6497 117.925 19.2383 119.138 19.7669 120.358C21.4669 124.274 22.8965 128.407 25.2632 132.035C23.7315 130.99 22.1517 130.287 20.686 129.068C18.7458 127.458 16.8236 125.506 15.5741 123.331Z" fill="#85D9F7"/>
<path opacity="0.6" d="M20.2907 126.395C19.3597 122.334 16.993 118.928 14.7344 115.51C15.281 117.444 15.5994 119.349 16.4644 121.193C16.9449 122.208 17.5276 123.181 18.2004 124.082C18.5608 124.563 20.1826 125.902 20.2907 126.395Z" fill="#63A8DB"/>
<path opacity="0.6" d="M11.8579 120.616C11.7918 121.794 12.2483 123.121 13.0653 124.07C13.0412 124.04 13.4016 122.755 13.4257 122.604C13.5158 122.07 13.5638 121.517 13.5758 120.959C13.5879 120.448 13.5879 120.094 13.696 119.625C13.8582 118.952 13.738 117.679 12.9151 118.267C12.2904 118.718 11.9119 119.727 11.8579 120.616Z" fill="#63A8DB"/>
<path opacity="0.6" d="M19.7777 116.844C19.141 116.075 16.3418 115.192 17.6332 116.928C17.8195 117.18 20.1982 119.036 20.1742 119.114C20.4505 118.364 20.2943 117.462 19.7777 116.844Z" fill="#63A8DB"/>
<path opacity="0.6" d="M15.1842 112.098C15.3404 112.092 15.6527 112.339 15.7368 112.447C15.8509 112.597 16.1933 113.065 15.9471 113.228C15.881 113.27 15.7909 113.252 15.7188 113.21C15.6467 113.161 15.5926 113.089 15.5446 113.023C15.4485 112.891 15.3464 112.753 15.2503 112.621C15.1962 112.549 15.1421 112.471 15.1181 112.381C15.064 112.176 15.1061 112.098 15.1842 112.098Z" fill="white"/>
<path opacity="0.6" d="M15.279 112.314C15.3751 112.47 15.6394 112.783 15.7295 112.567C15.8196 112.332 15.303 111.84 15.225 112.08C15.2069 112.146 15.231 112.218 15.261 112.278C15.261 112.29 15.267 112.302 15.279 112.314Z" fill="#63A8DB"/>
<path opacity="0.6" d="M12.6224 112.759C12.4843 112.831 12.3341 113.221 12.3221 113.372C12.3041 113.576 12.28 114.213 12.5744 114.219C12.6525 114.219 12.7185 114.153 12.7546 114.074C12.7846 113.99 12.7906 113.9 12.7966 113.804C12.8086 113.63 12.8146 113.45 12.8267 113.276C12.8327 113.179 12.8387 113.083 12.8146 112.987C12.7666 112.771 12.6945 112.723 12.6224 112.759Z" fill="white"/>
<path opacity="0.6" d="M12.6511 113.011C12.6511 113.209 12.5851 113.642 12.3988 113.486C12.1946 113.312 12.3928 112.579 12.579 112.765C12.6271 112.813 12.6451 112.897 12.6511 112.969C12.6511 112.981 12.6511 112.993 12.6511 113.011Z" fill="#63A8DB"/>
</g>
</g>
<g opacity="0.6">
<g opacity="0.6">
<path opacity="0.6" d="M55.604 151.612C58.7757 152.555 62.0674 152.813 65.2331 153.768C63.6112 153.864 61.9833 153.864 60.3615 153.768C61.8272 154.249 63.1727 154.903 64.2299 155.684C60.6738 154.867 57.2199 153.942 53.9461 152.326C53.5737 152.146 55.5019 151.666 55.604 151.612Z" fill="#63A8DB"/>
<path opacity="0.6" d="M45.6563 150.32C42.6348 148.572 39.6734 146.289 37.8954 143.01C37.6251 142.511 37.3247 142 37.1265 141.472C36.9583 141.021 36.706 140.391 37.0364 140.054C37.4509 139.628 38.0696 139.958 38.5742 140.168C39.2589 140.451 39.9257 140.763 40.5744 141.093C41.938 141.79 43.2355 142.565 44.4909 143.376C45.6202 144.103 46.7375 144.86 47.8068 145.653C51.2367 148.194 54.5405 151.059 58.4029 153.017C56.5528 152.879 54.8348 153.059 52.9547 152.735C50.4678 152.308 47.8248 151.575 45.6563 150.32Z" fill="#85D9F7"/>
<path opacity="0.6" d="M51.2694 150.614C48.4341 147.563 44.6798 145.797 41.0156 143.965C42.4573 145.364 43.6827 146.86 45.3586 148.019C46.2837 148.662 47.2748 149.209 48.302 149.653C48.8546 149.893 50.927 150.242 51.2694 150.614Z" fill="#63A8DB"/>
<path opacity="0.6" d="M41.0765 149.833C41.6052 150.891 42.6684 151.81 43.8517 152.218C43.8157 152.206 43.4853 150.909 43.4313 150.77C43.239 150.26 43.0108 149.761 42.7405 149.269C42.4942 148.818 42.314 148.512 42.1758 148.049C41.9776 147.389 41.2387 146.337 40.8183 147.262C40.5059 147.971 40.6741 149.028 41.0765 149.833Z" fill="#63A8DB"/>
<path opacity="0.6" d="M46.0481 142.607C45.1111 142.264 42.2458 142.895 44.2341 143.748C44.5224 143.868 47.5138 144.289 47.5258 144.373C47.3877 143.58 46.805 142.883 46.0481 142.607Z" fill="#63A8DB"/>
<path opacity="0.6" d="M39.6984 140.787C39.8306 140.703 40.227 140.757 40.3532 140.811C40.5274 140.883 41.056 141.123 40.9238 141.382C40.8878 141.454 40.7977 141.484 40.7196 141.478C40.6355 141.472 40.5514 141.436 40.4733 141.4C40.3232 141.334 40.173 141.268 40.0168 141.195C39.9327 141.159 39.8486 141.117 39.7825 141.051C39.6324 140.913 39.6324 140.829 39.6984 140.787Z" fill="white"/>
<path opacity="0.6" d="M39.8917 140.931C40.0539 141.021 40.4444 141.159 40.4083 140.925C40.3723 140.679 39.6755 140.511 39.7296 140.751C39.7416 140.817 39.8016 140.871 39.8617 140.907C39.8677 140.919 39.8797 140.925 39.8917 140.931Z" fill="#63A8DB"/>
<path opacity="0.6" d="M37.8117 142.644C37.7276 142.776 37.7997 143.19 37.8598 143.322C37.9439 143.509 38.2382 144.073 38.5025 143.929C38.5746 143.893 38.5986 143.797 38.5866 143.713C38.5746 143.629 38.5325 143.539 38.4905 143.461C38.4124 143.304 38.3343 143.142 38.2562 142.986C38.2142 142.902 38.1721 142.812 38.1 142.74C37.9439 142.584 37.8538 142.577 37.8117 142.644Z" fill="white"/>
<path opacity="0.6" d="M37.9591 142.847C38.0552 143.015 38.2174 143.43 37.9771 143.382C37.7188 143.334 37.5206 142.601 37.7729 142.667C37.839 142.685 37.899 142.751 37.9351 142.811C37.9471 142.823 37.9531 142.835 37.9591 142.847Z" fill="#63A8DB"/>
</g>
</g>
<g opacity="0.6">
<g opacity="0.6">
<path opacity="0.6" d="M94.2758 155.444C97.4955 154.669 100.475 153.258 103.695 152.501C102.343 153.396 100.931 154.213 99.4777 154.934C100.985 154.621 102.481 154.507 103.785 154.657C100.301 155.727 96.8407 156.652 93.2005 156.892C92.786 156.922 94.2097 155.546 94.2758 155.444Z" fill="#63A8DB"/>
<path opacity="0.6" d="M85.0103 159.301C81.5203 159.295 77.8141 158.802 74.6304 156.85C74.1438 156.549 73.6333 156.261 73.1948 155.907C72.8223 155.6 72.2877 155.186 72.4078 154.729C72.558 154.153 73.2548 154.135 73.7954 154.063C74.5283 153.966 75.2611 153.9 75.994 153.864C77.5197 153.786 79.0335 153.81 80.5292 153.882C81.8687 153.948 83.2142 154.045 84.5358 154.195C88.7766 154.681 93.0716 155.51 97.3965 155.276C95.7266 156.081 94.327 157.096 92.5369 157.757C90.1762 158.622 87.5212 159.307 85.0103 159.301Z" fill="#85D9F7"/>
<path opacity="0.6" d="M90.0203 156.748C86.0437 155.523 81.905 155.871 77.8203 156.117C79.7665 156.61 81.5746 157.289 83.6049 157.457C84.7282 157.547 85.8575 157.529 86.9748 157.397C87.5695 157.331 89.5397 156.598 90.0203 156.748Z" fill="#63A8DB"/>
<path opacity="0.6" d="M80.806 161.163C81.7911 161.811 83.1727 162.076 84.4041 161.841C84.3621 161.847 83.431 160.892 83.3169 160.796C82.8964 160.448 82.4459 160.129 81.9713 159.841C81.5328 159.577 81.2265 159.403 80.8781 159.066C80.3795 158.592 79.2142 158.051 79.3103 159.066C79.3764 159.841 80.0612 160.676 80.806 161.163Z" fill="#63A8DB"/>
<path opacity="0.6" d="M81.4953 152.423C80.5102 152.591 78.3477 154.573 80.4982 154.321C80.8046 154.285 83.6098 153.15 83.6578 153.216C83.1472 152.597 82.2883 152.285 81.4953 152.423Z" fill="#63A8DB"/>
<path opacity="0.6" d="M75.0976 154.021C75.1697 153.883 75.5361 153.733 75.6743 153.715C75.8605 153.691 76.4372 153.631 76.4552 153.925C76.4612 154.003 76.4011 154.075 76.323 154.111C76.245 154.147 76.1609 154.159 76.0708 154.171C75.9086 154.189 75.7404 154.207 75.5722 154.219C75.4821 154.225 75.386 154.237 75.2959 154.213C75.1037 154.165 75.0616 154.093 75.0976 154.021Z" fill="white"/>
<path opacity="0.6" d="M75.325 154.051C75.5112 154.045 75.9136 153.973 75.7695 153.793C75.6133 153.594 74.9285 153.799 75.0967 153.985C75.1448 154.033 75.2168 154.051 75.2889 154.057C75.2949 154.051 75.313 154.051 75.325 154.051Z" fill="#63A8DB"/>
<path opacity="0.6" d="M74.3751 156.574C74.3691 156.73 74.6334 157.054 74.7595 157.138C74.9277 157.259 75.4623 157.595 75.6185 157.343C75.6606 157.277 75.6365 157.181 75.5825 157.114C75.5284 157.048 75.4503 156.994 75.3722 156.94C75.2221 156.844 75.0779 156.748 74.9277 156.646C74.8496 156.592 74.7656 156.538 74.6694 156.508C74.4592 156.454 74.3811 156.496 74.3751 156.574Z" fill="white"/>
<path opacity="0.6" d="M74.6152 156.676C74.7834 156.778 75.1318 157.048 74.8975 157.132C74.6452 157.222 74.1106 156.682 74.3629 156.616C74.429 156.598 74.513 156.628 74.5791 156.658C74.5911 156.658 74.6032 156.67 74.6152 156.676Z" fill="#63A8DB"/>
</g>
</g>
<g opacity="0.6">
<g opacity="0.6">
<path opacity="0.6" d="M129.422 138.456C131.825 136.18 133.693 133.465 136.108 131.194C135.381 132.648 134.57 134.053 133.675 135.411C134.828 134.384 136.059 133.543 137.267 133.02C134.78 135.687 132.251 138.222 129.218 140.246C128.869 140.481 129.416 138.571 129.422 138.456Z" fill="#63A8DB"/>
<path opacity="0.6" d="M123.332 146.421C120.305 148.163 116.851 149.587 113.12 149.491C112.55 149.479 111.961 149.485 111.402 149.389C110.928 149.311 110.255 149.214 110.129 148.758C109.967 148.187 110.561 147.815 110.994 147.485C111.577 147.034 112.183 146.614 112.796 146.211C114.081 145.376 115.397 144.643 116.73 143.958C117.926 143.346 119.139 142.757 120.359 142.228C124.275 140.529 128.408 139.099 132.036 136.732C130.991 138.264 130.288 139.844 129.069 141.309C127.459 143.25 125.507 145.172 123.332 146.421Z" fill="#85D9F7"/>
<path opacity="0.6" d="M126.392 141.706C122.332 142.637 118.926 145.004 115.508 147.263C117.442 146.716 119.346 146.398 121.19 145.533C122.205 145.052 123.179 144.469 124.08 143.797C124.56 143.436 125.9 141.814 126.392 141.706Z" fill="#63A8DB"/>
<path opacity="0.6" d="M120.617 150.14C121.794 150.206 123.122 149.749 124.071 148.932C124.041 148.956 122.756 148.596 122.605 148.572C122.071 148.482 121.518 148.434 120.96 148.422C120.449 148.41 120.095 148.41 119.626 148.302C118.953 148.14 117.68 148.26 118.268 149.083C118.719 149.707 119.728 150.086 120.617 150.14Z" fill="#63A8DB"/>
<path opacity="0.6" d="M116.85 142.223C116.081 142.86 115.198 145.659 116.934 144.367C117.186 144.181 119.042 141.802 119.12 141.827C118.369 141.55 117.468 141.706 116.85 142.223Z" fill="#63A8DB"/>
<path opacity="0.6" d="M112.094 146.812C112.088 146.656 112.334 146.344 112.442 146.26C112.592 146.145 113.061 145.803 113.223 146.049C113.265 146.115 113.247 146.205 113.205 146.278C113.157 146.35 113.085 146.398 113.019 146.452C112.887 146.548 112.749 146.65 112.616 146.746C112.544 146.8 112.466 146.854 112.376 146.878C112.172 146.932 112.094 146.89 112.094 146.812Z" fill="white"/>
<path opacity="0.6" d="M112.314 146.716C112.47 146.62 112.783 146.355 112.567 146.265C112.332 146.175 111.84 146.692 112.08 146.77C112.146 146.788 112.218 146.764 112.278 146.734C112.29 146.734 112.302 146.728 112.314 146.716Z" fill="#63A8DB"/>
<path opacity="0.6" d="M112.761 149.377C112.833 149.515 113.223 149.665 113.374 149.677C113.578 149.695 114.215 149.719 114.221 149.425C114.221 149.347 114.154 149.281 114.076 149.245C113.992 149.215 113.902 149.209 113.806 149.203C113.632 149.191 113.452 149.185 113.277 149.173C113.181 149.167 113.085 149.161 112.989 149.185C112.773 149.233 112.725 149.305 112.761 149.377Z" fill="white"/>
<path opacity="0.6" d="M113.019 149.347C113.217 149.347 113.649 149.413 113.493 149.599C113.319 149.803 112.586 149.605 112.772 149.419C112.82 149.371 112.904 149.353 112.976 149.347C112.988 149.347 113.001 149.347 113.019 149.347Z" fill="#63A8DB"/>
</g>
</g>
<g opacity="0.6">
<g opacity="0.6">
<path opacity="0.6" d="M151.609 106.398C152.552 103.226 152.811 99.9344 153.766 96.7688C153.862 98.3907 153.862 100.019 153.766 101.64C154.246 100.175 154.901 98.8292 155.682 97.772C154.865 101.328 153.94 104.782 152.324 108.056C152.144 108.428 151.663 106.5 151.609 106.398Z" fill="#63A8DB"/>
<path opacity="0.6" d="M150.317 116.345C148.569 119.366 146.286 122.328 143.006 124.106C142.508 124.376 141.997 124.677 141.469 124.875C141.018 125.043 140.387 125.295 140.051 124.965C139.625 124.55 139.955 123.932 140.165 123.427C140.448 122.742 140.76 122.076 141.09 121.427C141.787 120.063 142.562 118.766 143.373 117.51C144.1 116.381 144.857 115.264 145.649 114.195C148.19 110.765 151.056 107.461 153.014 103.598C152.876 105.449 153.056 107.166 152.732 109.047C152.305 111.533 151.572 114.177 150.317 116.345Z" fill="#85D9F7"/>
<path opacity="0.6" d="M150.611 110.729C147.559 113.564 145.793 117.318 143.961 120.983C145.361 119.541 146.856 118.315 148.016 116.64C148.658 115.714 149.205 114.723 149.649 113.696C149.89 113.144 150.238 111.071 150.611 110.729Z" fill="#63A8DB"/>
<path opacity="0.6" d="M149.834 120.922C150.891 120.394 151.81 119.331 152.218 118.147C152.206 118.183 150.909 118.514 150.771 118.568C150.26 118.76 149.761 118.988 149.269 119.258C148.818 119.505 148.512 119.685 148.05 119.823C147.389 120.021 146.338 120.76 147.263 121.181C147.971 121.493 149.029 121.325 149.834 120.922Z" fill="#63A8DB"/>
<path opacity="0.6" d="M142.603 115.949C142.26 116.886 142.891 119.751 143.744 117.763C143.864 117.474 144.285 114.483 144.369 114.471C143.576 114.609 142.879 115.192 142.603 115.949Z" fill="#63A8DB"/>
<path opacity="0.6" d="M140.786 122.298C140.702 122.166 140.756 121.769 140.81 121.643C140.882 121.469 141.122 120.94 141.38 121.072C141.453 121.109 141.483 121.199 141.477 121.277C141.471 121.355 141.435 121.445 141.398 121.523C141.332 121.673 141.266 121.823 141.194 121.98C141.158 122.064 141.116 122.148 141.05 122.214C140.912 122.364 140.828 122.364 140.786 122.298Z" fill="white"/>
<path opacity="0.6" d="M140.929 122.106C141.02 121.944 141.158 121.553 140.923 121.589C140.677 121.626 140.509 122.322 140.749 122.268C140.815 122.256 140.869 122.196 140.905 122.136C140.917 122.13 140.923 122.118 140.929 122.106Z" fill="#63A8DB"/>
<path opacity="0.6" d="M142.641 124.19C142.774 124.274 143.188 124.202 143.32 124.142C143.506 124.058 144.071 123.758 143.927 123.499C143.891 123.427 143.795 123.403 143.711 123.415C143.627 123.427 143.536 123.469 143.458 123.511C143.302 123.59 143.14 123.668 142.984 123.746C142.9 123.788 142.81 123.83 142.737 123.902C142.581 124.058 142.575 124.148 142.641 124.19Z" fill="white"/>
<path opacity="0.6" d="M142.841 124.04C143.009 123.944 143.423 123.782 143.375 124.022C143.327 124.28 142.594 124.479 142.66 124.226C142.678 124.16 142.745 124.1 142.805 124.064C142.817 124.052 142.829 124.046 142.841 124.04Z" fill="#63A8DB"/>
</g>
</g>
<g opacity="0.6">
<g opacity="0.6">
<path opacity="0.6" d="M155.439 67.7316C154.665 64.5119 153.253 61.5324 152.496 58.3128C153.391 59.6643 154.208 61.0759 154.929 62.5296C154.617 61.0219 154.502 59.5262 154.653 58.2227C155.722 61.7067 156.647 65.1666 156.887 68.8068C156.917 69.2213 155.542 67.7976 155.439 67.7316Z" fill="#63A8DB"/>
<path opacity="0.6" d="M159.293 76.9941C159.287 80.4841 158.795 84.1904 156.842 87.374C156.542 87.8606 156.254 88.3712 155.899 88.8097C155.593 89.1821 155.179 89.7167 154.722 89.5966C154.145 89.4464 154.127 88.7496 154.055 88.209C153.959 87.4761 153.893 86.7433 153.857 86.0105C153.779 84.4847 153.803 82.971 153.875 81.4753C153.941 80.1357 154.037 78.7902 154.187 77.4687C154.674 73.2278 155.503 68.9329 155.269 64.6079C156.074 66.2778 157.089 67.6774 157.749 69.4675C158.614 71.8282 159.299 74.4832 159.293 76.9941Z" fill="#85D9F7"/>
<path opacity="0.6" d="M156.744 71.9785C155.518 75.9551 155.867 80.0938 156.113 84.1785C156.605 82.2323 157.284 80.4242 157.452 78.3939C157.543 77.2706 157.525 76.1413 157.392 75.024C157.326 74.4293 156.593 72.4591 156.744 71.9785Z" fill="#63A8DB"/>
<path opacity="0.6" d="M161.161 81.1992C161.809 80.2141 162.074 78.8325 161.839 77.6011C161.845 77.6431 160.89 78.5742 160.794 78.6883C160.446 79.1088 160.127 79.5593 159.839 80.0339C159.575 80.4724 159.401 80.7787 159.064 81.1271C158.59 81.6257 158.049 82.791 159.064 82.6949C159.839 82.6288 160.674 81.9441 161.161 81.1992Z" fill="#63A8DB"/>
<path opacity="0.6" d="M152.419 80.5082C152.587 81.4933 154.57 83.6558 154.317 81.5053C154.281 81.199 153.146 78.3938 153.212 78.3457C152.593 78.8563 152.281 79.7153 152.419 80.5082Z" fill="#63A8DB"/>
<path opacity="0.6" d="M154.02 86.9117C153.881 86.8396 153.731 86.4732 153.713 86.335C153.689 86.1488 153.629 85.5721 153.923 85.5541C154.001 85.5481 154.074 85.6082 154.11 85.6863C154.146 85.7644 154.158 85.8485 154.17 85.9386C154.188 86.1008 154.206 86.2689 154.218 86.4371C154.224 86.5272 154.236 86.6234 154.212 86.7135C154.164 86.9057 154.092 86.9477 154.02 86.9117Z" fill="white"/>
<path opacity="0.6" d="M154.046 86.6772C154.04 86.491 153.968 86.0885 153.788 86.2327C153.59 86.3889 153.794 87.0737 153.98 86.9055C154.028 86.8574 154.047 86.7854 154.053 86.7133C154.047 86.7073 154.046 86.6892 154.046 86.6772Z" fill="#63A8DB"/>
<path opacity="0.6" d="M156.571 87.6262C156.727 87.6322 157.051 87.3679 157.136 87.2417C157.256 87.0735 157.592 86.5389 157.34 86.3827C157.274 86.3407 157.178 86.3647 157.112 86.4188C157.045 86.4728 156.991 86.5509 156.937 86.629C156.841 86.7792 156.745 86.9234 156.643 87.0675C156.589 87.1456 156.535 87.2297 156.505 87.3258C156.451 87.5421 156.493 87.6202 156.571 87.6262Z" fill="white"/>
<path opacity="0.6" d="M156.671 87.3921C156.773 87.2239 157.043 86.8755 157.127 87.1098C157.218 87.3621 156.677 87.8967 156.611 87.6444C156.593 87.5783 156.623 87.4942 156.653 87.4282C156.653 87.4161 156.665 87.4041 156.671 87.3921Z" fill="#63A8DB"/>
</g>
</g>
<g opacity="0.6">
<g opacity="0.6">
<path opacity="0.6" d="M138.45 32.5792C136.173 30.1765 133.458 28.3083 131.188 25.8936C132.641 26.6204 134.047 27.4313 135.404 28.3324C134.377 27.179 133.536 25.9476 133.014 24.7402C135.681 27.2271 138.216 29.756 140.24 32.7895C140.474 33.1319 138.564 32.5852 138.45 32.5792Z" fill="#63A8DB"/>
<path opacity="0.6" d="M146.416 38.6703C148.158 41.6978 149.581 45.1517 149.485 48.882C149.473 49.4527 149.479 50.0413 149.383 50.6C149.305 51.0745 149.209 51.7473 148.752 51.8734C148.182 52.0356 147.809 51.441 147.479 51.0085C147.028 50.4258 146.608 49.8191 146.205 49.2064C145.37 47.9209 144.638 46.6054 143.953 45.2719C143.34 44.0765 142.751 42.8631 142.223 41.6437C140.523 37.7272 139.093 33.5945 136.727 29.9663C138.258 31.0115 139.838 31.7143 141.304 32.9337C143.244 34.5436 145.166 36.4958 146.416 38.6703Z" fill="#85D9F7"/>
<path opacity="0.6" d="M141.703 35.6064C142.634 39.6671 145.001 43.073 147.259 46.4909C146.713 44.5567 146.395 42.6525 145.53 40.8084C145.049 39.7933 144.466 38.8201 143.794 37.9191C143.433 37.4386 141.811 36.099 141.703 35.6064Z" fill="#63A8DB"/>
<path opacity="0.6" d="M150.135 41.3856C150.201 40.2083 149.744 38.8807 148.927 37.9316C148.951 37.9617 148.591 39.2472 148.567 39.3973C148.477 39.9319 148.429 40.4846 148.417 41.0432C148.405 41.5538 148.405 41.9082 148.297 42.3767C148.134 43.0495 148.255 44.323 149.077 43.7343C149.702 43.2838 150.081 42.2746 150.135 41.3856Z" fill="#63A8DB"/>
<path opacity="0.6" d="M142.219 45.1578C142.856 45.9267 145.655 46.8097 144.363 45.0737C144.177 44.8274 141.798 42.9653 141.822 42.8872C141.546 43.6381 141.702 44.5391 142.219 45.1578Z" fill="#63A8DB"/>
<path opacity="0.6" d="M146.803 49.9035C146.647 49.9095 146.335 49.6632 146.25 49.5551C146.136 49.4049 145.794 48.9364 146.04 48.7742C146.106 48.7321 146.196 48.7501 146.269 48.7922C146.341 48.8342 146.389 48.9123 146.443 48.9784C146.539 49.1106 146.641 49.2487 146.737 49.3809C146.791 49.453 146.845 49.531 146.869 49.6211C146.923 49.8254 146.881 49.9035 146.803 49.9035Z" fill="white"/>
<path opacity="0.6" d="M146.711 49.6867C146.615 49.5305 146.351 49.2182 146.261 49.4344C146.17 49.6687 146.687 50.1613 146.765 49.921C146.789 49.8549 146.759 49.7828 146.729 49.7228C146.729 49.7107 146.723 49.6987 146.711 49.6867Z" fill="#63A8DB"/>
<path opacity="0.6" d="M149.366 49.2426C149.504 49.1706 149.654 48.7801 149.666 48.6299C149.684 48.4257 149.708 47.789 149.414 47.783C149.336 47.783 149.27 47.849 149.234 47.9271C149.204 48.0112 149.198 48.1013 149.192 48.1974C149.18 48.3716 149.174 48.5518 149.162 48.726C149.156 48.8222 149.15 48.9183 149.174 49.0144C149.222 49.2306 149.294 49.2787 149.366 49.2426Z" fill="white"/>
<path opacity="0.6" d="M149.336 48.9901C149.336 48.7918 149.402 48.3593 149.588 48.5155C149.792 48.6897 149.594 49.4225 149.408 49.2363C149.36 49.1883 149.342 49.1042 149.336 49.0321C149.336 49.0201 149.336 49.0081 149.336 48.9901Z" fill="#63A8DB"/>
</g>
</g>
<g opacity="0.6">
<g opacity="0.6">
<path opacity="0.6" d="M106.387 10.3893C103.215 9.44624 99.9234 9.18795 96.7578 8.23285C98.3797 8.13674 100.008 8.13674 101.629 8.23285C100.164 7.7523 98.8182 7.09755 97.761 6.31665C101.317 7.13359 104.771 8.05865 108.045 9.6745C108.417 9.85471 106.489 10.3353 106.387 10.3893Z" fill="#63A8DB"/>
<path opacity="0.6" d="M116.34 11.6807C119.362 13.4287 122.323 15.7114 124.101 18.9911C124.372 19.4897 124.672 20.0003 124.87 20.5289C125.038 20.9794 125.291 21.6101 124.96 21.9465C124.546 22.373 123.927 22.0426 123.423 21.8324C122.738 21.5501 122.071 21.2377 121.422 20.9073C120.059 20.2105 118.761 19.4356 117.506 18.6247C116.376 17.8979 115.259 17.141 114.19 16.3481C110.76 13.8072 107.456 10.9419 103.594 8.98364C105.444 9.1218 107.162 8.9416 109.042 9.26597C111.529 9.69246 114.172 10.4253 116.34 11.6807Z" fill="#85D9F7"/>
<path opacity="0.6" d="M110.719 11.3865C113.554 14.438 117.308 16.204 120.973 18.0361C119.531 16.6365 118.305 15.1408 116.63 13.9814C115.704 13.3387 114.713 12.7921 113.686 12.3476C113.134 12.1073 111.061 11.7589 110.719 11.3865Z" fill="#63A8DB"/>
<path opacity="0.6" d="M120.908 12.1677C120.379 11.1105 119.316 10.1914 118.133 9.78296C118.169 9.79497 118.499 11.0925 118.553 11.2306C118.746 11.7412 118.974 12.2398 119.244 12.7323C119.49 13.1829 119.671 13.4892 119.809 13.9517C120.007 14.6125 120.746 15.6637 121.166 14.7386C121.479 14.0298 121.31 12.9726 120.908 12.1677Z" fill="#63A8DB"/>
<path opacity="0.6" d="M115.939 19.3937C116.876 19.7361 119.741 19.1054 117.753 18.2524C117.464 18.1323 114.473 17.7118 114.461 17.6277C114.599 18.4206 115.182 19.1174 115.939 19.3937Z" fill="#63A8DB"/>
<path opacity="0.6" d="M122.285 21.2133C122.153 21.2974 121.757 21.2433 121.631 21.1892C121.457 21.1171 120.928 20.8769 121.06 20.6186C121.096 20.5465 121.186 20.5165 121.264 20.5225C121.348 20.5285 121.432 20.5645 121.511 20.6006C121.661 20.6666 121.811 20.7327 121.967 20.8048C122.051 20.8408 122.135 20.8829 122.201 20.949C122.352 21.0871 122.352 21.1712 122.285 21.2133Z" fill="white"/>
<path opacity="0.6" d="M122.097 21.0694C121.935 20.9792 121.544 20.8411 121.58 21.0754C121.617 21.3216 122.313 21.4898 122.259 21.2496C122.247 21.1835 122.187 21.1294 122.127 21.0934C122.121 21.0814 122.109 21.0754 122.097 21.0694Z" fill="#63A8DB"/>
<path opacity="0.6" d="M124.176 19.3578C124.26 19.2257 124.188 18.8112 124.128 18.6791C124.044 18.4928 123.744 17.9282 123.485 18.0724C123.413 18.1084 123.389 18.2045 123.401 18.2886C123.413 18.3727 123.455 18.4628 123.497 18.5409C123.576 18.6971 123.654 18.8593 123.732 19.0154C123.774 19.0995 123.816 19.1896 123.888 19.2617C124.044 19.4179 124.134 19.4239 124.176 19.3578Z" fill="white"/>
<path opacity="0.6" d="M124.026 19.1535C123.93 18.9853 123.768 18.5708 124.008 18.6188C124.266 18.6669 124.465 19.3997 124.212 19.3337C124.146 19.3156 124.086 19.2496 124.05 19.1895C124.038 19.1775 124.032 19.1655 124.026 19.1535Z" fill="#63A8DB"/>
</g>
</g>
</g>
</svg>
