<svg width="326" height="326" viewBox="0 0 326 326" fill="none" xmlns="http://www.w3.org/2000/svg">
<g opacity="0.9">
<g opacity="0.9">
<g opacity="0.9">
<path opacity="0.9" d="M179.547 7.30751C172.699 6.98915 165.965 8.08841 159.117 7.734C162.325 6.73085 165.599 5.92593 168.908 5.32524C165.725 5.07895 162.697 4.44222 160.18 3.38501C167.731 3.27088 175.144 3.42105 182.514 5.04291C183.361 5.22913 179.727 7.15133 179.547 7.30751Z" fill="#5B9BCA"/>
<path opacity="0.9" d="M200.181 4.98265C207.119 7.00697 214.201 10.1245 219.409 15.8431C220.202 16.7141 221.055 17.5851 221.722 18.5522C222.287 19.3692 223.11 20.5105 222.611 21.3514C221.986 22.4086 220.581 22.0482 219.463 21.88C217.95 21.6518 216.454 21.3574 214.982 21.009C211.901 20.2882 208.903 19.3692 205.978 18.36C203.347 17.453 200.728 16.4858 198.193 15.4286C190.03 12.0167 181.974 7.88998 173.234 5.86566C177.019 5.22893 180.389 4.02155 184.329 3.73922C189.525 3.36079 195.196 3.52898 200.181 4.98265Z" fill="#7CCAE6"/>
<path opacity="0.9" d="M188.742 7.17529C195.95 11.9027 204.372 13.5967 212.644 15.4648C209.057 13.3624 205.85 10.9716 201.909 9.46392C199.735 8.63497 197.47 8.01626 195.176 7.63782C193.95 7.43359 189.607 7.74595 188.742 7.17529Z" fill="#5B9BCA"/>
<path opacity="0.9" d="M209.625 3.70322C208.039 1.84109 205.444 0.525579 202.867 0.279297C202.951 0.285304 204.255 2.7241 204.429 2.9824C205.066 3.91347 205.781 4.80849 206.561 5.65546C207.282 6.43636 207.793 6.96497 208.297 7.82395C209.018 9.05536 211.025 10.7974 211.409 8.73099C211.703 7.15719 210.826 5.11484 209.625 3.70322Z" fill="#5B9BCA"/>
<path opacity="0.9" d="M203.204 20.6969C205.258 20.9251 210.706 18.228 206.285 17.5012C205.649 17.3931 199.431 18.0298 199.359 17.8736C200.026 19.3934 201.546 20.5107 203.204 20.6969Z" fill="#5B9BCA"/>
<path opacity="0.9" d="M216.862 21.2073C216.634 21.4415 215.817 21.5256 215.535 21.4776C215.144 21.4175 213.967 21.2013 214.105 20.6066C214.141 20.4444 214.303 20.3423 214.471 20.3122C214.64 20.2822 214.826 20.3122 215 20.3423C215.336 20.4023 215.679 20.4624 216.015 20.5285C216.201 20.5645 216.388 20.6006 216.556 20.6967C216.94 20.9129 216.982 21.0871 216.862 21.2073Z" fill="white"/>
<path opacity="0.9" d="M216.411 21.015C216.045 20.9188 215.192 20.8347 215.378 21.2733C215.576 21.7538 217.054 21.7478 216.831 21.2853C216.771 21.1591 216.627 21.087 216.489 21.039C216.471 21.027 216.441 21.021 216.411 21.015Z" fill="#5B9BCA"/>
<path opacity="0.9" d="M219.761 16.5337C219.869 16.2214 219.521 15.4285 219.329 15.1882C219.064 14.8578 218.193 13.8727 217.737 14.2871C217.611 14.4013 217.611 14.5935 217.677 14.7617C217.743 14.9299 217.875 15.0801 218.001 15.2242C218.241 15.5005 218.476 15.7829 218.71 16.0592C218.836 16.2093 218.968 16.3655 219.142 16.4797C219.527 16.7259 219.701 16.6959 219.761 16.5337Z" fill="white"/>
<path opacity="0.9" d="M219.349 16.2035C219.072 15.9092 218.538 15.1643 219.048 15.1343C219.595 15.1042 220.352 16.4798 219.811 16.4738C219.661 16.4738 219.523 16.3717 219.409 16.2636C219.391 16.2455 219.373 16.2275 219.349 16.2035Z" fill="#5B9BCA"/>
</g>
</g>
<g opacity="0.9">
<g opacity="0.9">
<path opacity="0.9" d="M99.8389 20.8229C93.7479 23.9706 88.4618 28.2895 82.3588 31.4071C84.6354 28.9323 87.0682 26.6016 89.6332 24.4271C86.7498 25.8027 83.8125 26.7638 81.1094 27.1122C87.5908 23.2437 94.0843 19.6636 101.281 17.381C102.103 17.1167 99.923 20.6007 99.8389 20.8229Z" fill="#5B9BCA"/>
<path opacity="0.9" d="M116.547 8.49143C123.569 6.77346 131.258 5.93249 138.628 8.28119C139.751 8.6416 140.923 8.96597 141.986 9.47055C142.887 9.89704 144.166 10.4737 144.154 11.4528C144.142 12.6842 142.749 13.0747 141.698 13.4832C140.274 14.0418 138.832 14.5344 137.379 14.9729C134.345 15.8919 131.294 16.5887 128.254 17.1834C125.521 17.718 122.77 18.1866 120.043 18.5349C111.273 19.6582 102.232 20.1148 93.6484 22.7278C96.6098 20.283 98.9225 17.5558 102.19 15.3393C106.509 12.4199 111.507 9.72885 116.547 8.49143Z" fill="#7CCAE6"/>
<path opacity="0.9" d="M107.734 16.1077C116.342 16.6003 124.482 13.8551 132.579 11.3383C128.422 11.3082 124.446 10.8397 120.283 11.5064C117.982 11.8729 115.712 12.4736 113.537 13.2905C112.378 13.729 108.774 16.1738 107.734 16.1077Z" fill="#5B9BCA"/>
<path opacity="0.9" d="M124.094 2.66435C121.787 1.84742 118.886 1.99759 116.531 3.07883C116.609 3.04279 118.958 4.50246 119.234 4.63461C120.25 5.12117 121.313 5.54165 122.418 5.88405C123.433 6.20241 124.136 6.40064 125.001 6.8932C126.238 7.59601 128.851 8.1066 128.155 6.12432C127.62 4.61659 125.842 3.28306 124.094 2.66435Z" fill="#5B9BCA"/>
<path opacity="0.9" d="M127.028 20.5891C128.921 19.7602 132.291 14.7024 128.098 16.2822C127.497 16.5105 122.427 20.1687 122.289 20.0725C123.617 21.0517 125.497 21.2559 127.028 20.5891Z" fill="#5B9BCA"/>
<path opacity="0.9" d="M139.115 14.2034C139.037 14.5217 138.37 15.0023 138.105 15.1044C137.739 15.2486 136.61 15.651 136.436 15.0684C136.387 14.9122 136.472 14.738 136.604 14.6299C136.736 14.5157 136.91 14.4557 137.078 14.3896C137.403 14.2694 137.727 14.1553 138.051 14.0412C138.232 13.9811 138.412 13.915 138.604 13.915C139.031 13.915 139.157 14.0352 139.115 14.2034Z" fill="white"/>
<path opacity="0.9" d="M138.617 14.2578C138.25 14.3539 137.469 14.7083 137.854 15.0027C138.262 15.315 139.542 14.5762 139.115 14.2878C139.001 14.2097 138.839 14.2157 138.695 14.2458C138.677 14.2458 138.647 14.2518 138.617 14.2578Z" fill="#5B9BCA"/>
<path opacity="0.9" d="M139.281 8.71339C139.221 8.38902 138.518 7.87844 138.236 7.76431C137.839 7.60813 136.596 7.19365 136.404 7.77632C136.356 7.9325 136.446 8.1067 136.59 8.21482C136.734 8.32295 136.92 8.38902 137.1 8.4551C137.443 8.57524 137.791 8.70138 138.134 8.82152C138.32 8.88759 138.512 8.95968 138.716 8.97169C139.173 8.99572 139.311 8.88159 139.281 8.71339Z" fill="white"/>
<path opacity="0.9" d="M138.759 8.62935C138.368 8.51522 137.539 8.13679 137.96 7.85446C138.416 7.55412 139.768 8.37106 139.293 8.62935C139.167 8.70144 138.993 8.68342 138.843 8.64737C138.819 8.64737 138.789 8.63536 138.759 8.62935Z" fill="#5B9BCA"/>
</g>
</g>
<g opacity="0.9">
<g opacity="0.9">
<path opacity="0.9" d="M37.2489 71.7735C33.5486 77.5401 31.1339 83.9255 27.4036 89.6741C28.1424 86.3943 29.0795 83.1566 30.2148 79.991C28.4067 82.628 26.3404 84.9286 24.1719 86.5805C27.8481 79.985 31.6865 73.6417 36.7743 68.0673C37.357 67.4306 37.2068 71.5333 37.2489 71.7735Z" fill="#5B9BCA"/>
<path opacity="0.9" d="M45.5561 52.7378C50.7821 47.74 57.0173 43.1688 64.574 41.5169C65.7273 41.2646 66.9046 40.9643 68.076 40.8682C69.0671 40.7901 70.4667 40.6459 70.9473 41.4989C71.554 42.5681 70.5388 43.6013 69.836 44.4903C68.8809 45.6857 67.8777 46.833 66.8386 47.9383C64.6701 50.2449 62.3814 52.3774 60.0448 54.4137C57.9484 56.2398 55.7979 58.0238 53.6114 59.6877C46.5773 65.0459 38.9786 69.9595 32.8516 76.513C34.1971 72.9149 34.8278 69.3949 36.5578 65.8388C38.8224 61.1594 41.8018 56.3299 45.5561 52.7378Z" fill="#7CCAE6"/>
<path opacity="0.9" d="M41.7344 63.7422C49.4292 59.8618 55.1057 53.4164 60.8603 47.1873C57.2442 49.2416 53.5679 50.8214 50.3002 53.4825C48.4921 54.9542 46.8282 56.6061 45.3505 58.3961C44.5636 59.3572 42.6654 63.2737 41.7344 63.7422Z" fill="#5B9BCA"/>
<path opacity="0.9" d="M49.1714 43.9195C46.7686 44.364 44.3298 45.9498 42.8281 48.0582C42.8762 47.9921 45.6393 48.0822 45.9457 48.0582C47.069 47.9741 48.1983 47.7999 49.3276 47.5536C50.3668 47.3254 51.0756 47.1452 52.0727 47.1391C53.4964 47.1271 56.0132 46.2681 54.4154 44.8986C53.202 43.8534 50.9915 43.5831 49.1714 43.9195Z" fill="#5B9BCA"/>
<path opacity="0.9" d="M60.6657 57.9754C61.8911 56.3115 62.2815 50.2446 59.4403 53.7105C59.0318 54.2091 56.4729 59.9157 56.3047 59.8976C57.9446 60.0778 59.6746 59.315 60.6657 57.9754Z" fill="#5B9BCA"/>
<path opacity="0.9" d="M67.9448 46.4003C68.0349 46.7127 67.6986 47.4635 67.5183 47.6858C67.2721 47.9922 66.4972 48.9052 66.0527 48.4907C65.9325 48.3766 65.9205 48.1844 65.9806 48.0222C66.0407 47.86 66.1548 47.7158 66.2749 47.5777C66.4972 47.3134 66.7194 47.0551 66.9417 46.7908C67.0618 46.6466 67.194 46.5024 67.3562 46.4063C67.7286 46.1901 67.8968 46.2381 67.9448 46.4003Z" fill="white"/>
<path opacity="0.9" d="M67.5516 46.6949C67.2813 46.9652 66.7827 47.656 67.2632 47.7221C67.7798 47.7882 68.5127 46.5087 67.9961 46.4667C67.8579 46.4546 67.7198 46.5447 67.6116 46.6409C67.5936 46.6529 67.5756 46.6769 67.5516 46.6949Z" fill="#5B9BCA"/>
<path opacity="0.9" d="M65.3373 41.565C65.121 41.3187 64.262 41.2226 63.9557 41.2647C63.5352 41.3308 62.2497 41.5891 62.3759 42.1897C62.4119 42.3519 62.5801 42.454 62.7603 42.4781C62.9405 42.5021 63.1327 42.4661 63.3249 42.43C63.6854 42.3639 64.0458 42.2979 64.4062 42.2318C64.6044 42.1958 64.8026 42.1597 64.9828 42.0696C65.3853 41.8594 65.4514 41.6912 65.3373 41.565Z" fill="white"/>
<path opacity="0.9" d="M64.8537 41.7514C64.4573 41.8475 63.5502 41.9376 63.7785 41.4811C64.0248 40.9885 65.5986 41.0245 65.3223 41.4871C65.2442 41.6132 65.088 41.6853 64.9438 41.7273C64.9138 41.7334 64.8898 41.7454 64.8537 41.7514Z" fill="#5B9BCA"/>
</g>
</g>
<g opacity="0.9">
<g opacity="0.9">
<path opacity="0.9" d="M7.3036 146.451C6.98524 153.299 8.0845 160.033 7.73009 166.881C6.72694 163.673 5.92202 160.399 5.32133 157.09C5.07505 160.273 4.43832 163.301 3.3811 165.818C3.26697 158.267 3.41715 150.854 5.03901 143.484C5.22522 142.637 7.14743 146.271 7.3036 146.451Z" fill="#5B9BCA"/>
<path opacity="0.9" d="M4.97923 125.818C7.00355 118.88 10.1211 111.798 15.8397 106.59C16.7107 105.797 17.5817 104.944 18.5488 104.277C19.3657 103.712 20.507 102.889 21.348 103.388C22.4052 104.013 22.0448 105.418 21.8766 106.536C21.6484 108.049 21.354 109.545 21.0056 111.017C20.2848 114.098 19.3657 117.096 18.3566 120.021C17.4495 122.652 16.4824 125.271 15.4252 127.806C12.0133 135.969 7.88657 144.025 5.86224 152.765C5.22551 148.98 4.01813 145.61 3.7358 141.67C3.35737 136.474 3.52556 130.803 4.97923 125.818Z" fill="#7CCAE6"/>
<path opacity="0.9" d="M7.17188 137.254C11.8993 130.046 13.5932 121.625 15.4614 113.353C13.359 116.939 10.9682 120.147 9.4605 124.087C8.63155 126.262 8.01284 128.526 7.63441 130.821C7.43017 132.046 7.74253 136.389 7.17188 137.254Z" fill="#5B9BCA"/>
<path opacity="0.9" d="M3.69737 116.375C1.83523 117.96 0.51972 120.555 0.273438 123.132C0.279444 123.048 2.71824 121.745 2.97654 121.57C3.90761 120.934 4.80263 120.219 5.6496 119.438C6.4305 118.717 6.95911 118.207 7.81809 117.702C9.04951 116.981 10.7915 114.975 8.72513 114.59C7.15133 114.296 5.10898 115.173 3.69737 116.375Z" fill="#5B9BCA"/>
<path opacity="0.9" d="M20.6925 122.796C20.9207 120.742 18.2236 115.293 17.4968 119.714C17.3887 120.351 18.0254 126.568 17.8692 126.64C19.389 125.974 20.5063 124.448 20.6925 122.796Z" fill="#5B9BCA"/>
<path opacity="0.9" d="M21.1965 109.137C21.4308 109.365 21.5149 110.182 21.4668 110.464C21.4068 110.855 21.1905 112.032 20.5958 111.894C20.4337 111.858 20.3315 111.696 20.3015 111.528C20.2715 111.359 20.3015 111.173 20.3315 110.999C20.3916 110.663 20.4517 110.32 20.5178 109.984C20.5538 109.798 20.5898 109.611 20.6859 109.443C20.9022 109.059 21.0764 109.017 21.1965 109.137Z" fill="white"/>
<path opacity="0.9" d="M21.0062 109.587C20.9101 109.953 20.826 110.806 21.2705 110.62C21.7511 110.422 21.7451 108.944 21.2826 109.166C21.1564 109.226 21.0843 109.37 21.0363 109.509C21.0183 109.527 21.0122 109.557 21.0062 109.587Z" fill="#5B9BCA"/>
<path opacity="0.9" d="M16.5264 106.241C16.214 106.133 15.4211 106.481 15.1809 106.674C14.8505 106.938 13.8653 107.809 14.2798 108.265C14.394 108.392 14.5862 108.392 14.7544 108.325C14.9226 108.259 15.0727 108.127 15.2169 108.001C15.4932 107.761 15.7755 107.527 16.0519 107.292C16.202 107.166 16.3582 107.034 16.4723 106.86C16.7186 106.475 16.6886 106.301 16.5264 106.241Z" fill="white"/>
<path opacity="0.9" d="M16.2025 106.65C15.9082 106.926 15.1633 107.461 15.1333 106.95C15.1033 106.404 16.4788 105.647 16.4728 106.187C16.4728 106.338 16.3707 106.476 16.2626 106.59C16.2446 106.608 16.2266 106.626 16.2025 106.65Z" fill="#5B9BCA"/>
</g>
</g>
<g opacity="0.9">
<g opacity="0.9">
<path opacity="0.9" d="M20.8156 226.157C23.9632 232.248 28.2822 237.534 31.3998 243.637C28.9309 241.36 26.5943 238.928 24.4198 236.363C25.7953 239.246 26.7564 242.183 27.1048 244.886C23.2364 238.405 19.6563 231.912 17.3737 224.715C17.1094 223.892 20.5934 226.073 20.8156 226.157Z" fill="#5B9BCA"/>
<path opacity="0.9" d="M8.49094 209.446C6.77297 202.424 5.932 194.735 8.2807 187.364C8.64111 186.241 8.96548 185.07 9.47006 184.006C9.89655 183.105 10.4732 181.826 11.4523 181.838C12.6837 181.85 13.0742 183.244 13.4827 184.295C14.0413 185.718 14.5339 187.16 14.9724 188.614C15.8914 191.647 16.5882 194.699 17.1829 197.738C17.7175 200.471 18.1861 203.223 18.5345 205.95C19.6578 214.72 20.1143 223.76 22.7273 232.344C20.2825 229.383 17.5553 227.07 15.3388 223.802C12.4194 219.483 9.72836 214.485 8.49094 209.446Z" fill="#7CCAE6"/>
<path opacity="0.9" d="M16.1058 218.258C16.5983 209.65 13.8532 201.51 11.3363 193.413C11.3063 197.57 10.8377 201.546 11.5045 205.709C11.8709 208.01 12.4716 210.28 13.2885 212.455C13.727 213.614 16.1718 217.218 16.1058 218.258Z" fill="#5B9BCA"/>
<path opacity="0.9" d="M2.66094 201.907C1.844 204.214 1.99417 207.115 3.07541 209.47C3.03937 209.392 4.49904 207.043 4.6312 206.767C5.11775 205.752 5.53824 204.689 5.88063 203.583C6.19899 202.568 6.39722 201.865 6.88979 201C7.59259 199.763 8.10318 197.15 6.1209 197.847C4.61318 198.381 3.27965 200.159 2.66094 201.907Z" fill="#5B9BCA"/>
<path opacity="0.9" d="M20.5872 198.97C19.7582 197.077 14.7004 193.708 16.2802 197.9C16.5085 198.501 20.1667 203.577 20.0706 203.709C21.0497 202.382 21.2539 200.501 20.5872 198.97Z" fill="#5B9BCA"/>
<path opacity="0.9" d="M14.2024 186.884C14.5208 186.962 15.0013 187.629 15.1034 187.893C15.2476 188.26 15.6501 189.389 15.0674 189.563C14.9112 189.611 14.737 189.527 14.6289 189.395C14.5148 189.263 14.4547 189.089 14.3886 188.92C14.2685 188.596 14.1543 188.272 14.0402 187.947C13.9801 187.767 13.9141 187.587 13.9141 187.395C13.9141 186.968 14.0342 186.842 14.2024 186.884Z" fill="white"/>
<path opacity="0.9" d="M14.2514 187.376C14.3476 187.743 14.702 188.524 14.9963 188.139C15.3087 187.731 14.5698 186.451 14.2815 186.878C14.2034 186.992 14.2094 187.154 14.2394 187.298C14.2394 187.316 14.2454 187.346 14.2514 187.376Z" fill="#5B9BCA"/>
<path opacity="0.9" d="M8.70705 186.716C8.38268 186.776 7.87209 187.479 7.75796 187.761C7.60178 188.157 7.1873 189.401 7.76997 189.593C7.92615 189.641 8.10035 189.551 8.20848 189.407C8.3166 189.263 8.38267 189.077 8.44875 188.896C8.56889 188.548 8.69503 188.206 8.81517 187.863C8.88125 187.677 8.95333 187.485 8.96534 187.28C8.98937 186.824 8.87524 186.686 8.70705 186.716Z" fill="white"/>
<path opacity="0.9" d="M8.62935 187.238C8.51522 187.629 8.13679 188.458 7.85446 188.037C7.55412 187.581 8.37106 186.229 8.62935 186.704C8.70144 186.83 8.68342 187.004 8.64737 187.154C8.64737 187.178 8.63536 187.208 8.62935 187.238Z" fill="#5B9BCA"/>
</g>
</g>
<g opacity="0.9">
<g opacity="0.9">
<path opacity="0.9" d="M71.7655 288.767C77.5321 292.467 83.9174 294.882 89.666 298.612C86.3862 297.873 83.1485 296.936 79.9829 295.801C82.6199 297.609 84.9206 299.675 86.5725 301.844C79.9769 298.168 73.6336 294.329 68.0592 289.241C67.4225 288.659 71.5252 288.809 71.7655 288.767Z" fill="#5B9BCA"/>
<path opacity="0.9" d="M52.7351 280.459C47.7373 275.233 43.1661 268.998 41.5142 261.441C41.2619 260.288 40.9616 259.111 40.8655 257.939C40.7874 256.948 40.6432 255.549 41.4962 255.068C42.5654 254.461 43.5986 255.476 44.4876 256.179C45.683 257.134 46.8303 258.137 47.9356 259.177C50.2422 261.345 52.3747 263.634 54.411 265.97C56.2371 268.067 58.0211 270.217 59.6851 272.404C65.0432 279.438 69.9568 287.037 76.5104 293.164C72.9122 291.818 69.3922 291.187 65.8361 289.457C61.1567 287.193 56.3272 284.213 52.7351 280.459Z" fill="#7CCAE6"/>
<path opacity="0.9" d="M63.7365 284.286C59.862 276.585 53.4106 270.909 47.1875 265.154C49.2419 268.77 50.8217 272.446 53.4827 275.714C54.9544 277.522 56.6063 279.186 58.3964 280.664C59.3515 281.457 63.268 283.355 63.7365 284.286Z" fill="#5B9BCA"/>
<path opacity="0.9" d="M43.9099 276.85C44.3544 279.252 45.9403 281.691 48.0487 283.193C47.9826 283.145 48.0727 280.382 48.0487 280.075C47.9646 278.952 47.7904 277.823 47.5441 276.693C47.3158 275.654 47.1356 274.945 47.1296 273.948C47.1176 272.525 46.2586 270.008 44.8891 271.605C43.8439 272.819 43.5735 275.029 43.9099 276.85Z" fill="#5B9BCA"/>
<path opacity="0.9" d="M57.9732 265.346C56.3093 264.121 50.2424 263.731 53.7083 266.572C54.2069 266.98 59.9135 269.539 59.8954 269.707C60.0756 268.068 59.3128 266.338 57.9732 265.346Z" fill="#5B9BCA"/>
<path opacity="0.9" d="M46.3972 258.072C46.7095 257.982 47.4604 258.318 47.6826 258.498C47.989 258.745 48.902 259.52 48.4876 259.964C48.3734 260.084 48.1812 260.096 48.019 260.036C47.8568 259.976 47.7127 259.862 47.5745 259.742C47.3102 259.52 47.0519 259.297 46.7876 259.075C46.6434 258.955 46.4993 258.823 46.4032 258.661C46.1869 258.288 46.235 258.12 46.3972 258.072Z" fill="white"/>
<path opacity="0.9" d="M46.6903 258.468C46.9606 258.739 47.6514 259.237 47.7175 258.757C47.7835 258.24 46.5041 257.507 46.462 258.024C46.45 258.162 46.5401 258.3 46.6362 258.408C46.6482 258.426 46.6723 258.444 46.6903 258.468Z" fill="#5B9BCA"/>
<path opacity="0.9" d="M41.5599 260.673C41.3136 260.889 41.2175 261.748 41.2596 262.054C41.3256 262.475 41.5839 263.76 42.1846 263.634C42.3468 263.598 42.4489 263.43 42.4729 263.25C42.497 263.07 42.4609 262.877 42.4249 262.685C42.3588 262.325 42.2927 261.964 42.2267 261.604C42.1906 261.406 42.1546 261.207 42.0645 261.027C41.8542 260.625 41.686 260.559 41.5599 260.673Z" fill="white"/>
<path opacity="0.9" d="M41.7506 261.165C41.8468 261.562 41.9369 262.469 41.4803 262.24C40.9878 261.994 41.0238 260.42 41.4863 260.697C41.6125 260.775 41.6846 260.931 41.7266 261.075C41.7326 261.105 41.7446 261.129 41.7506 261.165Z" fill="#5B9BCA"/>
</g>
</g>
<g opacity="0.9">
<g opacity="0.9">
<path opacity="0.9" d="M146.447 318.693C153.295 319.011 160.028 317.912 166.876 318.266C163.668 319.269 160.395 320.074 157.085 320.675C160.269 320.921 163.296 321.558 165.813 322.615C158.262 322.729 150.85 322.579 143.479 320.957C142.632 320.771 146.267 318.849 146.447 318.693Z" fill="#5B9BCA"/>
<path opacity="0.9" d="M125.81 321.017C118.872 318.993 111.79 315.876 106.582 310.157C105.789 309.286 104.936 308.415 104.27 307.448C103.705 306.631 102.882 305.49 103.381 304.649C104.005 303.591 105.411 303.952 106.528 304.12C108.042 304.348 109.538 304.643 111.009 304.991C114.091 305.712 117.088 306.631 120.014 307.64C122.645 308.547 125.264 309.514 127.799 310.571C135.956 313.983 144.011 318.11 152.751 320.134C148.967 320.771 145.597 321.979 141.657 322.261C136.467 322.639 130.796 322.471 125.81 321.017Z" fill="#7CCAE6"/>
<path opacity="0.9" d="M137.253 318.825C130.045 314.097 121.623 312.404 113.352 310.535C116.938 312.638 120.145 315.029 124.086 316.536C126.26 317.365 128.525 317.984 130.82 318.362C132.045 318.567 136.388 318.254 137.253 318.825Z" fill="#5B9BCA"/>
<path opacity="0.9" d="M116.373 322.297C117.958 324.159 120.553 325.475 123.13 325.721C123.046 325.715 121.743 323.276 121.569 323.018C120.932 322.087 120.217 321.192 119.436 320.345C118.715 319.564 118.205 319.035 117.7 318.176C116.979 316.945 114.973 315.203 114.589 317.269C114.294 318.837 115.171 320.885 116.373 322.297Z" fill="#5B9BCA"/>
<path opacity="0.9" d="M122.789 305.303C120.735 305.075 115.286 307.772 119.708 308.499C120.344 308.601 126.567 307.971 126.633 308.127C125.967 306.607 124.441 305.49 122.789 305.303Z" fill="#5B9BCA"/>
<path opacity="0.9" d="M109.13 304.793C109.358 304.559 110.175 304.474 110.457 304.523C110.848 304.583 112.025 304.799 111.887 305.394C111.851 305.556 111.689 305.658 111.521 305.688C111.352 305.718 111.166 305.688 110.992 305.658C110.656 305.598 110.313 305.538 109.977 305.472C109.791 305.436 109.604 305.4 109.436 305.303C109.052 305.087 109.01 304.913 109.13 304.793Z" fill="white"/>
<path opacity="0.9" d="M109.584 304.985C109.95 305.081 110.803 305.165 110.617 304.721C110.419 304.24 108.941 304.246 109.163 304.709C109.223 304.835 109.368 304.907 109.506 304.955C109.524 304.973 109.554 304.979 109.584 304.985Z" fill="#5B9BCA"/>
<path opacity="0.9" d="M106.239 309.466C106.131 309.779 106.479 310.572 106.672 310.812C106.936 311.142 107.807 312.127 108.263 311.713C108.39 311.599 108.39 311.407 108.324 311.238C108.257 311.07 108.125 310.92 107.999 310.776C107.759 310.5 107.525 310.217 107.29 309.941C107.164 309.791 107.032 309.635 106.858 309.52C106.473 309.274 106.299 309.304 106.239 309.466Z" fill="white"/>
<path opacity="0.9" d="M106.641 309.796C106.917 310.091 107.452 310.836 106.941 310.866C106.394 310.896 105.637 309.52 106.178 309.526C106.328 309.526 106.466 309.628 106.581 309.736C106.599 309.754 106.617 309.772 106.641 309.796Z" fill="#5B9BCA"/>
</g>
</g>
<g opacity="0.9">
<g opacity="0.9">
<path opacity="0.9" d="M226.143 305.177C232.234 302.03 237.52 297.711 243.623 294.593C241.34 297.062 238.913 299.399 236.348 301.573C239.232 300.197 242.169 299.236 244.872 298.888C238.391 302.756 231.897 306.336 224.701 308.619C223.878 308.883 226.058 305.399 226.143 305.177Z" fill="#5B9BCA"/>
<path opacity="0.9" d="M209.436 317.509C202.414 319.227 194.725 320.068 187.355 317.719C186.231 317.359 185.06 317.034 183.997 316.53C183.096 316.103 181.816 315.527 181.828 314.548C181.84 313.316 183.234 312.926 184.285 312.517C185.709 311.959 187.15 311.466 188.604 311.028C191.637 310.109 194.689 309.412 197.728 308.817C200.462 308.282 203.213 307.814 205.94 307.466C214.71 306.342 223.75 305.886 232.334 303.273C229.373 305.718 227.06 308.445 223.792 310.661C219.473 313.581 214.476 316.272 209.436 317.509Z" fill="#7CCAE6"/>
<path opacity="0.9" d="M218.251 309.893C209.643 309.4 201.504 312.145 193.406 314.662C197.563 314.692 201.54 315.161 205.702 314.494C208.003 314.127 210.274 313.527 212.448 312.71C213.607 312.271 217.212 309.826 218.251 309.893Z" fill="#5B9BCA"/>
<path opacity="0.9" d="M201.903 323.336C204.21 324.153 207.111 324.003 209.466 322.921C209.388 322.957 207.039 321.498 206.763 321.366C205.748 320.879 204.685 320.459 203.579 320.116C202.564 319.798 201.861 319.6 200.996 319.107C199.759 318.404 197.146 317.894 197.843 319.876C198.377 321.384 200.155 322.717 201.903 323.336Z" fill="#5B9BCA"/>
<path opacity="0.9" d="M198.963 305.411C197.071 306.24 193.701 311.298 197.894 309.718C198.494 309.49 203.57 305.832 203.702 305.928C202.375 304.949 200.495 304.744 198.963 305.411Z" fill="#5B9BCA"/>
<path opacity="0.9" d="M186.875 311.797C186.953 311.478 187.62 310.998 187.884 310.896C188.25 310.752 189.38 310.349 189.554 310.932C189.602 311.088 189.518 311.262 189.386 311.37C189.254 311.484 189.079 311.544 188.911 311.61C188.587 311.731 188.262 311.845 187.938 311.959C187.758 312.019 187.578 312.085 187.385 312.085C186.959 312.085 186.833 311.965 186.875 311.797Z" fill="white"/>
<path opacity="0.9" d="M187.366 311.743C187.732 311.646 188.513 311.292 188.129 310.998C187.72 310.685 186.441 311.424 186.867 311.712C186.981 311.791 187.143 311.785 187.288 311.755C187.306 311.755 187.336 311.749 187.366 311.743Z" fill="#5B9BCA"/>
<path opacity="0.9" d="M186.707 317.287C186.767 317.611 187.47 318.122 187.752 318.236C188.149 318.392 189.392 318.807 189.584 318.224C189.632 318.068 189.542 317.894 189.398 317.786C189.254 317.678 189.068 317.611 188.888 317.545C188.545 317.425 188.197 317.299 187.854 317.179C187.668 317.113 187.476 317.041 187.272 317.029C186.815 317.005 186.677 317.119 186.707 317.287Z" fill="white"/>
<path opacity="0.9" d="M187.228 317.371C187.618 317.485 188.447 317.864 188.027 318.146C187.57 318.446 186.219 317.629 186.693 317.371C186.819 317.299 186.994 317.317 187.144 317.353C187.168 317.353 187.198 317.365 187.228 317.371Z" fill="#5B9BCA"/>
</g>
</g>
<g opacity="0.9">
<g opacity="0.9">
<path opacity="0.9" d="M288.777 254.227C292.478 248.461 294.892 242.075 298.623 236.327C297.884 239.606 296.947 242.844 295.811 246.01C297.619 243.373 299.686 241.072 301.854 239.42C298.178 246.016 294.34 252.359 289.252 257.933C288.669 258.57 288.819 254.467 288.777 254.227Z" fill="#5B9BCA"/>
<path opacity="0.9" d="M280.463 273.263C275.237 278.261 269.002 282.832 261.446 284.484C260.292 284.736 259.115 285.037 257.944 285.133C256.953 285.211 255.553 285.355 255.072 284.502C254.466 283.427 255.481 282.4 256.184 281.511C257.139 280.315 258.142 279.168 259.181 278.063C261.35 275.756 263.638 273.623 265.975 271.587C268.071 269.761 270.222 267.977 272.408 266.313C279.442 260.955 287.041 256.041 293.168 249.488C291.823 253.086 291.192 256.606 289.462 260.162C287.197 264.841 284.218 269.671 280.463 273.263Z" fill="#7CCAE6"/>
<path opacity="0.9" d="M284.284 262.258C276.583 266.133 270.907 272.584 265.152 278.807C268.768 276.753 272.445 275.173 275.712 272.512C277.521 271.04 279.184 269.388 280.662 267.598C281.455 266.643 283.353 262.727 284.284 262.258Z" fill="#5B9BCA"/>
<path opacity="0.9" d="M276.855 282.081C279.257 281.637 281.696 280.051 283.198 277.942C283.15 278.008 280.387 277.918 280.08 277.942C278.957 278.027 277.828 278.201 276.698 278.447C275.659 278.675 274.95 278.855 273.953 278.861C272.53 278.873 270.013 279.732 271.611 281.102C272.824 282.147 275.035 282.418 276.855 282.081Z" fill="#5B9BCA"/>
<path opacity="0.9" d="M265.354 268.025C264.129 269.689 263.739 275.756 266.58 272.29C266.988 271.791 269.547 266.085 269.715 266.103C268.076 265.923 266.346 266.685 265.354 268.025Z" fill="#5B9BCA"/>
<path opacity="0.9" d="M258.081 279.601C257.991 279.288 258.328 278.537 258.508 278.315C258.754 278.009 259.529 277.096 259.974 277.51C260.094 277.624 260.106 277.816 260.046 277.979C259.986 278.141 259.872 278.285 259.751 278.423C259.529 278.687 259.307 278.946 259.085 279.21C258.964 279.354 258.832 279.498 258.67 279.595C258.298 279.811 258.13 279.763 258.081 279.601Z" fill="white"/>
<path opacity="0.9" d="M258.468 279.306C258.739 279.036 259.237 278.345 258.757 278.279C258.24 278.213 257.507 279.492 258.024 279.535C258.162 279.547 258.3 279.456 258.408 279.36C258.426 279.348 258.444 279.324 258.468 279.306Z" fill="#5B9BCA"/>
<path opacity="0.9" d="M260.671 284.436C260.887 284.682 261.746 284.778 262.053 284.736C262.473 284.67 263.759 284.412 263.633 283.811C263.597 283.649 263.428 283.547 263.248 283.523C263.068 283.499 262.876 283.535 262.683 283.571C262.323 283.637 261.963 283.703 261.602 283.769C261.404 283.805 261.206 283.841 261.026 283.931C260.623 284.141 260.557 284.31 260.671 284.436Z" fill="white"/>
<path opacity="0.9" d="M261.169 284.25C261.565 284.153 262.472 284.063 262.244 284.52C261.998 285.012 260.424 284.976 260.7 284.514C260.778 284.388 260.935 284.316 261.079 284.274C261.109 284.268 261.133 284.256 261.169 284.25Z" fill="#5B9BCA"/>
</g>
</g>
<g opacity="0.9">
<g opacity="0.9">
<path opacity="0.9" d="M318.689 179.549C319.008 172.701 317.908 165.968 318.263 159.12C319.266 162.328 320.071 165.601 320.671 168.911C320.918 165.727 321.554 162.7 322.612 160.183C322.726 167.734 322.576 175.146 320.954 182.517C320.768 183.364 318.845 179.73 318.689 179.549Z" fill="#5B9BCA"/>
<path opacity="0.9" d="M321.013 200.183C318.988 207.121 315.871 214.203 310.152 219.411C309.281 220.204 308.41 221.057 307.443 221.724C306.626 222.288 305.485 223.111 304.644 222.613C303.587 221.988 303.947 220.582 304.115 219.465C304.344 217.951 304.638 216.456 304.986 214.984C305.707 211.902 306.626 208.905 307.635 205.979C308.543 203.348 309.51 200.729 310.567 198.195C313.979 190.037 318.105 181.982 320.13 173.242C320.767 177.026 321.974 180.396 322.256 184.337C322.635 189.527 322.466 195.197 321.013 200.183Z" fill="#7CCAE6"/>
<path opacity="0.9" d="M318.825 188.746C314.097 195.954 312.403 204.376 310.535 212.647C312.638 209.061 315.028 205.853 316.536 201.913C317.365 199.738 317.984 197.474 318.362 195.179C318.566 193.954 318.254 189.611 318.825 188.746Z" fill="#5B9BCA"/>
<path opacity="0.9" d="M322.293 209.626C324.155 208.04 325.471 205.445 325.717 202.868C325.711 202.952 323.272 204.256 323.014 204.43C322.083 205.067 321.188 205.782 320.341 206.562C319.56 207.283 319.032 207.794 318.173 208.298C316.941 209.019 315.199 211.026 317.265 211.41C318.833 211.704 320.882 210.827 322.293 209.626Z" fill="#5B9BCA"/>
<path opacity="0.9" d="M305.299 203.204C305.071 205.259 307.768 210.707 308.494 206.286C308.597 205.649 307.966 199.426 308.122 199.36C306.602 200.027 305.485 201.546 305.299 203.204Z" fill="#5B9BCA"/>
<path opacity="0.9" d="M304.787 216.864C304.553 216.636 304.469 215.819 304.517 215.537C304.577 215.146 304.793 213.969 305.388 214.107C305.55 214.143 305.652 214.305 305.682 214.473C305.712 214.642 305.682 214.828 305.652 215.002C305.592 215.338 305.532 215.681 305.466 216.017C305.43 216.203 305.394 216.39 305.298 216.558C305.082 216.942 304.907 216.984 304.787 216.864Z" fill="white"/>
<path opacity="0.9" d="M304.981 216.414C305.077 216.048 305.161 215.195 304.723 215.381C304.242 215.579 304.248 217.057 304.711 216.834C304.837 216.774 304.909 216.63 304.957 216.492C304.969 216.474 304.975 216.444 304.981 216.414Z" fill="#5B9BCA"/>
<path opacity="0.9" d="M309.458 219.76C309.771 219.868 310.564 219.519 310.804 219.327C311.134 219.063 312.119 218.192 311.705 217.735C311.591 217.609 311.399 217.609 311.23 217.675C311.062 217.741 310.912 217.873 310.768 218C310.492 218.24 310.209 218.474 309.933 218.708C309.783 218.835 309.627 218.967 309.512 219.141C309.266 219.525 309.296 219.7 309.458 219.76Z" fill="white"/>
<path opacity="0.9" d="M309.79 219.351C310.084 219.075 310.829 218.54 310.859 219.051C310.889 219.598 309.514 220.354 309.52 219.814C309.52 219.664 309.622 219.525 309.73 219.411C309.748 219.393 309.766 219.375 309.79 219.351Z" fill="#5B9BCA"/>
</g>
</g>
<g opacity="0.9">
<g opacity="0.9">
<path opacity="0.9" d="M305.182 99.844C302.034 93.753 297.715 88.4669 294.598 82.3639C297.066 84.6405 299.403 87.0733 301.578 89.6383C300.202 86.755 299.241 83.8176 298.893 81.1145C302.761 87.5959 306.341 94.0894 308.624 101.286C308.888 102.109 305.404 99.9281 305.182 99.844Z" fill="#5B9BCA"/>
<path opacity="0.9" d="M317.514 116.555C319.232 123.577 320.073 131.266 317.724 138.636C317.364 139.759 317.039 140.931 316.535 141.994C316.108 142.895 315.531 144.174 314.552 144.162C313.321 144.15 312.93 142.757 312.522 141.706C311.963 140.282 311.471 138.84 311.032 137.387C310.113 134.353 309.416 131.302 308.822 128.262C308.287 125.529 307.819 122.778 307.47 120.051C306.347 111.281 305.89 102.24 303.277 93.6565C305.722 96.6179 308.449 98.9305 310.666 102.198C313.585 106.517 316.276 111.515 317.514 116.555Z" fill="#7CCAE6"/>
<path opacity="0.9" d="M309.898 107.743C309.405 116.351 312.15 124.49 314.667 132.587C314.697 128.431 315.166 124.454 314.499 120.291C314.133 117.991 313.532 115.72 312.715 113.546C312.276 112.386 309.832 108.782 309.898 107.743Z" fill="#5B9BCA"/>
<path opacity="0.9" d="M323.334 124.094C324.151 121.787 324.001 118.886 322.92 116.531C322.956 116.609 321.496 118.958 321.364 119.234C320.877 120.25 320.457 121.313 320.114 122.418C319.796 123.433 319.598 124.136 319.105 125.001C318.402 126.238 317.892 128.851 319.874 128.155C321.382 127.62 322.715 125.842 323.334 124.094Z" fill="#5B9BCA"/>
<path opacity="0.9" d="M305.416 127.031C306.245 128.924 311.302 132.293 309.723 128.101C309.494 127.5 305.836 122.424 305.932 122.292C304.953 123.62 304.749 125.5 305.416 127.031Z" fill="#5B9BCA"/>
<path opacity="0.9" d="M311.8 139.117C311.482 139.039 311.001 138.372 310.899 138.108C310.755 137.741 310.352 136.612 310.935 136.438C311.091 136.39 311.265 136.474 311.373 136.606C311.488 136.738 311.548 136.913 311.614 137.081C311.734 137.405 311.848 137.729 311.962 138.054C312.022 138.234 312.088 138.414 312.088 138.606C312.088 139.033 311.968 139.159 311.8 139.117Z" fill="white"/>
<path opacity="0.9" d="M311.746 138.624C311.65 138.258 311.296 137.477 311.001 137.862C310.689 138.27 311.428 139.55 311.722 139.123C311.8 139.009 311.794 138.847 311.764 138.703C311.758 138.685 311.752 138.654 311.746 138.624Z" fill="#5B9BCA"/>
<path opacity="0.9" d="M317.289 139.285C317.613 139.225 318.124 138.522 318.238 138.24C318.394 137.844 318.809 136.6 318.226 136.408C318.07 136.36 317.896 136.45 317.787 136.594C317.679 136.738 317.613 136.925 317.547 137.105C317.427 137.447 317.301 137.796 317.181 138.138C317.115 138.324 317.043 138.516 317.031 138.721C317.007 139.177 317.121 139.315 317.289 139.285Z" fill="white"/>
<path opacity="0.9" d="M317.374 138.763C317.488 138.373 317.866 137.544 318.149 137.964C318.449 138.421 317.632 139.772 317.374 139.298C317.302 139.171 317.32 138.997 317.356 138.847C317.356 138.823 317.368 138.793 317.374 138.763Z" fill="#5B9BCA"/>
</g>
</g>
<g opacity="0.9">
<g opacity="0.9">
<path opacity="0.9" d="M254.233 37.234C248.466 33.5337 242.081 31.119 236.332 27.3887C239.612 28.1275 242.85 29.0646 246.015 30.1999C243.378 28.3918 241.077 26.3255 239.426 24.157C246.021 27.8332 252.364 31.6716 257.939 36.7594C258.576 37.3421 254.473 37.1919 254.233 37.234Z" fill="#5B9BCA"/>
<path opacity="0.9" d="M273.271 45.5417C278.269 50.7677 282.84 57.0029 284.492 64.5596C284.745 65.7129 285.045 66.8902 285.141 68.0616C285.219 69.0527 285.363 70.4523 284.51 70.9329C283.435 71.5396 282.408 70.5244 281.519 69.8216C280.323 68.8665 279.176 67.8633 278.071 66.8242C275.764 64.6557 273.632 62.367 271.595 60.0304C269.769 57.934 267.985 55.7835 266.321 53.597C260.963 46.5629 256.05 38.9642 249.496 32.8372C253.094 34.1827 256.614 34.8134 260.17 36.5434C264.85 38.808 269.679 41.7874 273.271 45.5417Z" fill="#7CCAE6"/>
<path opacity="0.9" d="M262.27 41.7156C266.144 49.4164 272.595 55.0929 278.819 60.8475C276.764 57.2314 275.184 53.5552 272.523 50.2874C271.052 48.4793 269.4 46.8154 267.61 45.3377C266.655 44.5448 262.738 42.6466 262.27 41.7156Z" fill="#5B9BCA"/>
<path opacity="0.9" d="M282.084 49.1521C281.64 46.7494 280.054 44.3106 277.946 42.8088C278.012 42.8569 277.922 45.6201 277.946 45.9264C278.03 47.0497 278.204 48.179 278.45 49.3083C278.678 50.3475 278.859 51.0563 278.865 52.0534C278.877 53.4771 279.736 55.994 281.105 54.3961C282.15 53.1827 282.421 50.9722 282.084 49.1521Z" fill="#5B9BCA"/>
<path opacity="0.9" d="M268.038 60.6547C269.702 61.8801 275.769 62.2706 272.303 59.4293C271.805 59.0208 266.098 56.4619 266.116 56.2937C265.936 57.9336 266.699 59.6636 268.038 60.6547Z" fill="#5B9BCA"/>
<path opacity="0.9" d="M279.607 67.9292C279.294 68.0193 278.543 67.6829 278.321 67.5027C278.015 67.2564 277.102 66.4816 277.516 66.037C277.63 65.9169 277.823 65.9049 277.985 65.965C278.147 66.025 278.291 66.1392 278.429 66.2593C278.694 66.4816 278.952 66.7038 279.216 66.9261C279.36 67.0462 279.505 67.1784 279.601 67.3405C279.817 67.713 279.769 67.8812 279.607 67.9292Z" fill="white"/>
<path opacity="0.9" d="M279.315 67.533C279.044 67.2627 278.354 66.7641 278.288 67.2447C278.222 67.7613 279.501 68.4941 279.543 67.9775C279.555 67.8394 279.465 67.7012 279.369 67.5931C279.357 67.5751 279.333 67.557 279.315 67.533Z" fill="#5B9BCA"/>
<path opacity="0.9" d="M284.44 65.3285C284.687 65.1122 284.783 64.2532 284.741 63.9469C284.675 63.5264 284.416 62.2409 283.816 62.3671C283.653 62.4031 283.551 62.5713 283.527 62.7515C283.503 62.9317 283.539 63.1239 283.575 63.3162C283.641 63.6766 283.708 64.037 283.774 64.3974C283.81 64.5956 283.846 64.7938 283.936 64.9741C284.146 65.3765 284.314 65.4426 284.44 65.3285Z" fill="white"/>
<path opacity="0.9" d="M284.254 64.8362C284.158 64.4397 284.067 63.5327 284.524 63.7609C285.017 64.0072 284.981 65.581 284.518 65.3047C284.392 65.2266 284.32 65.0704 284.278 64.9263C284.272 64.8962 284.26 64.8722 284.254 64.8362Z" fill="#5B9BCA"/>
</g>
</g>
</g>
</svg>
