<svg width="30" height="30" viewBox="0 0 30 30" fill="none" xmlns="http://www.w3.org/2000/svg">
<g clip-path="url(#clip0)">
<path d="M28.8281 6.38672H7.89276L7.40524 3.16612C7.2718 2.28561 6.82663 1.48109 6.15143 0.900421C5.47623 0.319748 4.61403 0 3.72368 0C1.67038 0 0 1.67038 0 3.72368C0 4.37073 0.524597 4.89555 1.17188 4.89555C1.81915 4.89555 2.34375 4.37073 2.34375 3.72368C2.34375 2.96265 2.96265 2.34375 3.72368 2.34375C4.41124 2.34375 4.98482 2.83722 5.08781 3.517L7.47025 19.2499C6.5332 19.8429 5.92209 20.8848 5.91797 22.0688V23.5391C5.91682 23.8504 6.03973 24.1495 6.25969 24.3701C6.47964 24.5908 6.77834 24.7148 7.08984 24.7148C13.0103 24.7148 18.9307 24.7148 24.8511 24.7148C25.4649 24.7148 25.9644 25.2143 25.9644 25.8281C25.9644 26.4754 26.489 27 27.1362 27C27.7835 27 28.3081 26.4754 28.3081 25.8281C28.3081 23.922 26.7574 22.3711 24.8511 22.3711H8.26561L8.26172 22.0768C8.26355 21.5575 8.65379 21.1292 9.17038 21.0791L25.7254 19.6149C26.8957 19.5115 27.9769 18.9773 28.77 18.1107C29.5633 17.2444 30 16.1204 30 14.9455V7.55859C30 6.91132 29.4754 6.38672 28.8281 6.38672ZM27.6562 12.0117H22.7344V8.73047H27.6562V12.0117ZM9.75357 18.6747L9.09943 14.3555H13.3594V18.3556L9.75357 18.6747ZM15.7031 14.3555H20.3906V17.7338L15.7031 18.1483V14.3555ZM15.7031 12.0117V8.73047H20.3906V12.0117H15.7031ZM13.3594 8.73047V12.0117H8.74443L8.24776 8.73047H13.3594ZM25.519 17.2803L22.7344 17.5266V14.3555H27.6562V14.9455C27.6562 16.1689 26.7375 17.1725 25.519 17.2803Z" fill="#321726"/>
<path fill-rule="evenodd" clip-rule="evenodd" d="M12.25 25.0999C11.6149 25.0999 11.1 25.6148 11.1 26.2499C11.1 26.885 11.6149 27.3999 12.25 27.3999C12.8852 27.3999 13.4 26.885 13.4 26.2499C13.4 25.6148 12.8852 25.0999 12.25 25.0999ZM8.90002 26.2499C8.90002 24.3997 10.3999 22.8999 12.25 22.8999C14.1002 22.8999 15.6 24.3997 15.6 26.2499C15.6 28.1001 14.1002 29.5999 12.25 29.5999C10.3999 29.5999 8.90002 28.1001 8.90002 26.2499Z" fill="#321726"/>
<path fill-rule="evenodd" clip-rule="evenodd" d="M21.25 25.0999C20.6149 25.0999 20.1 25.6148 20.1 26.2499C20.1 26.885 20.6149 27.3999 21.25 27.3999C21.8852 27.3999 22.4 26.885 22.4 26.2499C22.4 25.6148 21.8852 25.0999 21.25 25.0999ZM17.9 26.2499C17.9 24.3997 19.3999 22.8999 21.25 22.8999C23.1002 22.8999 24.6 24.3997 24.6 26.2499C24.6 28.1001 23.1002 29.5999 21.25 29.5999C19.3999 29.5999 17.9 28.1001 17.9 26.2499Z" fill="#321726"/>
</g>
<defs>
<clipPath id="clip0">
<rect width="30" height="30" fill="white"/>
</clipPath>
</defs>
</svg>
