<svg width="40" height="40" viewBox="0 0 40 40" fill="none" xmlns="http://www.w3.org/2000/svg">
<path d="M36.875 1.25H19.375C18.8782 1.25148 18.4021 1.4495 18.0508 1.80081C17.6995 2.15212 17.5015 2.62818 17.5 3.125V3.75H16.875C16.3782 3.75148 15.9021 3.9495 15.5508 4.30081C15.1995 4.65212 15.0015 5.12818 15 5.625V16.875C15.0015 17.3718 15.1995 17.8479 15.5508 18.1992C15.9021 18.5505 16.3782 18.7485 16.875 18.75H34.375C34.8718 18.7485 35.3479 18.5505 35.6992 18.1992C36.0505 17.8479 36.2485 17.3718 36.25 16.875V16.25H36.875C37.3718 16.2485 37.8479 16.0505 38.1992 15.6992C38.5505 15.3479 38.7485 14.8718 38.75 14.375V3.125C38.7485 2.62818 38.5505 2.15212 38.1992 1.80081C37.8479 1.4495 37.3718 1.25148 36.875 1.25ZM35 16.875C35 17.0408 34.9342 17.1997 34.8169 17.3169C34.6997 17.4342 34.5408 17.5 34.375 17.5H16.875C16.7092 17.5 16.5503 17.4342 16.4331 17.3169C16.3158 17.1997 16.25 17.0408 16.25 16.875V5.625C16.25 5.45924 16.3158 5.30027 16.4331 5.18306C16.5503 5.06585 16.7092 5 16.875 5H34.375C34.5408 5 34.6997 5.06585 34.8169 5.18306C34.9342 5.30027 35 5.45924 35 5.625V16.875ZM37.5 14.375C37.5 14.5408 37.4342 14.6997 37.3169 14.8169C37.1997 14.9342 37.0408 15 36.875 15H36.25V5.625C36.2485 5.12818 36.0505 4.65212 35.6992 4.30081C35.3479 3.9495 34.8718 3.75148 34.375 3.75H18.75V3.125C18.75 2.95924 18.8158 2.80027 18.9331 2.68306C19.0503 2.56585 19.2092 2.5 19.375 2.5H36.875C37.0408 2.5 37.1997 2.56585 37.3169 2.68306C37.4342 2.80027 37.5 2.95924 37.5 3.125V14.375Z" fill="#321726"/>
<path d="M23.75 9.375V8.125C23.75 7.62772 23.5525 7.15081 23.2008 6.79917C22.8492 6.44754 22.3723 6.25 21.875 6.25H19.375C18.8777 6.25 18.4008 6.44754 18.0492 6.79917C17.6975 7.15081 17.5 7.62772 17.5 8.125V9.375C17.5 9.87228 17.6975 10.3492 18.0492 10.7008C18.4008 11.0525 18.8777 11.25 19.375 11.25H21.875C22.3723 11.25 22.8492 11.0525 23.2008 10.7008C23.5525 10.3492 23.75 9.87228 23.75 9.375ZM22.5 8.125H21.25V7.5H21.875C22.0408 7.5 22.1997 7.56585 22.3169 7.68306C22.4342 7.80027 22.5 7.95924 22.5 8.125ZM18.75 9.375V8.125C18.75 7.95924 18.8158 7.80027 18.9331 7.68306C19.0503 7.56585 19.2092 7.5 19.375 7.5H20V10H19.375C19.2092 10 19.0503 9.93415 18.9331 9.81694C18.8158 9.69973 18.75 9.54076 18.75 9.375ZM21.875 10H21.25V9.375H22.5C22.5 9.54076 22.4342 9.69973 22.3169 9.81694C22.1997 9.93415 22.0408 10 21.875 10Z" fill="#321726"/>
<path d="M28.125 13.75H26.875C26.7092 13.75 26.5503 13.8158 26.4331 13.9331C26.3158 14.0503 26.25 14.2092 26.25 14.375C26.25 14.5408 26.3158 14.6997 26.4331 14.8169C26.5503 14.9342 26.7092 15 26.875 15H28.125C28.2908 15 28.4497 14.9342 28.5669 14.8169C28.6842 14.6997 28.75 14.5408 28.75 14.375C28.75 14.2092 28.6842 14.0503 28.5669 13.9331C28.4497 13.8158 28.2908 13.75 28.125 13.75Z" fill="#321726"/>
<path d="M31.875 13.75H30.625C30.4592 13.75 30.3003 13.8158 30.1831 13.9331C30.0658 14.0503 30 14.2092 30 14.375C30 14.5408 30.0658 14.6997 30.1831 14.8169C30.3003 14.9342 30.4592 15 30.625 15H31.875C32.0408 15 32.1997 14.9342 32.3169 14.8169C32.4342 14.6997 32.5 14.5408 32.5 14.375C32.5 14.2092 32.4342 14.0503 32.3169 13.9331C32.1997 13.8158 32.0408 13.75 31.875 13.75Z" fill="#321726"/>
<path d="M24.375 13.75H23.125C22.9592 13.75 22.8003 13.8158 22.6831 13.9331C22.5658 14.0503 22.5 14.2092 22.5 14.375C22.5 14.5408 22.5658 14.6997 22.6831 14.8169C22.8003 14.9342 22.9592 15 23.125 15H24.375C24.5408 15 24.6997 14.9342 24.8169 14.8169C24.9342 14.6997 25 14.5408 25 14.375C25 14.2092 24.9342 14.0503 24.8169 13.9331C24.6997 13.8158 24.5408 13.75 24.375 13.75Z" fill="#321726"/>
<path d="M20.625 13.75H19.375C19.2092 13.75 19.0503 13.8158 18.9331 13.9331C18.8158 14.0503 18.75 14.2092 18.75 14.375C18.75 14.5408 18.8158 14.6997 18.9331 14.8169C19.0503 14.9342 19.2092 15 19.375 15H20.625C20.7908 15 20.9497 14.9342 21.0669 14.8169C21.1842 14.6997 21.25 14.5408 21.25 14.375C21.25 14.2092 21.1842 14.0503 21.0669 13.9331C20.9497 13.8158 20.7908 13.75 20.625 13.75Z" fill="#321726"/>
<path d="M26.25 8.125C26.25 7.95924 26.1842 7.80027 26.0669 7.68306C25.9497 7.56585 25.7908 7.5 25.625 7.5C25.4592 7.5 25.3003 7.56585 25.1831 7.68306C25.0658 7.80027 25 7.95924 25 8.125V9.375C25 9.54076 25.0658 9.69973 25.1831 9.81694C25.3003 9.93415 25.4592 10 25.625 10C25.7908 10 25.9497 9.93415 26.0669 9.81694C26.1842 9.69973 26.25 9.54076 26.25 9.375V8.125Z" fill="#321726"/>
<path d="M28.125 7.5C27.9592 7.5 27.8003 7.56585 27.6831 7.68306C27.5658 7.80027 27.5 7.95924 27.5 8.125V9.375C27.5 9.54076 27.5658 9.69973 27.6831 9.81694C27.8003 9.93415 27.9592 10 28.125 10C28.2908 10 28.4497 9.93415 28.5669 9.81694C28.6842 9.69973 28.75 9.54076 28.75 9.375V8.125C28.75 7.95924 28.6842 7.80027 28.5669 7.68306C28.4497 7.56585 28.2908 7.5 28.125 7.5Z" fill="#321726"/>
<path d="M30.625 10C30.7908 10 30.9497 9.93415 31.0669 9.81694C31.1842 9.69973 31.25 9.54076 31.25 9.375V8.125C31.25 7.95924 31.1842 7.80027 31.0669 7.68306C30.9497 7.56585 30.7908 7.5 30.625 7.5C30.4592 7.5 30.3003 7.56585 30.1831 7.68306C30.0658 7.80027 30 7.95924 30 8.125V9.375C30 9.54076 30.0658 9.69973 30.1831 9.81694C30.3003 9.93415 30.4592 10 30.625 10Z" fill="#321726"/>
<path d="M33.125 7.5C32.9592 7.5 32.8003 7.56585 32.6831 7.68306C32.5658 7.80027 32.5 7.95924 32.5 8.125V9.375C32.5 9.54076 32.5658 9.69973 32.6831 9.81694C32.8003 9.93415 32.9592 10 33.125 10C33.2908 10 33.4497 9.93415 33.5669 9.81694C33.6842 9.69973 33.75 9.54076 33.75 9.375V8.125C33.75 7.95924 33.6842 7.80027 33.5669 7.68306C33.4497 7.56585 33.2908 7.5 33.125 7.5Z" fill="#321726"/>
<path d="M25.8935 26.3125L14.0185 20.6875C13.9346 20.6475 13.8427 20.6268 13.7498 20.6268C13.6568 20.6268 13.565 20.6475 13.481 20.6875L1.60601 26.3125C1.47896 26.374 1.37649 26.4767 1.31526 26.6039C1.25404 26.7311 1.23768 26.8753 1.26883 27.013C1.29999 27.1506 1.37684 27.2737 1.48686 27.3622C1.59688 27.4506 1.7336 27.4992 1.87476 27.5H2.49976V29.375C2.49976 29.5408 2.56561 29.6997 2.68282 29.8169C2.80003 29.9342 2.959 30 3.12476 30H4.37476V35H3.12476C2.959 35 2.80003 35.0658 2.68282 35.1831C2.56561 35.3003 2.49976 35.4592 2.49976 35.625V38.125C2.49976 38.2908 2.56561 38.4497 2.68282 38.5669C2.80003 38.6842 2.959 38.75 3.12476 38.75H24.3748C24.5405 38.75 24.6995 38.6842 24.8167 38.5669C24.9339 38.4497 24.9998 38.2908 24.9998 38.125V35.625C24.9998 35.4592 24.9339 35.3003 24.8167 35.1831C24.6995 35.0658 24.5405 35 24.3748 35H23.1248V30H24.3748C24.5405 30 24.6995 29.9342 24.8167 29.8169C24.9339 29.6997 24.9998 29.5408 24.9998 29.375V27.5H25.6248C25.7659 27.4992 25.9026 27.4506 26.0127 27.3622C26.1227 27.2737 26.1995 27.1506 26.2307 27.013C26.2618 26.8753 26.2455 26.7311 26.1843 26.6039C26.123 26.4767 26.0206 26.374 25.8935 26.3125ZM13.7498 21.9438L22.8435 26.25H4.65601L13.7498 21.9438ZM23.7498 36.25V37.5H3.74976V36.25H23.7498ZM5.62476 35V30H6.87476V35H5.62476ZM8.12476 35V30H9.37476V35H8.12476ZM10.6248 35V30H11.8748V35H10.6248ZM13.1248 35V30H14.3748V35H13.1248ZM15.6248 35V30H16.8748V35H15.6248ZM18.1248 35V30H19.3748V35H18.1248ZM20.6248 35V30H21.8748V35H20.6248ZM23.7498 28.75H3.74976V27.5H23.7498V28.75Z" fill="#321726"/>
<path d="M15.625 24.375C15.625 24.0042 15.515 23.6417 15.309 23.3333C15.103 23.025 14.8101 22.7846 14.4675 22.6427C14.1249 22.5008 13.7479 22.4637 13.3842 22.536C13.0205 22.6084 12.6864 22.787 12.4242 23.0492C12.162 23.3114 11.9834 23.6455 11.911 24.0092C11.8387 24.3729 11.8758 24.7499 12.0177 25.0925C12.1596 25.4351 12.4 25.728 12.7083 25.934C13.0166 26.14 13.3792 26.25 13.75 26.25C14.2473 26.25 14.7242 26.0525 15.0758 25.7008C15.4275 25.3492 15.625 24.8723 15.625 24.375ZM13.75 25C13.6264 25 13.5055 24.9633 13.4028 24.8947C13.3 24.826 13.2199 24.7284 13.1726 24.6142C13.1253 24.5 13.1129 24.3743 13.137 24.2531C13.1611 24.1318 13.2207 24.0205 13.3081 23.9331C13.3955 23.8457 13.5068 23.7861 13.6281 23.762C13.7493 23.7379 13.875 23.7503 13.9892 23.7976C14.1034 23.8449 14.201 23.925 14.2697 24.0278C14.3383 24.1306 14.375 24.2514 14.375 24.375C14.375 24.5408 14.3092 24.6997 14.1919 24.8169C14.0747 24.9342 13.9158 25 13.75 25Z" fill="#321726"/>
<path d="M1.875 19.375H4.375C4.54076 19.375 4.69973 19.3092 4.81694 19.192C4.93415 19.0747 5 18.9158 5 18.75V12.5H8.75V13.75C8.75004 13.8688 8.78392 13.9851 8.84767 14.0853C8.91142 14.1855 9.00239 14.2654 9.10994 14.3158C9.21749 14.3662 9.33716 14.3848 9.45495 14.3696C9.57273 14.3544 9.68375 14.306 9.775 14.23L13.525 11.105C13.5953 11.0464 13.6519 10.973 13.6908 10.89C13.7296 10.8071 13.7497 10.7166 13.7497 10.625C13.7497 10.5334 13.7296 10.443 13.6908 10.36C13.6519 10.2771 13.5953 10.2037 13.525 10.145L9.775 7.02001C9.68375 6.944 9.57273 6.89557 9.45495 6.88038C9.33716 6.86519 9.21749 6.88387 9.10994 6.93423C9.00239 6.9846 8.91142 7.06456 8.84767 7.16476C8.78392 7.26496 8.75004 7.38125 8.75 7.50001V8.75001H3.125C2.62772 8.75001 2.15081 8.94755 1.79917 9.29918C1.44754 9.65082 1.25 10.1277 1.25 10.625V18.75C1.25 18.9158 1.31585 19.0747 1.43306 19.192C1.55027 19.3092 1.70924 19.375 1.875 19.375ZM2.5 10.625C2.5 10.4592 2.56585 10.3003 2.68306 10.1831C2.80027 10.0659 2.95924 10 3.125 10H9.375C9.54076 10 9.69973 9.93416 9.81694 9.81695C9.93415 9.69974 10 9.54077 10 9.37501V8.83439L12.1488 10.625L10 12.4156V11.875C10 11.7092 9.93415 11.5503 9.81694 11.4331C9.69973 11.3159 9.54076 11.25 9.375 11.25H4.375C4.20924 11.25 4.05027 11.3159 3.93306 11.4331C3.81585 11.5503 3.75 11.7092 3.75 11.875V18.125H2.5V10.625Z" fill="#321726"/>
<path d="M36.8752 23.75H34.3752C34.2095 23.75 34.0505 23.8158 33.9333 23.9331C33.8161 24.0503 33.7502 24.2092 33.7502 24.375V30.625H30.0002V29.375C30.0004 29.2561 29.9667 29.1397 29.9031 29.0393C29.8394 28.9389 29.7485 28.8588 29.6409 28.8082C29.5333 28.7577 29.4135 28.7389 29.2956 28.7541C29.1777 28.7692 29.0666 28.8177 28.9752 28.8938L25.2252 32.0188C25.1545 32.0774 25.0975 32.1509 25.0584 32.2341C25.0193 32.3173 24.999 32.4081 24.999 32.5C24.999 32.5919 25.0193 32.6827 25.0584 32.7659C25.0975 32.8491 25.1545 32.9226 25.2252 32.9813L28.9752 36.1063C29.0877 36.1994 29.2292 36.2503 29.3752 36.25C29.4657 36.25 29.5552 36.2309 29.6377 36.1938C29.7462 36.1435 29.838 36.0633 29.9023 35.9625C29.9665 35.8617 30.0005 35.7445 30.0002 35.625V34.375H35.6252C36.1221 34.3735 36.5981 34.1755 36.9494 33.8242C37.3007 33.4729 37.4988 32.9968 37.5002 32.5V24.375C37.5002 24.2092 37.4344 24.0503 37.3172 23.9331C37.2 23.8158 37.041 23.75 36.8752 23.75ZM36.2502 32.5C36.2502 32.6658 36.1844 32.8247 36.0672 32.9419C35.95 33.0592 35.791 33.125 35.6252 33.125H29.3752C29.2095 33.125 29.0505 33.1909 28.9333 33.3081C28.8161 33.4253 28.7502 33.5842 28.7502 33.75V34.2875L26.6002 32.5L28.7502 30.7125V31.25C28.7502 31.4158 28.8161 31.5747 28.9333 31.6919C29.0505 31.8092 29.2095 31.875 29.3752 31.875H34.3752C34.541 31.875 34.7 31.8092 34.8172 31.6919C34.9344 31.5747 35.0002 31.4158 35.0002 31.25V25H36.2502V32.5Z" fill="#321726"/>
</svg>
