<svg width="40" height="40" viewBox="0 0 40 40" fill="none" xmlns="http://www.w3.org/2000/svg">
<path d="M12.1875 32.5C11.7562 32.5 11.4062 32.85 11.4062 33.2812C11.4062 33.7125 11.7562 34.0625 12.1875 34.0625C12.6187 34.0625 12.9688 33.7125 12.9688 33.2812C12.9688 32.85 12.6187 32.5 12.1875 32.5Z" fill="#321726"/>
<path d="M33.75 18.4375C32.8173 18.4375 31.9793 18.8488 31.4062 19.4988C30.8332 18.8488 29.9952 18.4375 29.0625 18.4375C27.3394 18.4375 25.9375 19.8394 25.9375 21.5625C25.9375 23.2856 27.3394 24.6875 29.0625 24.6875C29.9952 24.6875 30.8332 24.2763 31.4062 23.6262C31.9793 24.2763 32.8173 24.6875 33.75 24.6875C35.4731 24.6875 36.875 23.2856 36.875 21.5625C36.875 19.8394 35.4731 18.4375 33.75 18.4375ZM29.0625 23.125C28.2009 23.125 27.5 22.4241 27.5 21.5625C27.5 20.7009 28.2009 20 29.0625 20C29.9241 20 30.625 20.7009 30.625 21.5625C30.625 22.4241 29.9241 23.125 29.0625 23.125ZM33.75 23.125C32.8884 23.125 32.1875 22.4241 32.1875 21.5625C32.1875 20.7009 32.8884 20 33.75 20C34.6116 20 35.3125 20.7009 35.3125 21.5625C35.3125 22.4241 34.6116 23.125 33.75 23.125Z" fill="#321726"/>
<path d="M37.6562 15.3125H33.75V3.59375C33.75 2.30141 32.6986 1.25 31.4062 1.25H2.34375C1.05141 1.25 0 2.30141 0 3.59375V22.3438C0 23.6361 1.05141 24.6875 2.34375 24.6875H6.71875V36.4062C6.71875 37.6986 7.77016 38.75 9.0625 38.75H37.6562C38.9486 38.75 40 37.6986 40 36.4062V17.6562C40 16.3639 38.9486 15.3125 37.6562 15.3125ZM1.5625 3.59375C1.5625 3.16297 1.91297 2.8125 2.34375 2.8125H31.4062C31.837 2.8125 32.1875 3.16297 32.1875 3.59375V5.9375H1.5625V3.59375ZM1.5625 7.5H32.1875V10.625H1.5625V7.5ZM6.71875 17.6562V23.125H2.34375C1.91297 23.125 1.5625 22.7745 1.5625 22.3438V12.1875H32.1875V15.3125H9.0625C7.77016 15.3125 6.71875 16.3639 6.71875 17.6562ZM38.4375 36.4062C38.4375 36.837 38.087 37.1875 37.6562 37.1875H9.0625C8.63172 37.1875 8.28125 36.837 8.28125 36.4062V17.6562C8.28125 17.2255 8.63172 16.875 9.0625 16.875H37.6562C38.087 16.875 38.4375 17.2255 38.4375 17.6562V36.4062Z" fill="#321726"/>
<path d="M20.2344 19.2188H12.1875C11.7561 19.2188 11.4062 19.5686 11.4062 20V23.125C11.4062 23.5564 11.7561 23.9062 12.1875 23.9062H20.2344C20.6658 23.9062 21.0156 23.5564 21.0156 23.125V20C21.0156 19.5686 20.6658 19.2188 20.2344 19.2188ZM19.4531 22.3438H12.9688V20.7812H19.4531V22.3438Z" fill="#321726"/>
<path d="M15.5469 27.8125H12.1875C11.7561 27.8125 11.4062 28.1623 11.4062 28.5938C11.4062 29.0252 11.7561 29.375 12.1875 29.375H15.5469C15.9783 29.375 16.3281 29.0252 16.3281 28.5938C16.3281 28.1623 15.9783 27.8125 15.5469 27.8125Z" fill="#321726"/>
<path d="M21.7969 27.8125H18.6719C18.2405 27.8125 17.8906 28.1623 17.8906 28.5938C17.8906 29.0252 18.2405 29.375 18.6719 29.375H21.7969C22.2283 29.375 22.5781 29.0252 22.5781 28.5938C22.5781 28.1623 22.2283 27.8125 21.7969 27.8125Z" fill="#321726"/>
<path d="M23.5938 32.5H15.5469C15.1155 32.5 14.7656 32.8498 14.7656 33.2812C14.7656 33.7127 15.1155 34.0625 15.5469 34.0625H23.5938C24.0252 34.0625 24.375 33.7127 24.375 33.2812C24.375 32.8498 24.0252 32.5 23.5938 32.5Z" fill="#321726"/>
<path d="M28.2812 27.8125H25.1562C24.7248 27.8125 24.375 28.1623 24.375 28.5938C24.375 29.0252 24.7248 29.375 25.1562 29.375H28.2812C28.7127 29.375 29.0625 29.0252 29.0625 28.5938C29.0625 28.1623 28.7127 27.8125 28.2812 27.8125Z" fill="#321726"/>
<path d="M34.5312 27.8125H31.4062C30.9748 27.8125 30.625 28.1623 30.625 28.5938C30.625 29.0252 30.9748 29.375 31.4062 29.375H34.5312C34.9627 29.375 35.3125 29.0252 35.3125 28.5938C35.3125 28.1623 34.9627 27.8125 34.5312 27.8125Z" fill="#321726"/>
</svg>
