<svg width="50" height="50" viewBox="0 0 50 50" fill="none" xmlns="http://www.w3.org/2000/svg">
<g clip-path="url(#clip0)">
<path d="M39.0761 18.8591C38.2324 18.8591 37.5994 19.5324 37.5994 20.3234C37.5994 21.1132 38.2313 21.7877 39.0761 21.7877C39.8847 21.7877 40.5404 21.1321 40.5404 20.3234C40.5404 19.5147 39.8848 18.8591 39.0761 18.8591Z" fill="black"/>
<path d="M49.9789 29.4666C48.2713 18.3401 42.371 9.86578 31.3199 7.72585C30.5559 6.23509 29.138 4.04655 26.8108 2.37979C22.6779 -0.580247 17.7145 -0.528216 12.8582 1.16588C11.4002 1.67448 11.5922 3.70195 13.0283 3.99149C16.4826 4.76835 17.933 6.49818 18.7719 8.00514C15.8196 8.66349 14.0205 9.47149 11.9559 10.8359C1.59708 17.6739 -1.36363 26.9465 0.545618 34.7297C0.545813 34.7305 0.546106 34.7312 0.546301 34.7319C2.78424 43.8459 12.1408 49.5526 12.538 49.7911C12.7611 49.925 13.0172 50 13.3041 50C13.7144 50 16.2906 49.9132 18.0788 47.807C19.6592 45.9455 20.1091 43.1743 19.4154 39.5708C19.2397 38.657 18.2532 38.1283 17.3864 38.5078C17.3622 38.5183 14.9324 39.5656 11.9692 39.4544C8.4093 39.3204 5.61054 37.6063 3.63998 34.3565C4.14838 33.4727 5.214 31.8349 6.8095 30.4424C9.71897 27.9032 13.0344 27.3224 16.664 28.7161C16.9724 28.8384 21.832 30.7438 28.1856 32.0096C34.7082 33.3091 42.4723 33.8916 48.6182 31.2599C49.1287 31.0412 49.4919 30.9137 49.7668 30.4829C49.9596 30.1807 50.0348 29.8202 49.9789 29.4666ZM16.7692 41.7962C16.9058 43.6068 16.6011 45.0037 15.8669 45.887C15.165 46.7313 14.196 46.974 13.6773 47.0437C12.6837 46.386 9.86404 44.3927 7.37228 41.4302C10.351 42.6559 13.6846 42.6324 16.7692 41.7962ZM32.3795 29.7419C31.1233 27.3911 29.0991 22.6459 30.3393 18.2715C31.047 15.7763 32.7654 13.7042 35.4515 12.1042C42.1288 15.2064 45.526 21.5058 46.8924 28.8005C42.4733 30.4945 37.051 30.3789 32.3795 29.7419ZM27.6198 7.2684C25.408 7.14228 23.3975 7.27602 21.7931 7.47868C21.179 6.1981 20.1991 4.40482 18.1019 2.97654C23.0156 2.57093 25.9606 4.99112 27.6198 7.2684ZM17.738 25.9916C12.578 23.9276 7.16338 25.1553 2.96933 30.2082C3.01101 25.8317 4.77872 19.0828 13.57 13.2796C14.615 12.589 15.4909 12.1188 16.4095 11.7553C18.6028 10.8877 21.342 10.4068 23.6848 10.2307C26.4939 10.0245 29.3645 10.1982 32.0481 10.8922C26.2258 15.4874 25.9066 22.3408 28.8466 29.148C22.6659 27.922 17.8334 26.0295 17.738 25.9916Z" fill="#321726"/>
</g>
<defs>
<clipPath id="clip0">
<rect width="50" height="50" fill="white"/>
</clipPath>
</defs>
</svg>
