<svg width="50" height="50" viewBox="0 0 50 50" fill="none" xmlns="http://www.w3.org/2000/svg">
<path d="M49.8516 36.0967C48.284 32.8788 45.0201 30.8331 41.4378 30.8278L40.9701 30.8271C40.7309 29.4992 40.1871 28.2747 39.3433 27.195L43.8294 24.3785C45.215 23.5085 46.1186 22.0776 46.3083 20.4527C46.6839 17.2366 44.2791 15.6584 43.9708 15.2181L44.0131 9.48296C44.0451 5.13355 40.5513 1.58716 36.2012 1.55493C36.1914 1.55483 29.7541 1.50747 29.8583 1.50815C29.0415 1.50815 28.3899 2.16108 28.3843 2.96255L28.3375 9.30366C28.3055 13.6532 31.7993 17.1995 36.1494 17.2317L41.8837 17.274C42.2907 17.8079 43.5855 18.5112 43.3984 20.1126C43.3122 20.8512 42.9015 21.5017 42.2717 21.897L37.1049 25.1409C35.3486 23.949 33.1639 23.1496 30.9005 22.6625L31.9274 21.5786C32.4837 20.9913 32.4587 20.0641 31.8714 19.5078C31.2841 18.9513 30.3569 18.9764 29.8006 19.5636L27.3558 22.1441C25.761 22.0137 24.2333 22.0135 22.6429 22.1431L20.199 19.5636C19.6427 18.9764 18.7155 18.9513 18.1282 19.5078C17.5409 20.0641 17.5159 20.9913 18.0723 21.5786L19.0978 22.6609C16.8353 23.1478 14.6507 23.9475 12.8941 25.1404L7.72794 21.8969C7.09815 21.5015 6.68741 20.8511 6.60118 20.1125C6.41466 18.5153 7.72208 17.7905 8.11593 17.2739L13.8501 17.2316C18.1996 17.1995 21.694 13.6538 21.662 9.30356L21.6152 2.96245C21.6098 2.19302 21.0002 1.51382 20.1397 1.50806L13.7983 1.55483C9.44913 1.58716 5.9546 5.13276 5.98663 9.48296L6.02891 15.2181C5.72169 15.6569 3.31612 17.2386 3.69141 20.4526C3.88116 22.0776 4.78477 23.5084 6.17032 24.3784L10.6565 27.1949C9.8168 28.2695 9.27022 29.4921 9.02969 30.8269C8.96065 30.8461 2.99415 30.3733 0.153523 36.086C-0.206633 36.8104 0.0884838 37.6896 0.812898 38.0498C1.54005 38.4116 2.41807 38.1117 2.77676 37.3904C3.88926 35.1531 6.13253 33.7609 8.63116 33.7572L8.98048 33.7567C9.07608 34.4722 9.24669 35.2046 9.49317 35.949C5.6546 38.0766 4.57862 41.4284 4.27178 41.8914C3.91143 42.6157 4.20655 43.4951 4.93077 43.8553C5.65811 44.2174 6.53604 43.9172 6.89473 43.1963C7.21846 42.6919 7.93526 40.2776 10.6892 38.6402C11.2492 39.6488 11.9108 40.6156 12.6494 41.5224C11.1715 42.8702 9.93682 44.4988 9.04805 46.286C8.6878 47.0104 8.98302 47.8897 9.70733 48.2499C10.4349 48.6117 11.3126 48.3116 11.6712 47.5906C12.405 46.1152 13.4265 44.7715 14.6498 43.6625C17.7718 46.583 21.642 48.4908 25.0001 48.4908C28.3566 48.4908 32.225 46.5846 35.3462 43.6665C36.5796 44.7977 37.6046 46.1654 38.3362 47.6677C38.6914 48.3968 39.5692 48.6966 40.2945 48.3432C41.0219 47.989 41.3243 47.1123 40.9701 46.3848C40.0824 44.5623 38.8407 42.9022 37.347 41.5268C38.0746 40.6337 38.7281 39.6828 39.2831 38.6908C41.9364 40.2804 42.577 42.6137 42.9349 43.1853C43.2907 43.9159 44.1692 44.2134 44.8933 43.8607C45.6206 43.5064 45.923 42.6296 45.5687 41.9022C45.2393 41.3943 44.2391 38.0917 40.4881 36.003C40.7442 35.24 40.9216 34.4895 41.0195 33.7566L41.4337 33.7572C43.8774 33.7607 46.1479 35.1826 47.2181 37.3795C47.5734 38.109 48.4513 38.4082 49.1765 38.0549C49.9035 37.7008 50.206 36.824 49.8516 36.0967ZM31.2672 9.32534L31.2879 6.52026L35.132 10.4215C35.6996 10.9975 36.6271 11.0048 37.2036 10.4368C37.7799 9.86899 37.7867 8.94146 37.2189 8.36519L33.3748 4.46401L36.1798 4.48472C38.9102 4.50464 41.1037 6.73071 41.0837 9.46147L41.0478 14.3381L36.1712 14.3022C33.4408 14.2822 31.2471 12.0561 31.2672 9.32534ZM13.8201 4.48462L16.6251 4.46392L12.7811 8.36509C12.2133 8.94136 12.22 9.8688 12.7963 10.4367C13.3725 11.0043 14.2998 10.9978 14.8679 10.4214L18.712 6.52017L18.7327 9.32524C18.7528 12.0556 16.5596 14.2821 13.8288 14.302L8.95225 14.3379L8.91632 9.46128C8.8962 6.73091 11.0895 4.50464 13.8201 4.48462ZM24.9999 45.5612C20.4972 45.5612 15.2161 41.0443 13.0332 36.8133C8.8586 28.7222 16.119 24.9758 24.9914 24.9758C33.8666 24.9758 41.1434 28.7183 36.9667 36.8133C34.7762 41.059 29.4911 45.5612 24.9999 45.5612Z" fill="#321726"/>
<path d="M16.2158 32.324C15.4082 32.324 14.7534 32.9788 14.7534 33.7864C14.7534 34.594 15.4081 35.2488 16.2158 35.2488C17.0234 35.2488 17.6782 34.594 17.6782 33.7864C17.6782 32.9787 17.0235 32.324 16.2158 32.324Z" fill="#321726"/>
<path d="M19.1859 39.659C19.9936 39.6388 20.6319 38.9677 20.6118 38.16C20.5916 37.3524 19.9205 36.714 19.1128 36.7342C18.3051 36.7544 17.6668 37.4255 17.687 38.2332C17.7071 39.0408 18.3783 39.6792 19.1859 39.659Z" fill="#321726"/>
</svg>
