<svg width="50" height="50" viewBox="0 0 50 50" fill="none" xmlns="http://www.w3.org/2000/svg">
<path d="M48.4368 45.8752C48.4368 44.6163 48.4368 20.2185 48.4368 18.9697C49.2997 18.9697 49.9992 18.2702 49.9992 17.4073C49.9992 16.5443 49.2997 15.8448 48.4368 15.8448C45.9009 15.8448 48.3035 15.8448 45.1124 15.8448C45.9964 12.4167 43.8672 9.02614 40.5495 8.21278C41.1571 4.29726 38.0052 0.889933 34.2703 1.00272C32.4591 1.03251 30.8174 1.83512 29.6871 3.11458C27.2065 0.306551 22.8099 0.287801 20.3124 3.11458C19.1473 1.79567 17.4564 1.00136 15.6252 1.00136C11.8177 1.00136 8.85945 4.40517 9.45035 8.21268C6.13277 9.02604 4.00343 12.4164 4.88749 15.8447C2.57925 15.8447 3.97843 15.8447 1.56307 15.8447C0.700201 15.8447 0.000610352 16.5442 0.000610352 17.4072C0.000610352 18.2701 0.700201 18.9696 1.56307 18.9696V45.8751C0.700201 45.8751 0.000610352 46.5746 0.000610352 47.4375C0.000610352 48.3005 0.700201 49 1.56307 49H48.4368C49.2997 49 49.9992 48.3005 49.9992 47.4375C49.9992 46.5746 49.2998 45.8752 48.4368 45.8752ZM4.68798 24.2195H45.3119V40.6253H4.68798V24.2195ZM41.7676 15.8448H36.3564C35.1547 13.7677 36.6537 11.1574 39.0619 11.1574C41.4682 11.1574 42.9656 13.7742 41.7676 15.8448ZM26.9817 15.8448C25.6833 13.6005 27.5377 10.8227 30.1263 11.1884C32.3232 11.4939 33.4944 13.9407 32.3929 15.8448H26.9817ZM17.607 15.8448C16.3086 13.6005 18.163 10.8227 20.7515 11.1884C22.9484 11.4939 24.1198 13.9407 23.0181 15.8448H17.607ZM34.3305 4.12715C36.5301 4.10791 38.029 6.25717 37.3266 8.27899C36.1801 8.60759 35.1601 9.25474 34.3746 10.1491C33.5885 9.25396 32.5682 8.60691 31.4225 8.2787C30.7327 6.29193 32.1718 4.15674 34.3305 4.12715ZM24.9558 4.12715C27.162 4.10791 28.6537 6.25873 27.9519 8.27899C26.8053 8.60759 25.7854 9.25474 24.9998 10.1491C24.2137 9.25396 23.1934 8.60691 22.0478 8.2787C21.3579 6.29203 22.7971 4.15674 24.9558 4.12715ZM15.6252 4.12637C17.7891 4.12637 19.2786 6.25981 18.5773 8.27889C17.4307 8.60749 16.4107 9.25464 15.6252 10.149C14.8391 9.25386 13.8188 8.60681 12.6731 8.2786C11.9675 6.24682 13.4837 4.12637 15.6252 4.12637ZM11.3768 11.1885C13.5737 11.494 14.745 13.9407 13.6434 15.8449H8.23222C6.93919 13.6098 8.78963 10.823 11.3768 11.1885ZM45.3119 18.9697V21.0946H4.68798V18.9697H45.3119ZM4.68798 45.8752V43.7503H45.3119V45.8752H4.68798Z" fill="#321726"/>
<path d="M34.7549 27.8617C34.1778 27.2203 33.1898 27.1683 32.5483 27.7456L29.5103 30.4798C27.6731 29.3905 23.8959 27.3446 21.4441 27.3446C17.7432 27.3446 14.8441 29.5751 14.8441 32.4225C14.8441 35.27 17.7432 37.5005 21.4441 37.5005C23.8959 37.5005 27.6731 35.4545 29.5103 34.3653L32.5483 37.0995C32.847 37.3682 33.2207 37.5005 33.593 37.5005C35.0217 37.5005 35.6976 35.7297 34.6388 34.7767L32.0231 32.4225L34.6388 30.0684C35.2802 29.4911 35.3321 28.5031 34.7549 27.8617ZM21.4441 34.3755C19.4551 34.3755 17.969 33.3444 17.969 32.4224C17.969 31.5005 19.4552 30.4694 21.4441 30.4694C22.6054 30.4694 24.7411 31.4182 26.6004 32.4216C24.6966 33.445 22.5623 34.3755 21.4441 34.3755Z" fill="#321726"/>
</svg>
