<svg width="50" height="50" viewBox="0 0 50 50" fill="none" xmlns="http://www.w3.org/2000/svg">
<g clip-path="url(#clip0)">
<path d="M3.59268 26.7391C3.21465 27.4471 2.92969 28.3085 2.92969 29.2969C2.92969 30.8647 3.56216 32.3414 4.71039 33.4557C5.84068 34.5524 7.32384 35.1562 8.88672 35.1562C10.2295 35.1562 11.4674 34.7012 12.4565 33.9386L14.0305 36.2999C16.3811 39.8258 17.6758 44.1368 17.6758 48.4375C17.6758 49.2466 18.3315 49.9023 19.1406 49.9023H30.8594C31.6685 49.9023 32.3242 49.2466 32.3242 48.4375C32.3242 44.1368 33.6189 39.8258 35.9695 36.2999L37.5435 33.9386C38.5326 34.7012 39.7705 35.1562 41.1133 35.1562C42.6762 35.1562 44.1593 34.5524 45.2896 33.4557C46.4378 32.3414 47.0703 30.8647 47.0703 29.2969C47.0703 28.4145 46.8647 27.5467 46.4775 26.7559C48.7053 24.8196 50 22.0284 50 19.043C50 15.0806 47.6807 11.4975 44.1273 9.81331C44.0189 8.02155 43.2499 6.3488 41.9346 5.06325C40.5273 3.68729 38.6749 2.92969 36.7188 2.92969C35.7529 2.92969 34.7961 3.12691 33.9005 3.50609C31.456 1.23672 28.3356 0 25 0C21.6644 0 18.544 1.23672 16.0995 3.50609C15.2039 3.12691 14.2471 2.92969 13.2812 2.92969C9.3914 2.92969 6.20003 5.97801 5.97038 9.8114C2.35825 11.5082 0 15.094 0 19.043C0 21.9933 1.32027 24.7784 3.59268 26.7391ZM29.4384 46.9727H20.5616C20.2988 42.5934 18.8686 38.2759 16.468 34.6748L14.3284 31.4651C14.5969 30.7941 14.7461 30.0629 14.7461 29.2969C14.7461 28.9627 14.7167 28.6308 14.658 28.3024C14.9326 28.175 15.2004 28.0342 15.4613 27.8835L20.8515 35.9688C21.209 36.5051 21.8758 36.7455 22.4949 36.5582C23.1125 36.3712 23.5352 35.8017 23.5352 35.1562V26.284C24.0192 26.3382 24.5079 26.3672 25 26.3672C25.4921 26.3672 25.9808 26.3382 26.4648 26.284V35.1562C26.4648 35.8017 26.8875 36.3712 27.5051 36.5582C27.6455 36.6005 27.7882 36.6211 27.9297 36.6211C28.4103 36.6211 28.8715 36.3838 29.1485 35.9688L34.5387 27.8835C34.7996 28.0342 35.0674 28.175 35.342 28.3024C35.2833 28.6308 35.2539 28.9627 35.2539 29.2969C35.2539 30.0629 35.4031 30.7941 35.6716 31.4651L33.532 34.6748C31.1314 38.2759 29.7012 42.5934 29.4384 46.9727ZM17.7715 26.0674C18.1458 25.6741 18.4898 25.2518 18.7981 24.802C19.3825 25.1167 19.9863 25.3849 20.6055 25.6062V30.3181L17.7715 26.0674ZM29.3945 25.6062C30.0137 25.3849 30.6175 25.1167 31.2019 24.802C31.5105 25.2518 31.8546 25.6741 32.2285 26.0674L29.3945 30.3181V25.6062ZM7.95784 12.1601C8.59146 11.9389 8.99353 11.3148 8.93364 10.6464C8.92563 10.5598 8.91457 10.4748 8.90312 10.3897C8.89664 10.3409 8.88748 10.2737 8.88672 10.2539C8.88672 7.83081 10.8582 5.85938 13.2812 5.85938C14.0892 5.85938 14.8922 6.09474 15.6029 6.54068C16.2022 6.91643 16.9846 6.81038 17.4618 6.28853C19.4439 4.12254 22.121 2.92969 25 2.92969C27.879 2.92969 30.5561 4.12254 32.5378 6.28853C33.0154 6.81038 33.7975 6.91643 34.3967 6.54068C35.1078 6.09474 35.9104 5.85938 36.7188 5.85938C39.1537 5.85938 41.2109 7.87201 41.2109 10.2512C41.2102 10.2737 41.201 10.3409 41.1945 10.3897C41.1831 10.4748 41.172 10.5598 41.164 10.6464C41.1041 11.3148 41.5062 11.9389 42.1398 12.1601C45.089 13.1905 47.0703 15.9565 47.0703 19.043C47.0703 21.5237 45.8126 23.819 43.7065 25.1831C43.3495 25.4143 43.1103 25.7896 43.0519 26.2112C42.9932 26.6327 43.121 27.0588 43.4013 27.3785C43.7386 27.7634 44.1406 28.4081 44.1406 29.2969C44.1406 30.8849 42.7544 32.2266 41.1133 32.2266C39.4978 32.2266 38.1836 30.9124 38.1836 29.2969C38.1836 28.8799 38.2816 28.4615 38.4747 28.0533C38.6574 27.6672 38.6627 27.2205 38.4888 26.8303C38.3152 26.4404 37.9795 26.1456 37.5706 26.0231C35.5743 25.4261 33.9237 24.0108 33.0418 22.1405C32.6546 21.3196 31.6189 21.0442 30.8746 21.5668C29.1321 22.7905 27.1008 23.4375 25 23.4375C22.8989 23.4375 20.8675 22.7905 19.1254 21.5668C18.3815 21.0442 17.3454 21.3196 16.9586 22.1405C16.0767 24.0108 14.426 25.4261 12.4294 26.0231C12.0205 26.1456 11.6848 26.4404 11.5112 26.8303C11.3377 27.2205 11.3426 27.6672 11.5253 28.0533C11.7188 28.4615 11.8164 28.8799 11.8164 29.2969C11.8164 30.9124 10.5022 32.2266 8.88672 32.2266C7.24564 32.2266 5.85938 30.8849 5.85938 29.2969C5.85938 28.5 6.31447 27.8141 6.69632 27.3785C6.9767 27.0588 7.10449 26.6327 7.04575 26.2112C6.98738 25.7896 6.7482 25.4147 6.39114 25.1831C4.22363 23.7797 2.92969 21.484 2.92969 19.043C2.92969 15.9771 4.95033 13.2111 7.95784 12.1601Z" fill="#321726"/>
<path d="M19.1406 14.6484C19.9497 14.6484 20.6055 13.9927 20.6055 13.1836C20.6055 10.7605 22.5769 8.78906 25 8.78906C27.4231 8.78906 29.3945 10.7605 29.3945 13.1836C29.3945 13.9927 30.0503 14.6484 30.8594 14.6484C31.6685 14.6484 32.3242 13.9927 32.3242 13.1836C32.3242 9.14497 29.0386 5.85938 25 5.85938C20.9614 5.85938 17.6758 9.14497 17.6758 13.1836C17.6758 13.9927 18.3315 14.6484 19.1406 14.6484Z" fill="#321726"/>
<path d="M39.6484 20.5078C38.8393 20.5078 38.1836 21.1636 38.1836 21.9727C38.1836 22.7818 38.8393 23.4375 39.6484 23.4375C40.8157 23.4375 41.9285 22.9885 42.7811 22.1733C43.6577 21.3352 44.1406 20.2236 44.1406 19.043C44.1406 17.8623 43.6577 16.7507 42.7811 15.9126C41.9285 15.0974 40.8157 14.6484 39.6484 14.6484C38.8393 14.6484 38.1836 15.3042 38.1836 16.1133C38.1836 16.9224 38.8393 17.5781 39.6484 17.5781C40.4808 17.5781 41.2109 18.2625 41.2109 19.043C41.2109 19.8235 40.4808 20.5078 39.6484 20.5078Z" fill="#321726"/>
<path d="M10.3516 23.4375C11.1607 23.4375 11.8164 22.7818 11.8164 21.9727C11.8164 21.1636 11.1607 20.5078 10.3516 20.5078C9.54399 20.5078 8.88672 19.8505 8.88672 19.043C8.88672 18.2354 9.54399 17.5781 10.3516 17.5781C11.1607 17.5781 11.8164 16.9224 11.8164 16.1133C11.8164 15.3042 11.1607 14.6484 10.3516 14.6484C7.92847 14.6484 5.95703 16.6199 5.95703 19.043C5.95703 21.4661 7.92847 23.4375 10.3516 23.4375Z" fill="#321726"/>
</g>
<defs>
<clipPath id="clip0">
<rect width="50" height="50" fill="white"/>
</clipPath>
</defs>
</svg>
