<svg width="50" height="50" viewBox="0 0 50 50" fill="none" xmlns="http://www.w3.org/2000/svg">
<g clip-path="url(#clip0)">
<path d="M45.0831 14.5141C45.083 14.514 45.083 14.514 45.0829 14.5139L37.2769 6.72034V1.46562C37.2769 0.656205 36.6207 0 35.8112 0H12.3614C11.552 0 10.8958 0.656205 10.8958 1.46562V6.8244L4.79645 14.6501C4.59351 14.9105 4.48936 15.2256 4.4877 15.5435C4.4876 15.5461 4.48682 15.5485 4.48682 15.5511V48.5344C4.48682 49.3438 5.14302 50 5.95243 50H44.0474C44.8568 50 45.513 49.3438 45.513 48.5344V15.5511C45.513 15.1461 45.3487 14.7794 45.0831 14.5141ZM35.9485 9.53618L40.5051 14.0856H32.4028L35.9485 9.53618ZM30.8808 17.0167H42.5819V20.5581H30.8808V17.0167ZM27.9495 20.5581H7.41815V17.0167H27.9496V20.5581H27.9495ZM7.41815 23.4893H27.9496V40.8242H7.41815V23.4893ZM30.8808 23.4893H42.5819V40.8242H30.8808V23.4893ZM13.8271 2.93123H17.1556C17.22 3.68114 17.8482 4.27002 18.6148 4.27002C19.3814 4.27002 20.0096 3.68114 20.0739 2.93123H23.018C23.0824 3.68114 23.7105 4.27002 24.4771 4.27002C25.2438 4.27002 25.872 3.68114 25.9364 2.93123H28.8803C28.9447 3.68114 29.5729 4.27002 30.3395 4.27002C31.1061 4.27002 31.7345 3.68114 31.7989 2.93123H34.3456V5.86247H13.827V2.93123H13.8271ZM13.0774 8.7937H32.8108L28.6865 14.0855H8.95304L13.0774 8.7937ZM7.41815 43.7554H27.9496V47.0688H7.41815V43.7554ZM30.8808 47.0688V43.7554H42.5819V47.0688H30.8808Z" fill="#321726"/>
<path d="M20.7572 28.5164C19.7174 27.3393 18.6881 26.4425 18.6447 26.405C18.0935 25.9266 17.2742 25.9265 16.7232 26.405C16.6799 26.4426 15.6504 27.3393 14.6106 28.5164C13.0347 30.3006 12.2686 31.7755 12.2686 33.0257C12.2686 35.9159 14.6979 38.2672 17.6838 38.2672C20.6698 38.2672 23.0991 35.9159 23.0991 33.0257C23.0992 31.7756 22.3331 30.3006 20.7572 28.5164ZM17.6839 35.3359C16.3141 35.3359 15.1999 34.2997 15.1999 33.0257C15.1999 32.9954 15.218 32.2626 16.7879 30.4793C17.0962 30.1291 17.4071 29.804 17.6841 29.5266C17.9544 29.7974 18.2575 30.1141 18.5603 30.457C20.1497 32.2563 20.1679 32.9952 20.1679 33.0257C20.1679 34.2996 19.0536 35.3359 17.6839 35.3359Z" fill="#321726"/>
</g>
<defs>
<clipPath id="clip0">
<rect width="50" height="50" fill="white"/>
</clipPath>
</defs>
</svg>
