<svg width="50" height="50" viewBox="0 0 50 50" fill="none" xmlns="http://www.w3.org/2000/svg">
<g clip-path="url(#clip0)">
<path d="M48.9728 13.8958C48.5151 12.742 47.0127 10.3098 44.0955 8.09856C41.9593 6.47937 39.383 5.19321 36.4381 4.27615C32.8189 3.14885 28.6231 2.57739 23.9675 2.57739C20.2977 2.57739 16.9745 3.00579 14.0476 3.85039C13.9965 3.86268 13.9458 3.87721 13.8959 3.89515C13.0635 4.1406 12.2616 4.41814 11.4955 4.73156C8.42428 5.98817 5.89243 7.78348 3.97045 10.0675C1.0848 13.4967 0.0905123 17.458 0.0823208 20.4815C0.0796879 20.5153 0.0766648 20.549 0.0763723 20.5835L-8.16771e-05 29.7746C-0.000179195 29.785 -8.16771e-05 29.7954 1.58407e-05 29.8056C0.0380478 32.7537 0.899422 35.8752 2.49111 38.8326C4.60022 42.7514 8.88067 47.4226 17.2956 47.4226C24.7376 47.4226 27.6859 44.6928 30.0549 42.4994C31.4004 41.2536 32.5625 40.1776 34.4074 39.6965C35.8978 39.3077 37.1968 39.0589 38.4532 38.8183C42.02 38.1354 44.8373 37.5959 47.8111 34.4899C47.9338 34.3618 48.0595 34.2175 48.1848 34.0612C49.3509 32.6057 49.9932 30.7486 49.9932 28.8319V18.9146C50.0855 16.3409 49.1939 14.3477 48.9728 13.8958ZM42.1459 10.2936C43.958 11.6303 45.0431 12.9761 45.6416 13.8864C42.043 12.4195 36.8738 11.7573 30.0082 11.8732C26.4996 11.9334 23.0198 10.7093 19.6586 8.23723C18.6523 7.49716 17.8075 6.74891 17.1498 6.11046C19.2299 5.70674 21.5084 5.50283 23.9675 5.50283C29.2977 5.50283 36.7782 6.33407 42.1459 10.2936ZM6.20897 11.9511C7.82318 10.0328 9.97462 8.51486 12.6034 7.43914C13.0242 7.26702 13.4582 7.10709 13.9032 6.95779C14.6514 7.79177 16.001 9.16833 17.8497 10.5383C21.7052 13.3954 25.9234 14.8692 30.0577 14.7985C38.5781 14.6539 44.2901 15.7448 47.0585 18.0403C47.0623 18.1039 47.0654 18.1682 47.0677 18.2332V18.2334V18.7729C47.0231 20.0299 46.6546 21.4824 45.5849 22.9065C43.7064 25.4078 41.5686 25.7456 38.3328 26.257C36.9583 26.4742 35.4003 26.7204 33.669 27.1721C31.1136 27.8387 29.5651 29.2726 28.0674 30.6593C25.7656 32.7904 23.5914 34.8036 17.2957 34.8036C12.8573 34.8036 9.32428 33.29 6.79447 30.3052C4.35028 27.4212 3.44776 23.8911 3.12731 22.0433C3.05281 21.6135 3.00893 21.1322 3.00171 20.6131V20.6078C3.00171 20.6062 3.00152 20.6045 3.00152 20.6029C2.97002 18.1527 3.7721 14.8469 6.20897 11.9511ZM45.902 32.2319C45.8302 32.3213 45.7616 32.4005 45.698 32.4668C43.3701 34.8983 41.1952 35.3146 37.9031 35.945C36.6608 36.1828 35.2527 36.4524 33.669 36.8655C31.1136 37.5322 29.5651 38.9661 28.0674 40.3528C25.7656 42.4839 23.5914 44.4971 17.2957 44.4971C11.6996 44.4971 7.58544 42.1248 5.06733 37.446C3.72354 34.9494 2.98679 32.3463 2.92955 29.9073C3.39549 30.6847 3.93583 31.4568 4.56278 32.1966C7.67398 35.8676 11.9579 37.7289 17.2958 37.7289C24.7378 37.7289 27.6861 34.9991 30.0551 32.8058C31.4006 31.56 32.5627 30.484 34.4076 30.0028C35.9995 29.5875 37.4179 29.3633 38.7897 29.1466C41.9214 28.6516 44.672 28.215 47.0679 25.6802V28.832C47.0678 30.0862 46.6537 31.2936 45.902 32.2319Z" fill="#321726"/>
<path d="M11.9224 26.0581C13.3217 27.1136 15.1596 27.6949 17.0976 27.6949C19.0357 27.6949 20.8736 27.1136 22.2729 26.058C23.7731 24.9264 24.6335 23.3199 24.6335 21.6508C24.6335 19.9816 23.7731 18.3751 22.2729 17.2435C20.8736 16.188 19.0357 15.6067 17.0976 15.6067C15.1596 15.6067 13.3217 16.188 11.9224 17.2435C10.4222 18.3751 9.56177 19.9816 9.56177 21.6508C9.56177 23.3199 10.4222 24.9263 11.9224 26.0581ZM17.0976 18.5321C19.5966 18.5321 21.7079 19.9603 21.7079 21.6507C21.7079 23.341 19.5966 24.7693 17.0976 24.7693C14.5987 24.7693 12.4873 23.341 12.4873 21.6507C12.4873 19.9603 14.5987 18.5321 17.0976 18.5321Z" fill="#321726"/>
</g>
<defs>
<clipPath id="clip0">
<rect width="50" height="50" fill="white"/>
</clipPath>
</defs>
</svg>
