<svg width="50" height="50" viewBox="0 0 50 50" fill="none" xmlns="http://www.w3.org/2000/svg">
<g clip-path="url(#clip0)">
<path d="M41.4974 6.27709C39.4086 4.43061 36.5348 3.96996 33.9512 5.05229L32.601 1.0016C32.4404 0.519962 32.042 0.155802 31.5479 0.0392006C31.0542 -0.077401 30.5345 0.07006 30.1755 0.429044L24.9965 5.60805L19.8174 0.429142C19.4585 0.07006 18.939 -0.0773033 18.4451 0.0392982C17.9509 0.1559 17.5525 0.52006 17.392 1.0017L16.0416 5.05277C13.4573 3.97045 10.5827 4.43178 8.49352 6.27895C3.1191 11.0307 0.0246687 17.8528 0.00377026 24.9957C-0.0360735 38.5778 10.9378 50.0002 24.9684 50H24.9982C38.7823 49.9842 49.9964 38.7693 49.9964 25C49.9964 17.876 46.8986 11.0517 41.4974 6.27709ZM30.5711 4.1767L31.4337 6.76459C31.0774 7.13334 30.763 7.53656 30.494 7.9682L27.7082 7.03959L30.5711 4.1767ZM19.4218 4.1767L22.2846 7.03959L19.4987 7.9682C19.2297 7.53666 18.9153 7.13344 18.559 6.76479L19.4218 4.1767ZM18.0191 17.4471C19.6847 15.9048 20.6019 13.9224 20.6019 11.8652C20.6019 11.4756 20.5715 11.0925 20.5141 10.7179L24.9964 9.22387L29.4787 10.7179C29.4212 11.0924 29.391 11.4754 29.391 11.8649C29.391 13.9327 30.2991 15.9067 31.9479 17.4232C34.1063 19.4082 35.3413 22.2046 35.3363 25.0953C35.3268 30.6148 30.8242 35.4058 24.9145 35.347C19.2518 35.2862 14.6449 30.6447 14.6449 25C14.6449 22.1856 15.8748 19.4327 18.0191 17.4471ZM24.9947 47.0704C24.9857 47.0704 24.9775 47.0704 24.9684 47.0704C12.5148 47.0704 2.8985 36.9193 2.93346 25.0043C2.95182 18.6971 5.6858 12.6719 10.4341 8.47367C11.7198 7.33695 13.4371 7.08842 15.0269 7.80492C16.3058 8.38119 17.6722 9.75043 17.6722 11.8651C17.6722 13.0969 17.0884 14.316 16.0286 15.2974C13.2874 17.8356 11.7152 21.3721 11.7152 25C11.7152 32.2429 17.6222 38.1986 24.8831 38.2764C32.4315 38.3573 38.2537 32.2339 38.266 25.1002C38.2722 21.3906 36.6923 17.8065 33.9311 15.2668C32.8925 14.3117 32.3207 13.1036 32.3207 11.8649C32.3207 9.75024 33.6873 8.3808 34.9662 7.80434C36.5567 7.08764 38.2728 7.33695 39.5571 8.47211C44.3296 12.691 47.0668 18.7151 47.0668 25C47.0668 37.1557 37.1653 47.0564 24.9947 47.0704Z" fill="#321726"/>
</g>
<defs>
<clipPath id="clip0">
<rect width="50" height="50" fill="white"/>
</clipPath>
</defs>
</svg>
