<svg width="50" height="50" viewBox="0 0 50 50" fill="none" xmlns="http://www.w3.org/2000/svg">
<path d="M45.5171 31.4351C45.5218 31.3787 45.5241 31.3223 45.5272 31.2659C48.1706 30.697 49.9999 28.3497 49.9999 25.6464C49.9999 24.0844 49.3892 22.6316 48.3177 21.552C49.6526 18.6603 48.401 15.2159 45.5172 13.8575C45.7826 10.6837 43.4283 7.87496 40.254 7.58482C39.4179 4.51237 36.2455 2.67732 33.1626 3.4906C31.2789 0.822152 27.6343 0.290416 24.9233 2.0826C22.314 0.254576 18.6877 0.871761 16.8389 3.4906C13.7591 2.6782 10.5844 4.50915 9.74754 7.58482C6.57577 7.87486 4.21875 10.6809 4.48428 13.8575C1.60333 15.2145 0.347672 18.6573 1.6838 21.5519C-0.347735 23.5989 -0.564824 26.8338 1.16329 29.1488C1.9797 30.2423 3.16915 30.9837 4.47412 31.2645C4.47725 31.3213 4.47949 31.3782 4.48418 31.435C1.60323 32.792 0.347574 36.2349 1.6837 39.1294C-0.348614 41.1773 -0.564825 44.413 1.16437 46.7278C2.55274 48.5862 4.9792 49.393 7.19872 48.7466C18.6016 45.4264 30.9716 45.3756 42.45 48.645C44.519 49.2343 46.7701 48.5689 48.1854 46.9499C49.0592 45.9503 49.9997 44.3579 49.9997 43.2237C49.9997 41.6617 49.389 40.209 48.3175 39.1293C49.6524 36.2381 48.4011 32.7935 45.5171 31.4351ZM3.51084 27.3964C2.50372 26.0472 2.81963 24.0748 4.36309 23.1468C5.12568 22.6883 5.30586 21.6606 4.74707 20.9701C3.34444 19.2365 4.27168 16.698 6.45663 16.2725C7.32997 16.1025 7.85077 15.1984 7.5618 14.3583C6.83642 12.2497 8.57674 10.1813 10.7751 10.5289C11.6541 10.6677 12.4526 9.99624 12.4683 9.10796C12.508 6.87848 14.8503 5.53004 16.7977 6.60855C17.576 7.03971 18.5561 6.68189 18.8747 5.8525C19.6742 3.77165 22.3365 3.30456 23.798 4.98434C24.382 5.65563 25.4251 5.65465 26.0081 4.98434C27.3169 3.48005 30.2389 3.54128 31.1267 5.85241C31.4458 6.68307 32.4264 7.03902 33.2037 6.60855C35.1544 5.52799 37.4935 6.88258 37.5331 9.10796C37.5489 9.9978 38.3488 10.6674 39.2263 10.5289C41.4287 10.1805 43.1636 12.2536 42.4396 14.3583C42.1501 15.1997 42.6727 16.1029 43.5448 16.2726C45.7333 16.6987 46.6546 19.2394 45.2543 20.9702C44.6947 21.6619 44.877 22.6891 45.6383 23.1469C46.535 23.686 47.0703 24.6205 47.0703 25.6465C47.0703 26.9275 46.2416 28.1038 44.9437 28.3968C44.7386 27.9804 44.4819 27.5843 44.174 27.2174C43.17 26.021 41.7684 25.301 40.2538 25.1625C39.4176 22.0899 36.2453 20.255 33.1624 21.0683C31.2787 18.3998 27.6341 17.8681 24.9231 19.6603C22.3131 17.8317 18.6871 18.4501 16.8387 21.0683C13.7587 20.2558 10.5841 22.087 9.74734 25.1625C7.66366 25.353 5.9287 26.628 5.05742 28.3969C4.44795 28.2593 3.89336 27.9087 3.51084 27.3964ZM45.9798 45.022C45.3071 45.7916 44.2368 46.1079 43.2527 45.8276C37.2791 44.1263 31.079 43.2902 24.8095 43.31C18.5435 43.3278 12.3428 44.1978 6.37987 45.934C5.32265 46.2417 4.17012 45.8563 3.51153 44.9747C2.50147 43.6226 2.82256 41.6508 4.36318 40.7243C5.12578 40.2658 5.30595 39.2383 4.74717 38.5477C4.08897 37.7341 3.90547 36.673 4.25645 35.7089C4.60723 34.745 5.42988 34.05 6.45673 33.8501C7.33007 33.6801 7.85086 32.776 7.5619 31.9359C6.89745 30.0045 8.30828 28.0685 10.2964 28.0685C10.7768 28.0685 11.3339 28.2948 11.9453 27.7816C12.27 27.5092 12.4607 27.1094 12.4682 26.6855C12.5079 24.4561 14.8503 23.1075 16.7976 24.1861C17.576 24.6172 18.556 24.2595 18.8746 23.4301C19.6741 21.3492 22.3365 20.8821 23.7979 22.5619C24.382 23.2332 25.425 23.2322 26.008 22.5619C27.3166 21.0579 30.2385 21.1182 31.1266 23.43C31.4457 24.2606 32.4264 24.6166 33.2036 24.1861C35.1542 23.1057 37.4934 24.46 37.533 26.6855C37.5488 27.5753 38.3487 28.2452 39.2262 28.1064C41.4287 27.7583 43.1635 29.8311 42.4395 31.9359C42.15 32.7773 42.6726 33.6803 43.5447 33.8501C45.7333 34.2764 46.6544 36.817 45.2542 38.5477C44.6947 39.2394 44.8769 40.2665 45.6382 40.7243C46.5221 41.2558 47.0548 42.1713 47.0698 43.18C47.0172 43.4289 46.6544 44.2502 45.9798 45.022Z" fill="#321726"/>
<path d="M37.9874 32.0869C34.9386 28.0338 30.2096 25.6465 25.0008 25.6465C19.7846 25.6465 15.0588 28.0399 12.0143 32.0868C11.5279 32.7333 11.6578 33.6515 12.3043 34.138C12.9507 34.6242 13.869 34.4945 14.3554 33.8479C16.8024 30.5946 20.6432 28.5371 25.0008 28.5371C29.3587 28.5371 33.1994 30.595 35.6463 33.8479C36.133 34.495 37.0516 34.6239 37.6974 34.138C38.3438 33.6517 38.4736 32.7334 37.9874 32.0869Z" fill="#321726"/>
<path d="M37.9874 14.5089C34.9386 10.4558 30.2096 8.0686 25.0008 8.0686C19.7846 8.0686 15.0588 10.4621 12.0143 14.5089C11.5279 15.1554 11.6578 16.0737 12.3043 16.56C12.9507 17.0462 13.869 16.9165 14.3554 16.2699C16.8023 13.0167 20.6432 10.959 25.0008 10.959C29.3667 10.959 33.2044 13.0236 35.6463 16.2699C36.1328 16.9167 37.0512 17.0462 37.6974 16.56C38.3438 16.0737 38.4736 15.1554 37.9874 14.5089Z" fill="#321726"/>
</svg>
