<svg width="50" height="50" viewBox="0 0 50 50" fill="none" xmlns="http://www.w3.org/2000/svg">
<path d="M48.6245 10.2001L45.3112 6.88687L47.5201 4.67907C48.13 4.06945 48.1301 3.08079 47.5203 2.47102C46.9108 1.86146 45.9225 1.86134 45.3128 2.47076L43.1034 4.67907L39.7918 1.36738C37.938 -0.400782 35.0221 -0.400782 33.1684 1.36738C31.7574 2.76394 31.3943 4.90489 32.2659 6.68857L23.2317 15.7212L22.1279 14.6173L17.2423 19.5013C14.3576 18.3575 11.069 19.0415 8.87953 21.2406L6.98116 23.1381C6.1998 23.9191 6.19965 25.1857 6.98083 25.9669L24.025 43.011C24.8062 43.7922 26.0728 43.7921 26.8538 43.0107L28.7512 41.1123C30.9515 38.923 31.6362 35.6334 30.4922 32.748L35.3746 27.864L34.2707 26.7601L43.3049 17.7275C45.6332 18.8432 48.425 17.8603 49.5408 15.532C50.3993 13.7405 50.0318 11.6022 48.6245 10.2001ZM26.5434 38.9045L25.4395 40.0084L9.98187 24.5508L11.0858 23.4469C12.9392 21.6779 15.8557 21.6779 17.7091 23.4469L26.5434 32.2812C28.372 34.1103 28.372 37.0754 26.5434 38.9045ZM28.7512 30.0734L19.9185 21.2406L22.1279 19.0313L30.959 27.864L28.7512 30.0734ZM32.0629 24.5523L25.4395 17.9274L34.2723 9.09466L40.8956 15.7196L32.0629 24.5523ZM46.4167 14.6157C45.7984 15.2055 44.8256 15.2055 44.2073 14.6157L35.3762 5.78297C34.7559 5.18389 34.7387 4.19544 35.3378 3.57518C35.9369 2.95492 36.9254 2.93774 37.5456 3.53683C37.5586 3.54941 37.5715 3.5622 37.584 3.57518L46.4167 12.4079C47.0262 13.0176 47.0262 14.006 46.4167 14.6157Z" fill="#321726"/>
<path d="M6.24554 32.784C6.24554 33.6464 6.9446 34.3454 7.80693 34.3454C8.66925 34.3454 9.36831 33.6464 9.36831 32.784C9.36831 31.9217 8.66925 31.2227 7.80693 31.2227C6.9446 31.2227 6.24554 31.9217 6.24554 32.784Z" fill="#321726"/>
<path d="M3.12274 39.0296C3.12274 39.892 3.8218 40.591 4.68412 40.591C5.54645 40.591 6.2455 39.892 6.2455 39.0296C6.2455 38.1673 5.54645 37.4683 4.68412 37.4683C3.8218 37.4683 3.12274 38.1673 3.12274 39.0296Z" fill="#321726"/>
<path d="M0 48.3978C0 49.2601 0.699055 49.9592 1.56138 49.9592C2.42371 49.9592 3.12276 49.2601 3.12276 48.3978C3.12276 47.5355 2.42371 46.8364 1.56138 46.8364C0.699055 46.8364 0 47.5355 0 48.3978Z" fill="#321726"/>
<path d="M6.24554 45.275C6.24554 46.1373 6.9446 46.8364 7.80693 46.8364C8.66925 46.8364 9.36831 46.1373 9.36831 45.275C9.36831 44.4127 8.66925 43.7136 7.80693 43.7136C6.9446 43.7136 6.24554 44.4127 6.24554 45.275Z" fill="#321726"/>
<path d="M9.36829 39.0296C9.36829 39.892 10.0673 40.591 10.9297 40.591C11.792 40.591 12.491 39.892 12.491 39.0296C12.491 38.1673 11.792 37.4683 10.9297 37.4683C10.0673 37.4683 9.36829 38.1673 9.36829 39.0296Z" fill="#321726"/>
<path d="M15.6138 43.7137C15.6138 44.5761 16.3129 45.2751 17.1752 45.2751C18.0375 45.2751 18.7366 44.5761 18.7366 43.7137C18.7366 42.8514 18.0375 42.1523 17.1752 42.1523C16.3129 42.1523 15.6138 42.8514 15.6138 43.7137Z" fill="#321726"/>
</svg>
