<svg width="34" height="34" viewBox="0 0 34 34" fill="none" xmlns="http://www.w3.org/2000/svg">
<path d="M31.8308 23.0138C31.4552 24.0533 30.4937 24.5953 30.3812 24.5953C22.6506 28.0559 29.1644 25.1402 25.1007 26.959C14.8705 31.131 15.0587 31.3215 13.6954 30.8092C12.1901 30.2426 13.1077 31.3447 5.4418 17.7421C4.90508 16.8052 4.80137 15.2373 5.53848 14.0595C10.6444 5.00036 11.4431 3.02322 13.5758 3.00166C13.7162 3.01133 12.6258 2.78311 24.2089 5.33722C25.1851 5.56515 26.3862 6.48507 26.9698 7.75246C26.9921 7.80109 26.63 6.81027 31.7499 20.8828C32.0529 21.5625 32.0816 22.3177 31.8308 23.0138Z" fill="#001737"/>
<path d="M25.3585 14.6928V28.1348C25.3585 29.7192 24.0764 31.0077 22.5003 31.0077H4.85821C3.28262 31.0077 2 29.7192 2 28.1348V14.6928C2 13.4289 2.53145 12.2148 3.4584 11.3617C12.2278 3.29028 12.1621 3.01583 13.5758 3.00153C15.2122 3.00153 14.7019 2.89448 23.9001 11.3617C24.827 12.2148 25.3585 13.4289 25.3585 14.6928Z" fill="#FFEC00"/>
<path d="M25.3587 14.6931V28.1352C25.3587 29.7195 24.0763 31.008 22.5005 31.008H13.6793V3.00128C15.1932 2.99812 14.9138 3.09017 23.9002 11.3621C24.827 12.2152 25.3587 13.4292 25.3587 14.6931Z" fill="#FFD92E"/>
<path d="M14.5598 8.56646C14.5598 9.72884 12.7991 9.72854 12.7991 8.56646C12.7991 7.40419 14.5598 7.40437 14.5598 8.56646Z" fill="#00357B"/>
<path d="M13.6794 9.44529C13.6794 7.58054 13.5845 7.62127 13.9353 7.72556C14.9145 8.04449 14.6699 9.44529 13.6794 9.44529Z" fill="#001737"/>
<path d="M16.6478 15.0056C12.9639 23.7864 14.031 21.2431 12.3693 25.2033C12.2281 25.5402 11.9017 25.7423 11.5584 25.7423C10.9355 25.7423 10.5043 25.1054 10.748 24.5236C11.1883 23.4743 13.0524 19.0318 15.0271 14.3259C15.2152 13.8783 15.7302 13.6673 16.1779 13.8554C16.625 14.0429 16.8359 14.5585 16.6478 15.0056Z" fill="#321726"/>
<path d="M12.0585 16.3881C12.0585 14.6918 10.8161 13.3118 9.28896 13.3118C7.76183 13.3118 6.51941 14.6918 6.51941 16.3881C6.51941 18.0844 7.76183 19.4645 9.28896 19.4645C10.8161 19.4645 12.0585 18.0844 12.0585 16.3881ZM9.28896 17.7066C8.74052 17.7066 8.27728 17.1028 8.27728 16.3881C8.27728 15.6734 8.74052 15.0696 9.28896 15.0696C9.8374 15.0696 10.3006 15.6734 10.3006 16.3881C10.3006 17.1028 9.8374 17.7066 9.28896 17.7066Z" fill="#321726"/>
<path d="M18.1577 20.2842C16.6306 20.2842 15.3882 21.6642 15.3882 23.3605C15.3882 25.0568 16.6306 26.4369 18.1577 26.4369C19.6849 26.4369 20.9273 25.0568 20.9273 23.3605C20.9273 21.6642 19.6849 20.2842 18.1577 20.2842ZM18.1577 24.6791C17.6093 24.6791 17.1461 24.0753 17.1461 23.3605C17.1461 22.6458 17.6093 22.042 18.1577 22.042C18.7062 22.042 19.1694 22.6458 19.1694 23.3605C19.1694 24.0753 18.7062 24.6791 18.1577 24.6791Z" fill="#321726"/>
</svg>
