<svg width="20" height="20" viewBox="0 0 20 20" fill="none" xmlns="http://www.w3.org/2000/svg">
<path d="M14.6094 1.53223C12.9457 1.53223 11.4873 2.27406 10.3918 3.67758C10.2457 3.86477 10.1154 4.05203 10 4.2334C9.88457 4.05199 9.75434 3.86477 9.60824 3.67758C8.51273 2.27406 7.0543 1.53223 5.39062 1.53223C2.24781 1.53223 0 4.16375 0 7.32144C0 10.9321 2.95926 14.335 9.59519 18.355C9.71961 18.4304 9.85981 18.4681 10 18.4681C10.1402 18.4681 10.2804 18.4304 10.4048 18.3551C17.0407 14.335 20 10.9321 20 7.32148C20 4.16543 17.754 1.53223 14.6094 1.53223ZM16.3733 11.8173C14.9918 13.3588 12.9041 14.982 10 16.7714C7.0959 14.982 5.0082 13.3588 3.62668 11.8174C2.2377 10.2675 1.5625 8.79691 1.5625 7.32148C1.5625 5.04789 3.09898 3.09473 5.39062 3.09473C6.55766 3.09473 7.55273 3.60215 8.34824 4.60293C8.98434 5.40328 9.25234 6.22973 9.25422 6.23562C9.35598 6.56199 9.65816 6.7843 10 6.7843C10.3419 6.7843 10.6441 6.56203 10.7459 6.23562C10.7483 6.22773 11.0083 5.42707 11.6235 4.63894C12.4233 3.61426 13.4279 3.09469 14.6094 3.09469C16.9034 3.09469 18.4375 5.04973 18.4375 7.32144C18.4375 8.79687 17.7623 10.2675 16.3733 11.8173Z" fill="#321726"/>
</svg>
