<svg width="293" height="65" viewBox="0 0 293 65" fill="none" xmlns="http://www.w3.org/2000/svg">
<path d="M13.0059 56.9232C13.8478 56.9232 14.5075 57.1243 14.9851 57.5264C15.4626 57.9285 15.7013 58.4814 15.7013 59.1852C15.7013 59.8889 15.4626 60.4418 14.9851 60.8439C14.5075 61.2397 13.8478 61.4376 13.0059 61.4376H11.234V63.5205H10.5366V56.9232H13.0059ZM12.987 60.825C13.6405 60.825 14.14 60.6837 14.4855 60.4009C14.8311 60.1119 15.0039 59.7067 15.0039 59.1852C15.0039 58.6511 14.8311 58.2427 14.4855 57.96C14.14 57.6709 13.6405 57.5264 12.987 57.5264H11.234V60.825H12.987Z" fill="#321726"/>
<path d="M22.913 59.2794C23.6921 59.2794 24.2859 59.4553 24.6943 59.8072C25.109 60.159 25.3163 60.6742 25.3163 61.3528C25.3163 62.0628 25.0964 62.6032 24.6566 62.9739C24.223 63.3383 23.5947 63.5205 22.7716 63.5205H20.1516V56.9232H20.8396V59.2794H22.913ZM22.7528 62.9644C23.3623 62.9644 23.8241 62.8294 24.1382 62.5592C24.4587 62.289 24.6189 61.89 24.6189 61.3623C24.6189 60.3507 23.9969 59.8449 22.7528 59.8449H20.8396V62.9644H22.7528ZM26.4567 56.9232H27.1447V63.5205H26.4567V56.9232Z" fill="#321726"/>
<path d="M32.3804 56.9232H37.2059V57.517H33.0684V59.6752H35.2267C36.0058 59.6752 36.5964 59.8355 36.9985 60.1559C37.4069 60.4763 37.6111 60.9413 37.6111 61.5507C37.6111 62.1853 37.3912 62.6723 36.9514 63.0116C36.5179 63.3509 35.8927 63.5205 35.0759 63.5205H32.3804V56.9232ZM35.0665 62.9644C35.6759 62.9644 36.1346 62.8482 36.4425 62.6157C36.7566 62.3833 36.9137 62.0377 36.9137 61.579C36.9137 61.1266 36.7598 60.7905 36.4519 60.5706C36.1503 60.3444 35.6885 60.2313 35.0665 60.2313H33.0684V62.9644H35.0665Z" fill="#321726"/>
<path d="M46.4478 61.7581H42.7721L41.9805 63.5205H41.2548L44.2707 56.9232H44.9587L47.9745 63.5205H47.2394L46.4478 61.7581ZM46.1933 61.1926L44.6099 57.6489L43.0266 61.1926H46.1933Z" fill="#321726"/>
<path d="M76.7636 56.9232V63.5205H76.0945V58.2427L73.5027 62.6817H73.1728L70.581 58.271V63.5205H69.9119V56.9232H70.4868L73.3519 61.8146L76.1887 56.9232H76.7636Z" fill="#321726"/>
<path d="M84.896 63.577C84.2426 63.577 83.6489 63.4325 83.1148 63.1435C82.587 62.8482 82.1723 62.4461 81.8707 61.9372C81.5754 61.4282 81.4278 60.8565 81.4278 60.2219C81.4278 59.5873 81.5754 59.0155 81.8707 58.5066C82.1723 57.9977 82.587 57.5987 83.1148 57.3097C83.6489 57.0144 84.2426 56.8667 84.896 56.8667C85.5495 56.8667 86.137 57.0112 86.6585 57.3002C87.1862 57.5893 87.6009 57.9914 87.9025 58.5066C88.2041 59.0155 88.3549 59.5873 88.3549 60.2219C88.3549 60.8565 88.2041 61.4314 87.9025 61.9466C87.6009 62.4555 87.1862 62.8545 86.6585 63.1435C86.137 63.4325 85.5495 63.577 84.896 63.577ZM84.896 62.955C85.4175 62.955 85.8888 62.8388 86.3097 62.6063C86.7307 62.3675 87.0606 62.0408 87.2993 61.6261C87.5381 61.2052 87.6575 60.7371 87.6575 60.2219C87.6575 59.7067 87.5381 59.2417 87.2993 58.827C87.0606 58.4061 86.7307 58.0793 86.3097 57.8469C85.8888 57.6081 85.4175 57.4887 84.896 57.4887C84.3745 57.4887 83.9002 57.6081 83.4729 57.8469C83.052 58.0793 82.719 58.4061 82.4739 58.827C82.2352 59.2417 82.1158 59.7067 82.1158 60.2219C82.1158 60.7371 82.2352 61.2052 82.4739 61.6261C82.719 62.0408 83.052 62.3675 83.4729 62.6063C83.9002 62.8388 84.3745 62.955 84.896 62.955Z" fill="#321726"/>
<path d="M95.5043 56.9232C96.3462 56.9232 97.006 57.1243 97.4835 57.5264C97.961 57.9285 98.1997 58.4815 98.1997 59.1852C98.1997 59.8889 97.961 60.4418 97.4835 60.8439C97.006 61.2397 96.3462 61.4377 95.5043 61.4377H93.7325V63.5205H93.035V56.9232H95.5043ZM95.4855 60.8251C96.1389 60.8251 96.6384 60.6837 96.984 60.4009C97.3295 60.1119 97.5023 59.7067 97.5023 59.1852C97.5023 58.6511 97.3295 58.2427 96.984 57.96C96.6384 57.6709 96.1389 57.5264 95.4855 57.5264H93.7325V60.8251H95.4855Z" fill="#321726"/>
<path d="M107.315 62.9173V63.5205H102.65V56.9232H107.174V57.5264H103.347V59.8732H106.759V60.4669H103.347V62.9173H107.315Z" fill="#321726"/>
<path d="M117.43 56.9232V63.5205H116.742V57.5264H112.566V63.5205H111.878V56.9232H117.43Z" fill="#321726"/>
<path d="M125.141 56.9232C125.983 56.9232 126.642 57.1243 127.12 57.5264C127.597 57.9285 127.836 58.4815 127.836 59.1852C127.836 59.8889 127.597 60.4418 127.12 60.8439C126.642 61.2397 125.983 61.4377 125.141 61.4377H123.369V63.5205H122.672V56.9232H125.141ZM125.122 60.8251C125.775 60.8251 126.275 60.6837 126.62 60.4009C126.966 60.1119 127.139 59.7067 127.139 59.1852C127.139 58.6511 126.966 58.2427 126.62 57.96C126.275 57.6709 125.775 57.5264 125.122 57.5264H123.369V60.8251H125.122Z" fill="#321726"/>
<path d="M135.272 63.577C134.618 63.577 134.025 63.4325 133.491 63.1435C132.963 62.8482 132.548 62.4461 132.247 61.9372C131.951 61.4282 131.804 60.8565 131.804 60.2219C131.804 59.5873 131.951 59.0155 132.247 58.5066C132.548 57.9977 132.963 57.5987 133.491 57.3097C134.025 57.0144 134.618 56.8667 135.272 56.8667C135.925 56.8667 136.513 57.0112 137.034 57.3002C137.562 57.5893 137.977 57.9914 138.278 58.5066C138.58 59.0155 138.731 59.5873 138.731 60.2219C138.731 60.8565 138.58 61.4314 138.278 61.9466C137.977 62.4555 137.562 62.8545 137.034 63.1435C136.513 63.4325 135.925 63.577 135.272 63.577ZM135.272 62.955C135.793 62.955 136.265 62.8388 136.686 62.6063C137.107 62.3675 137.436 62.0408 137.675 61.6261C137.914 61.2052 138.033 60.7371 138.033 60.2219C138.033 59.7067 137.914 59.2417 137.675 58.827C137.436 58.4061 137.107 58.0793 136.686 57.8469C136.265 57.6081 135.793 57.4887 135.272 57.4887C134.75 57.4887 134.276 57.6081 133.849 57.8469C133.428 58.0793 133.095 58.4061 132.85 58.827C132.611 59.2417 132.492 59.7067 132.492 60.2219C132.492 60.7371 132.611 61.2052 132.85 61.6261C133.095 62.0408 133.428 62.3675 133.849 62.6063C134.276 62.8388 134.75 62.955 135.272 62.955Z" fill="#321726"/>
<path d="M149.287 62.9173V65.0002H148.637V63.5205H142.878L142.869 65.0002H142.218L142.228 62.9173H142.558C142.991 62.8922 143.293 62.5498 143.462 61.89C143.632 61.224 143.736 60.2816 143.773 59.0626L143.849 56.9232H148.297V62.9173H149.287ZM144.395 59.1286C144.364 60.1339 144.286 60.9633 144.16 61.6167C144.04 62.2639 143.836 62.6974 143.547 62.9173H147.609V57.5264H144.452L144.395 59.1286Z" fill="#321726"/>
<path d="M158.909 56.9232L155.912 62.4744C155.698 62.8702 155.447 63.1655 155.158 63.3603C154.875 63.5488 154.564 63.643 154.225 63.643C153.974 63.643 153.703 63.5833 153.414 63.464L153.612 62.8985C153.838 62.9864 154.046 63.0304 154.234 63.0304C154.668 63.0304 155.023 62.7948 155.299 62.3236L155.488 62.0031L152.811 56.9232H153.556L155.855 61.3905L158.211 56.9232H158.909Z" fill="#321726"/>
<path d="M165.195 60.4952H163.688V63.5205H163.009V56.9232H163.688V59.8826H165.195L167.429 56.9232H168.183L165.733 60.1276L168.324 63.5205H167.523L165.195 60.4952Z" fill="#321726"/>
<path d="M176.674 57.5264H174.355V63.5205H173.667V57.5264H171.349V56.9232H176.674V57.5264Z" fill="#321726"/>
<path d="M183.675 59.2794C184.454 59.2794 185.048 59.4553 185.456 59.8072C185.871 60.159 186.078 60.6743 186.078 61.3528C186.078 62.0628 185.858 62.6032 185.419 62.9739C184.985 63.3383 184.357 63.5205 183.534 63.5205H180.914V56.9232H181.602V59.2794H183.675ZM183.515 62.9644C184.124 62.9644 184.586 62.8294 184.9 62.5592C185.221 62.289 185.381 61.89 185.381 61.3623C185.381 60.3507 184.759 59.8449 183.515 59.8449H181.602V62.9644H183.515ZM187.219 56.9232H187.907V63.5205H187.219V56.9232Z" fill="#321726"/>
<path d="M60.3176 60.4575C60.3176 61.3684 59.5792 62.1068 58.6683 62.1068C57.7574 62.1068 57.019 61.3684 57.019 60.4575C57.019 59.5466 57.7574 58.8082 58.6683 58.8082C59.5792 58.8082 60.3176 59.5466 60.3176 60.4575Z" fill="#321726"/>
<path d="M212.941 61.4831V64.2038H202.421V62.0396L207.79 56.7837C208.36 56.2204 208.745 55.7394 208.944 55.3409C209.143 54.9287 209.242 54.5234 209.242 54.1249C209.242 53.5478 209.05 53.1081 208.665 52.8058C208.294 52.4897 207.744 52.3317 207.015 52.3317C206.405 52.3317 205.855 52.4554 205.364 52.7027C204.873 52.9363 204.462 53.2936 204.131 53.7745L201.784 52.208C202.328 51.3698 203.077 50.7171 204.032 50.25C204.986 49.769 206.08 49.5286 207.313 49.5286C208.347 49.5286 209.249 49.7072 210.018 50.0645C210.8 50.408 211.403 50.9027 211.828 51.5485C212.265 52.1805 212.484 52.9294 212.484 53.7951C212.484 54.5783 212.325 55.3135 212.007 56.0005C211.688 56.6875 211.072 57.4708 210.157 58.3502L206.955 61.4831H212.941Z" fill="#321726"/>
<path d="M225.631 61.1739H223.364V64.2038H220.222V61.1739H212.724V58.9273L219.287 49.7759H222.668L216.582 58.4532H220.321V55.7532H223.364V58.4532H225.631V61.1739Z" fill="#321726"/>
<path d="M0 6.62612H23.2944V16.4028H10.9193V22.2798H22.5665V32.0564H10.9193V44.5244H0V6.62612Z" fill="#321726"/>
<path d="M31.6321 15.524C29.885 15.524 28.4777 14.993 27.41 13.9312C26.3423 12.8693 25.8085 11.4412 25.8085 9.647C25.8085 7.85278 26.3423 6.42473 27.41 5.36285C28.4777 4.30096 29.885 3.77002 31.6321 3.77002C33.4116 3.77002 34.8189 4.30096 35.8542 5.36285C36.9219 6.42473 37.4557 7.85278 37.4557 9.647C37.4557 11.4412 36.9219 12.8693 35.8542 13.9312C34.8189 14.993 33.4116 15.524 31.6321 15.524ZM26.1968 16.5126H37.116V44.5244H26.1968V16.5126Z" fill="#321726"/>
<path d="M61.9483 35.7364C61.9483 38.6291 60.8644 40.9726 58.6967 42.7668C56.7555 44.4146 54.0864 45.2385 50.6893 45.2385C46.0951 45.2385 42.2774 43.9386 39.2362 41.3388L42.9245 34.0887C43.8627 34.821 45.0113 35.4435 46.3701 35.9561C48.3437 36.6884 49.8804 37.0546 50.9805 37.0546C51.9187 37.0546 52.3878 36.7617 52.3878 36.1758C52.3878 35.7364 51.9834 35.3886 51.1746 35.1322L50.1554 34.6928C49.1848 34.2901 48.554 34.0887 48.2628 34.0887C46.8392 33.6126 45.8686 33.2465 45.351 32.9902C42.2774 31.7818 40.7406 29.2186 40.7406 25.3007C40.7406 22.4445 41.7112 20.1743 43.6524 18.4899C45.6583 16.769 48.1657 15.9085 51.1746 15.9085C55.1864 15.9085 58.6806 16.9887 61.6571 19.149L58.6967 26.0696C56.2055 24.312 53.8276 23.4332 51.5628 23.4332C50.6569 23.4332 50.204 23.7444 50.204 24.3669C50.204 24.8063 51.0937 25.3007 52.8731 25.8499C54.6526 26.4358 55.8173 26.8569 56.3673 27.1132C57.9203 27.8455 59.1012 28.6694 59.91 29.5848C61.2688 31.1227 61.9483 33.1733 61.9483 35.7364Z" fill="#321726"/>
<path d="M91.6634 28.0469V44.5244H80.7442V30.7932C80.7442 29.0722 80.5662 27.8455 80.2104 27.1132C79.8868 26.3442 79.2236 25.9598 78.2206 25.9598C77.2177 25.9598 76.5382 26.3442 76.1824 27.1132C75.8265 27.8455 75.6485 29.0722 75.6485 30.7932V44.5244H64.7292V6.62612H75.6485V14.8649L75.5515 20.0828C77.0721 17.3365 79.3692 15.9634 82.4427 15.9634C85.7104 15.9634 88.056 16.9887 89.4796 19.0392C90.9355 21.0531 91.6634 24.0557 91.6634 28.0469Z" fill="#321726"/>
<path d="M120.921 30.5185L124.076 40.4051C121.261 43.5907 117.298 45.1835 112.186 45.1835C106.977 45.1835 102.69 43.4626 99.3255 40.0206C95.9284 36.5786 94.2298 31.7818 94.2298 25.6302C94.2298 19.5518 95.9284 14.7733 99.3255 11.2948C102.755 7.81617 107.042 6.07687 112.186 6.07687C115.098 6.07687 117.492 6.49797 119.368 7.34015C120.792 7.8894 121.989 8.53019 122.96 9.26253L123.348 9.647L120.436 20.0828C120.371 20.0095 120.274 19.9363 120.145 19.8631C120.048 19.7532 119.918 19.6434 119.757 19.5335C119.595 19.3871 119.465 19.2589 119.368 19.149C119.045 18.8561 118.155 18.3801 116.699 17.721C115.34 17.0985 114.079 16.7873 112.914 16.7873C110.649 16.7873 108.805 17.5562 107.382 19.0941C105.958 20.5954 105.246 22.7192 105.246 25.4654C105.246 28.1385 105.958 30.2256 107.382 31.7269C108.837 33.2282 110.682 33.9788 112.914 33.9788C116.214 33.9788 118.883 32.8254 120.921 30.5185Z" fill="#321726"/>
<path d="M145.224 16.4028L145.418 16.5126L144.932 27.7723H144.447C143.476 27.223 142.425 26.9484 141.293 26.9484C139.804 26.9484 138.672 27.5526 137.896 28.7609C137.248 29.713 136.925 31.3058 136.925 33.5394V44.5244H126.006V16.5126H136.925L136.779 20.0828C138.235 17.3365 140.306 15.9634 142.991 15.9634C144.027 15.9634 144.771 16.1099 145.224 16.4028Z" fill="#321726"/>
<path d="M171.425 29.1454V44.5244H161.088L160.845 42.0528C159.001 44.14 156.898 45.1835 154.536 45.1835C151.883 45.1835 149.651 44.4512 147.839 42.9865C145.995 41.5219 145.073 39.1967 145.073 36.011C145.073 34.6928 145.3 33.5211 145.752 32.4958C146.205 31.4706 146.772 30.665 147.451 30.0791C148.13 29.4567 148.923 28.944 149.829 28.5412C150.735 28.1384 151.576 27.8638 152.353 27.7174C153.161 27.5343 153.97 27.4244 154.779 27.3878L160.506 27.1132V26.8386C160.506 25.081 159.163 24.2022 156.478 24.2022C153.857 24.2022 151.269 25.026 148.713 26.6738L146.044 18.8744C149.829 16.9337 153.792 15.9634 157.934 15.9634C162.56 15.9634 165.957 17.0619 168.125 19.2589C170.325 21.4559 171.425 24.7514 171.425 29.1454ZM160.603 36.5603V33.1L158.419 33.2648C156.801 33.338 155.992 34.0704 155.992 35.4618C155.992 36.9265 156.801 37.6588 158.419 37.6588C159.228 37.6588 159.956 37.2926 160.603 36.5603Z" fill="#321726"/>
<path d="M193.11 45.1835C189.616 45.1835 187.028 43.9569 185.345 41.5036L185.491 44.5244H175.154V6.62612H186.073V14.5903L185.976 18.9843C186.073 18.8378 186.3 18.5632 186.656 18.1604C187.012 17.8308 187.788 17.3914 188.985 16.8422C190.15 16.2563 191.525 15.9634 193.11 15.9634C196.572 15.9634 199.338 17.3548 201.409 20.1377C203.479 22.8473 204.515 26.3259 204.515 30.5735C204.515 34.7844 203.479 38.2813 201.409 41.0642C199.306 43.8104 196.54 45.1835 193.11 45.1835ZM185.734 30.4087C185.734 31.8734 186.09 33.0451 186.801 33.9239C187.545 34.7661 188.484 35.1872 189.616 35.1872C190.684 35.1872 191.59 34.7661 192.334 33.9239C193.11 33.0817 193.498 31.91 193.498 30.4087C193.498 28.9074 193.126 27.7357 192.382 26.8935C191.832 26.2344 191.153 25.8316 190.344 25.6851C189.568 25.5387 188.823 25.6119 188.112 25.9048C187.432 26.1978 186.85 26.747 186.365 27.5526C185.879 28.3582 185.669 29.3102 185.734 30.4087Z" fill="#321726"/>
<path d="M272.814 9.42465C273.725 9.42465 274.463 8.68622 274.463 7.77533C274.463 6.86444 273.725 6.12602 272.814 6.12602C271.903 6.12602 271.164 6.86444 271.164 7.77533C271.164 8.68622 271.903 9.42465 272.814 9.42465Z" fill="#321726"/>
<path fill-rule="evenodd" clip-rule="evenodd" d="M213.439 34.1643C224.371 39.4421 232.916 31.9653 235.822 27.5671H228.989C231.345 25.2109 237 19.5561 240.77 9.89588C243.409 11.2153 247.289 11.8593 249.723 12.0164C252.158 12.1735 255.003 11.4405 257.734 9.42465C267.63 2.12055 277.762 0 284.123 0C284.027 0.192198 283.926 0.387336 283.821 0.59001C282.898 2.375 281.671 4.74451 280.825 10.8383C281.489 10.3642 282.238 9.83271 283.034 9.26897C286.19 7.03163 290.064 4.28548 292.134 2.59178C290.721 5.73333 286.48 13.383 280.825 18.8493C273.662 21.4882 267.316 19.0064 265.038 17.4356C254.907 29.3446 226.427 48.3071 213.439 34.1643ZM275.877 7.77533C275.877 9.46699 274.505 10.8383 272.814 10.8383C271.122 10.8383 269.751 9.46699 269.751 7.77533C269.751 6.08368 271.122 4.71232 272.814 4.71232C274.505 4.71232 275.877 6.08368 275.877 7.77533Z" fill="#321726"/>
<path d="M213.91 15.7863C213.91 13.3359 212.81 5.96894 212.26 2.59178C217.425 16.207 223.291 16.959 232.422 18.1294L232.523 18.1424C224.923 20.1886 216.373 24.9967 212.732 32.2794C210.657 28.9596 211.871 25.6398 212.673 23.4463C212.782 23.149 212.883 22.8722 212.967 22.6191C213.674 20.4986 213.91 18.8493 213.91 15.7863Z" fill="#321726"/>
<path d="M224.984 40.2904C236.653 41.144 252.786 32.0438 265.745 19.7918C270.693 22.3835 276.112 22.6191 280.354 21.2055C276.898 26.1534 266.435 37.1225 252.551 43.1178C242.184 47.5945 228.282 43.1963 224.984 40.2904Z" fill="#321726"/>
<path d="M271.164 34.1643C266.264 38.6882 259.07 42.6465 256.085 44.0602C260.797 43.6832 265.902 44.6885 267.866 45.2383C268.573 43.9817 270.222 40.0076 271.164 34.1643Z" fill="#321726"/>
</svg>
