<svg width="40" height="40" viewBox="0 0 40 40" fill="none" xmlns="http://www.w3.org/2000/svg">
<path d="M35.7788 15.77H35.5458V11.9469C35.5458 10.0948 34.3594 8.51537 32.7068 7.92678L31.3632 3.79413C31.305 3.61499 31.1768 3.46695 31.0078 3.38382C30.8387 3.30054 30.6432 3.28913 30.4657 3.35249L28.499 4.05187L27.8087 1.92929C27.7504 1.75015 27.6222 1.60226 27.4533 1.51906C27.2843 1.43586 27.0888 1.42453 26.9115 1.48758L17.2428 4.92468C16.3229 2.07093 13.6427 0 10.487 0C6.5736 0 3.3897 3.18374 3.3897 7.09717C3.3897 7.29124 3.39978 7.48592 3.41564 7.68045H2.51666C2.13119 7.68045 1.81885 7.99288 1.81885 8.37827V32.9054C1.81885 33.2908 2.13119 33.6032 2.51666 33.6032H4.40259L19.4394 39.945C19.5274 39.9821 19.6194 39.9999 19.7102 39.9999C19.9419 39.9999 20.1661 39.8841 20.2977 39.6789L22.3948 36.4114L28.2115 37.6917C28.2619 37.7028 28.3122 37.7082 28.3619 37.7082C28.6648 37.7082 28.9412 37.51 29.0307 37.2084L30.0989 33.6033H31.2794C33.632 33.6033 35.546 31.6893 35.546 29.3368V25.5137H35.7789C37.1035 25.5137 38.181 24.4361 38.181 23.1116V18.1721C38.1808 16.8475 37.1032 15.77 35.7788 15.77ZM30.2575 4.9078L31.1589 7.68038H29.679L28.9307 5.37952L30.2575 4.9078ZM26.7033 3.04288L28.2115 7.68053H17.5583C17.5742 7.48616 17.5841 7.29139 17.5841 7.09725C17.5841 6.82796 17.5676 6.56264 17.5383 6.30093L26.7033 3.04288ZM10.487 1.3957C13.6308 1.3957 16.1884 3.95335 16.1884 7.09717C16.1884 7.29124 16.1783 7.48608 16.1586 7.68045H14.4946C14.5223 7.4885 14.5364 7.29381 14.5364 7.09717C14.5364 4.86429 12.7198 3.04765 10.487 3.04765C8.25407 3.04765 6.43735 4.86429 6.43735 7.09717C6.43735 7.29389 6.45149 7.4885 6.47915 7.68045H4.81525C4.79564 7.486 4.7854 7.29108 4.7854 7.09717C4.7854 3.95335 7.34313 1.3957 10.487 1.3957ZM13.1407 7.0971C13.1407 7.29545 13.1184 7.49038 13.0759 7.68038H7.89782C7.85532 7.49038 7.83305 7.29553 7.83305 7.0971C7.83305 5.63374 9.0236 4.44319 10.487 4.44319C11.9503 4.44319 13.1407 5.63374 13.1407 7.0971ZM19.4404 38.4307L7.99407 33.6033H9.63672L20.9418 36.0916L19.4404 38.4307ZM27.8769 36.189L16.1294 33.6032H28.6429L27.8769 36.189ZM34.1502 29.3368H34.1501C34.1501 30.9197 32.8622 32.2076 31.2793 32.2076H3.21455V9.07608H31.2793C32.8623 9.07608 34.1502 10.364 34.1502 11.9469V15.77H25.5022C24.1776 15.77 23.1001 16.8475 23.1001 18.1721V23.1116C23.1001 24.4361 24.1776 25.5137 25.5022 25.5137H34.1502V29.3368ZM36.7851 23.1117C36.7851 23.6666 36.3335 24.1181 35.7787 24.1181H25.5021C24.9472 24.1181 24.4957 23.6666 24.4957 23.1117V18.1722C24.4957 17.6172 24.9472 17.1657 25.5021 17.1657H35.7787C36.3336 17.1657 36.7851 17.6172 36.7851 18.1722V23.1117Z" fill="#321726"/>
<path d="M28.5135 18.1703C27.1508 18.1703 26.042 19.2791 26.042 20.6418C26.042 22.0046 27.1507 23.1133 28.5135 23.1133C29.8764 23.1133 30.9851 22.0046 30.9851 20.6418C30.9851 19.2791 29.8764 18.1703 28.5135 18.1703ZM28.5135 21.7176C27.9203 21.7176 27.4377 21.235 27.4377 20.6418C27.4377 20.0487 27.9203 19.5661 28.5135 19.5661C29.1068 19.5661 29.5894 20.0487 29.5894 20.6418C29.5894 21.235 29.1068 21.7176 28.5135 21.7176Z" fill="#321726"/>
</svg>
