<svg width="34" height="34" viewBox="0 0 34 34" fill="none" xmlns="http://www.w3.org/2000/svg">
<path d="M13 32H29.1861C29.6356 32 30 31.6132 30 31.1361V3H13V32Z" fill="#E49542"/>
<path d="M28 5V32H29.04C29.5702 32 30 31.5776 30 31.0566V5H28Z" fill="#E28424"/>
<path d="M12.9999 32H4.83277C4.37282 32 4 31.6132 4 31.1361V3H13L12.9999 32Z" fill="#EAB14D"/>
<path d="M8.68427 11.8955C8.65262 11.9608 8.599 12 8.54164 12H0.171011C0.10804 12 0.0501443 11.9528 0.0203618 11.8772C-0.0094207 11.8015 -0.00634896 11.7098 0.0283751 11.6381L4.16861 3.10451C4.20027 3.03924 4.25389 3 4.31125 3H13L8.68427 11.8955Z" fill="#F1CB86"/>
<path d="M17.2772 11.8955C17.3085 11.9608 17.3617 12 17.4185 12H33.8305C33.8929 12 33.9503 11.9528 33.9798 11.8772C34.0093 11.8015 34.0063 11.7098 33.9719 11.6381L29.8687 3.10451C29.8373 3.03924 29.7842 3 29.7274 3H13L17.2772 11.8955Z" fill="#EAB14D"/>
<path d="M23.5762 28.1229H19.1559V25.2565C19.1559 25.1625 19.2321 25.0864 19.326 25.0864H23.4061C23.5 25.0864 23.5762 25.1626 23.5762 25.2565V28.1229H23.5762Z" fill="#DF6B57"/>
<path d="M22.3268 25.0864V28.1229H23.5762V25.2565C23.5762 25.1625 23.5 25.0864 23.4061 25.0864H22.3268Z" fill="#DD544F"/>
<path d="M27.2434 21.0836L25.9599 20.1824C25.7814 20.0571 25.5436 20.0571 25.3651 20.1824L24.0816 21.0836C23.8477 21.2478 23.7912 21.5706 23.9555 21.8045C24.1198 22.0384 24.4424 22.095 24.6763 21.9306L25.1449 21.6016V23.0531C25.1449 23.3389 25.3766 23.5706 25.6624 23.5706C25.9483 23.5706 26.1799 23.3389 26.1799 23.0531V21.6016L26.6486 21.9306C26.739 21.9942 26.8427 22.0247 26.9455 22.0247C27.1084 22.0247 27.2688 21.948 27.3694 21.8045C27.5338 21.5706 27.4773 21.2478 27.2434 21.0836Z" fill="#E7ECF6"/>
<path d="M20.7568 14.8058H15.8512C15.5654 14.8058 15.3337 14.5741 15.3337 14.2883C15.3337 14.0024 15.5654 13.7708 15.8512 13.7708H20.7568C21.0426 13.7708 21.2743 14.0024 21.2743 14.2883C21.2743 14.5741 21.0426 14.8058 20.7568 14.8058Z" fill="#E7ECF6"/>
<path d="M18.8373 16.8531H15.8512C15.5654 16.8531 15.3337 16.6214 15.3337 16.3356C15.3337 16.0498 15.5654 15.8181 15.8512 15.8181H18.8373C19.1231 15.8181 19.3548 16.0498 19.3548 16.3356C19.3548 16.6214 19.1231 16.8531 18.8373 16.8531Z" fill="#E7ECF6"/>
</svg>
