<svg width="20" height="20" viewBox="0 0 20 20" fill="none" xmlns="http://www.w3.org/2000/svg">
<path d="M17.3164 0.429688H2.68359C1.44141 0.429688 0.429688 1.42187 0.429688 2.64062V12.3984C0.429688 13.6172 1.44141 14.6094 2.68359 14.6094H10.3711L15.0469 19.332C15.3047 19.6289 16.3438 19.8047 16.4102 18.7695V14.6133H17.3164C18.5586 14.6133 19.5703 13.6211 19.5703 12.4023V2.64062C19.5703 1.42187 18.5586 0.429688 17.3164 0.429688ZM17.9766 12.4023C17.9766 12.7422 17.6797 13.0195 17.3203 13.0195H15.6172C15.1758 13.0195 14.8203 13.375 14.8203 13.8164V16.8359L11.2734 13.2539C11.125 13.1016 10.918 13.0156 10.707 13.0156H2.68359C2.32031 13.0156 2.02344 12.7383 2.02344 12.3984V2.64062C2.02344 2.30078 2.32031 2.02344 2.68359 2.02344H17.3164C17.6797 2.02344 17.9727 2.30078 17.9727 2.64062V12.4023H17.9766Z" fill="black"/>
<path d="M14.3789 4.39453H5.62109C5.17969 4.39453 4.82422 4.75 4.82422 5.19141C4.82422 5.63281 5.17969 5.98828 5.62109 5.98828H14.3828C14.8242 5.98828 15.1797 5.63281 15.1797 5.19141C15.1758 4.75 14.8203 4.39453 14.3789 4.39453Z" fill="black"/>
<path d="M14.3789 9.00391H5.62109C5.17969 9.00391 4.82422 9.35937 4.82422 9.80078C4.82422 10.2422 5.17969 10.5977 5.62109 10.5977H14.3828C14.8242 10.5977 15.1797 10.2422 15.1797 9.80078C15.1758 9.35937 14.8203 9.00391 14.3789 9.00391Z" fill="black"/>
</svg>
