<svg width="20" height="20" viewBox="0 0 20 20" fill="none" xmlns="http://www.w3.org/2000/svg">
<path d="M17.2871 0.902917C16.8271 0.902917 16.4538 1.27625 16.4538 1.73625V2.43083C14.6637 0.87 12.3808 0 9.94792 0C4.4625 0 0 4.47875 0 9.98333C0 10.4433 0.373333 10.8167 0.833333 10.8167C1.29333 10.8167 1.66667 10.4433 1.66667 9.98333C1.66667 5.3975 5.38167 1.66667 9.94792 1.66667C11.9508 1.66667 13.8325 2.37583 15.3158 3.64958H14.5521C14.0921 3.64958 13.7188 4.02292 13.7188 4.48292C13.7188 4.94292 14.0921 5.31625 14.5521 5.31625H17.2871C17.7471 5.31625 18.1204 4.94292 18.1204 4.48292V1.73625C18.1204 1.27625 17.7471 0.902917 17.2871 0.902917Z" fill="#321726"/>
<path d="M19.1667 9.18335C18.7067 9.18335 18.3334 9.55668 18.3334 10.0167C18.3334 14.6025 14.6184 18.3333 10.0521 18.3333C8.07253 18.3333 6.21086 17.6417 4.73586 16.3958H5.53628C5.99628 16.3958 6.36961 16.0225 6.36961 15.5625C6.36961 15.1025 5.99628 14.7292 5.53628 14.7292H2.80086C2.79336 14.7292 2.7867 14.7313 2.77961 14.7313C2.74795 14.7321 2.7167 14.7363 2.68503 14.7408C2.6617 14.7442 2.63836 14.7463 2.61545 14.7517C2.58795 14.7579 2.56086 14.7679 2.53378 14.7771C2.50878 14.7858 2.48336 14.7933 2.4592 14.8042C2.43628 14.8146 2.41461 14.8279 2.39253 14.8404C2.36628 14.8554 2.34045 14.87 2.31586 14.8875C2.30961 14.8921 2.30253 14.8946 2.29628 14.8996C2.28211 14.9104 2.27128 14.9238 2.25795 14.9354C2.23586 14.9546 2.21378 14.9738 2.19378 14.9954C2.17503 15.0154 2.15878 15.0363 2.14253 15.0575C2.12628 15.0788 2.11045 15.1 2.09586 15.1225C2.08128 15.1458 2.06878 15.17 2.0567 15.1942C2.04461 15.2179 2.03336 15.2421 2.02378 15.2671C2.0142 15.2929 2.0067 15.3188 1.99961 15.3454C1.99295 15.3708 1.98586 15.3963 1.9817 15.4225C1.9767 15.4521 1.97461 15.4817 1.97253 15.5117C1.97128 15.5288 1.96753 15.5454 1.96753 15.5629V18.3096C1.96753 18.7696 2.34086 19.1429 2.80086 19.1429C3.26086 19.1429 3.6342 18.7696 3.6342 18.3096V17.6471C5.41045 19.1592 7.6592 20 10.0521 20C15.5375 20 20 15.5213 20 10.0167C20 9.55668 19.6267 9.18335 19.1667 9.18335Z" fill="#321726"/>
</svg>
