<svg width="36" height="36" viewBox="0 0 36 36" fill="none" xmlns="http://www.w3.org/2000/svg">
<path d="M31.1695 0.773438H4.83047C2.59453 0.773438 0.773438 2.55937 0.773438 4.75312V22.3172C0.773438 24.5109 2.59453 26.2969 4.83047 26.2969H18.668L27.0844 34.7977C27.5484 35.332 29.4188 35.6484 29.5383 33.7852V26.3039H31.1695C33.4055 26.3039 35.2266 24.518 35.2266 22.3242V4.75312C35.2266 2.55937 33.4055 0.773438 31.1695 0.773438ZM32.3578 22.3242C32.3578 22.9359 31.8234 23.4352 31.1766 23.4352H28.1109C27.3164 23.4352 26.6766 24.075 26.6766 24.8695V30.3047L20.2922 23.857C20.025 23.5828 19.6523 23.4281 19.2727 23.4281H4.83047C4.17656 23.4281 3.64219 22.9289 3.64219 22.3172V4.75312C3.64219 4.14141 4.17656 3.64219 4.83047 3.64219H31.1695C31.8234 3.64219 32.3508 4.14141 32.3508 4.75312V22.3242H32.3578Z" fill="white"/>
<path d="M25.882 7.91016H10.118C9.32344 7.91016 8.68359 8.55 8.68359 9.34453C8.68359 10.1391 9.32344 10.7789 10.118 10.7789H25.8891C26.6836 10.7789 27.3234 10.1391 27.3234 9.34453C27.3164 8.55 26.6766 7.91016 25.882 7.91016Z" fill="white"/>
<path d="M25.882 16.207H10.118C9.32344 16.207 8.68359 16.8469 8.68359 17.6414C8.68359 18.4359 9.32344 19.0758 10.118 19.0758H25.8891C26.6836 19.0758 27.3234 18.4359 27.3234 17.6414C27.3164 16.8469 26.6766 16.207 25.882 16.207Z" fill="white"/>
</svg>
