<svg width="16" height="16" viewBox="0 0 16 16" fill="none" xmlns="http://www.w3.org/2000/svg">
<g clip-path="url(#clip0)">
<path d="M13.9061 16.0009L9.78375 11.8786C8.7814 12.4993 7.62449 12.8326 6.41587 12.8327C6.41572 12.8327 6.41587 12.8327 6.41572 12.8327C4.7021 12.8327 3.09087 12.1653 1.87918 10.9536C0.667335 9.74184 0 8.13054 0 6.4167C7.43866e-05 4.70293 0.667409 3.09178 1.8791 1.88008C3.09087 0.668311 4.7021 0.000976562 6.41587 0.000976562C8.12963 0.000976562 9.74079 0.668311 10.9525 1.88008C12.1644 3.09185 12.8317 4.70308 12.8317 6.41692C12.8317 7.62555 12.4984 8.78238 11.8777 9.7848L16 13.907L13.9061 16.0009ZM8.85872 3.97392C8.2062 3.32148 7.33865 2.96214 6.41587 2.96214C5.49301 2.96214 4.62546 3.32148 3.97302 3.97392C3.3205 4.62636 2.96116 5.49391 2.96116 6.41677C2.96109 7.33963 3.32043 8.20718 3.97302 8.85969C4.62546 9.51221 5.49301 9.87155 6.41579 9.87155C7.33865 9.87147 8.2062 9.51221 8.85872 8.85969C9.51116 8.20726 9.87057 7.33978 9.87057 6.41692C9.87057 5.49406 9.51123 4.62643 8.85872 3.97392Z" fill="white"/>
</g>
<defs>
<clipPath id="clip0">
<rect width="16" height="16" fill="white" transform="matrix(-1 0 0 1 16 0)"/>
</clipPath>
</defs>
</svg>
