<svg width="20" height="20" viewBox="0 0 20 20" fill="none" xmlns="http://www.w3.org/2000/svg">
<g clip-path="url(#clip0)">
<path d="M17.7391 7.05085L19.8991 3.86398C20.0021 3.71202 20.0279 3.52058 19.9688 3.34675C19.9097 3.17292 19.7727 3.03683 19.5984 2.97906L12.5281 0.635312C12.2776 0.552304 12.0026 0.646913 11.8562 0.866483L10 3.65081L8.1438 0.866444C7.99743 0.646874 7.72239 0.552265 7.47188 0.635273L0.401583 2.97902C0.227326 3.03679 0.0902166 3.17289 0.0311542 3.34671C-0.0279082 3.52054 -0.00208791 3.71199 0.10092 3.86398L2.26092 7.05085L0.100959 10.2377C-0.00204885 10.3897 -0.0278691 10.5812 0.0311933 10.755C0.0902557 10.9288 0.227365 11.0649 0.401622 11.1227L2.38283 11.7794V16.4649C2.38283 16.7171 2.5442 16.941 2.78345 17.0207L9.81219 19.3636C9.92996 19.4035 10.0611 19.4062 10.1872 19.3639L17.2165 17.0207C17.4558 16.941 17.6172 16.7171 17.6172 16.4649V11.7794L19.5984 11.1226C19.7727 11.0649 19.9098 10.9288 19.9688 10.7549C20.0279 10.5811 20.0021 10.3897 19.8991 10.2377L17.7391 7.05085ZM12.5835 1.88828L18.4944 3.84773L16.7953 6.3546L10.913 4.39386L12.5835 1.88828ZM1.50557 3.84769L7.41653 1.88824L9.08692 4.39382L3.2047 6.35456L1.50557 3.84769ZM1.5056 10.254L3.2047 7.7471L9.08696 9.70783L7.41657 12.2134C6.41962 11.8829 2.18084 10.4778 1.5056 10.254ZM9.41407 17.9957L3.5547 16.0425V12.1679L7.47188 13.4664C7.72079 13.5489 7.99649 13.4562 8.1438 13.2352L9.41407 11.3298V17.9957ZM10 8.77694L4.82165 7.05081L10 5.32472L15.1784 7.05081L10 8.77694ZM16.4453 16.0425L10.5859 17.9957V11.3298L11.8562 13.2352C12.0036 13.4563 12.2794 13.5488 12.5281 13.4664L16.4453 12.1679V16.0425ZM12.5835 12.2135L10.913 9.70787L16.7953 7.74713L18.4944 10.254C18.3937 10.2874 12.7578 12.1552 12.5835 12.2135Z" fill="black"/>
</g>
<defs>
<clipPath id="clip0">
<rect width="20" height="20" fill="white"/>
</clipPath>
</defs>
</svg>
