<svg width="20" height="20" viewBox="0 0 20 20" fill="none" xmlns="http://www.w3.org/2000/svg">
<path d="M17.2527 2.79277V0.540039H13.7371V2.79277H6.26328V0.540039H2.74766V2.79277H0V19.4596H20V2.79277H17.2527ZM18.8281 18.2877H1.17188V7.29785H18.8281V18.2877ZM14.909 1.71191H16.0809V3.87363H14.909V1.71191ZM3.91953 1.71191H5.09141V3.87363H3.91953V1.71191ZM1.17188 3.96465H2.74766V5.04551H6.26328V3.96465H13.7371V5.04551H17.2527V3.96465H18.8281V6.10019H1.17188V3.96465Z" fill="black"/>
<path d="M10 9.45996H6.32812V16.1264H10V9.45996ZM8.82812 14.9545H7.5V10.6318H8.82812V14.9545Z" fill="black"/>
<path d="M12.3045 11.1084V16.126H13.4764V9.69399L12.4764 9.27954L10.8096 10.9463L11.6381 11.7749L12.3045 11.1084Z" fill="black"/>
</svg>
