<svg width="22" height="22" viewBox="0 0 22 22" fill="none" xmlns="http://www.w3.org/2000/svg">
<g clip-path="url(#clip0)">
<path d="M13.2003 0H8.79975C4.55336 0 1.09875 3.4546 1.09875 7.70099V11.0014C1.09875 13.9826 2.81811 16.6881 5.49932 17.9607V21.6361C5.49932 21.9552 5.89854 22.1221 6.12533 21.8954L9.3183 18.7024H13.2003C17.4466 18.7024 20.9013 15.2478 20.9013 11.0014V7.70099C20.9013 3.4546 17.4466 0 13.2003 0Z" fill="black"/>
<path d="M9.00499 7.89924L9.36352 7.54067L9.3639 7.54028L9.00494 7.8992L9.00499 7.89924Z" fill="#E5E5E5"/>
<path d="M12.9938 11.1704L12.6317 11.5325L12.6318 11.5325L12.9938 11.1705L12.9938 11.1704Z" fill="#E5E5E5"/>
<path d="M11.7335 6.23389C11.531 6.23389 11.3668 6.39807 11.3668 6.60058C11.3668 6.80309 11.531 6.96728 11.7335 6.96728C12.5424 6.96728 13.2004 7.6253 13.2004 8.43414C13.2004 8.63395 13.3673 8.80084 13.5671 8.80084C13.7669 8.80084 13.9338 8.63395 13.9338 8.43414C13.9338 7.22088 12.9468 6.23389 11.7335 6.23389Z" fill="white"/>
<path d="M11.7335 4.76709C11.5978 4.76709 11.4609 4.77461 11.3265 4.78943C11.1252 4.81165 10.98 4.99285 11.0022 5.1942C11.0245 5.39555 11.206 5.54036 11.407 5.51848C11.5148 5.50658 11.6246 5.50052 11.7335 5.50052C13.3511 5.50052 14.6672 6.81657 14.6672 8.43421C14.6672 8.54314 14.6611 8.65297 14.6492 8.76073C14.6273 8.95929 14.7749 9.14363 14.9735 9.1655C15.1721 9.18737 15.3563 9.03986 15.3783 8.84121C15.3931 8.70681 15.4006 8.56991 15.4006 8.43421C15.4006 6.41219 13.7556 4.76709 11.7335 4.76709Z" fill="white"/>
<path d="M11.734 3.30029C11.603 3.30029 11.4702 3.30528 11.3396 3.3152C11.1377 3.3305 10.9863 3.50667 11.0016 3.70858C11.0169 3.91054 11.1936 4.06187 11.395 4.04657C11.5073 4.03802 11.6214 4.03373 11.734 4.03373C14.1605 4.03373 16.1346 6.0078 16.1346 8.43429C16.1346 8.77761 16.095 9.11938 16.0168 9.45007C15.972 9.63956 16.0887 9.83653 16.2766 9.888C16.4743 9.94214 16.6835 9.81818 16.7306 9.61876C16.8218 9.23286 16.868 8.83437 16.868 8.43429C16.868 5.60338 14.5649 3.30029 11.734 3.30029Z" fill="white"/>
<path d="M17.1873 13.9861C16.9258 14.7224 15.8883 15.3331 15.0606 15.5114C14.4944 15.6316 13.7549 15.7276 11.2652 14.6981C8.08072 13.3821 6.02996 10.1545 5.87012 9.94508C5.71706 9.73566 4.58331 8.236 4.58331 6.68499C4.58331 5.13399 5.37301 4.37875 5.69132 4.0545C5.95275 3.78834 6.38484 3.66675 6.79933 3.66675C6.93343 3.66675 7.05399 3.6735 7.16235 3.67891C7.48066 3.69242 7.6405 3.71133 7.85045 4.21257C8.11188 4.84081 8.74851 6.39182 8.82436 6.55124C8.90157 6.71066 8.97878 6.92683 8.87042 7.13624C8.76883 7.35241 8.67943 7.44834 8.51959 7.63208C8.35976 7.81582 8.20805 7.95633 8.04821 8.15358C7.90192 8.32517 7.73667 8.50891 7.92089 8.82641C8.1051 9.13715 8.74174 10.1734 9.67907 11.0057C10.8887 12.0797 11.8694 12.4229 12.2202 12.5688C12.4816 12.6769 12.7931 12.6512 12.9841 12.4486C13.2266 12.1878 13.526 11.7555 13.8307 11.3299C14.0474 11.0246 14.3211 10.9867 14.6082 11.0948C14.9008 11.1961 16.449 11.9595 16.7674 12.1176C17.0857 12.277 17.2956 12.3526 17.3728 12.4864C17.4487 12.6202 17.4487 13.2484 17.1873 13.9861Z" fill="#FAFAFA"/>
</g>
<defs>
<clipPath id="clip0">
<rect width="22" height="22" fill="white"/>
</clipPath>
</defs>
</svg>
