<svg width="23" height="22" viewBox="0 0 23 22" fill="none" xmlns="http://www.w3.org/2000/svg">
<g clip-path="url(#clip0)">
<path d="M11.7803 0.733398H11.7752C6.11443 0.733398 1.51111 5.338 1.51111 11.0001C1.51111 13.2459 2.23491 15.3275 3.46563 17.0176L2.18614 20.8317L6.13239 19.5702C7.75581 20.6456 9.69236 21.2667 11.7803 21.2667C17.4411 21.2667 22.0444 16.6608 22.0444 11.0001C22.0444 5.33928 17.4411 0.733398 11.7803 0.733398Z" fill="black"/>
<path d="M18.1812 15.5335C17.9158 16.2829 16.8625 16.9044 16.0224 17.0859C15.4477 17.2082 14.6969 17.3059 12.1697 16.2581C8.93703 14.9189 6.85528 11.634 6.69303 11.4209C6.53765 11.2077 5.38678 9.6815 5.38678 8.103C5.38678 6.5245 6.1884 5.75587 6.51153 5.42587C6.7769 5.155 7.21553 5.03125 7.63628 5.03125C7.7724 5.03125 7.89478 5.03813 8.00478 5.04363C8.3279 5.05738 8.49015 5.07663 8.70328 5.58675C8.96865 6.22612 9.6149 7.80462 9.6919 7.96687C9.77028 8.12912 9.84866 8.34912 9.73866 8.56225C9.63553 8.78225 9.54478 8.87987 9.38253 9.06687C9.22028 9.25387 9.06628 9.39687 8.90403 9.59762C8.75553 9.77225 8.58778 9.95925 8.77478 10.2824C8.96178 10.5986 9.60803 11.6532 10.5595 12.5002C11.7874 13.5934 12.7829 13.9426 13.139 14.0911C13.4044 14.2011 13.7207 14.175 13.9145 13.9687C14.1607 13.7034 14.4645 13.2634 14.7739 12.8302C14.9939 12.5195 15.2717 12.481 15.5632 12.591C15.8602 12.6941 17.4318 13.471 17.7549 13.6319C18.078 13.7941 18.2912 13.8711 18.3695 14.0072C18.4465 14.1434 18.4465 14.7827 18.1812 15.5335Z" fill="#FAFAFA"/>
</g>
<defs>
<clipPath id="clip0">
<rect width="22" height="22" fill="white" transform="translate(0.777771)"/>
</clipPath>
</defs>
</svg>
