<svg width="22" height="22" viewBox="0 0 22 22" fill="none" xmlns="http://www.w3.org/2000/svg">
<g clip-path="url(#clip0)">
<path d="M21.9876 9.15848C21.9796 8.71657 21.9446 8.15783 21.8834 7.48277C21.8219 6.80733 21.7339 6.20369 21.6194 5.67183C21.4884 5.07443 21.204 4.57103 20.7662 4.16179C20.3284 3.75248 19.8189 3.5152 19.2376 3.44963C17.4205 3.24516 14.6746 3.14282 10.9999 3.14282C7.32519 3.14282 4.57929 3.24516 2.76232 3.44963C2.18114 3.51516 1.67361 3.75248 1.23995 4.16179C0.806122 4.5709 0.523741 5.0743 0.392763 5.67183C0.270126 6.20386 0.177934 6.80746 0.116573 7.48277C0.0552981 8.15783 0.020468 8.71636 0.012341 9.15848C0.00404201 9.60044 0 10.2142 0 11C0 11.7857 0.00404201 12.3997 0.012384 12.8415C0.020511 13.2837 0.0553411 13.8422 0.116616 14.5172C0.177977 15.1926 0.265998 15.7962 0.380594 16.3282C0.511572 16.9257 0.795931 17.4291 1.2338 17.8381C1.67176 18.2474 2.18135 18.4847 2.76237 18.5502C4.57934 18.7549 7.32506 18.8572 11 18.8572C14.675 18.8572 17.4205 18.7549 19.2376 18.5502C19.8189 18.4847 20.3262 18.2474 20.76 17.8381C21.1939 17.429 21.4761 16.9254 21.6071 16.3282C21.7298 15.7962 21.8219 15.1926 21.8834 14.5172C21.9446 13.8422 21.9794 13.2835 21.9876 12.8415C21.9958 12.3997 22 11.7857 22 11C22 10.2142 21.9959 9.60044 21.9876 9.15848ZM15.346 11.663L9.06037 15.5914C8.94573 15.6732 8.80646 15.7141 8.64284 15.7141C8.52016 15.7141 8.39331 15.6813 8.26238 15.6158C7.99234 15.4687 7.85736 15.2394 7.85736 14.9285V7.07156C7.85736 6.76072 7.99238 6.53144 8.26238 6.38416C8.54072 6.23663 8.80663 6.24489 9.06037 6.40872L15.346 10.3372C15.5915 10.4761 15.7142 10.6972 15.7142 11C15.7142 11.3028 15.5914 11.524 15.346 11.663Z" fill="black"/>
</g>
<defs>
<clipPath id="clip0">
<rect width="22" height="22" fill="white"/>
</clipPath>
</defs>
</svg>
